G04*
G04 #@! TF.GenerationSoftware,Altium Limited,Altium Designer,22.11.1 (43)*
G04*
G04 Layer_Color=16711935*
%FSLAX26Y26*%
%MOIN*%
G70*
G04*
G04 #@! TF.SameCoordinates,AEC19687-DD56-4148-9BB7-ADA7E4DEB906*
G04*
G04*
G04 #@! TF.FilePolarity,Negative*
G04*
G01*
G75*
%ADD74C,0.105441*%
%ADD75C,0.072961*%
%ADD76C,0.066189*%
%ADD77R,0.066189X0.066189*%
%ADD78C,0.136346*%
%ADD79C,0.070992*%
%ADD80R,0.102488X0.102488*%
%ADD81C,0.102488*%
%ADD82C,0.094614*%
%ADD83C,0.094614*%
%ADD84C,0.126110*%
%ADD85R,0.078866X0.078866*%
%ADD86C,0.078866*%
%ADD87O,0.078866X0.220598*%
%ADD88O,0.220598X0.078866*%
%ADD89O,0.256031X0.078866*%
D74*
X3110000Y1940000D02*
D03*
X3730079D02*
D03*
D75*
X3159016Y2219921D02*
D03*
X3259016D02*
D03*
X3581063D02*
D03*
X3681063D02*
D03*
D76*
X3245039Y1710079D02*
D03*
X3295039Y1810079D02*
D03*
X3345039Y1710079D02*
D03*
X3395039Y1810079D02*
D03*
X3445039Y1710079D02*
D03*
X3495039Y1810079D02*
D03*
X3545039Y1710079D02*
D03*
D77*
X3595039Y1810079D02*
D03*
D78*
X3195039Y2060079D02*
D03*
X3645039D02*
D03*
D79*
X1370000Y1030000D02*
D03*
X1495984Y833150D02*
D03*
Y1226850D02*
D03*
D80*
X1633858Y2200000D02*
D03*
X2500000D02*
D03*
X666850D02*
D03*
D81*
X1437008D02*
D03*
X2106299D02*
D03*
X2303150D02*
D03*
X470000D02*
D03*
X273150D02*
D03*
D82*
X233779Y1199213D02*
D03*
D83*
X706221D02*
D03*
D84*
X233779Y1679527D02*
D03*
X706221D02*
D03*
X469999Y1120473D02*
D03*
D85*
X3710000Y1140000D02*
D03*
X1200000Y1200000D02*
D03*
D86*
X3710000Y1340000D02*
D03*
Y1240000D02*
D03*
X1200000Y800000D02*
D03*
Y900000D02*
D03*
Y1000000D02*
D03*
Y1100000D02*
D03*
D87*
X425039Y191890D02*
D03*
D88*
X240000Y73779D02*
D03*
D89*
Y310000D02*
D03*
M02*
