G04*
G04 #@! TF.GenerationSoftware,Altium Limited,Altium Designer,22.11.1 (43)*
G04*
G04 Layer_Color=8421504*
%FSLAX44Y44*%
%MOMM*%
G71*
G04*
G04 #@! TF.SameCoordinates,B420DA26-4F65-45AB-BA35-ACA1F2937355*
G04*
G04*
G04 #@! TF.FilePolarity,Positive*
G04*
G01*
G75*
%ADD15R,1.9600X1.9600*%
G04:AMPARAMS|DCode=16|XSize=0.84mm|YSize=0.27mm|CornerRadius=0.0338mm|HoleSize=0mm|Usage=FLASHONLY|Rotation=180.000|XOffset=0mm|YOffset=0mm|HoleType=Round|Shape=RoundedRectangle|*
%AMROUNDEDRECTD16*
21,1,0.8400,0.2025,0,0,180.0*
21,1,0.7725,0.2700,0,0,180.0*
1,1,0.0675,-0.3863,0.1013*
1,1,0.0675,0.3863,0.1013*
1,1,0.0675,0.3863,-0.1013*
1,1,0.0675,-0.3863,-0.1013*
%
%ADD16ROUNDEDRECTD16*%
G04:AMPARAMS|DCode=17|XSize=0.84mm|YSize=0.27mm|CornerRadius=0.0338mm|HoleSize=0mm|Usage=FLASHONLY|Rotation=270.000|XOffset=0mm|YOffset=0mm|HoleType=Round|Shape=RoundedRectangle|*
%AMROUNDEDRECTD17*
21,1,0.8400,0.2025,0,0,270.0*
21,1,0.7725,0.2700,0,0,270.0*
1,1,0.0675,-0.1013,-0.3863*
1,1,0.0675,-0.1013,0.3863*
1,1,0.0675,0.1013,0.3863*
1,1,0.0675,0.1013,-0.3863*
%
%ADD17ROUNDEDRECTD17*%
%ADD18R,1.6000X3.5000*%
%ADD19R,0.6500X0.9000*%
%ADD20R,0.7000X1.0000*%
%ADD21R,0.7500X0.7000*%
%ADD22R,1.6000X1.2500*%
%ADD23R,1.5500X0.3000*%
%ADD24R,0.3000X1.5500*%
%ADD25R,3.0000X3.0500*%
%ADD26R,0.8000X0.9000*%
%ADD27R,1.1000X0.6000*%
%ADD28R,2.4000X1.5000*%
%ADD29R,2.2000X6.3000*%
%ADD30R,0.8400X0.4200*%
G04:AMPARAMS|DCode=31|XSize=2.18mm|YSize=3.12mm|CornerRadius=0.2725mm|HoleSize=0mm|Usage=FLASHONLY|Rotation=180.000|XOffset=0mm|YOffset=0mm|HoleType=Round|Shape=RoundedRectangle|*
%AMROUNDEDRECTD31*
21,1,2.1800,2.5750,0,0,180.0*
21,1,1.6350,3.1200,0,0,180.0*
1,1,0.5450,-0.8175,1.2875*
1,1,0.5450,0.8175,1.2875*
1,1,0.5450,0.8175,-1.2875*
1,1,0.5450,-0.8175,-1.2875*
%
%ADD31ROUNDEDRECTD31*%
%ADD32R,1.0000X1.6000*%
%ADD33R,0.5900X0.4500*%
G04:AMPARAMS|DCode=34|XSize=4.2mm|YSize=4.2mm|CornerRadius=0.21mm|HoleSize=0mm|Usage=FLASHONLY|Rotation=0.000|XOffset=0mm|YOffset=0mm|HoleType=Round|Shape=RoundedRectangle|*
%AMROUNDEDRECTD34*
21,1,4.2000,3.7800,0,0,0.0*
21,1,3.7800,4.2000,0,0,0.0*
1,1,0.4200,1.8900,-1.8900*
1,1,0.4200,-1.8900,-1.8900*
1,1,0.4200,-1.8900,1.8900*
1,1,0.4200,1.8900,1.8900*
%
%ADD34ROUNDEDRECTD34*%
G04:AMPARAMS|DCode=35|XSize=0.8mm|YSize=0.3mm|CornerRadius=0.075mm|HoleSize=0mm|Usage=FLASHONLY|Rotation=270.000|XOffset=0mm|YOffset=0mm|HoleType=Round|Shape=RoundedRectangle|*
%AMROUNDEDRECTD35*
21,1,0.8000,0.1500,0,0,270.0*
21,1,0.6500,0.3000,0,0,270.0*
1,1,0.1500,-0.0750,-0.3250*
1,1,0.1500,-0.0750,0.3250*
1,1,0.1500,0.0750,0.3250*
1,1,0.1500,0.0750,-0.3250*
%
%ADD35ROUNDEDRECTD35*%
G04:AMPARAMS|DCode=36|XSize=0.8mm|YSize=0.3mm|CornerRadius=0.075mm|HoleSize=0mm|Usage=FLASHONLY|Rotation=180.000|XOffset=0mm|YOffset=0mm|HoleType=Round|Shape=RoundedRectangle|*
%AMROUNDEDRECTD36*
21,1,0.8000,0.1500,0,0,180.0*
21,1,0.6500,0.3000,0,0,180.0*
1,1,0.1500,-0.3250,0.0750*
1,1,0.1500,0.3250,0.0750*
1,1,0.1500,0.3250,-0.0750*
1,1,0.1500,-0.3250,-0.0750*
%
%ADD36ROUNDEDRECTD36*%
%ADD37R,0.6000X0.8000*%
%ADD38R,1.0000X0.7000*%
%ADD39R,1.4000X1.2000*%
%ADD40R,1.7000X2.5000*%
G36*
X248940Y393986D02*
X259060D01*
Y378174D01*
X248940D01*
Y393986D01*
D02*
G37*
D15*
X889000Y406400D02*
D03*
D16*
X864650Y388900D02*
D03*
Y393900D02*
D03*
Y398900D02*
D03*
Y403900D02*
D03*
Y408900D02*
D03*
Y413900D02*
D03*
Y418900D02*
D03*
Y423900D02*
D03*
X913350D02*
D03*
Y418900D02*
D03*
Y413900D02*
D03*
Y408900D02*
D03*
Y403900D02*
D03*
Y398900D02*
D03*
Y393900D02*
D03*
Y388900D02*
D03*
D17*
X906500Y382050D02*
D03*
X901500D02*
D03*
X896500D02*
D03*
X891500D02*
D03*
X886500D02*
D03*
X881500D02*
D03*
X876500D02*
D03*
X871500D02*
D03*
Y430750D02*
D03*
X876500D02*
D03*
X881500D02*
D03*
X886500D02*
D03*
X891500D02*
D03*
X896500D02*
D03*
X901500D02*
D03*
X906500D02*
D03*
D18*
X167640Y322520D02*
D03*
Y378520D02*
D03*
D19*
X754750Y487680D02*
D03*
X769250D02*
D03*
X667650Y386080D02*
D03*
X653150D02*
D03*
X551550Y426720D02*
D03*
X566050D02*
D03*
Y386080D02*
D03*
X551550D02*
D03*
X653150Y406400D02*
D03*
X667650D02*
D03*
X957950Y304800D02*
D03*
X972450D02*
D03*
X1023250Y365760D02*
D03*
X1008750D02*
D03*
X856350Y203200D02*
D03*
X870850D02*
D03*
X856350Y223520D02*
D03*
X870850D02*
D03*
X856350Y243840D02*
D03*
X870850D02*
D03*
X566050Y121920D02*
D03*
X551550D02*
D03*
X754380Y345440D02*
D03*
X768880D02*
D03*
X754750Y325120D02*
D03*
X769250D02*
D03*
X754750Y406400D02*
D03*
X769250D02*
D03*
X754380Y365760D02*
D03*
X768880D02*
D03*
X754750Y386080D02*
D03*
X769250D02*
D03*
X754750Y447040D02*
D03*
X769250D02*
D03*
X754750Y426720D02*
D03*
X769250D02*
D03*
X616850Y487680D02*
D03*
X602350D02*
D03*
X551550Y101600D02*
D03*
X566050D02*
D03*
X551550Y81280D02*
D03*
X566050D02*
D03*
X399150Y528320D02*
D03*
X413650D02*
D03*
Y508000D02*
D03*
X399150D02*
D03*
X413650Y487680D02*
D03*
X399150D02*
D03*
X362850Y447040D02*
D03*
X348350D02*
D03*
X413650Y467360D02*
D03*
X399150D02*
D03*
X348350D02*
D03*
X362850D02*
D03*
X921650Y20320D02*
D03*
X907150D02*
D03*
X1110350Y264160D02*
D03*
X1124850D02*
D03*
X1110350Y284480D02*
D03*
X1124850D02*
D03*
X1110350Y243840D02*
D03*
X1124850D02*
D03*
X1110350Y142240D02*
D03*
X1124850D02*
D03*
X1023250Y203200D02*
D03*
X1008750D02*
D03*
D20*
X826370Y431800D02*
D03*
X839870D02*
D03*
X826370Y452120D02*
D03*
X839870D02*
D03*
X565550Y406400D02*
D03*
X552050D02*
D03*
X971950Y325120D02*
D03*
X958450D02*
D03*
X1009250Y304800D02*
D03*
X1022750D02*
D03*
X1009250Y325120D02*
D03*
X1022750D02*
D03*
X971950Y365760D02*
D03*
X958450D02*
D03*
X971950Y345440D02*
D03*
X958450D02*
D03*
X944010Y558800D02*
D03*
X930510D02*
D03*
X879710D02*
D03*
X893210D02*
D03*
X399650Y447040D02*
D03*
X413150D02*
D03*
X247250Y353060D02*
D03*
X260750D02*
D03*
Y330200D02*
D03*
X247250D02*
D03*
X856850Y142240D02*
D03*
X870350D02*
D03*
X819550Y60960D02*
D03*
X806050D02*
D03*
Y40640D02*
D03*
X819550D02*
D03*
X755250Y22860D02*
D03*
X768750D02*
D03*
X653650Y20320D02*
D03*
X667150D02*
D03*
X653650Y60960D02*
D03*
X667150D02*
D03*
X870350Y264160D02*
D03*
X856850D02*
D03*
X667150Y345440D02*
D03*
X653650D02*
D03*
X602850Y20320D02*
D03*
X616350D02*
D03*
X667150Y325120D02*
D03*
X653650D02*
D03*
X1110850Y101600D02*
D03*
X1124350D02*
D03*
Y60960D02*
D03*
X1110850D02*
D03*
Y182880D02*
D03*
X1124350D02*
D03*
X1009250Y223520D02*
D03*
X1022750D02*
D03*
X1110850Y20320D02*
D03*
X1124350D02*
D03*
Y40640D02*
D03*
X1110850D02*
D03*
Y223520D02*
D03*
X1124350D02*
D03*
X1110850Y203200D02*
D03*
X1124350D02*
D03*
X1110850Y162560D02*
D03*
X1124350D02*
D03*
X921150Y40640D02*
D03*
X907650D02*
D03*
Y81280D02*
D03*
X921150D02*
D03*
Y60960D02*
D03*
X907650D02*
D03*
Y142240D02*
D03*
X921150D02*
D03*
Y121920D02*
D03*
X907650D02*
D03*
X1009250Y182880D02*
D03*
X1022750D02*
D03*
X971950Y203200D02*
D03*
X958450D02*
D03*
X971950Y182880D02*
D03*
X958450D02*
D03*
X565550Y142240D02*
D03*
X552050D02*
D03*
X616350Y60960D02*
D03*
X602850D02*
D03*
D21*
X1023250Y345440D02*
D03*
X1008750D02*
D03*
X921650Y162560D02*
D03*
X907150D02*
D03*
Y101600D02*
D03*
X921650D02*
D03*
D22*
X930360Y529160D02*
D03*
X893360Y507160D02*
D03*
Y529160D02*
D03*
X930360Y507160D02*
D03*
X729700Y44020D02*
D03*
X692700Y22020D02*
D03*
Y44020D02*
D03*
X729700Y22020D02*
D03*
D23*
X633700Y143200D02*
D03*
Y148200D02*
D03*
Y153200D02*
D03*
Y158200D02*
D03*
Y163200D02*
D03*
Y168200D02*
D03*
Y173200D02*
D03*
Y178200D02*
D03*
Y183200D02*
D03*
Y188200D02*
D03*
Y193200D02*
D03*
Y198200D02*
D03*
Y203200D02*
D03*
Y208200D02*
D03*
Y213200D02*
D03*
Y218200D02*
D03*
Y223200D02*
D03*
Y228200D02*
D03*
Y233200D02*
D03*
Y238200D02*
D03*
Y243200D02*
D03*
Y248200D02*
D03*
Y253200D02*
D03*
Y258200D02*
D03*
Y263200D02*
D03*
X788700D02*
D03*
Y258200D02*
D03*
Y253200D02*
D03*
Y248200D02*
D03*
Y243200D02*
D03*
Y238200D02*
D03*
Y233200D02*
D03*
Y228200D02*
D03*
Y223200D02*
D03*
Y218200D02*
D03*
Y213200D02*
D03*
Y208200D02*
D03*
Y203200D02*
D03*
Y198200D02*
D03*
Y193200D02*
D03*
Y188200D02*
D03*
Y183200D02*
D03*
Y178200D02*
D03*
Y173200D02*
D03*
Y168200D02*
D03*
Y163200D02*
D03*
Y158200D02*
D03*
Y153200D02*
D03*
Y148200D02*
D03*
Y143200D02*
D03*
D24*
X651200Y280700D02*
D03*
X656200D02*
D03*
X661200D02*
D03*
X666200D02*
D03*
X671200D02*
D03*
X676200D02*
D03*
X681200D02*
D03*
X686200D02*
D03*
X691200D02*
D03*
X696200D02*
D03*
X701200D02*
D03*
X706200D02*
D03*
X711200D02*
D03*
X716200D02*
D03*
X721200D02*
D03*
X726200D02*
D03*
X731200D02*
D03*
X736200D02*
D03*
X741200D02*
D03*
X746200D02*
D03*
X751200D02*
D03*
X756200D02*
D03*
X761200D02*
D03*
X766200D02*
D03*
X771200D02*
D03*
Y125700D02*
D03*
X766200D02*
D03*
X761200D02*
D03*
X756200D02*
D03*
X751200D02*
D03*
X746200D02*
D03*
X741200D02*
D03*
X736200D02*
D03*
X731200D02*
D03*
X726200D02*
D03*
X721200D02*
D03*
X716200D02*
D03*
X711200D02*
D03*
X706200D02*
D03*
X701200D02*
D03*
X696200D02*
D03*
X691200D02*
D03*
X686200D02*
D03*
X681200D02*
D03*
X676200D02*
D03*
X671200D02*
D03*
X666200D02*
D03*
X661200D02*
D03*
X656200D02*
D03*
X651200D02*
D03*
D25*
X513080Y570570D02*
D03*
Y486070D02*
D03*
D26*
X415900Y558960D02*
D03*
X406400Y578960D02*
D03*
X396900Y558960D02*
D03*
X365100Y498000D02*
D03*
X355600Y518000D02*
D03*
X346100Y498000D02*
D03*
D27*
X617030Y45140D02*
D03*
Y36140D02*
D03*
D28*
X561530Y40640D02*
D03*
D29*
X337640Y396240D02*
D03*
X378640D02*
D03*
D30*
X239650Y376580D02*
D03*
Y386080D02*
D03*
Y395580D02*
D03*
X268350D02*
D03*
Y386080D02*
D03*
Y376580D02*
D03*
D31*
X392990Y325120D02*
D03*
X323290D02*
D03*
D32*
X239000Y304800D02*
D03*
X269000D02*
D03*
D33*
X366850Y548640D02*
D03*
X344350D02*
D03*
D34*
X1018420Y124340D02*
D03*
D35*
X995920Y153840D02*
D03*
X1000920D02*
D03*
X1005920D02*
D03*
X1010920D02*
D03*
X1015920D02*
D03*
X1020920D02*
D03*
X1025920D02*
D03*
X1030920D02*
D03*
X1035920D02*
D03*
X1040920D02*
D03*
Y94840D02*
D03*
X1035920D02*
D03*
X1030920D02*
D03*
X1025920D02*
D03*
X1020920D02*
D03*
X1015920D02*
D03*
X1010920D02*
D03*
X1005920D02*
D03*
X1000920D02*
D03*
X995920D02*
D03*
D36*
X1047920Y146840D02*
D03*
Y141840D02*
D03*
Y136840D02*
D03*
Y131840D02*
D03*
Y126840D02*
D03*
Y121840D02*
D03*
Y116840D02*
D03*
Y111840D02*
D03*
Y106840D02*
D03*
Y101840D02*
D03*
X988920D02*
D03*
Y106840D02*
D03*
Y111840D02*
D03*
Y116840D02*
D03*
Y121840D02*
D03*
Y126840D02*
D03*
Y131840D02*
D03*
Y136840D02*
D03*
Y141840D02*
D03*
Y146840D02*
D03*
D37*
X1110600Y81280D02*
D03*
X1124600D02*
D03*
X1110600Y121920D02*
D03*
X1124600D02*
D03*
D38*
X1051560Y47390D02*
D03*
Y33890D02*
D03*
X975360D02*
D03*
Y47390D02*
D03*
D39*
X1005000Y49140D02*
D03*
X1027000D02*
D03*
X1005000Y32140D02*
D03*
X1027000D02*
D03*
D40*
X101600Y333060D02*
D03*
Y373060D02*
D03*
M02*
