G04*
G04 #@! TF.GenerationSoftware,Altium Limited,Altium Designer,22.11.1 (43)*
G04*
G04 Layer_Physical_Order=2*
G04 Layer_Color=16711680*
%FSLAX26Y26*%
%MOIN*%
G70*
G04*
G04 #@! TF.SameCoordinates,5BF10E07-6FF6-48FD-9551-4FA8EBAFEB20*
G04*
G04*
G04 #@! TF.FilePolarity,Positive*
G04*
G01*
G75*
%ADD88C,0.008000*%
%ADD92C,0.014000*%
%ADD93C,0.030000*%
%ADD94C,0.062992*%
%ADD95R,0.094488X0.094488*%
%ADD96C,0.094488*%
%ADD97C,0.086614*%
%ADD98C,0.086614*%
%ADD99C,0.118110*%
%ADD100R,0.070866X0.070866*%
%ADD101C,0.070866*%
%ADD102O,0.070866X0.212598*%
%ADD103O,0.212598X0.070866*%
%ADD104O,0.248031X0.070866*%
%ADD105C,0.097441*%
%ADD106C,0.064961*%
%ADD107C,0.058189*%
%ADD108R,0.058189X0.058189*%
%ADD109C,0.128346*%
%ADD110C,0.032000*%
G36*
X3800000Y32940D02*
X1200000Y32939D01*
Y640000D01*
X957007D01*
X951835Y650000D01*
X954000Y655226D01*
Y664774D01*
X950346Y673595D01*
X943595Y680346D01*
X942235Y680909D01*
Y859091D01*
X943595Y859654D01*
X950346Y866405D01*
X954000Y875226D01*
Y884774D01*
X950346Y893595D01*
X943595Y900346D01*
X934774Y904000D01*
X925226D01*
X916405Y900346D01*
X909654Y893595D01*
X906000Y884774D01*
Y875226D01*
X909654Y866405D01*
X916405Y859654D01*
X917765Y859091D01*
Y680909D01*
X916405Y680346D01*
X909654Y673595D01*
X906000Y664774D01*
Y655226D01*
X908165Y650000D01*
X902993Y640000D01*
X800000D01*
Y2329265D01*
X3800000Y2329265D01*
Y32940D01*
D02*
G37*
%LPC*%
G36*
X3362634Y2318760D02*
X3361850D01*
Y2265039D01*
X3415571D01*
Y2265823D01*
X3413314Y2277168D01*
X3408888Y2287854D01*
X3402461Y2297472D01*
X3394282Y2305651D01*
X3384665Y2312077D01*
X3373979Y2316503D01*
X3362634Y2318760D01*
D02*
G37*
G36*
X3351850D02*
X3351067D01*
X3339722Y2316503D01*
X3329036Y2312077D01*
X3319418Y2305651D01*
X3311239Y2297472D01*
X3304813Y2287854D01*
X3300387Y2277168D01*
X3298130Y2265823D01*
Y2265039D01*
X3351850D01*
Y2318760D01*
D02*
G37*
G36*
X1691102Y2257244D02*
X1638858D01*
Y2205000D01*
X1691102D01*
Y2257244D01*
D02*
G37*
G36*
X1628858D02*
X1576614D01*
Y2205000D01*
X1628858D01*
Y2257244D01*
D02*
G37*
G36*
X2557244D02*
X2505000D01*
Y2205000D01*
X2557244D01*
Y2257244D01*
D02*
G37*
G36*
X2495000D02*
X2442756D01*
Y2205000D01*
X2495000D01*
Y2257244D01*
D02*
G37*
G36*
X3415571Y2255039D02*
X3361850D01*
Y2201319D01*
X3362634D01*
X3373979Y2203576D01*
X3384665Y2208002D01*
X3394282Y2214428D01*
X3402461Y2222607D01*
X3408888Y2232225D01*
X3413314Y2242911D01*
X3415571Y2254256D01*
Y2255039D01*
D02*
G37*
G36*
X3351850D02*
X3298130D01*
Y2254256D01*
X3300387Y2242911D01*
X3304813Y2232225D01*
X3311239Y2222607D01*
X3319418Y2214428D01*
X3329036Y2208002D01*
X3339722Y2203576D01*
X3351067Y2201319D01*
X3351850D01*
Y2255039D01*
D02*
G37*
G36*
X3677140Y2239496D02*
X3666482D01*
X3656186Y2236737D01*
X3646956Y2231408D01*
X3639419Y2223871D01*
X3634089Y2214640D01*
X3631331Y2204345D01*
Y2193686D01*
X3634089Y2183391D01*
X3639419Y2174160D01*
X3646956Y2166623D01*
X3656186Y2161294D01*
X3666482Y2158535D01*
X3677140D01*
X3687436Y2161294D01*
X3696666Y2166623D01*
X3704203Y2174160D01*
X3709533Y2183391D01*
X3712291Y2193686D01*
Y2204345D01*
X3709533Y2214640D01*
X3704203Y2223871D01*
X3696666Y2231408D01*
X3687436Y2236737D01*
X3677140Y2239496D01*
D02*
G37*
G36*
X1444281Y2255244D02*
X1429735D01*
X1415685Y2251479D01*
X1403087Y2244206D01*
X1392802Y2233921D01*
X1385529Y2221323D01*
X1381764Y2207273D01*
Y2192727D01*
X1385529Y2178677D01*
X1392802Y2166079D01*
X1403087Y2155794D01*
X1415685Y2148521D01*
X1429735Y2144756D01*
X1444281D01*
X1458331Y2148521D01*
X1470929Y2155794D01*
X1481214Y2166079D01*
X1488487Y2178677D01*
X1492252Y2192727D01*
Y2207273D01*
X1488487Y2221323D01*
X1481214Y2233921D01*
X1470929Y2244206D01*
X1458331Y2251479D01*
X1444281Y2255244D01*
D02*
G37*
G36*
X2557244Y2195000D02*
X2505000D01*
Y2142756D01*
X2557244D01*
Y2195000D01*
D02*
G37*
G36*
X2495000D02*
X2442756D01*
Y2142756D01*
X2495000D01*
Y2195000D01*
D02*
G37*
G36*
X1691102Y2195000D02*
X1638858D01*
Y2142756D01*
X1691102D01*
Y2195000D01*
D02*
G37*
G36*
X1628858D02*
X1576614D01*
Y2142756D01*
X1628858D01*
Y2195000D01*
D02*
G37*
G36*
X3165147Y2164095D02*
X3165000D01*
Y2130000D01*
X3199095D01*
Y2130147D01*
X3196430Y2140090D01*
X3191283Y2149005D01*
X3184005Y2156283D01*
X3175090Y2161430D01*
X3165147Y2164095D01*
D02*
G37*
G36*
X3155000D02*
X3154853D01*
X3144910Y2161430D01*
X3135995Y2156283D01*
X3128717Y2149005D01*
X3123570Y2140090D01*
X3120905Y2130147D01*
Y2130000D01*
X3155000D01*
Y2164095D01*
D02*
G37*
G36*
X1870079Y2301324D02*
X1851233Y2299468D01*
X1833112Y2293971D01*
X1816411Y2285044D01*
X1801773Y2273030D01*
X1789759Y2258392D01*
X1780832Y2241691D01*
X1775335Y2223570D01*
X1773479Y2204724D01*
X1775335Y2185879D01*
X1780832Y2167757D01*
X1789759Y2151057D01*
X1801773Y2136418D01*
X1816411Y2124405D01*
X1833112Y2115478D01*
X1851233Y2109981D01*
X1870079Y2108125D01*
X1888924Y2109981D01*
X1907046Y2115478D01*
X1923746Y2124405D01*
X1938385Y2136418D01*
X1950398Y2151057D01*
X1959325Y2167757D01*
X1964822Y2185879D01*
X1966678Y2204724D01*
X1964822Y2223570D01*
X1959325Y2241691D01*
X1950398Y2258392D01*
X1938385Y2273030D01*
X1923746Y2285044D01*
X1907046Y2293971D01*
X1888924Y2299468D01*
X1870079Y2301324D01*
D02*
G37*
G36*
X3517108Y2247173D02*
X3502892D01*
X3488948Y2244400D01*
X3475813Y2238959D01*
X3463992Y2231061D01*
X3453939Y2221008D01*
X3446041Y2209187D01*
X3440600Y2196052D01*
X3437827Y2182108D01*
Y2167892D01*
X3440600Y2153948D01*
X3446041Y2140813D01*
X3453939Y2128992D01*
X3463992Y2118939D01*
X3475813Y2111041D01*
X3488948Y2105600D01*
X3502892Y2102827D01*
X3517108D01*
X3531052Y2105600D01*
X3544187Y2111041D01*
X3556008Y2118939D01*
X3566061Y2128992D01*
X3573959Y2140813D01*
X3579400Y2153948D01*
X3582173Y2167892D01*
Y2182108D01*
X3579400Y2196052D01*
X3573959Y2209187D01*
X3566061Y2221008D01*
X3556008Y2231061D01*
X3544187Y2238959D01*
X3531052Y2244400D01*
X3517108Y2247173D01*
D02*
G37*
G36*
X3199095Y2120000D02*
X3165000D01*
Y2085905D01*
X3165147D01*
X3175090Y2088570D01*
X3184005Y2093717D01*
X3191283Y2100995D01*
X3196430Y2109910D01*
X3199095Y2119853D01*
Y2120000D01*
D02*
G37*
G36*
X3155000D02*
X3120905D01*
Y2119853D01*
X3123570Y2109910D01*
X3128717Y2100995D01*
X3135995Y2093717D01*
X3144910Y2088570D01*
X3154853Y2085905D01*
X3155000D01*
Y2120000D01*
D02*
G37*
G36*
X3677140Y2139496D02*
X3666482D01*
X3656186Y2136737D01*
X3646956Y2131408D01*
X3639419Y2123871D01*
X3634089Y2114640D01*
X3631331Y2104345D01*
Y2093686D01*
X3634089Y2083391D01*
X3639419Y2074160D01*
X3646956Y2066623D01*
X3656186Y2061294D01*
X3666482Y2058535D01*
X3677140D01*
X3687436Y2061294D01*
X3696666Y2066623D01*
X3704203Y2074160D01*
X3709533Y2083391D01*
X3712291Y2093686D01*
Y2104345D01*
X3709533Y2114640D01*
X3704203Y2123871D01*
X3696666Y2131408D01*
X3687436Y2136737D01*
X3677140Y2139496D01*
D02*
G37*
G36*
X3264884Y2112095D02*
X3255116D01*
X3245682Y2109567D01*
X3237223Y2104683D01*
X3230317Y2097777D01*
X3225433Y2089318D01*
X3222905Y2079884D01*
Y2070116D01*
X3225433Y2060682D01*
X3230317Y2052223D01*
X3237223Y2045317D01*
X3245682Y2040433D01*
X3255116Y2037906D01*
X3264884D01*
X3274318Y2040433D01*
X3282777Y2045317D01*
X3289683Y2052223D01*
X3294567Y2060682D01*
X3297095Y2070116D01*
Y2079884D01*
X3294567Y2089318D01*
X3289683Y2097777D01*
X3282777Y2104683D01*
X3274318Y2109567D01*
X3264884Y2112095D01*
D02*
G37*
G36*
X2310423Y2255244D02*
X2295877D01*
X2281826Y2251479D01*
X2269229Y2244206D01*
X2258943Y2233921D01*
X2251670Y2221323D01*
X2247905Y2207273D01*
Y2192727D01*
X2251670Y2178677D01*
X2258943Y2166079D01*
X2263828Y2161195D01*
X2264225Y2160581D01*
X2274506Y2149985D01*
X2282293Y2140839D01*
X2285181Y2136936D01*
X2287496Y2133383D01*
X2289189Y2130296D01*
X2290278Y2127747D01*
X2290818Y2125830D01*
X2290914Y2124908D01*
Y2028217D01*
X2288932Y2026235D01*
X2125007D01*
X2122977Y2028132D01*
X2118216Y2036235D01*
X2118534Y2037836D01*
Y2124908D01*
X2118630Y2125830D01*
X2119170Y2127747D01*
X2120259Y2130296D01*
X2121953Y2133384D01*
X2124268Y2136936D01*
X2127111Y2140778D01*
X2139797Y2155131D01*
X2145149Y2160505D01*
X2145583Y2161157D01*
X2150506Y2166079D01*
X2157778Y2178677D01*
X2161543Y2192727D01*
Y2207273D01*
X2157778Y2221323D01*
X2150506Y2233921D01*
X2140220Y2244206D01*
X2127623Y2251479D01*
X2113572Y2255244D01*
X2099026D01*
X2084976Y2251479D01*
X2072378Y2244206D01*
X2062093Y2233921D01*
X2054820Y2221323D01*
X2051055Y2207273D01*
Y2192727D01*
X2054820Y2178677D01*
X2062093Y2166079D01*
X2066978Y2161195D01*
X2067374Y2160581D01*
X2077655Y2149985D01*
X2085442Y2140839D01*
X2088331Y2136936D01*
X2090646Y2133383D01*
X2092339Y2130296D01*
X2093428Y2127747D01*
X2093968Y2125830D01*
X2094064Y2124908D01*
Y2045385D01*
X1813149D01*
X1808467Y2044453D01*
X1804498Y2041801D01*
X1791349Y2028651D01*
X1788696Y2024682D01*
X1787765Y2020000D01*
Y1000909D01*
X1786405Y1000346D01*
X1779654Y993595D01*
X1776000Y984774D01*
Y975226D01*
X1779654Y966405D01*
X1786405Y959654D01*
X1795226Y956000D01*
X1804774D01*
X1813595Y959654D01*
X1820346Y966405D01*
X1824000Y975226D01*
Y984774D01*
X1820346Y993595D01*
X1815784Y998157D01*
X1816057Y1002498D01*
X1825420Y1006126D01*
X1826676Y1006021D01*
X1837765Y994932D01*
Y960909D01*
X1836405Y960346D01*
X1829654Y953595D01*
X1826000Y944774D01*
Y935226D01*
X1829654Y926405D01*
X1836405Y919654D01*
X1845226Y916000D01*
X1854774D01*
X1863595Y919654D01*
X1870346Y926405D01*
X1874000Y935226D01*
Y944774D01*
X1870346Y953595D01*
X1863595Y960346D01*
X1862235Y960909D01*
Y1000000D01*
X1861304Y1004682D01*
X1858651Y1008652D01*
X1832235Y1035068D01*
Y2001765D01*
X2294000D01*
X2298682Y2002696D01*
X2302651Y2005349D01*
X2311801Y2014498D01*
X2314453Y2018467D01*
X2315385Y2023150D01*
Y2124908D01*
X2315481Y2125830D01*
X2316021Y2127747D01*
X2317110Y2130296D01*
X2318804Y2133384D01*
X2321118Y2136936D01*
X2323961Y2140778D01*
X2336647Y2155131D01*
X2342000Y2160505D01*
X2342434Y2161157D01*
X2347356Y2166079D01*
X2354629Y2178677D01*
X2358394Y2192727D01*
Y2207273D01*
X2354629Y2221323D01*
X2347356Y2233921D01*
X2337070Y2244206D01*
X2324473Y2251479D01*
X2310423Y2255244D01*
D02*
G37*
G36*
X3164884Y2062095D02*
X3155116D01*
X3145682Y2059567D01*
X3137223Y2054683D01*
X3130317Y2047777D01*
X3125433Y2039318D01*
X3122905Y2029884D01*
Y2020116D01*
X3125433Y2010682D01*
X3130317Y2002223D01*
X3137223Y1995317D01*
X3145682Y1990433D01*
X3155116Y1987906D01*
X3164884D01*
X3174318Y1990433D01*
X3182777Y1995317D01*
X3189683Y2002223D01*
X3194567Y2010682D01*
X3197095Y2020116D01*
Y2029884D01*
X3194567Y2039318D01*
X3189683Y2047777D01*
X3182777Y2054683D01*
X3174318Y2059567D01*
X3164884Y2062095D01*
D02*
G37*
G36*
Y1962094D02*
X3155116D01*
X3145682Y1959567D01*
X3137223Y1954683D01*
X3130317Y1947777D01*
X3125433Y1939318D01*
X3122905Y1929884D01*
Y1920116D01*
X3125433Y1910682D01*
X3130317Y1902223D01*
X3137223Y1895317D01*
X3145682Y1890433D01*
X3155116Y1887906D01*
X3164884D01*
X3174318Y1890433D01*
X3182777Y1895317D01*
X3189683Y1902223D01*
X3194567Y1910682D01*
X3197095Y1920116D01*
Y1929884D01*
X3194567Y1939318D01*
X3189683Y1947777D01*
X3182777Y1954683D01*
X3174318Y1959567D01*
X3164884Y1962094D01*
D02*
G37*
G36*
X3264884Y1912094D02*
X3255116D01*
X3245682Y1909567D01*
X3237223Y1904683D01*
X3230317Y1897777D01*
X3225433Y1889318D01*
X3222905Y1879884D01*
Y1870116D01*
X3225433Y1860682D01*
X3230317Y1852223D01*
X3237223Y1845317D01*
X3245682Y1840433D01*
X3255116Y1837906D01*
X3264884D01*
X3274318Y1840433D01*
X3282777Y1845317D01*
X3289683Y1852223D01*
X3294567Y1860682D01*
X3297095Y1870116D01*
Y1879884D01*
X3294567Y1889318D01*
X3289683Y1897777D01*
X3282777Y1904683D01*
X3274318Y1909567D01*
X3264884Y1912094D01*
D02*
G37*
G36*
X3677140Y1841465D02*
X3666482D01*
X3656186Y1838706D01*
X3646956Y1833377D01*
X3639419Y1825840D01*
X3634089Y1816609D01*
X3631331Y1806314D01*
Y1795655D01*
X3634089Y1785360D01*
X3639419Y1776129D01*
X3646956Y1768592D01*
X3656186Y1763263D01*
X3666482Y1760504D01*
X3677140D01*
X3687436Y1763263D01*
X3696666Y1768592D01*
X3704203Y1776129D01*
X3709533Y1785360D01*
X3712291Y1795655D01*
Y1806314D01*
X3709533Y1816609D01*
X3704203Y1825840D01*
X3696666Y1833377D01*
X3687436Y1838706D01*
X3677140Y1841465D01*
D02*
G37*
G36*
X2550000Y1932235D02*
X1940000D01*
X1935318Y1931304D01*
X1931349Y1928651D01*
X1921349Y1918651D01*
X1918696Y1914682D01*
X1917765Y1910000D01*
Y1780909D01*
X1916405Y1780346D01*
X1909654Y1773595D01*
X1906000Y1764774D01*
Y1755226D01*
X1909654Y1746405D01*
X1916405Y1739654D01*
X1925226Y1736000D01*
X1934774D01*
X1943595Y1739654D01*
X1950346Y1746405D01*
X1954000Y1755226D01*
Y1764774D01*
X1950346Y1773595D01*
X1943595Y1780346D01*
X1942235Y1780909D01*
Y1904932D01*
X1945068Y1907765D01*
X2544932D01*
X2547765Y1904932D01*
Y1800909D01*
X2546405Y1800346D01*
X2539654Y1793595D01*
X2536000Y1784774D01*
Y1775226D01*
X2539654Y1766405D01*
X2546405Y1759654D01*
X2555226Y1756000D01*
X2564774D01*
X2573595Y1759654D01*
X2580346Y1766405D01*
X2584000Y1775226D01*
Y1784774D01*
X2580346Y1793595D01*
X2573595Y1800346D01*
X2572235Y1800909D01*
Y1910000D01*
X2571304Y1914682D01*
X2568651Y1918651D01*
X2558651Y1928651D01*
X2554682Y1931304D01*
X2550000Y1932235D01*
D02*
G37*
G36*
X3297095Y1812094D02*
X3222905D01*
Y1737906D01*
X3297095D01*
Y1812094D01*
D02*
G37*
G36*
X3677404Y1743465D02*
X3676811D01*
Y1705984D01*
X3714291D01*
Y1706577D01*
X3711396Y1717381D01*
X3705804Y1727068D01*
X3697894Y1734977D01*
X3688208Y1740570D01*
X3677404Y1743465D01*
D02*
G37*
G36*
X3666811D02*
X3666218D01*
X3655414Y1740570D01*
X3645727Y1734977D01*
X3637818Y1727068D01*
X3632226Y1717381D01*
X3629331Y1706577D01*
Y1705984D01*
X3666811D01*
Y1743465D01*
D02*
G37*
G36*
X2134774Y1784000D02*
X2125226D01*
X2116405Y1780346D01*
X2109654Y1773595D01*
X2106000Y1764774D01*
Y1755226D01*
X2109654Y1746405D01*
X2116405Y1739654D01*
X2117765Y1739091D01*
Y1709242D01*
X2107765Y1702761D01*
X2104774Y1704000D01*
X2095226D01*
X2086405Y1700346D01*
X2079654Y1693595D01*
X2076000Y1684774D01*
Y1675226D01*
X2079654Y1666405D01*
X2086405Y1659654D01*
X2087765Y1659091D01*
Y1629242D01*
X2077765Y1622761D01*
X2074774Y1624000D01*
X2065226D01*
X2056405Y1620346D01*
X2049654Y1613595D01*
X2046000Y1604774D01*
Y1595226D01*
X2049654Y1586405D01*
X2056405Y1579654D01*
X2057765Y1579091D01*
Y1549242D01*
X2047765Y1542761D01*
X2044774Y1544000D01*
X2035226D01*
X2026405Y1540346D01*
X2019654Y1533595D01*
X2016000Y1524774D01*
Y1515226D01*
X2019654Y1506405D01*
X2026405Y1499654D01*
X2027765Y1499091D01*
Y1469242D01*
X2017765Y1462761D01*
X2014774Y1464000D01*
X2005226D01*
X1996405Y1460346D01*
X1989654Y1453595D01*
X1986000Y1444774D01*
Y1435226D01*
X1988983Y1428023D01*
X1980346Y1423595D01*
X1973595Y1430346D01*
X1964774Y1434000D01*
X1955226D01*
X1946405Y1430346D01*
X1942235Y1426176D01*
X1932235Y1429827D01*
Y1460173D01*
X1942235Y1463824D01*
X1946405Y1459654D01*
X1955226Y1456000D01*
X1964774D01*
X1973595Y1459654D01*
X1980346Y1466405D01*
X1984000Y1475226D01*
Y1484774D01*
X1980346Y1493595D01*
X1973595Y1500346D01*
X1964774Y1504000D01*
X1955226D01*
X1946405Y1500346D01*
X1939654Y1493595D01*
X1939091Y1492235D01*
X1930000D01*
X1925318Y1491304D01*
X1921349Y1488651D01*
X1911349Y1478651D01*
X1908696Y1474682D01*
X1907765Y1470000D01*
Y760909D01*
X1906405Y760346D01*
X1899654Y753595D01*
X1896000Y744774D01*
Y735226D01*
X1899654Y726405D01*
X1906405Y719654D01*
X1915226Y716000D01*
X1919826D01*
X1926773Y706989D01*
X1926823Y706761D01*
X1926000Y704774D01*
Y695226D01*
X1929654Y686405D01*
X1936405Y679654D01*
X1945226Y676000D01*
X1951826D01*
X1957600Y669701D01*
X1958869Y666872D01*
X1958000Y664774D01*
Y655226D01*
X1961654Y646405D01*
X1968405Y639654D01*
X1977226Y636000D01*
X1986774D01*
X1995595Y639654D01*
X2002346Y646405D01*
X2006000Y655226D01*
Y664774D01*
X2005492Y666000D01*
X2012174Y676000D01*
X2014774D01*
X2023595Y679654D01*
X2030346Y686405D01*
X2034000Y695226D01*
Y704774D01*
X2033177Y706761D01*
X2033227Y706989D01*
X2040174Y716000D01*
X2044774D01*
X2053595Y719654D01*
X2060346Y726405D01*
X2064000Y735226D01*
Y744774D01*
X2063177Y746761D01*
X2063227Y746989D01*
X2070174Y756000D01*
X2074774D01*
X2083595Y759654D01*
X2090346Y766405D01*
X2094000Y775226D01*
Y784774D01*
X2093177Y786761D01*
X2093227Y786989D01*
X2100174Y796000D01*
X2104774D01*
X2113595Y799654D01*
X2120346Y806405D01*
X2124000Y815226D01*
Y824774D01*
X2123177Y826761D01*
X2123227Y826989D01*
X2130174Y836000D01*
X2134774D01*
X2143595Y839654D01*
X2150346Y846405D01*
X2154000Y855226D01*
Y864774D01*
X2150346Y873595D01*
X2143595Y880346D01*
X2142235Y880909D01*
Y940402D01*
X2141304Y945084D01*
X2139840Y947275D01*
X2140528Y953890D01*
X2142604Y959243D01*
X2143595Y959654D01*
X2150346Y966405D01*
X2154000Y975226D01*
Y984774D01*
X2150346Y993595D01*
X2143595Y1000346D01*
X2142235Y1000909D01*
Y1259091D01*
X2143595Y1259654D01*
X2150346Y1266405D01*
X2154000Y1275226D01*
Y1284774D01*
X2150346Y1293595D01*
X2143595Y1300346D01*
X2134774Y1304000D01*
X2125226D01*
X2117219Y1309639D01*
X2116536Y1319233D01*
X2138651Y1341349D01*
X2141304Y1345318D01*
X2142235Y1350000D01*
Y1739091D01*
X2143595Y1739654D01*
X2150346Y1746405D01*
X2154000Y1755226D01*
Y1764774D01*
X2150346Y1773595D01*
X2143595Y1780346D01*
X2134774Y1784000D01*
D02*
G37*
G36*
X3714291Y1695984D02*
X3676811D01*
Y1658504D01*
X3677404D01*
X3688208Y1661399D01*
X3697894Y1666992D01*
X3705804Y1674901D01*
X3711396Y1684588D01*
X3714291Y1695392D01*
Y1695984D01*
D02*
G37*
G36*
X3666811D02*
X3629331D01*
Y1695392D01*
X3632226Y1684588D01*
X3637818Y1674901D01*
X3645727Y1666992D01*
X3655414Y1661399D01*
X3666218Y1658504D01*
X3666811D01*
Y1695984D01*
D02*
G37*
G36*
X3264884Y2012094D02*
X3255116D01*
X3245682Y2009567D01*
X3237223Y2004683D01*
X3230317Y1997777D01*
X3225433Y1989318D01*
X3222905Y1979884D01*
Y1970116D01*
X3225433Y1960682D01*
X3230317Y1952223D01*
X3237223Y1945317D01*
X3245682Y1940433D01*
X3255116Y1937906D01*
X3264884D01*
X3274318Y1940433D01*
X3282777Y1945317D01*
X3289683Y1952223D01*
X3291642Y1955616D01*
X3292074Y1956067D01*
X3293145Y1957747D01*
X3294048Y1958906D01*
X3294968Y1959864D01*
X3295908Y1960652D01*
X3296885Y1961297D01*
X3297926Y1961823D01*
X3299065Y1962245D01*
X3300335Y1962561D01*
X3301766Y1962764D01*
X3301796Y1962765D01*
X3399932D01*
X3407765Y1954932D01*
Y1686232D01*
X3397765Y1682089D01*
X3394282Y1685572D01*
X3384665Y1691998D01*
X3373979Y1696424D01*
X3362634Y1698681D01*
X3361850D01*
Y1639961D01*
Y1581240D01*
X3362634D01*
X3373979Y1583497D01*
X3384665Y1587923D01*
X3394282Y1594350D01*
X3397765Y1597832D01*
X3407765Y1593690D01*
Y1300909D01*
X3406405Y1300346D01*
X3399654Y1293595D01*
X3396000Y1284774D01*
Y1275226D01*
X3399654Y1266405D01*
X3406405Y1259654D01*
X3415226Y1256000D01*
X3424774D01*
X3433595Y1259654D01*
X3440346Y1266405D01*
X3444000Y1275226D01*
Y1284774D01*
X3440346Y1293595D01*
X3433595Y1300346D01*
X3432235Y1300909D01*
Y1698012D01*
X3442235Y1700001D01*
X3446041Y1690813D01*
X3453939Y1678992D01*
X3463992Y1668939D01*
X3475813Y1661041D01*
X3488948Y1655600D01*
X3502892Y1652827D01*
X3517108D01*
X3531052Y1655600D01*
X3544187Y1661041D01*
X3556008Y1668939D01*
X3566061Y1678992D01*
X3573959Y1690813D01*
X3579400Y1703948D01*
X3582173Y1717892D01*
Y1732108D01*
X3579400Y1746052D01*
X3573959Y1759187D01*
X3566061Y1771008D01*
X3556008Y1781061D01*
X3544187Y1788959D01*
X3531052Y1794400D01*
X3517108Y1797173D01*
X3502892D01*
X3488948Y1794400D01*
X3475813Y1788959D01*
X3463992Y1781061D01*
X3453939Y1771008D01*
X3446041Y1759187D01*
X3442235Y1749999D01*
X3432235Y1751988D01*
Y1960000D01*
X3431304Y1964682D01*
X3428651Y1968651D01*
X3413651Y1983651D01*
X3409682Y1986304D01*
X3405000Y1987235D01*
X3301796D01*
X3301766Y1987236D01*
X3300335Y1987439D01*
X3299064Y1987756D01*
X3297926Y1988177D01*
X3296885Y1988703D01*
X3295908Y1989348D01*
X3294968Y1990136D01*
X3294048Y1991094D01*
X3293145Y1992254D01*
X3292074Y1993933D01*
X3291642Y1994384D01*
X3289683Y1997777D01*
X3282777Y2004683D01*
X3274318Y2009567D01*
X3264884Y2012094D01*
D02*
G37*
G36*
X3351850Y1698681D02*
X3351067D01*
X3339722Y1696424D01*
X3329036Y1691998D01*
X3319418Y1685572D01*
X3311239Y1677393D01*
X3304813Y1667775D01*
X3300387Y1657089D01*
X3298130Y1645744D01*
Y1644961D01*
X3351850D01*
Y1698681D01*
D02*
G37*
G36*
X1134774Y1704000D02*
X1125226D01*
X1116405Y1700346D01*
X1109654Y1693595D01*
X1106000Y1684774D01*
Y1675226D01*
X1109654Y1666405D01*
X1116405Y1659654D01*
X1117765Y1659091D01*
Y1589242D01*
X1107765Y1582761D01*
X1104774Y1584000D01*
X1095226D01*
X1086405Y1580346D01*
X1079654Y1573595D01*
X1076000Y1564774D01*
Y1555226D01*
X1079654Y1546405D01*
X1086405Y1539654D01*
X1087765Y1539091D01*
Y904686D01*
X1088696Y900004D01*
X1091349Y896035D01*
X1096035Y891348D01*
X1100004Y888696D01*
X1104686Y887765D01*
X1148477D01*
X1149054Y887737D01*
X1150860Y887458D01*
X1152515Y887012D01*
X1154053Y886401D01*
X1155508Y885616D01*
X1156914Y884634D01*
X1158288Y883428D01*
X1159638Y881969D01*
X1160962Y880230D01*
X1162420Y877924D01*
X1162861Y877460D01*
X1165245Y873332D01*
X1173332Y865245D01*
X1183236Y859527D01*
X1194282Y856567D01*
X1205718D01*
X1216764Y859527D01*
X1226668Y865245D01*
X1234755Y873332D01*
X1240473Y883236D01*
X1243433Y894282D01*
Y905718D01*
X1240473Y916764D01*
X1234755Y926668D01*
X1226668Y934755D01*
X1216764Y940473D01*
X1205718Y943433D01*
X1194282D01*
X1183236Y940473D01*
X1173332Y934755D01*
X1165245Y926668D01*
X1162861Y922540D01*
X1162420Y922076D01*
X1160962Y919770D01*
X1159638Y918031D01*
X1158288Y916572D01*
X1156914Y915366D01*
X1155508Y914384D01*
X1154053Y913599D01*
X1152515Y912988D01*
X1150860Y912542D01*
X1149054Y912263D01*
X1148477Y912235D01*
X1112235D01*
Y996988D01*
X1118523Y999996D01*
X1122235Y1000462D01*
X1131349Y991348D01*
X1135318Y988696D01*
X1140000Y987765D01*
X1148477D01*
X1149054Y987737D01*
X1150860Y987458D01*
X1152515Y987012D01*
X1154053Y986401D01*
X1155508Y985616D01*
X1156914Y984634D01*
X1158288Y983428D01*
X1159638Y981969D01*
X1160962Y980230D01*
X1162420Y977924D01*
X1162861Y977460D01*
X1165245Y973332D01*
X1173332Y965245D01*
X1183236Y959527D01*
X1194282Y956567D01*
X1205718D01*
X1216764Y959527D01*
X1226668Y965245D01*
X1234755Y973332D01*
X1240473Y983236D01*
X1243433Y994282D01*
Y1005718D01*
X1240473Y1016764D01*
X1234755Y1026668D01*
X1226668Y1034755D01*
X1216764Y1040473D01*
X1205718Y1043433D01*
X1194282D01*
X1183236Y1040473D01*
X1173332Y1034755D01*
X1165245Y1026668D01*
X1162861Y1022540D01*
X1162420Y1022076D01*
X1160962Y1019770D01*
X1159638Y1018031D01*
X1158288Y1016572D01*
X1156914Y1015366D01*
X1155508Y1014384D01*
X1154053Y1013599D01*
X1152515Y1012988D01*
X1151230Y1012641D01*
X1149303Y1013695D01*
X1144015Y1017613D01*
X1142235Y1019503D01*
Y1659091D01*
X1143595Y1659654D01*
X1150346Y1666405D01*
X1154000Y1675226D01*
Y1684774D01*
X1150346Y1693595D01*
X1143595Y1700346D01*
X1134774Y1704000D01*
D02*
G37*
G36*
X3351850Y1634961D02*
X3298130D01*
Y1634177D01*
X3300387Y1622832D01*
X3304813Y1612146D01*
X3311239Y1602528D01*
X3319418Y1594350D01*
X3329036Y1587923D01*
X3339722Y1583497D01*
X3351067Y1581240D01*
X3351850D01*
Y1634961D01*
D02*
G37*
G36*
X3661417Y1595027D02*
X3642110Y1593125D01*
X3623546Y1587494D01*
X3606436Y1578348D01*
X3591439Y1566041D01*
X3579132Y1551044D01*
X3569987Y1533935D01*
X3564355Y1515370D01*
X3562454Y1496063D01*
X3564355Y1476756D01*
X3569987Y1458191D01*
X3579132Y1441082D01*
X3591439Y1426085D01*
X3606436Y1413778D01*
X3623546Y1404632D01*
X3642110Y1399001D01*
X3661417Y1397099D01*
X3680724Y1399001D01*
X3699289Y1404632D01*
X3716399Y1413778D01*
X3731395Y1426085D01*
X3743703Y1441082D01*
X3752848Y1458191D01*
X3758479Y1476756D01*
X3760381Y1496063D01*
X3758479Y1515370D01*
X3752848Y1533935D01*
X3743703Y1551044D01*
X3731395Y1566041D01*
X3716399Y1578348D01*
X3699289Y1587494D01*
X3680724Y1593125D01*
X3661417Y1595027D01*
D02*
G37*
G36*
X3715718Y1383433D02*
X3704282D01*
X3693235Y1380473D01*
X3683331Y1374755D01*
X3675245Y1366668D01*
X3669527Y1356764D01*
X3666567Y1345718D01*
Y1334282D01*
X3669527Y1323236D01*
X3675245Y1313332D01*
X3683331Y1305245D01*
X3693235Y1299527D01*
X3704282Y1296567D01*
X3715718D01*
X3726765Y1299527D01*
X3736669Y1305245D01*
X3744755Y1313332D01*
X3750473Y1323236D01*
X3753433Y1334282D01*
Y1345718D01*
X3750473Y1356764D01*
X3744755Y1366668D01*
X3736669Y1374755D01*
X3726765Y1380473D01*
X3715718Y1383433D01*
D02*
G37*
G36*
X1684774Y1784000D02*
X1675226D01*
X1666405Y1780346D01*
X1659654Y1773595D01*
X1656000Y1764774D01*
Y1755226D01*
X1656549Y1753900D01*
Y1306100D01*
X1656000Y1304774D01*
Y1295226D01*
X1659654Y1286405D01*
X1666405Y1279654D01*
X1675226Y1276000D01*
X1684774D01*
X1693595Y1279654D01*
X1700346Y1286405D01*
X1704000Y1295226D01*
Y1304774D01*
X1703451Y1306100D01*
Y1753900D01*
X1704000Y1755226D01*
Y1764774D01*
X1700346Y1773595D01*
X1693595Y1780346D01*
X1684774Y1784000D01*
D02*
G37*
G36*
X3715981Y1285433D02*
X3715000D01*
Y1245000D01*
X3755433D01*
Y1245981D01*
X3752337Y1257536D01*
X3746355Y1267897D01*
X3737896Y1276355D01*
X3727537Y1282337D01*
X3715981Y1285433D01*
D02*
G37*
G36*
X3705000D02*
X3704019D01*
X3692463Y1282337D01*
X3682104Y1276355D01*
X3673645Y1267897D01*
X3667663Y1257536D01*
X3664567Y1245981D01*
Y1245000D01*
X3705000D01*
Y1285433D01*
D02*
G37*
G36*
X2534774Y1224000D02*
X2525226D01*
X2516405Y1220346D01*
X2509654Y1213595D01*
X2509090Y1212235D01*
X2450910D01*
X2450346Y1213595D01*
X2443595Y1220346D01*
X2434774Y1224000D01*
X2425226D01*
X2416405Y1220346D01*
X2409654Y1213595D01*
X2406000Y1204774D01*
Y1195226D01*
X2409654Y1186405D01*
X2416405Y1179654D01*
X2425226Y1176000D01*
X2434774D01*
X2443595Y1179654D01*
X2450346Y1186405D01*
X2450910Y1187765D01*
X2509090D01*
X2509654Y1186405D01*
X2516405Y1179654D01*
X2525226Y1176000D01*
X2534774D01*
X2543595Y1179654D01*
X2550346Y1186405D01*
X2554000Y1195226D01*
Y1204774D01*
X2550346Y1213595D01*
X2543595Y1220346D01*
X2534774Y1224000D01*
D02*
G37*
G36*
X3755433Y1235000D02*
X3715000D01*
Y1194567D01*
X3715981D01*
X3727537Y1197663D01*
X3737896Y1203645D01*
X3746355Y1212103D01*
X3752337Y1222464D01*
X3755433Y1234019D01*
Y1235000D01*
D02*
G37*
G36*
X3705000D02*
X3664567D01*
Y1234019D01*
X3667663Y1222464D01*
X3673645Y1212103D01*
X3682104Y1203645D01*
X3692463Y1197663D01*
X3704019Y1194567D01*
X3705000D01*
Y1235000D01*
D02*
G37*
G36*
X3164884Y1862094D02*
X3155116D01*
X3145682Y1859567D01*
X3137223Y1854683D01*
X3130317Y1847777D01*
X3125433Y1839318D01*
X3122905Y1829884D01*
Y1820116D01*
X3125433Y1810682D01*
X3130317Y1802223D01*
X3137223Y1795317D01*
X3140616Y1793358D01*
X3141067Y1792926D01*
X3142747Y1791855D01*
X3143905Y1790952D01*
X3144864Y1790032D01*
X3145652Y1789092D01*
X3146297Y1788115D01*
X3146823Y1787074D01*
X3147245Y1785935D01*
X3147561Y1784665D01*
X3147764Y1783234D01*
X3147765Y1783204D01*
Y1560000D01*
X3148696Y1555318D01*
X3151349Y1551349D01*
X3171349Y1531349D01*
X3175318Y1528696D01*
X3180000Y1527765D01*
X3324932D01*
X3337765Y1514932D01*
Y1220909D01*
X3336405Y1220346D01*
X3329654Y1213595D01*
X3326000Y1204774D01*
Y1195226D01*
X3329654Y1186405D01*
X3336405Y1179654D01*
X3345226Y1176000D01*
X3354774D01*
X3363595Y1179654D01*
X3370346Y1186405D01*
X3374000Y1195226D01*
Y1204774D01*
X3370346Y1213595D01*
X3363595Y1220346D01*
X3362235Y1220909D01*
Y1520000D01*
X3361304Y1524682D01*
X3358651Y1528651D01*
X3338651Y1548651D01*
X3334682Y1551304D01*
X3330000Y1552235D01*
X3185068D01*
X3172235Y1565068D01*
Y1783204D01*
X3172236Y1783234D01*
X3172439Y1784665D01*
X3172756Y1785936D01*
X3173177Y1787074D01*
X3173703Y1788115D01*
X3174348Y1789092D01*
X3175136Y1790032D01*
X3176095Y1790952D01*
X3177254Y1791855D01*
X3178933Y1792926D01*
X3179384Y1793358D01*
X3182777Y1795317D01*
X3189683Y1802223D01*
X3194567Y1810682D01*
X3197095Y1820116D01*
Y1829884D01*
X3194567Y1839318D01*
X3189683Y1847777D01*
X3182777Y1854683D01*
X3174318Y1859567D01*
X3164884Y1862094D01*
D02*
G37*
G36*
X1524774Y1944000D02*
X1515226D01*
X1506405Y1940346D01*
X1499654Y1933595D01*
X1496000Y1924774D01*
Y1915226D01*
X1499654Y1906405D01*
X1506405Y1899654D01*
X1507765Y1899091D01*
Y1870000D01*
X1508696Y1865318D01*
X1511349Y1861349D01*
X1527765Y1844932D01*
Y1265068D01*
X1525187Y1262804D01*
X1517765Y1259881D01*
X1511229Y1263655D01*
X1501184Y1266346D01*
X1490785D01*
X1480739Y1263655D01*
X1473451Y1259447D01*
X1467461Y1261478D01*
X1463451Y1264315D01*
Y1293900D01*
X1464000Y1295226D01*
Y1304774D01*
X1460346Y1313595D01*
X1453595Y1320346D01*
X1444774Y1324000D01*
X1435226D01*
X1426405Y1320346D01*
X1419654Y1313595D01*
X1416000Y1304774D01*
Y1295226D01*
X1416549Y1293900D01*
Y1052366D01*
X1406549Y1049687D01*
X1403205Y1055479D01*
X1395479Y1063205D01*
X1386017Y1068668D01*
X1375463Y1071496D01*
X1375000D01*
Y1030000D01*
Y988504D01*
X1375463D01*
X1386017Y991332D01*
X1395479Y996795D01*
X1403205Y1004521D01*
X1406549Y1010313D01*
X1416549Y1007634D01*
Y730000D01*
X1418334Y721026D01*
X1423418Y713418D01*
X1446549Y690286D01*
Y583451D01*
X1380000D01*
X1371026Y581665D01*
X1363418Y576582D01*
X1353418Y566582D01*
X1348334Y558974D01*
X1346549Y550000D01*
Y449714D01*
X1317731Y420896D01*
X1316405Y420346D01*
X1309654Y413595D01*
X1306000Y404774D01*
Y395226D01*
X1306549Y393900D01*
Y297574D01*
X1308334Y288599D01*
X1313418Y280991D01*
X1330992Y263418D01*
X1338599Y258334D01*
X1347574Y256549D01*
X1856549D01*
Y246100D01*
X1856000Y244774D01*
Y235226D01*
X1859654Y226405D01*
X1866405Y219654D01*
X1875226Y216000D01*
X1884774D01*
X1893595Y219654D01*
X1900346Y226405D01*
X1904000Y235226D01*
Y244774D01*
X1903451Y246100D01*
Y256549D01*
X2296549D01*
Y166100D01*
X2296000Y164774D01*
Y155226D01*
X2299654Y146405D01*
X2306405Y139654D01*
X2315226Y136000D01*
X2324774D01*
X2333595Y139654D01*
X2340346Y146405D01*
X2344000Y155226D01*
Y164774D01*
X2343451Y166100D01*
Y256549D01*
X2555457D01*
X2557962Y246549D01*
X2543925Y239046D01*
X2529059Y226846D01*
X2516859Y211981D01*
X2507794Y195021D01*
X2502212Y176618D01*
X2500327Y157480D01*
X2502212Y138342D01*
X2507794Y119940D01*
X2516859Y102980D01*
X2529059Y88114D01*
X2543925Y75914D01*
X2560885Y66849D01*
X2579287Y61267D01*
X2598425Y59382D01*
X2617563Y61267D01*
X2635966Y66849D01*
X2652926Y75914D01*
X2667791Y88114D01*
X2679991Y102980D01*
X2689056Y119940D01*
X2694639Y138342D01*
X2696524Y157480D01*
X2694639Y176618D01*
X2689056Y195021D01*
X2679991Y211981D01*
X2667791Y226846D01*
X2652926Y239046D01*
X2638888Y246549D01*
X2641393Y256549D01*
X2673900D01*
X2675226Y256000D01*
X2684774D01*
X2693595Y259654D01*
X2700346Y266405D01*
X2704000Y275226D01*
Y284774D01*
X2700346Y293595D01*
X2693595Y300346D01*
X2684774Y304000D01*
X2675226D01*
X2673900Y303451D01*
X1880000D01*
X1876213Y302697D01*
X1872426Y303451D01*
X1357287D01*
X1353451Y307287D01*
Y390286D01*
X1386582Y423418D01*
X1386582Y423418D01*
X1391666Y431026D01*
X1393451Y440000D01*
Y536549D01*
X1463900D01*
X1465226Y536000D01*
X1474774D01*
X1477765Y537239D01*
X1487765Y530758D01*
Y460909D01*
X1486405Y460346D01*
X1479654Y453595D01*
X1476000Y444774D01*
Y435226D01*
X1479654Y426405D01*
X1486405Y419654D01*
X1495226Y416000D01*
X1504774D01*
X1513595Y419654D01*
X1520346Y426405D01*
X1524000Y435226D01*
Y444774D01*
X1523177Y446761D01*
X1523227Y446989D01*
X1530174Y456000D01*
X1534774D01*
X1537765Y457239D01*
X1547765Y450758D01*
Y420909D01*
X1546405Y420346D01*
X1539654Y413595D01*
X1536000Y404774D01*
Y395226D01*
X1539654Y386405D01*
X1546405Y379654D01*
X1547765Y379091D01*
Y350000D01*
X1548696Y345318D01*
X1551349Y341349D01*
X1569348Y323349D01*
X1573318Y320696D01*
X1578000Y319765D01*
X2902000D01*
X2906682Y320696D01*
X2910651Y323349D01*
X2928651Y341348D01*
X2931304Y345318D01*
X2932235Y350000D01*
Y547765D01*
X2970758D01*
X2977239Y537765D01*
X2976000Y534774D01*
Y525226D01*
X2979654Y516405D01*
X2986405Y509654D01*
X2987765Y509091D01*
Y310000D01*
X2988696Y305318D01*
X2991349Y301349D01*
X3001349Y291349D01*
X3005318Y288696D01*
X3010000Y287765D01*
X3659090D01*
X3659654Y286405D01*
X3666405Y279654D01*
X3675226Y276000D01*
X3684774D01*
X3693595Y279654D01*
X3700346Y286405D01*
X3704000Y295226D01*
Y304774D01*
X3700346Y313595D01*
X3693595Y320346D01*
X3684774Y324000D01*
X3675226D01*
X3666405Y320346D01*
X3659654Y313595D01*
X3659090Y312235D01*
X3015068D01*
X3012235Y315068D01*
Y350173D01*
X3022235Y353824D01*
X3026405Y349654D01*
X3035226Y346000D01*
X3044774D01*
X3053595Y349654D01*
X3060346Y356405D01*
X3060910Y357765D01*
X3490000D01*
X3494682Y358696D01*
X3498651Y361349D01*
X3508651Y371349D01*
X3511304Y375318D01*
X3512235Y380000D01*
Y619091D01*
X3513595Y619654D01*
X3520346Y626405D01*
X3524000Y635226D01*
Y644774D01*
X3520346Y653595D01*
X3513595Y660346D01*
X3504774Y664000D01*
X3495226D01*
X3492235Y662761D01*
X3482235Y669242D01*
Y730000D01*
X3481304Y734682D01*
X3478651Y738652D01*
X3458651Y758652D01*
X3454682Y761304D01*
X3450000Y762235D01*
X3310910D01*
X3310346Y763595D01*
X3303595Y770346D01*
X3294774Y774000D01*
X3285226D01*
X3283900Y773451D01*
X3076100D01*
X3074774Y774000D01*
X3065226D01*
X3063900Y773451D01*
X2793451D01*
Y1093900D01*
X2794000Y1095226D01*
Y1104774D01*
X2790346Y1113595D01*
X2783595Y1120346D01*
X2774774Y1124000D01*
X2765226D01*
X2756405Y1120346D01*
X2749654Y1113595D01*
X2746000Y1104774D01*
Y1095226D01*
X2746549Y1093900D01*
Y1080444D01*
X2736549Y1075667D01*
X2732235Y1079151D01*
Y1339091D01*
X2733595Y1339654D01*
X2739274Y1345333D01*
X2745000Y1345924D01*
X2750726Y1345333D01*
X2756405Y1339654D01*
X2757765Y1339091D01*
Y1220909D01*
X2756405Y1220346D01*
X2749654Y1213595D01*
X2746000Y1204774D01*
Y1195226D01*
X2749654Y1186405D01*
X2756405Y1179654D01*
X2765226Y1176000D01*
X2774774D01*
X2783595Y1179654D01*
X2790346Y1186405D01*
X2794000Y1195226D01*
Y1204774D01*
X2790346Y1213595D01*
X2783595Y1220346D01*
X2782235Y1220909D01*
Y1339091D01*
X2783595Y1339654D01*
X2790346Y1346405D01*
X2794000Y1355226D01*
Y1364774D01*
X2790346Y1373595D01*
X2783595Y1380346D01*
X2774774Y1384000D01*
X2765226D01*
X2764667Y1383768D01*
X2756919Y1383170D01*
X2755415Y1386104D01*
X2756177Y1392235D01*
X2760346Y1396405D01*
X2760910Y1397765D01*
X3125314D01*
X3129996Y1398696D01*
X3133965Y1401349D01*
X3138651Y1406035D01*
X3141304Y1410004D01*
X3142235Y1414686D01*
Y1449091D01*
X3143595Y1449654D01*
X3150346Y1456405D01*
X3154000Y1465226D01*
Y1474774D01*
X3150346Y1483595D01*
X3143595Y1490346D01*
X3134774Y1494000D01*
X3125226D01*
X3116405Y1490346D01*
X3109654Y1483595D01*
X3106000Y1474774D01*
Y1465226D01*
X3109654Y1456405D01*
X3116405Y1449654D01*
X3117765Y1449091D01*
Y1422235D01*
X2760910D01*
X2760346Y1423595D01*
X2753595Y1430346D01*
X2744774Y1434000D01*
X2735226D01*
X2726405Y1430346D01*
X2719654Y1423595D01*
X2716000Y1414774D01*
Y1405226D01*
X2719654Y1396405D01*
X2722059Y1394000D01*
X2717917Y1384000D01*
X2715226D01*
X2706405Y1380346D01*
X2699654Y1373595D01*
X2696000Y1364774D01*
Y1363239D01*
X2694918Y1355082D01*
X2686761Y1354000D01*
X2685226D01*
X2676405Y1350346D01*
X2669654Y1343595D01*
X2666000Y1334774D01*
Y1325226D01*
X2669654Y1316405D01*
X2676405Y1309654D01*
X2677765Y1309091D01*
Y1070000D01*
X2678696Y1065318D01*
X2681349Y1061349D01*
X2687765Y1054932D01*
Y989242D01*
X2677765Y982761D01*
X2674774Y984000D01*
X2665226D01*
X2656405Y980346D01*
X2649654Y973595D01*
X2649090Y972235D01*
X2635068D01*
X2632235Y975068D01*
Y1430000D01*
X2631304Y1434682D01*
X2628651Y1438651D01*
X2618651Y1448651D01*
X2614682Y1451304D01*
X2610000Y1452235D01*
X2555068D01*
X2552235Y1455068D01*
Y1539091D01*
X2553595Y1539654D01*
X2560346Y1546405D01*
X2564000Y1555226D01*
Y1564774D01*
X2560346Y1573595D01*
X2553595Y1580346D01*
X2544774Y1584000D01*
X2535226D01*
X2534000Y1583492D01*
X2524285Y1584737D01*
X2522382Y1588680D01*
X2520346Y1593595D01*
X2513595Y1600346D01*
X2504774Y1604000D01*
X2495226D01*
X2486405Y1600346D01*
X2479654Y1593595D01*
X2476000Y1584774D01*
Y1575226D01*
X2479654Y1566405D01*
X2481868Y1564191D01*
X2481450Y1562887D01*
X2476774Y1554000D01*
X2467226D01*
X2458405Y1550346D01*
X2451654Y1543595D01*
X2451090Y1542235D01*
X2254686D01*
X2250004Y1541304D01*
X2246035Y1538651D01*
X2242235Y1534852D01*
X2238523Y1535317D01*
X2232235Y1538326D01*
Y1829091D01*
X2233595Y1829654D01*
X2240346Y1836405D01*
X2244000Y1845226D01*
Y1854774D01*
X2240346Y1863595D01*
X2233595Y1870346D01*
X2224774Y1874000D01*
X2215226D01*
X2206405Y1870346D01*
X2199654Y1863595D01*
X2196000Y1854774D01*
Y1853239D01*
X2194918Y1845082D01*
X2186761Y1844000D01*
X2185226D01*
X2176405Y1840346D01*
X2169654Y1833595D01*
X2166000Y1824774D01*
Y1815226D01*
X2169654Y1806405D01*
X2176405Y1799654D01*
X2177765Y1799091D01*
Y672235D01*
X2064686D01*
X2060004Y671304D01*
X2056035Y668652D01*
X2051349Y663965D01*
X2048696Y659996D01*
X2047765Y655314D01*
Y590909D01*
X2046405Y590346D01*
X2039654Y583595D01*
X2036000Y574774D01*
Y565226D01*
X2039654Y556405D01*
X2046405Y549654D01*
X2055226Y546000D01*
X2064774D01*
X2073595Y549654D01*
X2080346Y556405D01*
X2084000Y565226D01*
Y574774D01*
X2080346Y583595D01*
X2073595Y590346D01*
X2072235Y590909D01*
Y647765D01*
X2185314D01*
X2189996Y648696D01*
X2193965Y651348D01*
X2198651Y656035D01*
X2201304Y660004D01*
X2202235Y664686D01*
Y819868D01*
X2211518Y823766D01*
X2217765Y818025D01*
Y650909D01*
X2216405Y650346D01*
X2209654Y643595D01*
X2206000Y634774D01*
Y625226D01*
X2209654Y616405D01*
X2216405Y609654D01*
X2225226Y606000D01*
X2234774D01*
X2243595Y609654D01*
X2250346Y616405D01*
X2254000Y625226D01*
Y634774D01*
X2250346Y643595D01*
X2243595Y650346D01*
X2242235Y650909D01*
Y825046D01*
X2241304Y829728D01*
X2238651Y833698D01*
X2232235Y840114D01*
Y980758D01*
X2242235Y987239D01*
X2245226Y986000D01*
X2254774D01*
X2263595Y989654D01*
X2270346Y996405D01*
X2274000Y1005226D01*
Y1014774D01*
X2270346Y1023595D01*
X2263595Y1030346D01*
X2262235Y1030909D01*
Y1200758D01*
X2272235Y1207239D01*
X2275226Y1206000D01*
X2284774D01*
X2293595Y1209654D01*
X2300346Y1216405D01*
X2304000Y1225226D01*
Y1234774D01*
X2300346Y1243595D01*
X2293595Y1250346D01*
X2292235Y1250909D01*
Y1483038D01*
X2301784Y1485375D01*
X2307199Y1477669D01*
X2306000Y1474774D01*
Y1465226D01*
X2309654Y1456405D01*
X2316405Y1449654D01*
X2317765Y1449091D01*
Y1374686D01*
X2318696Y1370004D01*
X2321349Y1366035D01*
X2326035Y1361349D01*
X2330004Y1358696D01*
X2334686Y1357765D01*
X2529090D01*
X2529654Y1356405D01*
X2536405Y1349654D01*
X2545226Y1346000D01*
X2554774D01*
X2563595Y1349654D01*
X2570346Y1356405D01*
X2574000Y1365226D01*
Y1374774D01*
X2570346Y1383595D01*
X2563595Y1390346D01*
X2554774Y1394000D01*
X2553239D01*
X2545082Y1395082D01*
X2544000Y1403239D01*
Y1404774D01*
X2540346Y1413595D01*
X2533595Y1420346D01*
X2524774Y1424000D01*
X2515226D01*
X2506405Y1420346D01*
X2499654Y1413595D01*
X2499090Y1412235D01*
X2400910D01*
X2400346Y1413595D01*
X2393595Y1420346D01*
X2384774Y1424000D01*
X2375226D01*
X2366405Y1420346D01*
X2359654Y1413595D01*
X2356000Y1404774D01*
Y1395226D01*
X2357199Y1392331D01*
X2351784Y1384625D01*
X2342235Y1386962D01*
Y1449091D01*
X2343595Y1449654D01*
X2350346Y1456405D01*
X2354000Y1465226D01*
Y1474774D01*
X2352761Y1477765D01*
X2359242Y1487765D01*
X2495314D01*
X2499996Y1488696D01*
X2503965Y1491349D01*
X2508651Y1496035D01*
X2511304Y1500004D01*
X2512235Y1504686D01*
Y1536501D01*
X2522027Y1540676D01*
X2527765Y1536359D01*
Y1450000D01*
X2528696Y1445318D01*
X2531349Y1441349D01*
X2541349Y1431349D01*
X2545318Y1428696D01*
X2550000Y1427765D01*
X2604932D01*
X2607765Y1424932D01*
Y970000D01*
X2608696Y965318D01*
X2611349Y961348D01*
X2621349Y951348D01*
X2625318Y948696D01*
X2630000Y947765D01*
X2649090D01*
X2649654Y946405D01*
X2656405Y939654D01*
X2665226Y936000D01*
X2674774D01*
X2677765Y937239D01*
X2687765Y930758D01*
Y820909D01*
X2686405Y820346D01*
X2679654Y813595D01*
X2676000Y804774D01*
Y795226D01*
X2679654Y786405D01*
X2682059Y784000D01*
X2677917Y774000D01*
X2675226D01*
X2666405Y770346D01*
X2659654Y763595D01*
X2656000Y754774D01*
Y745226D01*
X2659654Y736405D01*
X2666405Y729654D01*
X2675226Y726000D01*
X2684774D01*
X2686100Y726549D01*
X3063900D01*
X3065226Y726000D01*
X3074774D01*
X3076100Y726549D01*
X3283900D01*
X3285226Y726000D01*
X3294774D01*
X3303595Y729654D01*
X3310346Y736405D01*
X3310910Y737765D01*
X3444932D01*
X3457765Y724932D01*
Y499827D01*
X3447765Y496176D01*
X3443595Y500346D01*
X3434774Y504000D01*
X3425226D01*
X3422799Y502995D01*
X3413528Y509978D01*
Y514302D01*
X3409874Y523122D01*
X3403469Y529528D01*
X3409874Y535933D01*
X3413528Y544754D01*
Y554302D01*
X3409874Y563122D01*
X3403122Y569874D01*
X3394302Y573528D01*
X3384754D01*
X3375933Y569874D01*
X3369181Y563122D01*
X3368618Y561763D01*
X3155540D01*
X3128652Y588652D01*
X3124682Y591304D01*
X3120000Y592235D01*
X2904686D01*
X2900004Y591304D01*
X2896035Y588652D01*
X2891349Y583965D01*
X2888696Y579996D01*
X2887765Y575314D01*
Y372235D01*
X2423012D01*
X2420004Y378523D01*
X2419538Y382235D01*
X2428651Y391349D01*
X2431304Y395318D01*
X2432235Y400000D01*
Y400758D01*
X2442235Y407239D01*
X2445226Y406000D01*
X2454774D01*
X2463595Y409654D01*
X2470346Y416405D01*
X2474000Y425226D01*
Y434774D01*
X2470346Y443595D01*
X2463595Y450346D01*
X2462235Y450909D01*
Y520758D01*
X2472235Y527239D01*
X2475226Y526000D01*
X2484774D01*
X2493595Y529654D01*
X2500346Y536405D01*
X2504000Y545226D01*
Y554774D01*
X2500346Y563595D01*
X2493595Y570346D01*
X2492235Y570909D01*
Y779091D01*
X2493595Y779654D01*
X2500346Y786405D01*
X2504000Y795226D01*
Y804774D01*
X2500346Y813595D01*
X2493595Y820346D01*
X2484774Y824000D01*
X2475226D01*
X2472235Y822761D01*
X2462235Y829242D01*
Y859091D01*
X2463595Y859654D01*
X2470346Y866405D01*
X2474000Y875226D01*
Y884774D01*
X2470346Y893595D01*
X2463595Y900346D01*
X2454774Y904000D01*
X2445226D01*
X2442235Y902761D01*
X2432235Y909242D01*
Y939091D01*
X2433595Y939654D01*
X2440346Y946405D01*
X2444000Y955226D01*
Y964774D01*
X2440346Y973595D01*
X2433595Y980346D01*
X2424774Y984000D01*
X2415226D01*
X2406405Y980346D01*
X2399654Y973595D01*
X2396000Y964774D01*
Y955226D01*
X2399654Y946405D01*
X2406405Y939654D01*
X2407765Y939091D01*
Y405068D01*
X2404932Y402235D01*
X2120448D01*
X2119559Y404382D01*
X2112807Y411134D01*
X2103986Y414787D01*
X2094439D01*
X2085618Y411134D01*
X2078866Y404382D01*
X2075213Y395561D01*
Y386014D01*
X2076778Y382235D01*
X2070758Y372235D01*
X1620909D01*
X1620346Y373595D01*
X1613595Y380346D01*
X1612235Y380909D01*
Y659091D01*
X1613595Y659654D01*
X1620346Y666405D01*
X1624000Y675226D01*
Y684774D01*
X1620346Y693595D01*
X1613595Y700346D01*
X1604774Y704000D01*
X1595226D01*
X1588027Y701018D01*
X1581015Y703098D01*
X1577043Y705127D01*
X1576294Y708991D01*
X1583866Y716563D01*
X1585226Y716000D01*
X1594774D01*
X1603595Y719654D01*
X1610346Y726405D01*
X1614000Y735226D01*
Y744774D01*
X1610346Y753595D01*
X1603595Y760346D01*
X1594774Y764000D01*
X1585226D01*
X1576405Y760346D01*
X1569654Y753595D01*
X1566000Y744774D01*
Y735226D01*
X1566563Y733866D01*
X1551349Y718652D01*
X1548696Y714682D01*
X1547765Y710000D01*
Y669242D01*
X1537765Y662761D01*
X1534774Y664000D01*
X1525226D01*
X1522235Y662761D01*
X1512235Y669242D01*
Y709598D01*
X1511304Y714280D01*
X1508652Y718249D01*
X1508219Y718682D01*
Y787655D01*
X1508231Y787901D01*
X1508461Y789472D01*
X1508826Y790886D01*
X1509317Y792174D01*
X1509940Y793372D01*
X1510712Y794512D01*
X1511658Y795619D01*
X1512807Y796704D01*
X1514189Y797770D01*
X1516106Y798988D01*
X1516563Y799425D01*
X1520235Y801545D01*
X1527589Y808899D01*
X1532789Y817905D01*
X1535480Y827950D01*
Y838349D01*
X1532789Y848394D01*
X1527589Y857401D01*
X1525986Y859003D01*
X1531651Y867481D01*
X1535226Y866000D01*
X1544774D01*
X1553595Y869654D01*
X1560346Y876405D01*
X1564000Y885226D01*
Y894774D01*
X1560346Y903595D01*
X1553595Y910346D01*
X1552235Y910909D01*
Y1850000D01*
X1551304Y1854682D01*
X1548651Y1858651D01*
X1532235Y1875068D01*
Y1899091D01*
X1533595Y1899654D01*
X1540346Y1906405D01*
X1544000Y1915226D01*
Y1924774D01*
X1540346Y1933595D01*
X1533595Y1940346D01*
X1524774Y1944000D01*
D02*
G37*
G36*
X1243433Y1243433D02*
X1156567D01*
Y1156567D01*
X1243433D01*
Y1243433D01*
D02*
G37*
G36*
X3753433Y1183433D02*
X3666567D01*
Y1096567D01*
X3753433D01*
Y1183433D01*
D02*
G37*
G36*
X3294774Y1384000D02*
X3285226D01*
X3276405Y1380346D01*
X3269654Y1373595D01*
X3266000Y1364774D01*
Y1355226D01*
X3269654Y1346405D01*
X3276405Y1339654D01*
X3277765Y1339091D01*
Y1120909D01*
X3276405Y1120346D01*
X3269654Y1113595D01*
X3266000Y1104774D01*
Y1095226D01*
X3269654Y1086405D01*
X3276405Y1079654D01*
X3285226Y1076000D01*
X3294774D01*
X3303595Y1079654D01*
X3310346Y1086405D01*
X3314000Y1095226D01*
Y1104774D01*
X3310346Y1113595D01*
X3303595Y1120346D01*
X3302235Y1120909D01*
Y1339091D01*
X3303595Y1339654D01*
X3310346Y1346405D01*
X3314000Y1355226D01*
Y1364774D01*
X3310346Y1373595D01*
X3303595Y1380346D01*
X3294774Y1384000D01*
D02*
G37*
G36*
X1205718Y1143433D02*
X1194282D01*
X1183236Y1140473D01*
X1173332Y1134755D01*
X1165245Y1126668D01*
X1159527Y1116764D01*
X1156567Y1105718D01*
Y1094282D01*
X1159527Y1083236D01*
X1165245Y1073332D01*
X1173332Y1065245D01*
X1183236Y1059527D01*
X1194282Y1056567D01*
X1205718D01*
X1216764Y1059527D01*
X1226668Y1065245D01*
X1234755Y1073332D01*
X1240473Y1083236D01*
X1243433Y1094282D01*
Y1105718D01*
X1240473Y1116764D01*
X1234755Y1126668D01*
X1226668Y1134755D01*
X1216764Y1140473D01*
X1205718Y1143433D01*
D02*
G37*
G36*
X1314774Y1864000D02*
X1305226D01*
X1296405Y1860346D01*
X1289654Y1853595D01*
X1286000Y1844774D01*
Y1835226D01*
X1289654Y1826405D01*
X1296405Y1819654D01*
X1297765Y1819091D01*
Y930909D01*
X1296405Y930346D01*
X1289654Y923595D01*
X1286000Y914774D01*
Y905226D01*
X1289654Y896405D01*
X1296405Y889654D01*
X1305226Y886000D01*
X1314774D01*
X1323595Y889654D01*
X1330346Y896405D01*
X1334000Y905226D01*
Y914774D01*
X1330346Y923595D01*
X1323595Y930346D01*
X1322235Y930909D01*
Y1010662D01*
X1326871Y1012354D01*
X1332235Y1012419D01*
X1336795Y1004521D01*
X1344521Y996795D01*
X1353983Y991332D01*
X1364537Y988504D01*
X1365000D01*
Y1030000D01*
Y1071496D01*
X1364537D01*
X1353983Y1068668D01*
X1344521Y1063205D01*
X1336795Y1055479D01*
X1332235Y1047581D01*
X1326871Y1047646D01*
X1322235Y1049338D01*
Y1819091D01*
X1323595Y1819654D01*
X1330346Y1826405D01*
X1334000Y1835226D01*
Y1844774D01*
X1330346Y1853595D01*
X1323595Y1860346D01*
X1314774Y1864000D01*
D02*
G37*
G36*
X1205981Y845433D02*
X1205000D01*
Y805000D01*
X1245433D01*
Y805981D01*
X1242337Y817537D01*
X1236355Y827896D01*
X1227897Y836355D01*
X1217536Y842337D01*
X1205981Y845433D01*
D02*
G37*
G36*
X1195000D02*
X1194019D01*
X1182464Y842337D01*
X1172103Y836355D01*
X1163645Y827896D01*
X1157663Y817537D01*
X1154567Y805981D01*
Y805000D01*
X1195000D01*
Y845433D01*
D02*
G37*
G36*
X1245433Y795000D02*
X1205000D01*
Y754567D01*
X1205981D01*
X1217536Y757663D01*
X1227897Y763645D01*
X1236355Y772104D01*
X1242337Y782463D01*
X1245433Y794019D01*
Y795000D01*
D02*
G37*
G36*
X1195000D02*
X1154567D01*
Y794019D01*
X1157663Y782463D01*
X1163645Y772104D01*
X1172103Y763645D01*
X1182464Y757663D01*
X1194019Y754567D01*
X1195000D01*
Y795000D01*
D02*
G37*
G36*
X1604774Y1494000D02*
X1595226D01*
X1586405Y1490346D01*
X1579654Y1483595D01*
X1576000Y1474774D01*
Y1465226D01*
X1579654Y1456405D01*
X1586405Y1449654D01*
X1587765Y1449091D01*
Y1130909D01*
X1586405Y1130346D01*
X1579654Y1123595D01*
X1576000Y1114774D01*
Y1105226D01*
X1579654Y1096405D01*
X1586405Y1089654D01*
X1587765Y1089091D01*
Y920000D01*
X1588696Y915318D01*
X1591349Y911348D01*
X1601349Y901348D01*
X1605318Y898696D01*
X1610000Y897765D01*
X1804932D01*
X1807765Y894932D01*
Y600909D01*
X1806405Y600346D01*
X1799654Y593595D01*
X1796000Y584774D01*
Y575226D01*
X1799654Y566405D01*
X1806405Y559654D01*
X1815226Y556000D01*
X1824774D01*
X1833595Y559654D01*
X1840346Y566405D01*
X1844000Y575226D01*
Y584774D01*
X1840346Y593595D01*
X1833595Y600346D01*
X1832235Y600909D01*
Y900000D01*
X1831304Y904682D01*
X1828651Y908652D01*
X1818651Y918652D01*
X1814682Y921304D01*
X1810000Y922235D01*
X1615068D01*
X1612235Y925068D01*
Y1089091D01*
X1613595Y1089654D01*
X1620346Y1096405D01*
X1624000Y1105226D01*
Y1114774D01*
X1620346Y1123595D01*
X1613595Y1130346D01*
X1612235Y1130909D01*
Y1449091D01*
X1613595Y1449654D01*
X1620346Y1456405D01*
X1624000Y1465226D01*
Y1474774D01*
X1620346Y1483595D01*
X1613595Y1490346D01*
X1604774Y1494000D01*
D02*
G37*
%LPD*%
G36*
X2330697Y2160715D02*
X2317615Y2145914D01*
X2314417Y2141593D01*
X2311801Y2137578D01*
X2309766Y2133869D01*
X2308312Y2130466D01*
X2307440Y2127369D01*
X2307150Y2124579D01*
X2299150D01*
X2298859Y2127369D01*
X2297987Y2130466D01*
X2296533Y2133869D01*
X2294498Y2137578D01*
X2291882Y2141593D01*
X2288684Y2145914D01*
X2280544Y2155475D01*
X2270079Y2166261D01*
X2336220D01*
X2330697Y2160715D01*
D02*
G37*
G36*
X2133847D02*
X2120765Y2145914D01*
X2117567Y2141593D01*
X2114950Y2137578D01*
X2112916Y2133869D01*
X2111462Y2130466D01*
X2110590Y2127369D01*
X2110299Y2124579D01*
X2102299D01*
X2102008Y2127369D01*
X2101136Y2130466D01*
X2099683Y2133869D01*
X2097648Y2137578D01*
X2095032Y2141593D01*
X2091834Y2145914D01*
X2083694Y2155475D01*
X2073228Y2166261D01*
X2139370D01*
X2133847Y2160715D01*
D02*
G37*
G36*
X3286474Y1987543D02*
X3287872Y1985750D01*
X3289389Y1984168D01*
X3291026Y1982797D01*
X3292784Y1981637D01*
X3294660Y1980688D01*
X3296657Y1979949D01*
X3298773Y1979422D01*
X3301010Y1979105D01*
X3303365Y1979000D01*
Y1971000D01*
X3301010Y1970895D01*
X3298773Y1970578D01*
X3296657Y1970051D01*
X3294660Y1969312D01*
X3292784Y1968363D01*
X3291026Y1967203D01*
X3289389Y1965832D01*
X3287872Y1964250D01*
X3286474Y1962457D01*
X3285197Y1960453D01*
Y1989547D01*
X3286474Y1987543D01*
D02*
G37*
G36*
X1169314Y982284D02*
X1167666Y984890D01*
X1165890Y987221D01*
X1163987Y989279D01*
X1161955Y991062D01*
X1159795Y992571D01*
X1157507Y993805D01*
X1155092Y994765D01*
X1152548Y995451D01*
X1149877Y995863D01*
X1147077Y996000D01*
Y1004000D01*
X1149877Y1004137D01*
X1152548Y1004549D01*
X1155092Y1005235D01*
X1157507Y1006195D01*
X1159795Y1007429D01*
X1161955Y1008938D01*
X1163987Y1010721D01*
X1165890Y1012779D01*
X1167666Y1015110D01*
X1169314Y1017716D01*
Y982284D01*
D02*
G37*
G36*
Y882284D02*
X1167666Y884890D01*
X1165890Y887221D01*
X1163987Y889279D01*
X1161955Y891062D01*
X1159795Y892571D01*
X1157507Y893805D01*
X1155092Y894765D01*
X1152548Y895451D01*
X1149877Y895863D01*
X1147077Y896000D01*
Y904000D01*
X1149877Y904137D01*
X1152548Y904549D01*
X1155092Y905235D01*
X1157507Y906195D01*
X1159795Y907429D01*
X1161955Y908938D01*
X1163987Y910721D01*
X1165890Y912779D01*
X1167666Y915110D01*
X1169314Y917716D01*
Y882284D01*
D02*
G37*
G36*
X3172543Y1798526D02*
X3170750Y1797128D01*
X3169168Y1795611D01*
X3167797Y1793974D01*
X3166637Y1792216D01*
X3165688Y1790340D01*
X3164949Y1788343D01*
X3164422Y1786227D01*
X3164106Y1783991D01*
X3164000Y1781634D01*
X3156000D01*
X3155894Y1783991D01*
X3155578Y1786227D01*
X3155051Y1788343D01*
X3154312Y1790340D01*
X3153363Y1792216D01*
X3152203Y1793974D01*
X3150832Y1795611D01*
X3149250Y1797128D01*
X3147457Y1798526D01*
X3145453Y1799803D01*
X3174547D01*
X3172543Y1798526D01*
D02*
G37*
G36*
X1509500Y1198156D02*
X1507503Y1196615D01*
X1505741Y1194951D01*
X1504214Y1193164D01*
X1502921Y1191255D01*
X1501864Y1189222D01*
X1501042Y1187066D01*
X1500454Y1184787D01*
X1500102Y1182386D01*
X1499984Y1179861D01*
X1491984D01*
X1491867Y1182386D01*
X1491514Y1184787D01*
X1490927Y1187066D01*
X1490105Y1189222D01*
X1489047Y1191255D01*
X1487755Y1193164D01*
X1486228Y1194951D01*
X1484466Y1196615D01*
X1482468Y1198156D01*
X1480236Y1199574D01*
X1511732D01*
X1509500Y1198156D01*
D02*
G37*
G36*
X1500102Y877614D02*
X1500454Y875213D01*
X1501042Y872934D01*
X1501864Y870778D01*
X1502921Y868745D01*
X1504214Y866836D01*
X1505741Y865049D01*
X1507503Y863385D01*
X1509500Y861844D01*
X1511732Y860426D01*
X1480236D01*
X1482468Y861844D01*
X1484466Y863385D01*
X1486228Y865049D01*
X1487755Y866836D01*
X1489047Y868745D01*
X1490105Y870778D01*
X1490927Y872934D01*
X1491514Y875213D01*
X1491867Y877614D01*
X1491984Y880139D01*
X1499984D01*
X1500102Y877614D01*
D02*
G37*
G36*
X1509500Y804455D02*
X1507503Y802914D01*
X1505741Y801250D01*
X1504214Y799463D01*
X1502921Y797554D01*
X1501864Y795521D01*
X1501042Y793365D01*
X1500454Y791087D01*
X1500102Y788685D01*
X1499984Y786161D01*
X1491984D01*
X1491867Y788685D01*
X1491514Y791087D01*
X1490927Y793365D01*
X1490105Y795521D01*
X1489047Y797554D01*
X1487755Y799463D01*
X1486228Y801250D01*
X1484466Y802914D01*
X1482468Y804455D01*
X1480236Y805873D01*
X1511732D01*
X1509500Y804455D01*
D02*
G37*
D88*
X2294000Y2014000D02*
X2303150Y2023150D01*
Y2200000D01*
X2101613Y2033149D02*
X2106299Y2037836D01*
X1813149Y2033149D02*
X2101613D01*
X2106299Y2037836D02*
Y2200000D01*
X2099213Y390787D02*
X2100000Y390000D01*
X2410000D01*
X1495984Y713614D02*
Y1226850D01*
Y713614D02*
X1500000Y709598D01*
Y440000D02*
Y709598D01*
X2740000Y1410000D02*
X3125314D01*
X3130000Y1414686D02*
Y1470000D01*
X3125314Y1410000D02*
X3130000Y1414686D01*
X2770000Y1200000D02*
Y1360000D01*
X2720000Y1070000D02*
Y1360000D01*
X2690000Y1070000D02*
Y1330000D01*
X2902000Y332000D02*
X2920000Y350000D01*
X1560000D02*
Y710000D01*
X1578000Y332000D02*
X2902000D01*
X1560000Y350000D02*
X1578000Y332000D01*
X3700000Y1070000D02*
X3710000Y1060000D01*
Y720000D02*
Y1060000D01*
X3609944Y1070000D02*
X3700000D01*
X3600049Y1079895D02*
X3609944Y1070000D01*
X3600049Y1230049D02*
X3610000Y1240000D01*
X3600049Y1079895D02*
Y1230049D01*
X3610000Y1240000D02*
X3710000D01*
X1800000Y980000D02*
Y2020000D01*
X1813149Y2033149D01*
X1824686Y2014000D02*
X2294000D01*
X1820000Y2009314D02*
X1824686Y2014000D01*
X1820000Y1030000D02*
Y2009314D01*
X1520000Y1870000D02*
Y1920000D01*
Y1870000D02*
X1540000Y1850000D01*
Y890000D02*
Y1850000D01*
X3710000Y250000D02*
Y720000D01*
X3700000Y240000D02*
X3710000Y250000D01*
X3520000Y240000D02*
X3700000D01*
X3520000Y720000D02*
X3710000D01*
X3010000Y300000D02*
X3680000D01*
X930000Y660000D02*
Y880000D01*
X1310000Y910000D02*
Y1840000D01*
X1100000Y904686D02*
Y1560000D01*
X1104686Y900000D02*
X1200000D01*
X1100000Y904686D02*
X1104686Y900000D01*
X1130000Y1010000D02*
Y1680000D01*
X1140000Y1000000D02*
X1200000D01*
X1130000Y1010000D02*
X1140000Y1000000D01*
X1600000Y1110000D02*
Y1470000D01*
Y920000D02*
Y1110000D01*
X3290000Y1100000D02*
Y1360000D01*
Y750000D02*
X3450000D01*
X3470000Y730000D01*
Y400000D02*
Y730000D01*
X3500000Y380000D02*
Y640000D01*
X3490000Y370000D02*
X3500000Y380000D01*
X3040000Y370000D02*
X3490000D01*
X1600000Y360000D02*
X2895314D01*
X2920000Y350000D02*
Y555314D01*
X2895314Y360000D02*
X2900000Y364686D01*
Y575314D01*
X1530000Y480000D02*
Y640000D01*
X1560000Y710000D02*
X1590000Y740000D01*
X1940000Y1920000D02*
X2550000D01*
X1930000Y1910000D02*
X1940000Y1920000D01*
X1930000Y1760000D02*
Y1910000D01*
X2560000Y1780000D02*
Y1910000D01*
X2550000Y1920000D02*
X2560000Y1910000D01*
X2220000Y835046D02*
Y1850000D01*
X1600000Y920000D02*
X1610000Y910000D01*
X1810000D01*
X1820000Y900000D01*
Y580000D02*
Y900000D01*
Y1030000D02*
X1850000Y1000000D01*
Y940000D02*
Y1000000D01*
X2410000Y390000D02*
X2420000Y400000D01*
Y960000D01*
X2450000Y430000D02*
Y880000D01*
X2480000Y550000D02*
Y800000D01*
X3420000Y1280000D02*
Y1960000D01*
X3260000Y1975000D02*
X3405000D01*
X3420000Y1960000D01*
X3350000Y1200000D02*
Y1520000D01*
X3330000Y1540000D02*
X3350000Y1520000D01*
X3180000Y1540000D02*
X3330000D01*
X3160000Y1560000D02*
X3180000Y1540000D01*
X3160000Y1560000D02*
Y1825000D01*
X2720000Y1070000D02*
X2730000Y1060000D01*
Y880000D02*
Y1060000D01*
X2700000Y800000D02*
Y1060000D01*
X2690000Y1070000D02*
X2700000Y1060000D01*
X2630000Y960000D02*
X2670000D01*
X2620000Y970000D02*
X2630000Y960000D01*
X2620000Y970000D02*
Y1430000D01*
X2550000Y1440000D02*
X2610000D01*
X2620000Y1430000D01*
X2540000Y1450000D02*
Y1560000D01*
Y1450000D02*
X2550000Y1440000D01*
X2334686Y1370000D02*
X2550000D01*
X2330000Y1374686D02*
Y1470000D01*
Y1374686D02*
X2334686Y1370000D01*
X2380000Y1400000D02*
X2520000D01*
X2250000Y1525314D02*
X2254686Y1530000D01*
X2250000Y1010000D02*
Y1525314D01*
X2254686Y1530000D02*
X2472000D01*
X2500000Y1504686D02*
Y1580000D01*
X2495314Y1500000D02*
X2500000Y1504686D01*
X2284686Y1500000D02*
X2495314D01*
X2280000Y1495314D02*
X2284686Y1500000D01*
X2220000Y835046D02*
X2230000Y825046D01*
X2190000Y664686D02*
Y1820000D01*
X2064686Y660000D02*
X2185314D01*
X2190000Y664686D01*
X1930000Y1480000D02*
X1960000D01*
X1920000Y1470000D02*
X1930000Y1480000D01*
X1920000Y740000D02*
Y1470000D01*
X1950000Y700000D02*
Y1393506D01*
X1960000Y1403506D01*
Y1410000D01*
X1981000Y661000D02*
X1982000Y660000D01*
X2010000Y700000D02*
Y1440000D01*
X2040000Y740000D02*
Y1520000D01*
X1980000Y1360000D02*
X1981000Y1359000D01*
Y661000D02*
Y1359000D01*
X2130000Y860000D02*
Y940402D01*
X2100000Y820000D02*
Y947775D01*
X2070000Y780000D02*
Y1600000D01*
X2102000Y968402D02*
X2130000Y940402D01*
X2430000Y1200000D02*
X2530000D01*
X2280000Y1230000D02*
Y1495314D01*
X2230000Y630000D02*
Y825046D01*
X2130000Y1350000D02*
Y1760000D01*
X2102000Y1322000D02*
X2130000Y1350000D01*
X2060000Y570000D02*
Y655314D01*
X2064686Y660000D01*
X2086000Y1406000D02*
X2100000Y1420000D01*
Y1680000D01*
X2086000Y961775D02*
Y1406000D01*
X2102000Y968402D02*
Y1322000D01*
X2086000Y961775D02*
X2100000Y947775D01*
X2130000Y980000D02*
Y1280000D01*
X3423506Y480000D02*
X3430000D01*
X3413506Y470000D02*
X3423506Y480000D01*
X3040000Y470000D02*
X3413506D01*
X3160472Y509528D02*
X3389528D01*
X3150472Y549528D02*
X3389528D01*
X3000000Y310000D02*
X3010000Y300000D01*
X3000000Y310000D02*
Y530000D01*
X3120000Y580000D02*
X3150472Y549528D01*
X3110000Y560000D02*
X3160472Y509528D01*
X2900000Y575314D02*
X2904686Y580000D01*
X3120000D01*
X2920000Y555314D02*
X2924686Y560000D01*
X3110000D01*
X1600000Y360000D02*
Y680000D01*
D92*
X3848973Y1100000D02*
X4010000D01*
X3848973Y1300000D02*
X4010000D01*
X4780966Y129034D02*
X4796556D01*
X4800000Y125590D01*
X4723444Y162146D02*
X4747854D01*
X4780966Y129034D01*
X4720000Y165590D02*
X4723444Y162146D01*
X4778495Y51505D02*
X4797180D01*
X4720000Y85590D02*
X4744410D01*
X4797180Y51505D02*
X4800000Y48685D01*
X4744410Y85590D02*
X4778495Y51505D01*
X4705000Y2285590D02*
X4775000Y2245590D01*
D93*
X706221Y1679527D02*
Y1773779D01*
X666850Y1813150D02*
X706221Y1773779D01*
X666850Y1813150D02*
Y2200000D01*
X470000Y1120474D02*
Y2200000D01*
X235231Y1680979D02*
Y1765231D01*
X273150Y1803150D01*
Y2200000D01*
X840000Y80000D02*
Y320000D01*
X1330000Y297574D02*
Y400000D01*
X1347574Y280000D02*
X1872426D01*
X1880000Y272426D01*
X1330000Y297574D02*
X1347574Y280000D01*
X1880000Y240000D02*
Y280000D01*
X2310000D01*
X2680000D01*
X2310000D02*
X2320000Y270000D01*
Y160000D02*
Y270000D01*
X240000Y560000D02*
X744882D01*
X180000Y620000D02*
X240000Y560000D01*
X80000Y620000D02*
X180000D01*
X744882Y337574D02*
Y560000D01*
X762456Y750000D02*
X820000D01*
X744882Y560000D02*
Y732426D01*
X762456Y750000D01*
X744882Y337574D02*
X762456Y320000D01*
X840000D01*
X1440000Y730000D02*
Y1300000D01*
X2770000Y750000D02*
X3070000D01*
X2680000D02*
X2770000D01*
Y1100000D01*
X3070000Y750000D02*
X3290000D01*
X1380000Y560000D02*
X1470000D01*
X1370000Y550000D02*
X1380000Y560000D01*
X1330000Y400000D02*
X1370000Y440000D01*
Y550000D01*
X1440000Y730000D02*
X1470000Y700000D01*
Y560000D02*
Y700000D01*
X1680000Y1300000D02*
Y1760000D01*
D94*
X1370000Y1030000D02*
D03*
X1495984Y833150D02*
D03*
Y1226850D02*
D03*
D95*
X1633858Y2200000D02*
D03*
X2500000D02*
D03*
X666850D02*
D03*
D96*
X1437008D02*
D03*
X2106299D02*
D03*
X2303150D02*
D03*
X470000D02*
D03*
X273150D02*
D03*
D97*
X233779Y1199213D02*
D03*
D98*
X706221D02*
D03*
D99*
X233779Y1679527D02*
D03*
X706221D02*
D03*
X469999Y1120473D02*
D03*
X5433071Y275591D02*
D03*
X4094488D02*
D03*
X5433071Y2086614D02*
D03*
X4094488D02*
D03*
X3661417Y1496063D02*
D03*
X1870079Y2204724D02*
D03*
X157480Y1929134D02*
D03*
Y472441D02*
D03*
D100*
X3710000Y1140000D02*
D03*
X1200000Y1200000D02*
D03*
D101*
X3710000Y1340000D02*
D03*
Y1240000D02*
D03*
X1200000Y800000D02*
D03*
Y900000D02*
D03*
Y1000000D02*
D03*
Y1100000D02*
D03*
D102*
X425039Y191890D02*
D03*
D103*
X240000Y73779D02*
D03*
D104*
Y310000D02*
D03*
D105*
X3356850Y2260039D02*
D03*
Y1639961D02*
D03*
D106*
X3671811Y2199016D02*
D03*
Y2099016D02*
D03*
Y1800984D02*
D03*
Y1700984D02*
D03*
D107*
X3160000Y2125000D02*
D03*
X3260000Y2075000D02*
D03*
X3160000Y2025000D02*
D03*
X3260000Y1975000D02*
D03*
X3160000Y1925000D02*
D03*
X3260000Y1875000D02*
D03*
X3160000Y1825000D02*
D03*
D108*
X3260000Y1775000D02*
D03*
D109*
X3510000Y2175000D02*
D03*
Y1725000D02*
D03*
D110*
X2099213Y390787D02*
D03*
X2820000Y2290000D02*
D03*
X2130000Y50000D02*
D03*
X1500000Y440000D02*
D03*
X840000Y80000D02*
D03*
X4010000Y1100000D02*
D03*
Y1300000D02*
D03*
X2740000Y1410000D02*
D03*
X2770000Y1360000D02*
D03*
X2720000D02*
D03*
X2690000Y1330000D02*
D03*
X2680000Y280000D02*
D03*
X2470000Y241000D02*
D03*
X3410000Y120000D02*
D03*
X1520000Y1920000D02*
D03*
X80000Y620000D02*
D03*
X3680000Y300000D02*
D03*
X3848973Y1100000D02*
D03*
X3848973Y1300000D02*
D03*
X1470000Y700000D02*
D03*
X930000Y660000D02*
D03*
Y880000D02*
D03*
X744882Y560000D02*
D03*
X840000Y320000D02*
D03*
X1070000Y840000D02*
D03*
X1310000Y910000D02*
D03*
X1040000Y1260000D02*
D03*
Y1670000D02*
D03*
X1280000Y1760000D02*
D03*
X1310000Y1840000D02*
D03*
X1600000Y1110000D02*
D03*
X1100000Y1560000D02*
D03*
X1130000Y1680000D02*
D03*
X1440000Y1300000D02*
D03*
X3290000Y1100000D02*
D03*
Y1360000D02*
D03*
X2770000Y1100000D02*
D03*
X3470000Y400000D02*
D03*
X3500000Y640000D02*
D03*
X3290000Y750000D02*
D03*
X3070000D02*
D03*
X2680000D02*
D03*
X2740000Y520000D02*
D03*
X1680000Y1300000D02*
D03*
X2320000Y160000D02*
D03*
X1880000Y240000D02*
D03*
X1734592Y48685D02*
D03*
X1330000Y400000D02*
D03*
X1470000Y560000D02*
D03*
X1530000Y480000D02*
D03*
Y640000D02*
D03*
X1680000Y1760000D02*
D03*
X1930000D02*
D03*
X2560000Y1780000D02*
D03*
X1480000Y1595314D02*
D03*
X2220000Y1850000D02*
D03*
X2120000Y1880000D02*
D03*
X2400000Y1700000D02*
D03*
X1600000Y1470000D02*
D03*
X1540000Y890000D02*
D03*
X1820000Y580000D02*
D03*
X2420000Y960000D02*
D03*
X2450000Y430000D02*
D03*
Y880000D02*
D03*
X2480000Y800000D02*
D03*
Y550000D02*
D03*
X3130000Y1280000D02*
D03*
X3420000D02*
D03*
X3350000Y1200000D02*
D03*
X3070000Y1470000D02*
D03*
X3130000D02*
D03*
X2770000Y1200000D02*
D03*
X2670000Y1040000D02*
D03*
Y960000D02*
D03*
X2730000Y880000D02*
D03*
X2700000Y800000D02*
D03*
X2550000Y1370000D02*
D03*
X2520000Y1400000D02*
D03*
X2540000Y1560000D02*
D03*
X2500000Y1580000D02*
D03*
X2472000Y1530000D02*
D03*
X2190000Y1820000D02*
D03*
X2330000Y1470000D02*
D03*
X1960000Y1480000D02*
D03*
X1920000Y740000D02*
D03*
X2380000Y1400000D02*
D03*
X1960000Y1410000D02*
D03*
X2010000Y700000D02*
D03*
X1980000Y1360000D02*
D03*
X2010000Y1440000D02*
D03*
X1950000Y700000D02*
D03*
X2130000Y860000D02*
D03*
X2070000Y780000D02*
D03*
X1982000Y660000D02*
D03*
X2100000Y820000D02*
D03*
X2040000Y740000D02*
D03*
X2530000Y1200000D02*
D03*
X2430000D02*
D03*
X2280000Y1230000D02*
D03*
X2250000Y1010000D02*
D03*
X2060000Y570000D02*
D03*
X2230000Y630000D02*
D03*
X2040000Y1520000D02*
D03*
X2070000Y1600000D02*
D03*
X2130000Y980000D02*
D03*
Y1280000D02*
D03*
X2100000Y1680000D02*
D03*
X2130000Y1760000D02*
D03*
X3530000Y880000D02*
D03*
X3040000Y370000D02*
D03*
X3430000Y480000D02*
D03*
X3389528Y509528D02*
D03*
Y549528D02*
D03*
X3680000Y80000D02*
D03*
X3000000Y530000D02*
D03*
X3040000Y470000D02*
D03*
X3260000Y330000D02*
D03*
X3520000Y240000D02*
D03*
Y720000D02*
D03*
X3680000Y400000D02*
D03*
X4800000Y48685D02*
D03*
X1600000Y360000D02*
D03*
X1560000Y400000D02*
D03*
X1600000Y680000D02*
D03*
X1590000Y740000D02*
D03*
X1850000Y940000D02*
D03*
X1800000Y980000D02*
D03*
X2940000Y850000D02*
D03*
X2530000Y510000D02*
D03*
X1860000Y1410000D02*
D03*
X1330000Y520000D02*
D03*
X1320000Y160000D02*
D03*
X1710000Y240000D02*
D03*
X2980000Y210000D02*
D03*
X3260000Y670000D02*
D03*
X2740000Y280000D02*
D03*
X4705000Y2285590D02*
D03*
X4775000Y2245590D02*
D03*
X4800000Y125590D02*
D03*
X4720000Y165590D02*
D03*
Y85590D02*
D03*
X3119528Y329528D02*
D03*
X3280000Y880000D02*
D03*
X2720000Y140000D02*
D03*
M02*
