M48
;Layer_Color=9474304
;FILE_FORMAT=2:5
INCH,LZ
;TYPE=PLATED
T1F00S00C0.01600
T2F00S00C0.03543
T3F00S00C0.03819
T4F00S00C0.03937
T6F00S00C0.04331
T7F00S00C0.05118
T8F00S00C0.06496
T9F00S00C0.11811
%
T01
X0056Y0045
X006
X0067Y0066
X0082Y0071
Y0075
X0093Y0088
X011Y0084
X0131Y0091
X0154Y0089
X0159Y0074
X016Y0068
X0153Y0064
X0147Y007
Y0056
X0153Y0048
X015Y0044
X0156Y004
X016Y0036
X0171Y0024
X0188
X0173459Y0004868
X0213Y0005
X0232Y0016
X0209921Y0039079
X0206Y0057
X01982Y0066
X0201Y007
X0195
X0192Y0074
X0204
X0207Y0078
X021Y0082
X0213Y0086
Y0098
X0225Y0101
X0228Y0123
X0213Y0128
X0198Y0136
X0196Y0141
Y0148
X0201Y0144
X0204Y0152
X0186Y0141
X0168Y013
X0144
X016Y0147
Y0111
X018Y0098
X0185Y0094
X0182Y0058
X0223Y0063
X0133Y0052
Y004
X0123Y0045
X0132Y0016
X0084Y0032
X0104Y0126
X011Y0156
X0233Y0147
X0238Y014
X0252
X0255Y0137
X0272Y0136
X0277
X0274Y0141
X0269Y0133
X0277Y012
Y011
X0267Y0104
Y0096
X0273Y0088
X027Y008
X0268Y0075
X0248Y008
X0245Y0088
X0242Y0096
X0243Y012
X0253
X0254Y0156
X02472Y0153
X0307Y0147
X0313
Y0128
X0329Y0136
X0339Y0128
X0343Y012
X0329Y011
X0328Y0088
X0329Y0075
X0326Y0067
X0338953Y0054953
Y0050953
X0343Y0048
X0347Y004
X0352Y0024
X0368Y003
Y004
Y0008
X0341Y0012
X0326Y0033
X0311953Y0032953
X0304Y0037
Y0047
X03Y0053
X0274Y0052
X0253Y0051
X0248Y0055
X0245Y0043
X0247Y00241
X0268Y0028
X0274
X0272Y0014
X0298Y0021
X0307Y0075
X0294Y0085
X0353Y0088
X0352Y0072
X035Y0064
X0384897Y011
X0384897Y013
X0401
Y011
X0472Y0016559
Y0008559
X048Y0004868
Y0012559
X04775Y0224559
X04705Y0228559
X0282Y0229
X0256Y0178
X024Y017
X025Y0158
X0207Y016
X021Y0168
X0213Y0176
X0219Y0182
X0222Y0185
X0212Y0188
X0193Y0176
X0168
X0152Y0192
X0131Y0184
X0128Y0176
X0113Y0168
X0104Y0167
X0148Y0159531
T02
X0149598Y0083315
X0137Y0103
X0149598Y0122685
T03
X0324504Y0171008
X0334504
X0344504
X0354504
X0349504Y0181008
X0339504
X0329504
X0359504
T04
X012Y008
Y009
Y01
Y011
Y012
X0371Y0124
Y0114
Y0134
T06
X0315902Y0221992
X0325902
X0358106
X0368106
T07
X0023378Y0119921
X0047Y0112047
X0070622Y0119921
X025Y022
X0230315
X021063
X0163386
X0143701
X0066685
X0047
X0027315
X0023378Y0167953
X0070622
T08
X0311Y0194
X0373008
T09
X0409449Y0027559
X0543307
Y0208661
X0409449
M30
