G04*
G04 #@! TF.GenerationSoftware,Altium Limited,Altium Designer,22.11.1 (43)*
G04*
G04 Layer_Color=8388736*
%FSLAX44Y44*%
%MOMM*%
G71*
G04*
G04 #@! TF.SameCoordinates,B420DA26-4F65-45AB-BA35-ACA1F2937355*
G04*
G04*
G04 #@! TF.FilePolarity,Negative*
G04*
G01*
G75*
%ADD41R,3.3032X3.3032*%
G04:AMPARAMS|DCode=42|XSize=1.0432mm|YSize=0.4732mm|CornerRadius=0.1354mm|HoleSize=0mm|Usage=FLASHONLY|Rotation=180.000|XOffset=0mm|YOffset=0mm|HoleType=Round|Shape=RoundedRectangle|*
%AMROUNDEDRECTD42*
21,1,1.0432,0.2025,0,0,180.0*
21,1,0.7725,0.4732,0,0,180.0*
1,1,0.2707,-0.3863,0.1013*
1,1,0.2707,0.3863,0.1013*
1,1,0.2707,0.3863,-0.1013*
1,1,0.2707,-0.3863,-0.1013*
%
%ADD42ROUNDEDRECTD42*%
G04:AMPARAMS|DCode=43|XSize=1.0432mm|YSize=0.4732mm|CornerRadius=0.1354mm|HoleSize=0mm|Usage=FLASHONLY|Rotation=270.000|XOffset=0mm|YOffset=0mm|HoleType=Round|Shape=RoundedRectangle|*
%AMROUNDEDRECTD43*
21,1,1.0432,0.2025,0,0,270.0*
21,1,0.7725,0.4732,0,0,270.0*
1,1,0.2707,-0.1013,-0.3863*
1,1,0.2707,-0.1013,0.3863*
1,1,0.2707,0.1013,0.3863*
1,1,0.2707,0.1013,-0.3863*
%
%ADD43ROUNDEDRECTD43*%
%ADD44R,1.8032X3.7032*%
%ADD45R,0.8532X1.1032*%
%ADD46R,0.9032X1.2032*%
%ADD47R,0.9532X0.9032*%
%ADD48R,1.8032X1.4532*%
%ADD49R,1.7532X0.5032*%
%ADD50R,0.5032X1.7532*%
%ADD51R,3.2032X3.2532*%
%ADD52R,1.0032X1.1032*%
%ADD53R,1.3032X0.8032*%
%ADD54R,2.6032X1.7032*%
%ADD55R,2.4032X6.5032*%
%ADD56R,1.8032X2.7032*%
%ADD57R,1.0432X0.6232*%
G04:AMPARAMS|DCode=58|XSize=2.3832mm|YSize=3.3232mm|CornerRadius=0.3741mm|HoleSize=0mm|Usage=FLASHONLY|Rotation=180.000|XOffset=0mm|YOffset=0mm|HoleType=Round|Shape=RoundedRectangle|*
%AMROUNDEDRECTD58*
21,1,2.3832,2.5750,0,0,180.0*
21,1,1.6350,3.3232,0,0,180.0*
1,1,0.7482,-0.8175,1.2875*
1,1,0.7482,0.8175,1.2875*
1,1,0.7482,0.8175,-1.2875*
1,1,0.7482,-0.8175,-1.2875*
%
%ADD58ROUNDEDRECTD58*%
%ADD59R,1.2032X1.8032*%
%ADD60R,0.7932X0.6532*%
G04:AMPARAMS|DCode=61|XSize=4.4032mm|YSize=4.4032mm|CornerRadius=0.3116mm|HoleSize=0mm|Usage=FLASHONLY|Rotation=0.000|XOffset=0mm|YOffset=0mm|HoleType=Round|Shape=RoundedRectangle|*
%AMROUNDEDRECTD61*
21,1,4.4032,3.7800,0,0,0.0*
21,1,3.7800,4.4032,0,0,0.0*
1,1,0.6232,1.8900,-1.8900*
1,1,0.6232,-1.8900,-1.8900*
1,1,0.6232,-1.8900,1.8900*
1,1,0.6232,1.8900,1.8900*
%
%ADD61ROUNDEDRECTD61*%
G04:AMPARAMS|DCode=62|XSize=1.0032mm|YSize=0.5032mm|CornerRadius=0.1766mm|HoleSize=0mm|Usage=FLASHONLY|Rotation=270.000|XOffset=0mm|YOffset=0mm|HoleType=Round|Shape=RoundedRectangle|*
%AMROUNDEDRECTD62*
21,1,1.0032,0.1500,0,0,270.0*
21,1,0.6500,0.5032,0,0,270.0*
1,1,0.3532,-0.0750,-0.3250*
1,1,0.3532,-0.0750,0.3250*
1,1,0.3532,0.0750,0.3250*
1,1,0.3532,0.0750,-0.3250*
%
%ADD62ROUNDEDRECTD62*%
G04:AMPARAMS|DCode=63|XSize=1.0032mm|YSize=0.5032mm|CornerRadius=0.1766mm|HoleSize=0mm|Usage=FLASHONLY|Rotation=180.000|XOffset=0mm|YOffset=0mm|HoleType=Round|Shape=RoundedRectangle|*
%AMROUNDEDRECTD63*
21,1,1.0032,0.1500,0,0,180.0*
21,1,0.6500,0.5032,0,0,180.0*
1,1,0.3532,-0.3250,0.0750*
1,1,0.3532,0.3250,0.0750*
1,1,0.3532,0.3250,-0.0750*
1,1,0.3532,-0.3250,-0.0750*
%
%ADD63ROUNDEDRECTD63*%
%ADD64R,0.8032X1.0032*%
%ADD65R,1.2032X0.9032*%
%ADD66R,1.6032X1.4032*%
%ADD67R,1.9032X2.7032*%
%ADD68R,2.0032X2.0032*%
%ADD69C,2.0032*%
%ADD70C,1.8032*%
%ADD71C,2.6782*%
%ADD72C,1.8532*%
%ADD73C,1.6812*%
%ADD74R,1.6812X1.6812*%
%ADD75C,3.4632*%
%ADD76C,2.6032*%
%ADD77R,2.6032X2.6032*%
%ADD78C,2.4032*%
%ADD79C,2.4032*%
%ADD80C,3.2032*%
%ADD81R,2.6032X2.6032*%
D41*
X889000Y406400D02*
D03*
D42*
X864650Y388900D02*
D03*
Y393900D02*
D03*
Y398900D02*
D03*
Y403900D02*
D03*
Y408900D02*
D03*
Y413900D02*
D03*
Y418900D02*
D03*
Y423900D02*
D03*
X913350D02*
D03*
Y418900D02*
D03*
Y413900D02*
D03*
Y408900D02*
D03*
Y403900D02*
D03*
Y398900D02*
D03*
Y393900D02*
D03*
Y388900D02*
D03*
D43*
X906500Y382050D02*
D03*
X901500D02*
D03*
X896500D02*
D03*
X891500D02*
D03*
X886500D02*
D03*
X881500D02*
D03*
X876500D02*
D03*
X871500D02*
D03*
Y430750D02*
D03*
X876500D02*
D03*
X881500D02*
D03*
X886500D02*
D03*
X891500D02*
D03*
X896500D02*
D03*
X901500D02*
D03*
X906500D02*
D03*
D44*
X167640Y322520D02*
D03*
Y378520D02*
D03*
D45*
X754750Y487680D02*
D03*
X769250D02*
D03*
X667650Y386080D02*
D03*
X653150D02*
D03*
X551550Y426720D02*
D03*
X566050D02*
D03*
Y386080D02*
D03*
X551550D02*
D03*
X653150Y406400D02*
D03*
X667650D02*
D03*
X957950Y304800D02*
D03*
X972450D02*
D03*
X1023250Y365760D02*
D03*
X1008750D02*
D03*
X856350Y203200D02*
D03*
X870850D02*
D03*
X856350Y223520D02*
D03*
X870850D02*
D03*
X856350Y243840D02*
D03*
X870850D02*
D03*
X566050Y121920D02*
D03*
X551550D02*
D03*
X754380Y345440D02*
D03*
X768880D02*
D03*
X754750Y325120D02*
D03*
X769250D02*
D03*
X754750Y406400D02*
D03*
X769250D02*
D03*
X754380Y365760D02*
D03*
X768880D02*
D03*
X754750Y386080D02*
D03*
X769250D02*
D03*
X754750Y447040D02*
D03*
X769250D02*
D03*
X754750Y426720D02*
D03*
X769250D02*
D03*
X616850Y487680D02*
D03*
X602350D02*
D03*
X551550Y101600D02*
D03*
X566050D02*
D03*
X551550Y81280D02*
D03*
X566050D02*
D03*
X399150Y528320D02*
D03*
X413650D02*
D03*
Y508000D02*
D03*
X399150D02*
D03*
X413650Y487680D02*
D03*
X399150D02*
D03*
X362850Y447040D02*
D03*
X348350D02*
D03*
X413650Y467360D02*
D03*
X399150D02*
D03*
X348350D02*
D03*
X362850D02*
D03*
X921650Y20320D02*
D03*
X907150D02*
D03*
X1110350Y264160D02*
D03*
X1124850D02*
D03*
X1110350Y284480D02*
D03*
X1124850D02*
D03*
X1110350Y243840D02*
D03*
X1124850D02*
D03*
X1110350Y142240D02*
D03*
X1124850D02*
D03*
X1023250Y203200D02*
D03*
X1008750D02*
D03*
D46*
X826370Y431800D02*
D03*
X839870D02*
D03*
X826370Y452120D02*
D03*
X839870D02*
D03*
X565550Y406400D02*
D03*
X552050D02*
D03*
X971950Y325120D02*
D03*
X958450D02*
D03*
X1009250Y304800D02*
D03*
X1022750D02*
D03*
X1009250Y325120D02*
D03*
X1022750D02*
D03*
X971950Y365760D02*
D03*
X958450D02*
D03*
X971950Y345440D02*
D03*
X958450D02*
D03*
X944010Y558800D02*
D03*
X930510D02*
D03*
X879710D02*
D03*
X893210D02*
D03*
X399650Y447040D02*
D03*
X413150D02*
D03*
X247250Y353060D02*
D03*
X260750D02*
D03*
Y330200D02*
D03*
X247250D02*
D03*
X856850Y142240D02*
D03*
X870350D02*
D03*
X819550Y60960D02*
D03*
X806050D02*
D03*
Y40640D02*
D03*
X819550D02*
D03*
X755250Y22860D02*
D03*
X768750D02*
D03*
X653650Y20320D02*
D03*
X667150D02*
D03*
X653650Y60960D02*
D03*
X667150D02*
D03*
X870350Y264160D02*
D03*
X856850D02*
D03*
X667150Y345440D02*
D03*
X653650D02*
D03*
X602850Y20320D02*
D03*
X616350D02*
D03*
X667150Y325120D02*
D03*
X653650D02*
D03*
X1110850Y101600D02*
D03*
X1124350D02*
D03*
Y60960D02*
D03*
X1110850D02*
D03*
Y182880D02*
D03*
X1124350D02*
D03*
X1009250Y223520D02*
D03*
X1022750D02*
D03*
X1110850Y20320D02*
D03*
X1124350D02*
D03*
Y40640D02*
D03*
X1110850D02*
D03*
Y223520D02*
D03*
X1124350D02*
D03*
X1110850Y203200D02*
D03*
X1124350D02*
D03*
X1110850Y162560D02*
D03*
X1124350D02*
D03*
X921150Y40640D02*
D03*
X907650D02*
D03*
Y81280D02*
D03*
X921150D02*
D03*
Y60960D02*
D03*
X907650D02*
D03*
Y142240D02*
D03*
X921150D02*
D03*
Y121920D02*
D03*
X907650D02*
D03*
X1009250Y182880D02*
D03*
X1022750D02*
D03*
X971950Y203200D02*
D03*
X958450D02*
D03*
X971950Y182880D02*
D03*
X958450D02*
D03*
X565550Y142240D02*
D03*
X552050D02*
D03*
X616350Y60960D02*
D03*
X602850D02*
D03*
D47*
X1023250Y345440D02*
D03*
X1008750D02*
D03*
X921650Y162560D02*
D03*
X907150D02*
D03*
Y101600D02*
D03*
X921650D02*
D03*
D48*
X930360Y529160D02*
D03*
X893360Y507160D02*
D03*
Y529160D02*
D03*
X930360Y507160D02*
D03*
X729700Y44020D02*
D03*
X692700Y22020D02*
D03*
Y44020D02*
D03*
X729700Y22020D02*
D03*
D49*
X633700Y143200D02*
D03*
Y148200D02*
D03*
Y153200D02*
D03*
Y158200D02*
D03*
Y163200D02*
D03*
Y168200D02*
D03*
Y173200D02*
D03*
Y178200D02*
D03*
Y183200D02*
D03*
Y188200D02*
D03*
Y193200D02*
D03*
Y198200D02*
D03*
Y203200D02*
D03*
Y208200D02*
D03*
Y213200D02*
D03*
Y218200D02*
D03*
Y223200D02*
D03*
Y228200D02*
D03*
Y233200D02*
D03*
Y238200D02*
D03*
Y243200D02*
D03*
Y248200D02*
D03*
Y253200D02*
D03*
Y258200D02*
D03*
Y263200D02*
D03*
X788700D02*
D03*
Y258200D02*
D03*
Y253200D02*
D03*
Y248200D02*
D03*
Y243200D02*
D03*
Y238200D02*
D03*
Y233200D02*
D03*
Y228200D02*
D03*
Y223200D02*
D03*
Y218200D02*
D03*
Y213200D02*
D03*
Y208200D02*
D03*
Y203200D02*
D03*
Y198200D02*
D03*
Y193200D02*
D03*
Y188200D02*
D03*
Y183200D02*
D03*
Y178200D02*
D03*
Y173200D02*
D03*
Y168200D02*
D03*
Y163200D02*
D03*
Y158200D02*
D03*
Y153200D02*
D03*
Y148200D02*
D03*
Y143200D02*
D03*
D50*
X651200Y280700D02*
D03*
X656200D02*
D03*
X661200D02*
D03*
X666200D02*
D03*
X671200D02*
D03*
X676200D02*
D03*
X681200D02*
D03*
X686200D02*
D03*
X691200D02*
D03*
X696200D02*
D03*
X701200D02*
D03*
X706200D02*
D03*
X711200D02*
D03*
X716200D02*
D03*
X721200D02*
D03*
X726200D02*
D03*
X731200D02*
D03*
X736200D02*
D03*
X741200D02*
D03*
X746200D02*
D03*
X751200D02*
D03*
X756200D02*
D03*
X761200D02*
D03*
X766200D02*
D03*
X771200D02*
D03*
Y125700D02*
D03*
X766200D02*
D03*
X761200D02*
D03*
X756200D02*
D03*
X751200D02*
D03*
X746200D02*
D03*
X741200D02*
D03*
X736200D02*
D03*
X731200D02*
D03*
X726200D02*
D03*
X721200D02*
D03*
X716200D02*
D03*
X711200D02*
D03*
X706200D02*
D03*
X701200D02*
D03*
X696200D02*
D03*
X691200D02*
D03*
X686200D02*
D03*
X681200D02*
D03*
X676200D02*
D03*
X671200D02*
D03*
X666200D02*
D03*
X661200D02*
D03*
X656200D02*
D03*
X651200D02*
D03*
D51*
X513080Y570570D02*
D03*
Y486070D02*
D03*
D52*
X415900Y558960D02*
D03*
X406400Y578960D02*
D03*
X396900Y558960D02*
D03*
X365100Y498000D02*
D03*
X355600Y518000D02*
D03*
X346100Y498000D02*
D03*
D53*
X617030Y45140D02*
D03*
Y36140D02*
D03*
D54*
X561530Y40640D02*
D03*
D55*
X337640Y396240D02*
D03*
X378640D02*
D03*
D56*
X254000Y386080D02*
D03*
D57*
X239650Y376580D02*
D03*
Y386080D02*
D03*
Y395580D02*
D03*
X268350D02*
D03*
Y386080D02*
D03*
Y376580D02*
D03*
D58*
X392990Y325120D02*
D03*
X323290D02*
D03*
D59*
X239000Y304800D02*
D03*
X269000D02*
D03*
D60*
X366850Y548640D02*
D03*
X344350D02*
D03*
D61*
X1018420Y124340D02*
D03*
D62*
X995920Y153840D02*
D03*
X1000920D02*
D03*
X1005920D02*
D03*
X1010920D02*
D03*
X1015920D02*
D03*
X1020920D02*
D03*
X1025920D02*
D03*
X1030920D02*
D03*
X1035920D02*
D03*
X1040920D02*
D03*
Y94840D02*
D03*
X1035920D02*
D03*
X1030920D02*
D03*
X1025920D02*
D03*
X1020920D02*
D03*
X1015920D02*
D03*
X1010920D02*
D03*
X1005920D02*
D03*
X1000920D02*
D03*
X995920D02*
D03*
D63*
X1047920Y146840D02*
D03*
Y141840D02*
D03*
Y136840D02*
D03*
Y131840D02*
D03*
Y126840D02*
D03*
Y121840D02*
D03*
Y116840D02*
D03*
Y111840D02*
D03*
Y106840D02*
D03*
Y101840D02*
D03*
X988920D02*
D03*
Y106840D02*
D03*
Y111840D02*
D03*
Y116840D02*
D03*
Y121840D02*
D03*
Y126840D02*
D03*
Y131840D02*
D03*
Y136840D02*
D03*
Y141840D02*
D03*
Y146840D02*
D03*
D64*
X1110600Y81280D02*
D03*
X1124600D02*
D03*
X1110600Y121920D02*
D03*
X1124600D02*
D03*
D65*
X1051560Y47390D02*
D03*
Y33890D02*
D03*
X975360D02*
D03*
Y47390D02*
D03*
D66*
X1005000Y49140D02*
D03*
X1027000D02*
D03*
X1005000Y32140D02*
D03*
X1027000D02*
D03*
D67*
X101600Y333060D02*
D03*
Y373060D02*
D03*
D68*
X457200Y406400D02*
D03*
D69*
Y304800D02*
D03*
Y330200D02*
D03*
Y355600D02*
D03*
Y381000D02*
D03*
X43180Y43180D02*
D03*
X500380Y246380D02*
D03*
Y144780D02*
D03*
X43180Y246380D02*
D03*
D70*
X583180Y311620D02*
D03*
Y211620D02*
D03*
X551180Y261620D02*
D03*
D71*
X1055840Y574050D02*
D03*
Y416550D02*
D03*
D72*
X1135840Y558550D02*
D03*
Y533150D02*
D03*
Y457450D02*
D03*
Y432050D02*
D03*
D73*
X1005840Y539750D02*
D03*
X1031240Y527050D02*
D03*
X1005840Y514350D02*
D03*
X1031240Y501650D02*
D03*
X1005840Y488950D02*
D03*
X1031240Y476250D02*
D03*
X1005840Y463550D02*
D03*
D74*
X1031240Y450850D02*
D03*
D75*
X1094740Y552450D02*
D03*
Y438150D02*
D03*
D76*
X756120Y558800D02*
D03*
X706120D02*
D03*
X594760D02*
D03*
X35635Y511340D02*
D03*
Y461340D02*
D03*
Y335680D02*
D03*
D77*
X806120Y558800D02*
D03*
X644760D02*
D03*
D78*
X244040Y450540D02*
D03*
D79*
Y570540D02*
D03*
D80*
X122040Y450540D02*
D03*
Y570540D02*
D03*
X264040Y510540D02*
D03*
D81*
X35635Y561340D02*
D03*
Y385680D02*
D03*
M02*
