G04*
G04 #@! TF.GenerationSoftware,Altium Limited,Altium Designer,22.11.1 (43)*
G04*
G04 Layer_Color=8388736*
%FSLAX26Y26*%
%MOIN*%
G70*
G04*
G04 #@! TF.SameCoordinates,D133BA17-E144-49A8-921F-F672E643092A*
G04*
G04*
G04 #@! TF.FilePolarity,Negative*
G04*
G01*
G75*
%ADD43R,0.070992X0.078866*%
%ADD44R,0.145795X0.070992*%
%ADD45R,0.124535X0.058000*%
%ADD46R,0.070992X0.057213*%
%ADD47R,0.035559X0.047370*%
G04:AMPARAMS|DCode=48|XSize=41.071mil|YSize=18.63mil|CornerRadius=5.329mil|HoleSize=0mil|Usage=FLASHONLY|Rotation=270.000|XOffset=0mil|YOffset=0mil|HoleType=Round|Shape=RoundedRectangle|*
%AMROUNDEDRECTD48*
21,1,0.041071,0.007973,0,0,270.0*
21,1,0.030413,0.018630,0,0,270.0*
1,1,0.010657,-0.003986,-0.015207*
1,1,0.010657,-0.003986,0.015207*
1,1,0.010657,0.003986,0.015207*
1,1,0.010657,0.003986,-0.015207*
%
%ADD48ROUNDEDRECTD48*%
G04:AMPARAMS|DCode=49|XSize=41.071mil|YSize=18.63mil|CornerRadius=5.329mil|HoleSize=0mil|Usage=FLASHONLY|Rotation=180.000|XOffset=0mil|YOffset=0mil|HoleType=Round|Shape=RoundedRectangle|*
%AMROUNDEDRECTD49*
21,1,0.041071,0.007973,0,0,180.0*
21,1,0.030413,0.018630,0,0,180.0*
1,1,0.010657,-0.015207,0.003986*
1,1,0.010657,0.015207,0.003986*
1,1,0.010657,0.015207,-0.003986*
1,1,0.010657,-0.015207,-0.003986*
%
%ADD49ROUNDEDRECTD49*%
%ADD50R,0.130047X0.130047*%
G04:AMPARAMS|DCode=51|XSize=93.827mil|YSize=130.835mil|CornerRadius=14.728mil|HoleSize=0mil|Usage=FLASHONLY|Rotation=0.000|XOffset=0mil|YOffset=0mil|HoleType=Round|Shape=RoundedRectangle|*
%AMROUNDEDRECTD51*
21,1,0.093827,0.101378,0,0,0.0*
21,1,0.064370,0.130835,0,0,0.0*
1,1,0.029457,0.032185,-0.050689*
1,1,0.029457,-0.032185,-0.050689*
1,1,0.029457,-0.032185,0.050689*
1,1,0.029457,0.032185,0.050689*
%
%ADD51ROUNDEDRECTD51*%
%ADD52C,0.078740*%
%ADD53R,0.106425X0.074929*%
%ADD54R,0.033591X0.043433*%
%ADD55R,0.037528X0.035559*%
%ADD56R,0.069024X0.019811*%
%ADD57R,0.019811X0.069024*%
%ADD58R,0.128079X0.126110*%
%ADD59R,0.039496X0.043433*%
%ADD60R,0.051307X0.031622*%
%ADD61R,0.102488X0.067055*%
%ADD62R,0.094614X0.256031*%
%ADD63R,0.106425X0.070992*%
%ADD64R,0.024535X0.041071*%
%ADD65R,0.047370X0.070992*%
%ADD66R,0.031228X0.025716*%
G04:AMPARAMS|DCode=67|XSize=173.354mil|YSize=173.354mil|CornerRadius=12.268mil|HoleSize=0mil|Usage=FLASHONLY|Rotation=0.000|XOffset=0mil|YOffset=0mil|HoleType=Round|Shape=RoundedRectangle|*
%AMROUNDEDRECTD67*
21,1,0.173354,0.148819,0,0,0.0*
21,1,0.148819,0.173354,0,0,0.0*
1,1,0.024535,0.074409,-0.074409*
1,1,0.024535,-0.074409,-0.074409*
1,1,0.024535,-0.074409,0.074409*
1,1,0.024535,0.074409,0.074409*
%
%ADD67ROUNDEDRECTD67*%
G04:AMPARAMS|DCode=68|XSize=39.496mil|YSize=19.811mil|CornerRadius=6.953mil|HoleSize=0mil|Usage=FLASHONLY|Rotation=270.000|XOffset=0mil|YOffset=0mil|HoleType=Round|Shape=RoundedRectangle|*
%AMROUNDEDRECTD68*
21,1,0.039496,0.005905,0,0,270.0*
21,1,0.025590,0.019811,0,0,270.0*
1,1,0.013906,-0.002953,-0.012795*
1,1,0.013906,-0.002953,0.012795*
1,1,0.013906,0.002953,0.012795*
1,1,0.013906,0.002953,-0.012795*
%
%ADD68ROUNDEDRECTD68*%
G04:AMPARAMS|DCode=69|XSize=39.496mil|YSize=19.811mil|CornerRadius=6.953mil|HoleSize=0mil|Usage=FLASHONLY|Rotation=180.000|XOffset=0mil|YOffset=0mil|HoleType=Round|Shape=RoundedRectangle|*
%AMROUNDEDRECTD69*
21,1,0.039496,0.005905,0,0,180.0*
21,1,0.025590,0.019811,0,0,180.0*
1,1,0.013906,-0.012795,0.002953*
1,1,0.013906,0.012795,0.002953*
1,1,0.013906,0.012795,-0.002953*
1,1,0.013906,-0.012795,-0.002953*
%
%ADD69ROUNDEDRECTD69*%
%ADD70R,0.031622X0.039496*%
%ADD71R,0.047370X0.035559*%
%ADD72R,0.063118X0.055244*%
%ADD73O,0.256031X0.078866*%
%ADD74O,0.220598X0.078866*%
%ADD75O,0.078866X0.220598*%
%ADD76C,0.105441*%
%ADD77C,0.072961*%
%ADD78C,0.066189*%
%ADD79R,0.066189X0.066189*%
%ADD80C,0.136346*%
%ADD81C,0.070992*%
%ADD82R,0.102488X0.102488*%
%ADD83C,0.102488*%
%ADD84C,0.094614*%
%ADD85C,0.094614*%
%ADD86C,0.126110*%
%ADD87R,0.078866X0.078866*%
%ADD88C,0.078866*%
G54D43*
X1055118Y760000D02*
D03*
X944882D02*
D03*
X745118Y380000D02*
D03*
X634882D02*
D03*
X745118Y280000D02*
D03*
X634882D02*
D03*
G54D44*
X889764Y560000D02*
D03*
X1110236D02*
D03*
G54D45*
X4251732Y1300000D02*
D03*
X4110000Y1200000D02*
D03*
X4251732Y1100000D02*
D03*
G54D46*
X2892835Y2006693D02*
D03*
X2747165Y2093307D02*
D03*
Y2006693D02*
D03*
X2892835Y2093307D02*
D03*
X2072835Y173307D02*
D03*
X1927165Y86693D02*
D03*
Y173307D02*
D03*
X2072835Y86693D02*
D03*
G54D47*
X2893425Y2210000D02*
D03*
X2946575D02*
D03*
X2746575D02*
D03*
X2693425D02*
D03*
X2453425Y1700000D02*
D03*
X2506575D02*
D03*
X2453425Y1780000D02*
D03*
X2506575D02*
D03*
X1426575Y1600000D02*
D03*
X1373425D02*
D03*
X3026575Y1280000D02*
D03*
X2973425D02*
D03*
X3173425Y1200000D02*
D03*
X3226575D02*
D03*
X3173425Y1280000D02*
D03*
X3226575D02*
D03*
X3026575Y1440000D02*
D03*
X2973425D02*
D03*
X3026575Y1360000D02*
D03*
X2973425D02*
D03*
X2573425Y560000D02*
D03*
X2626575D02*
D03*
X2426575Y240000D02*
D03*
X2373425D02*
D03*
Y160000D02*
D03*
X2426575D02*
D03*
X2173425Y80000D02*
D03*
X2226575D02*
D03*
X1773425D02*
D03*
X1826575D02*
D03*
X1773425Y240000D02*
D03*
X1826575D02*
D03*
X2626575Y1040000D02*
D03*
X2573425D02*
D03*
X1826575Y1360000D02*
D03*
X1773425D02*
D03*
X1573425Y80000D02*
D03*
X1626575D02*
D03*
X1826575Y1280000D02*
D03*
X1773425D02*
D03*
X3573425Y400000D02*
D03*
X3626575D02*
D03*
Y240000D02*
D03*
X3573425D02*
D03*
Y720000D02*
D03*
X3626575D02*
D03*
X3173425Y880000D02*
D03*
X3226575D02*
D03*
X3573425Y80000D02*
D03*
X3626575D02*
D03*
Y160000D02*
D03*
X3573425D02*
D03*
Y880000D02*
D03*
X3626575D02*
D03*
X3573425Y800000D02*
D03*
X3626575D02*
D03*
X3573425Y640000D02*
D03*
X3626575D02*
D03*
X2826575Y160000D02*
D03*
X2773425D02*
D03*
Y320000D02*
D03*
X2826575D02*
D03*
Y240000D02*
D03*
X2773425D02*
D03*
Y560000D02*
D03*
X2826575D02*
D03*
Y480000D02*
D03*
X2773425D02*
D03*
X3173425Y720000D02*
D03*
X3226575D02*
D03*
X3026575Y800000D02*
D03*
X2973425D02*
D03*
X3026575Y720000D02*
D03*
X2973425D02*
D03*
X1426575Y560000D02*
D03*
X1373425D02*
D03*
X1626575Y240000D02*
D03*
X1573425D02*
D03*
G54D48*
X2768898Y1695866D02*
D03*
X2749213D02*
D03*
X2729528D02*
D03*
X2709843D02*
D03*
X2690157D02*
D03*
X2670472D02*
D03*
X2650787D02*
D03*
X2631102D02*
D03*
Y1504134D02*
D03*
X2650787D02*
D03*
X2670472D02*
D03*
X2690157D02*
D03*
X2709843D02*
D03*
X2729528D02*
D03*
X2749213D02*
D03*
X2768898D02*
D03*
G54D49*
X2795866Y1531102D02*
D03*
Y1550787D02*
D03*
Y1570472D02*
D03*
Y1590158D02*
D03*
Y1609842D02*
D03*
Y1629528D02*
D03*
Y1649213D02*
D03*
Y1668898D02*
D03*
X2604134D02*
D03*
Y1649213D02*
D03*
Y1629528D02*
D03*
Y1609842D02*
D03*
Y1590158D02*
D03*
Y1570472D02*
D03*
Y1550787D02*
D03*
Y1531102D02*
D03*
G54D50*
X2700000Y1600000D02*
D03*
G54D51*
X357205Y840000D02*
D03*
X82795D02*
D03*
G54D52*
X2830000Y1470000D02*
D03*
X3360000Y640000D02*
D03*
X1690000Y490000D02*
D03*
G54D53*
X1078740Y320000D02*
D03*
X921260D02*
D03*
X611260Y160000D02*
D03*
X768740D02*
D03*
G54D54*
X2171457Y1920000D02*
D03*
X2228543D02*
D03*
X1828543Y1520000D02*
D03*
X1771457D02*
D03*
X1371457Y1680000D02*
D03*
X1428543D02*
D03*
Y1520000D02*
D03*
X1371457D02*
D03*
X1771457Y1600000D02*
D03*
X1828543D02*
D03*
X2971457Y1200000D02*
D03*
X3028543D02*
D03*
X3228543Y1440000D02*
D03*
X3171457D02*
D03*
X2571457Y800000D02*
D03*
X2628543D02*
D03*
X2571457Y880000D02*
D03*
X2628543D02*
D03*
X2571457Y960000D02*
D03*
X2628543D02*
D03*
X1428543Y480000D02*
D03*
X1371457D02*
D03*
X2170000Y1360000D02*
D03*
X2227087D02*
D03*
X2171457Y1280000D02*
D03*
X2228543D02*
D03*
X2171457Y1600000D02*
D03*
X2228543D02*
D03*
X2170000Y1440000D02*
D03*
X2227087D02*
D03*
X2171457Y1520000D02*
D03*
X2228543D02*
D03*
X2171457Y1760000D02*
D03*
X2228543D02*
D03*
X2171457Y1680000D02*
D03*
X2228543D02*
D03*
X1571457Y1920000D02*
D03*
X1628543D02*
D03*
X1371457Y400000D02*
D03*
X1428543D02*
D03*
X1371457Y320000D02*
D03*
X1428543D02*
D03*
X1171457Y1760000D02*
D03*
X1228543D02*
D03*
Y1840000D02*
D03*
X1171457D02*
D03*
X971457Y960000D02*
D03*
X1028543D02*
D03*
Y1120000D02*
D03*
X971457D02*
D03*
Y880000D02*
D03*
X1028543D02*
D03*
X971457Y1200000D02*
D03*
X1028543D02*
D03*
X2828543Y80000D02*
D03*
X2771457D02*
D03*
X3571457Y1040000D02*
D03*
X3628543D02*
D03*
X3571457Y960000D02*
D03*
X3628543D02*
D03*
X3571457Y560000D02*
D03*
X3628543D02*
D03*
X3228543Y800000D02*
D03*
X3171457D02*
D03*
G54D55*
X3228543Y1360000D02*
D03*
X3171457D02*
D03*
X2828543Y640000D02*
D03*
X2771457D02*
D03*
Y400000D02*
D03*
X2828543D02*
D03*
G54D56*
X1694882Y563779D02*
D03*
Y583465D02*
D03*
Y603150D02*
D03*
Y622835D02*
D03*
Y642520D02*
D03*
Y662205D02*
D03*
Y681890D02*
D03*
Y701575D02*
D03*
Y721260D02*
D03*
Y740945D02*
D03*
Y760630D02*
D03*
Y780315D02*
D03*
Y800000D02*
D03*
Y819685D02*
D03*
Y839370D02*
D03*
Y859055D02*
D03*
Y878740D02*
D03*
Y898425D02*
D03*
Y918110D02*
D03*
Y937795D02*
D03*
Y957480D02*
D03*
Y977165D02*
D03*
Y996850D02*
D03*
Y1016535D02*
D03*
Y1036220D02*
D03*
X2305118D02*
D03*
Y1016535D02*
D03*
Y996850D02*
D03*
Y977165D02*
D03*
Y957480D02*
D03*
Y937795D02*
D03*
Y918110D02*
D03*
Y898425D02*
D03*
Y878740D02*
D03*
Y859055D02*
D03*
Y839370D02*
D03*
Y819685D02*
D03*
Y800000D02*
D03*
Y780315D02*
D03*
Y760630D02*
D03*
Y740945D02*
D03*
Y721260D02*
D03*
Y701575D02*
D03*
Y681890D02*
D03*
Y662205D02*
D03*
Y642520D02*
D03*
Y622835D02*
D03*
Y603150D02*
D03*
Y583465D02*
D03*
Y563779D02*
D03*
G54D57*
X1763780Y1105118D02*
D03*
X1783465D02*
D03*
X1803150D02*
D03*
X1822835D02*
D03*
X1842520D02*
D03*
X1862205D02*
D03*
X1881890D02*
D03*
X1901575D02*
D03*
X1921260D02*
D03*
X1940945D02*
D03*
X1960630D02*
D03*
X1980315D02*
D03*
X2000000D02*
D03*
X2019685D02*
D03*
X2039370D02*
D03*
X2059055D02*
D03*
X2078740D02*
D03*
X2098425D02*
D03*
X2118110D02*
D03*
X2137795D02*
D03*
X2157480D02*
D03*
X2177165D02*
D03*
X2196850D02*
D03*
X2216535D02*
D03*
X2236220D02*
D03*
Y494882D02*
D03*
X2216535D02*
D03*
X2196850D02*
D03*
X2177165D02*
D03*
X2157480D02*
D03*
X2137795D02*
D03*
X2118110D02*
D03*
X2098425D02*
D03*
X2078740D02*
D03*
X2059055D02*
D03*
X2039370D02*
D03*
X2019685D02*
D03*
X2000000D02*
D03*
X1980315D02*
D03*
X1960630D02*
D03*
X1940945D02*
D03*
X1921260D02*
D03*
X1901575D02*
D03*
X1881890D02*
D03*
X1862205D02*
D03*
X1842520D02*
D03*
X1822835D02*
D03*
X1803150D02*
D03*
X1783465D02*
D03*
X1763780D02*
D03*
G54D58*
X883661Y2140000D02*
D03*
X1216339D02*
D03*
G54D59*
X1037402Y1720630D02*
D03*
X1000000Y1799370D02*
D03*
X962598Y1720630D02*
D03*
X1037402Y1320630D02*
D03*
X1000000Y1399370D02*
D03*
X962598Y1320630D02*
D03*
G54D60*
X1629252Y177716D02*
D03*
Y142284D02*
D03*
G54D61*
X1410748Y160000D02*
D03*
G54D62*
X519291Y840000D02*
D03*
X680709D02*
D03*
G54D63*
X600000Y560000D02*
D03*
G54D64*
X637402Y503504D02*
D03*
X600000D02*
D03*
X562598D02*
D03*
Y616496D02*
D03*
X600000D02*
D03*
X637402D02*
D03*
G54D65*
X1059055Y160000D02*
D03*
X940945D02*
D03*
G54D66*
X1044291Y1520000D02*
D03*
X955709D02*
D03*
G54D67*
X3209528Y489528D02*
D03*
G54D68*
X3120945Y605669D02*
D03*
X3140630D02*
D03*
X3160315D02*
D03*
X3180000D02*
D03*
X3199685D02*
D03*
X3219370D02*
D03*
X3239055D02*
D03*
X3258740D02*
D03*
X3278425D02*
D03*
X3298110D02*
D03*
Y373386D02*
D03*
X3278425D02*
D03*
X3258740D02*
D03*
X3239055D02*
D03*
X3219370D02*
D03*
X3199685D02*
D03*
X3180000D02*
D03*
X3160315D02*
D03*
X3140630D02*
D03*
X3120945D02*
D03*
G54D69*
X3325669Y578110D02*
D03*
Y558425D02*
D03*
Y538740D02*
D03*
Y519055D02*
D03*
Y499370D02*
D03*
Y479685D02*
D03*
Y460000D02*
D03*
Y440315D02*
D03*
Y420630D02*
D03*
Y400945D02*
D03*
X3093386D02*
D03*
Y420630D02*
D03*
Y440315D02*
D03*
Y460000D02*
D03*
Y479685D02*
D03*
Y499370D02*
D03*
Y519055D02*
D03*
Y538740D02*
D03*
Y558425D02*
D03*
Y578110D02*
D03*
G54D70*
X3572441Y320000D02*
D03*
X3627559D02*
D03*
X3572441Y480000D02*
D03*
X3627559D02*
D03*
G54D71*
X3340000Y186575D02*
D03*
Y133425D02*
D03*
X3040000D02*
D03*
Y186575D02*
D03*
G54D72*
X3156693Y193465D02*
D03*
X3243307D02*
D03*
X3156693Y126535D02*
D03*
X3243307D02*
D03*
G54D73*
X240000Y310000D02*
D03*
G54D74*
Y73779D02*
D03*
G54D75*
X425039Y191890D02*
D03*
G54D76*
X3110000Y1940000D02*
D03*
X3730079D02*
D03*
G54D77*
X3159016Y2219921D02*
D03*
X3259016D02*
D03*
X3581063D02*
D03*
X3681063D02*
D03*
G54D78*
X3245039Y1710079D02*
D03*
X3295039Y1810079D02*
D03*
X3345039Y1710079D02*
D03*
X3395039Y1810079D02*
D03*
X3445039Y1710079D02*
D03*
X3495039Y1810079D02*
D03*
X3545039Y1710079D02*
D03*
G54D79*
X3595039Y1810079D02*
D03*
G54D80*
X3195039Y2060079D02*
D03*
X3645039D02*
D03*
G54D81*
X1370000Y1030000D02*
D03*
X1495984Y833150D02*
D03*
Y1226850D02*
D03*
G54D82*
X1633858Y2200000D02*
D03*
X2500000D02*
D03*
X666850D02*
D03*
G54D83*
X1437008D02*
D03*
X2106299D02*
D03*
X2303150D02*
D03*
X470000D02*
D03*
X273150D02*
D03*
G54D84*
X233779Y1199213D02*
D03*
G54D85*
X706221D02*
D03*
G54D86*
X233779Y1679527D02*
D03*
X706221D02*
D03*
X469999Y1120473D02*
D03*
G54D87*
X3710000Y1140000D02*
D03*
X1200000Y1200000D02*
D03*
G54D88*
X3710000Y1340000D02*
D03*
Y1240000D02*
D03*
X1200000Y800000D02*
D03*
Y900000D02*
D03*
Y1000000D02*
D03*
Y1100000D02*
D03*
M02*
