G04*
G04 #@! TF.GenerationSoftware,Altium Limited,Altium Designer,22.11.1 (43)*
G04*
G04 Layer_Physical_Order=2*
G04 Layer_Color=16711680*
%FSLAX44Y44*%
%MOMM*%
G71*
G04*
G04 #@! TF.SameCoordinates,B420DA26-4F65-45AB-BA35-ACA1F2937355*
G04*
G04*
G04 #@! TF.FilePolarity,Positive*
G04*
G01*
G75*
%ADD82C,0.2032*%
%ADD86C,0.7620*%
%ADD87C,0.3556*%
%ADD88R,1.8000X1.8000*%
%ADD89C,1.8000*%
%ADD90C,1.6000*%
%ADD91C,2.4750*%
%ADD92C,1.6500*%
%ADD93C,1.4780*%
%ADD94R,1.4780X1.4780*%
%ADD95C,3.2600*%
%ADD96C,2.4000*%
%ADD97R,2.4000X2.4000*%
%ADD98C,2.2000*%
%ADD99C,2.2000*%
%ADD100C,3.0000*%
%ADD101R,2.4000X2.4000*%
%ADD102C,0.8128*%
G36*
X437120Y449922D02*
X438129Y449249D01*
X439318Y449012D01*
X522672D01*
Y403667D01*
X520132Y402021D01*
X519373Y402336D01*
X516947D01*
X516188Y402021D01*
X513648Y403667D01*
Y421409D01*
X513993Y421552D01*
X515708Y423267D01*
X516636Y425507D01*
Y427933D01*
X515708Y430173D01*
X513993Y431888D01*
X511753Y432816D01*
X509327D01*
X507087Y431888D01*
X505372Y430173D01*
X504444Y427933D01*
Y425507D01*
X505372Y423267D01*
X507087Y421552D01*
X507432Y421409D01*
Y360911D01*
X507087Y360768D01*
X505372Y359053D01*
X504444Y356813D01*
Y354387D01*
X505372Y352147D01*
X507087Y350432D01*
X509327Y349504D01*
X511753D01*
X512512Y349819D01*
X515052Y348173D01*
Y335511D01*
X514707Y335368D01*
X512992Y333653D01*
X512064Y331413D01*
Y328987D01*
X512992Y326747D01*
X514707Y325032D01*
X516947Y324104D01*
X519373D01*
X520132Y324419D01*
X522672Y322773D01*
Y281940D01*
X302260D01*
X299720Y284480D01*
X302260Y287020D01*
Y426152D01*
X416560D01*
X417749Y426389D01*
X418758Y427062D01*
X426377Y434683D01*
X427051Y435691D01*
X427288Y436880D01*
Y451889D01*
X427633Y452032D01*
X429348Y453747D01*
X429452Y453999D01*
X432448Y454594D01*
X437120Y449922D01*
D02*
G37*
G36*
X1168400Y8367D02*
X525780D01*
Y232664D01*
X526993D01*
X529233Y233592D01*
X530292Y234651D01*
X532832Y233724D01*
Y231371D01*
X532487Y231228D01*
X530772Y229513D01*
X529844Y227273D01*
Y224847D01*
X530772Y222607D01*
X532487Y220892D01*
X534727Y219964D01*
X537153D01*
X539393Y220892D01*
X541108Y222607D01*
X542036Y224847D01*
Y227273D01*
X541108Y229513D01*
X539393Y231228D01*
X539048Y231371D01*
Y256708D01*
X540225Y257138D01*
X541588Y257154D01*
X542746Y255148D01*
X544708Y253186D01*
X547112Y251798D01*
X549792Y251080D01*
X549910D01*
Y261620D01*
Y272160D01*
X549792D01*
X547112Y271442D01*
X544708Y270054D01*
X542746Y268092D01*
X541588Y266086D01*
X540225Y266102D01*
X539048Y266532D01*
Y454660D01*
X538811Y455849D01*
X538138Y456857D01*
X535597Y459398D01*
X534589Y460071D01*
X533400Y460308D01*
X466107D01*
X465388Y461027D01*
Y489989D01*
X465733Y490132D01*
X467448Y491847D01*
X468376Y494087D01*
Y496513D01*
X467448Y498753D01*
X465733Y500468D01*
X463493Y501396D01*
X461067D01*
X458827Y500468D01*
X457112Y498753D01*
X456184Y496513D01*
Y494087D01*
X457112Y491847D01*
X458827Y490132D01*
X459172Y489989D01*
Y459740D01*
X459409Y458551D01*
X459932Y457768D01*
X459597Y456370D01*
X459124Y455228D01*
X440605D01*
X429323Y466510D01*
X428315Y467183D01*
X427126Y467420D01*
X388112D01*
X386923Y467183D01*
X385914Y466510D01*
X377478Y458073D01*
X377133Y458216D01*
X374707D01*
X372467Y457288D01*
X370752Y455573D01*
X369824Y453333D01*
Y450907D01*
X370752Y448667D01*
X372467Y446952D01*
X374707Y446024D01*
X377133D01*
X379373Y446952D01*
X381088Y448667D01*
X382016Y450907D01*
Y453333D01*
X381873Y453678D01*
X389399Y461204D01*
X416491D01*
X418188Y458664D01*
X418084Y458413D01*
Y455987D01*
X419012Y453747D01*
X420727Y452032D01*
X421072Y451889D01*
Y438167D01*
X415273Y432368D01*
X302260D01*
Y591633D01*
X1168400D01*
Y8367D01*
D02*
G37*
%LPC*%
G36*
X468232Y417432D02*
X446168D01*
Y395368D01*
X468232D01*
Y417432D01*
D02*
G37*
G36*
X458652Y392032D02*
X455748D01*
X452942Y391280D01*
X450426Y389828D01*
X448372Y387774D01*
X446920Y385258D01*
X446168Y382452D01*
Y379548D01*
X446920Y376742D01*
X448372Y374226D01*
X450426Y372172D01*
X452942Y370720D01*
X455748Y369968D01*
X458652D01*
X461458Y370720D01*
X463974Y372172D01*
X466028Y374226D01*
X467480Y376742D01*
X468232Y379548D01*
Y382452D01*
X467480Y385258D01*
X466028Y387774D01*
X463974Y389828D01*
X461458Y391280D01*
X458652Y392032D01*
D02*
G37*
G36*
Y366632D02*
X455748D01*
X452942Y365880D01*
X450426Y364428D01*
X448372Y362374D01*
X446920Y359858D01*
X446168Y357052D01*
Y354148D01*
X446920Y351342D01*
X448372Y348826D01*
X450426Y346772D01*
X452942Y345320D01*
X455748Y344568D01*
X458652D01*
X461458Y345320D01*
X463974Y346772D01*
X466028Y348826D01*
X467480Y351342D01*
X468232Y354148D01*
Y357052D01*
X467480Y359858D01*
X466028Y362374D01*
X463974Y364428D01*
X461458Y365880D01*
X458652Y366632D01*
D02*
G37*
G36*
Y341232D02*
X455748D01*
X452942Y340480D01*
X450426Y339028D01*
X448372Y336974D01*
X446920Y334458D01*
X446168Y331652D01*
Y328748D01*
X446920Y325942D01*
X448372Y323426D01*
X450426Y321372D01*
X452942Y319920D01*
X455748Y319168D01*
X458652D01*
X461458Y319920D01*
X463974Y321372D01*
X466028Y323426D01*
X467480Y325942D01*
X468232Y328748D01*
Y331652D01*
X467480Y334458D01*
X466028Y336974D01*
X463974Y339028D01*
X461458Y340480D01*
X458652Y341232D01*
D02*
G37*
G36*
X458719Y316340D02*
X458470D01*
Y306070D01*
X468740D01*
Y306319D01*
X467953Y309254D01*
X466434Y311886D01*
X464286Y314034D01*
X461654Y315553D01*
X458719Y316340D01*
D02*
G37*
G36*
X455930D02*
X455681D01*
X452746Y315553D01*
X450114Y314034D01*
X447966Y311886D01*
X446446Y309254D01*
X445660Y306319D01*
Y306070D01*
X455930D01*
Y316340D01*
D02*
G37*
G36*
X468740Y303530D02*
X458470D01*
Y293260D01*
X458719D01*
X461654Y294046D01*
X464286Y295566D01*
X466434Y297714D01*
X467953Y300346D01*
X468740Y303281D01*
Y303530D01*
D02*
G37*
G36*
X455930D02*
X445660D01*
Y303281D01*
X446446Y300346D01*
X447966Y297714D01*
X450114Y295566D01*
X452746Y294046D01*
X455681Y293260D01*
X455930D01*
Y303530D01*
D02*
G37*
G36*
X1057309Y588965D02*
X1057110D01*
Y575320D01*
X1070755D01*
Y575519D01*
X1070182Y578400D01*
X1069057Y581115D01*
X1067425Y583558D01*
X1065348Y585635D01*
X1062905Y587267D01*
X1060191Y588392D01*
X1057309Y588965D01*
D02*
G37*
G36*
X1054570D02*
X1054371D01*
X1051489Y588392D01*
X1048775Y587267D01*
X1046332Y585635D01*
X1044255Y583558D01*
X1042623Y581115D01*
X1041498Y578400D01*
X1040925Y575519D01*
Y575320D01*
X1054570D01*
Y588965D01*
D02*
G37*
G36*
X820660Y573340D02*
X807390D01*
Y560070D01*
X820660D01*
Y573340D01*
D02*
G37*
G36*
X659300D02*
X646030D01*
Y560070D01*
X659300D01*
Y573340D01*
D02*
G37*
G36*
X804850D02*
X791580D01*
Y560070D01*
X804850D01*
Y573340D01*
D02*
G37*
G36*
X643490D02*
X630220D01*
Y560070D01*
X643490D01*
Y573340D01*
D02*
G37*
G36*
X1070755Y572780D02*
X1057110D01*
Y559135D01*
X1057309D01*
X1060191Y559708D01*
X1062905Y560832D01*
X1065348Y562465D01*
X1067425Y564542D01*
X1069057Y566985D01*
X1070182Y569700D01*
X1070755Y572581D01*
Y572780D01*
D02*
G37*
G36*
X1054570D02*
X1040925D01*
Y572581D01*
X1041498Y569700D01*
X1042623Y566985D01*
X1044255Y564542D01*
X1046332Y562465D01*
X1048775Y560832D01*
X1051489Y559708D01*
X1054371Y559135D01*
X1054570D01*
Y572780D01*
D02*
G37*
G36*
X1137194Y568832D02*
X1134486D01*
X1131871Y568131D01*
X1129527Y566778D01*
X1127612Y564863D01*
X1126259Y562519D01*
X1125558Y559904D01*
Y557196D01*
X1126259Y554581D01*
X1127612Y552237D01*
X1129527Y550322D01*
X1131871Y548969D01*
X1134486Y548268D01*
X1137194D01*
X1139809Y548969D01*
X1142153Y550322D01*
X1144068Y552237D01*
X1145421Y554581D01*
X1146122Y557196D01*
Y559904D01*
X1145421Y562519D01*
X1144068Y564863D01*
X1142153Y566778D01*
X1139809Y568131D01*
X1137194Y568832D01*
D02*
G37*
G36*
X820660Y557530D02*
X807390D01*
Y544260D01*
X820660D01*
Y557530D01*
D02*
G37*
G36*
X804850D02*
X791580D01*
Y544260D01*
X804850D01*
Y557530D01*
D02*
G37*
G36*
X659300D02*
X646030D01*
Y544260D01*
X659300D01*
Y557530D01*
D02*
G37*
G36*
X643490D02*
X630220D01*
Y544260D01*
X643490D01*
Y557530D01*
D02*
G37*
G36*
X1007147Y549680D02*
X1007110D01*
Y541020D01*
X1015770D01*
Y541057D01*
X1015093Y543583D01*
X1013786Y545847D01*
X1011937Y547696D01*
X1009673Y549003D01*
X1007147Y549680D01*
D02*
G37*
G36*
X1004570D02*
X1004533D01*
X1002007Y549003D01*
X999743Y547696D01*
X997894Y545847D01*
X996587Y543583D01*
X995910Y541057D01*
Y541020D01*
X1004570D01*
Y549680D01*
D02*
G37*
G36*
X757967Y572832D02*
X754273D01*
X750704Y571876D01*
X747504Y570028D01*
X744892Y567416D01*
X743044Y564216D01*
X742088Y560647D01*
Y556953D01*
X743044Y553384D01*
X744892Y550184D01*
X747504Y547572D01*
X750704Y545724D01*
X753012Y545106D01*
Y540567D01*
X751493Y539048D01*
X709276D01*
X708803Y540190D01*
X708468Y541588D01*
X708991Y542371D01*
X709228Y543560D01*
Y545106D01*
X711536Y545724D01*
X714736Y547572D01*
X717348Y550184D01*
X719196Y553384D01*
X720152Y556953D01*
Y560647D01*
X719196Y564216D01*
X717348Y567416D01*
X714736Y570028D01*
X711536Y571876D01*
X707967Y572832D01*
X704273D01*
X700704Y571876D01*
X697504Y570028D01*
X694892Y567416D01*
X693044Y564216D01*
X692088Y560647D01*
Y556953D01*
X693044Y553384D01*
X694892Y550184D01*
X697504Y547572D01*
X699070Y546668D01*
X698389Y544128D01*
X665480D01*
X664291Y543891D01*
X663282Y543218D01*
X658203Y538138D01*
X657529Y537129D01*
X657292Y535940D01*
Y254231D01*
X656947Y254088D01*
X655232Y252373D01*
X654304Y250133D01*
Y247707D01*
X655232Y245467D01*
X656947Y243752D01*
X659187Y242824D01*
X661613D01*
X663853Y243752D01*
X665568Y245467D01*
X666496Y247707D01*
Y250133D01*
X665568Y252373D01*
X664409Y253532D01*
X664479Y254634D01*
X666857Y255556D01*
X667176Y255529D01*
X669992Y252713D01*
Y244071D01*
X669647Y243928D01*
X667932Y242213D01*
X667004Y239973D01*
Y237547D01*
X667932Y235307D01*
X669647Y233592D01*
X671887Y232664D01*
X674313D01*
X676553Y233592D01*
X678268Y235307D01*
X679196Y237547D01*
Y239973D01*
X678268Y242213D01*
X676553Y243928D01*
X676208Y244071D01*
Y254000D01*
X675971Y255189D01*
X675297Y256197D01*
X668588Y262907D01*
Y532113D01*
X669307Y532832D01*
X752780D01*
X753969Y533069D01*
X754977Y533742D01*
X758317Y537082D01*
X758991Y538091D01*
X759228Y539280D01*
Y545106D01*
X761536Y545724D01*
X764736Y547572D01*
X767348Y550184D01*
X769196Y553384D01*
X770152Y556953D01*
Y560647D01*
X769196Y564216D01*
X767348Y567416D01*
X764736Y570028D01*
X761536Y571876D01*
X757967Y572832D01*
D02*
G37*
G36*
X1096545Y570782D02*
X1092934D01*
X1089393Y570078D01*
X1086057Y568696D01*
X1083054Y566689D01*
X1080501Y564136D01*
X1078494Y561133D01*
X1077113Y557797D01*
X1076408Y554255D01*
Y550644D01*
X1077113Y547103D01*
X1078494Y543767D01*
X1080501Y540764D01*
X1083054Y538211D01*
X1086057Y536204D01*
X1089393Y534823D01*
X1092934Y534118D01*
X1096545D01*
X1100087Y534823D01*
X1103423Y536204D01*
X1106426Y538211D01*
X1108979Y540764D01*
X1110986Y543767D01*
X1112367Y547103D01*
X1113072Y550644D01*
Y554255D01*
X1112367Y557797D01*
X1110986Y561133D01*
X1108979Y564136D01*
X1106426Y566689D01*
X1103423Y568696D01*
X1100087Y570078D01*
X1096545Y570782D01*
D02*
G37*
G36*
X1015770Y538480D02*
X1007110D01*
Y529820D01*
X1007147D01*
X1009673Y530497D01*
X1011937Y531804D01*
X1013786Y533653D01*
X1015093Y535917D01*
X1015770Y538443D01*
Y538480D01*
D02*
G37*
G36*
X1004570D02*
X995910D01*
Y538443D01*
X996587Y535917D01*
X997894Y533653D01*
X999743Y531804D01*
X1002007Y530497D01*
X1004533Y529820D01*
X1004570D01*
Y538480D01*
D02*
G37*
G36*
X1137194Y543432D02*
X1134486D01*
X1131871Y542731D01*
X1129527Y541378D01*
X1127612Y539463D01*
X1126259Y537119D01*
X1125558Y534504D01*
Y531796D01*
X1126259Y529181D01*
X1127612Y526837D01*
X1129527Y524922D01*
X1131871Y523569D01*
X1134486Y522868D01*
X1137194D01*
X1139809Y523569D01*
X1142153Y524922D01*
X1144068Y526837D01*
X1145421Y529181D01*
X1146122Y531796D01*
Y534504D01*
X1145421Y537119D01*
X1144068Y539463D01*
X1142153Y541378D01*
X1139809Y542731D01*
X1137194Y543432D01*
D02*
G37*
G36*
X1032480Y536472D02*
X1030000D01*
X1027603Y535830D01*
X1025455Y534590D01*
X1023700Y532835D01*
X1022460Y530687D01*
X1021818Y528290D01*
Y525810D01*
X1022460Y523413D01*
X1023700Y521265D01*
X1025455Y519510D01*
X1027603Y518270D01*
X1030000Y517628D01*
X1032480D01*
X1034877Y518270D01*
X1037025Y519510D01*
X1038780Y521265D01*
X1040020Y523413D01*
X1040662Y525810D01*
Y528290D01*
X1040020Y530687D01*
X1038780Y532835D01*
X1037025Y534590D01*
X1034877Y535830D01*
X1032480Y536472D01*
D02*
G37*
G36*
X1007080Y523772D02*
X1004600D01*
X1002203Y523130D01*
X1000055Y521889D01*
X998300Y520135D01*
X997060Y517987D01*
X996418Y515590D01*
Y513110D01*
X997060Y510713D01*
X998300Y508565D01*
X1000055Y506810D01*
X1002203Y505570D01*
X1004600Y504928D01*
X1007080D01*
X1009477Y505570D01*
X1011625Y506810D01*
X1013380Y508565D01*
X1014620Y510713D01*
X1015262Y513110D01*
Y515590D01*
X1014620Y517987D01*
X1013380Y520135D01*
X1011625Y521889D01*
X1009477Y523130D01*
X1007080Y523772D01*
D02*
G37*
G36*
Y498372D02*
X1004600D01*
X1002203Y497730D01*
X1000055Y496489D01*
X998300Y494735D01*
X997060Y492587D01*
X996418Y490190D01*
Y487710D01*
X997060Y485313D01*
X998300Y483165D01*
X1000055Y481410D01*
X1002203Y480170D01*
X1004600Y479528D01*
X1007080D01*
X1009477Y480170D01*
X1011625Y481410D01*
X1013380Y483165D01*
X1014620Y485313D01*
X1015262Y487710D01*
Y490190D01*
X1014620Y492587D01*
X1013380Y494735D01*
X1011625Y496489D01*
X1009477Y497730D01*
X1007080Y498372D01*
D02*
G37*
G36*
X1032480Y485672D02*
X1030000D01*
X1027603Y485030D01*
X1025455Y483789D01*
X1023700Y482035D01*
X1022460Y479887D01*
X1021818Y477490D01*
Y475010D01*
X1022460Y472613D01*
X1023700Y470465D01*
X1025455Y468711D01*
X1027603Y467470D01*
X1030000Y466828D01*
X1032480D01*
X1034877Y467470D01*
X1037025Y468711D01*
X1038780Y470465D01*
X1040020Y472613D01*
X1040662Y475010D01*
Y477490D01*
X1040020Y479887D01*
X1038780Y482035D01*
X1037025Y483789D01*
X1034877Y485030D01*
X1032480Y485672D01*
D02*
G37*
G36*
X1137194Y467732D02*
X1134486D01*
X1131871Y467031D01*
X1129527Y465678D01*
X1127612Y463763D01*
X1126259Y461419D01*
X1125558Y458804D01*
Y456096D01*
X1126259Y453481D01*
X1127612Y451137D01*
X1129527Y449222D01*
X1131871Y447869D01*
X1134486Y447168D01*
X1137194D01*
X1139809Y447869D01*
X1142153Y449222D01*
X1144068Y451137D01*
X1145421Y453481D01*
X1146122Y456096D01*
Y458804D01*
X1145421Y461419D01*
X1144068Y463763D01*
X1142153Y465678D01*
X1139809Y467031D01*
X1137194Y467732D01*
D02*
G37*
G36*
X850900Y490788D02*
X695960D01*
X694771Y490551D01*
X693763Y489878D01*
X691223Y487337D01*
X690549Y486329D01*
X690312Y485140D01*
Y452351D01*
X689967Y452208D01*
X688252Y450493D01*
X687324Y448253D01*
Y445827D01*
X688252Y443587D01*
X689967Y441872D01*
X692207Y440944D01*
X694633D01*
X696873Y441872D01*
X698588Y443587D01*
X699516Y445827D01*
Y448253D01*
X698588Y450493D01*
X696873Y452208D01*
X696528Y452351D01*
Y483853D01*
X697247Y484572D01*
X849613D01*
X850332Y483853D01*
Y457431D01*
X849987Y457288D01*
X848272Y455573D01*
X847344Y453333D01*
Y450907D01*
X848272Y448667D01*
X849987Y446952D01*
X852227Y446024D01*
X854653D01*
X856893Y446952D01*
X858608Y448667D01*
X859536Y450907D01*
Y453333D01*
X858608Y455573D01*
X856893Y457288D01*
X856548Y457431D01*
Y485140D01*
X856311Y486329D01*
X855638Y487337D01*
X853098Y489878D01*
X852089Y490551D01*
X850900Y490788D01*
D02*
G37*
G36*
X1040662Y460272D02*
X1021818D01*
Y441428D01*
X1040662D01*
Y460272D01*
D02*
G37*
G36*
X1137261Y442840D02*
X1137110D01*
Y433320D01*
X1146630D01*
Y433470D01*
X1145895Y436215D01*
X1144474Y438675D01*
X1142465Y440684D01*
X1140005Y442105D01*
X1137261Y442840D01*
D02*
G37*
G36*
X1134570D02*
X1134419D01*
X1131675Y442105D01*
X1129215Y440684D01*
X1127206Y438675D01*
X1125785Y436215D01*
X1125050Y433470D01*
Y433320D01*
X1134570D01*
Y442840D01*
D02*
G37*
G36*
X745433Y453136D02*
X743007D01*
X740767Y452208D01*
X739052Y450493D01*
X738124Y448253D01*
Y445827D01*
X739052Y443587D01*
X740767Y441872D01*
X741112Y441729D01*
Y434147D01*
X738572Y432501D01*
X737813Y432816D01*
X735387D01*
X733147Y431888D01*
X731432Y430173D01*
X730504Y427933D01*
Y425507D01*
X731432Y423267D01*
X733147Y421552D01*
X733492Y421409D01*
Y413827D01*
X730952Y412181D01*
X730193Y412496D01*
X727767D01*
X725527Y411568D01*
X723812Y409853D01*
X722884Y407613D01*
Y405187D01*
X723812Y402947D01*
X725527Y401232D01*
X725872Y401089D01*
Y393507D01*
X723332Y391861D01*
X722573Y392176D01*
X720147D01*
X717907Y391248D01*
X716192Y389533D01*
X715264Y387293D01*
Y384867D01*
X716192Y382627D01*
X717907Y380912D01*
X718252Y380769D01*
Y373187D01*
X715712Y371541D01*
X714953Y371856D01*
X712527D01*
X710287Y370928D01*
X708572Y369213D01*
X707644Y366973D01*
Y364547D01*
X708402Y362718D01*
X706208Y361593D01*
X704493Y363308D01*
X702253Y364236D01*
X699827D01*
X697587Y363308D01*
X696528Y362249D01*
X693988Y363176D01*
Y370884D01*
X696528Y371811D01*
X697587Y370752D01*
X699827Y369824D01*
X702253D01*
X704493Y370752D01*
X706208Y372467D01*
X707136Y374707D01*
Y377133D01*
X706208Y379373D01*
X704493Y381088D01*
X702253Y382016D01*
X699827D01*
X697587Y381088D01*
X695872Y379373D01*
X695729Y379028D01*
X693420D01*
X692231Y378791D01*
X691223Y378117D01*
X688682Y375578D01*
X688009Y374569D01*
X687772Y373380D01*
Y193271D01*
X687427Y193128D01*
X685712Y191413D01*
X684784Y189173D01*
Y186747D01*
X685712Y184507D01*
X687427Y182792D01*
X689667Y181864D01*
X690836D01*
X692600Y179575D01*
X692613Y179517D01*
X692404Y179013D01*
Y176587D01*
X693332Y174347D01*
X695047Y172632D01*
X697287Y171704D01*
X698964D01*
X700430Y170104D01*
X700753Y169386D01*
X700532Y168853D01*
Y166427D01*
X701460Y164187D01*
X703175Y162472D01*
X705415Y161544D01*
X707841D01*
X710081Y162472D01*
X711796Y164187D01*
X712724Y166427D01*
Y168853D01*
X712595Y169164D01*
X714292Y171704D01*
X714953D01*
X717193Y172632D01*
X718908Y174347D01*
X719836Y176587D01*
Y179013D01*
X719627Y179517D01*
X719640Y179575D01*
X721404Y181864D01*
X722573D01*
X724813Y182792D01*
X726528Y184507D01*
X727456Y186747D01*
Y189173D01*
X727247Y189677D01*
X727260Y189735D01*
X729024Y192024D01*
X730193D01*
X732433Y192952D01*
X734148Y194667D01*
X735076Y196907D01*
Y199333D01*
X734867Y199837D01*
X734880Y199895D01*
X736644Y202184D01*
X737813D01*
X740053Y203112D01*
X741768Y204827D01*
X742696Y207067D01*
Y209493D01*
X742487Y209997D01*
X742500Y210055D01*
X744264Y212344D01*
X745433D01*
X747673Y213272D01*
X749388Y214987D01*
X750316Y217227D01*
Y219653D01*
X749388Y221893D01*
X747673Y223608D01*
X747328Y223751D01*
Y238862D01*
X747091Y240051D01*
X746719Y240608D01*
X746894Y242288D01*
X747421Y243648D01*
X747673Y243752D01*
X749388Y245467D01*
X750316Y247707D01*
Y250133D01*
X749388Y252373D01*
X747673Y254088D01*
X747328Y254231D01*
Y319809D01*
X747673Y319952D01*
X749388Y321667D01*
X750316Y323907D01*
Y326333D01*
X749388Y328573D01*
X747673Y330288D01*
X745433Y331216D01*
X743008D01*
X740974Y332648D01*
X740800Y335085D01*
X746417Y340703D01*
X747091Y341711D01*
X747328Y342900D01*
Y441729D01*
X747673Y441872D01*
X749388Y443587D01*
X750316Y445827D01*
Y448253D01*
X749388Y450493D01*
X747673Y452208D01*
X745433Y453136D01*
D02*
G37*
G36*
X1146630Y430780D02*
X1137110D01*
Y421260D01*
X1137261D01*
X1140005Y421995D01*
X1142465Y423416D01*
X1144474Y425425D01*
X1145895Y427885D01*
X1146630Y430630D01*
Y430780D01*
D02*
G37*
G36*
X1134570D02*
X1125050D01*
Y430630D01*
X1125785Y427885D01*
X1127206Y425425D01*
X1129215Y423416D01*
X1131675Y421995D01*
X1134419Y421260D01*
X1134570D01*
Y430780D01*
D02*
G37*
G36*
X1032480Y511072D02*
X1030000D01*
X1027603Y510430D01*
X1025455Y509189D01*
X1023700Y507435D01*
X1022460Y505287D01*
X1021818Y502890D01*
Y500410D01*
X1022460Y498013D01*
X1023700Y495865D01*
X1025455Y494110D01*
X1027603Y492870D01*
X1030000Y492228D01*
X1032480D01*
X1034877Y492870D01*
X1037025Y494110D01*
X1038780Y495865D01*
X1040020Y498013D01*
X1040162Y498542D01*
X1066783D01*
X1068772Y496553D01*
Y428303D01*
X1066232Y427251D01*
X1065348Y428135D01*
X1062905Y429767D01*
X1060191Y430892D01*
X1057309Y431465D01*
X1057110D01*
Y416550D01*
Y401635D01*
X1057309D01*
X1060191Y402208D01*
X1062905Y403332D01*
X1065348Y404965D01*
X1066232Y405849D01*
X1068772Y404797D01*
Y330431D01*
X1068427Y330288D01*
X1066712Y328573D01*
X1065784Y326333D01*
Y323907D01*
X1066712Y321667D01*
X1068427Y319952D01*
X1070667Y319024D01*
X1073093D01*
X1075333Y319952D01*
X1077048Y321667D01*
X1077976Y323907D01*
Y326333D01*
X1077048Y328573D01*
X1075333Y330288D01*
X1074988Y330431D01*
Y431295D01*
X1077528Y431800D01*
X1078494Y429467D01*
X1080501Y426464D01*
X1083054Y423911D01*
X1086057Y421904D01*
X1089393Y420522D01*
X1092934Y419818D01*
X1096545D01*
X1100087Y420522D01*
X1103423Y421904D01*
X1106426Y423911D01*
X1108979Y426464D01*
X1110986Y429467D01*
X1112367Y432803D01*
X1113072Y436344D01*
Y439955D01*
X1112367Y443497D01*
X1110986Y446833D01*
X1108979Y449836D01*
X1106426Y452389D01*
X1103423Y454396D01*
X1100087Y455778D01*
X1096545Y456482D01*
X1092934D01*
X1089393Y455778D01*
X1086057Y454396D01*
X1083054Y452389D01*
X1080501Y449836D01*
X1078494Y446833D01*
X1077528Y444500D01*
X1074988Y445005D01*
Y497840D01*
X1074751Y499029D01*
X1074078Y500037D01*
X1070267Y503848D01*
X1069259Y504521D01*
X1068070Y504758D01*
X1040162D01*
X1040020Y505287D01*
X1038780Y507435D01*
X1037025Y509189D01*
X1034877Y510430D01*
X1032480Y511072D01*
D02*
G37*
G36*
X1054570Y431465D02*
X1054371D01*
X1051489Y430892D01*
X1048775Y429767D01*
X1046332Y428135D01*
X1044255Y426058D01*
X1042623Y423615D01*
X1041498Y420900D01*
X1040925Y418019D01*
Y417820D01*
X1054570D01*
Y431465D01*
D02*
G37*
G36*
Y415280D02*
X1040925D01*
Y415081D01*
X1041498Y412200D01*
X1042623Y409485D01*
X1044255Y407042D01*
X1046332Y404965D01*
X1048775Y403332D01*
X1051489Y402208D01*
X1054371Y401635D01*
X1054570D01*
Y415280D01*
D02*
G37*
G36*
X631133Y453136D02*
X628707D01*
X626467Y452208D01*
X624752Y450493D01*
X623824Y448253D01*
Y445827D01*
X623964Y445490D01*
Y331749D01*
X623824Y331413D01*
Y328987D01*
X624752Y326747D01*
X626467Y325032D01*
X628707Y324104D01*
X631133D01*
X633373Y325032D01*
X635088Y326747D01*
X636016Y328987D01*
Y331413D01*
X635877Y331749D01*
Y445490D01*
X636016Y445827D01*
Y448253D01*
X635088Y450493D01*
X633373Y452208D01*
X631133Y453136D01*
D02*
G37*
G36*
X847033Y310896D02*
X844607D01*
X842367Y309968D01*
X840652Y308253D01*
X840509Y307908D01*
X825731D01*
X825588Y308253D01*
X823873Y309968D01*
X821633Y310896D01*
X819207D01*
X816967Y309968D01*
X815252Y308253D01*
X814324Y306013D01*
Y303587D01*
X815252Y301347D01*
X816967Y299632D01*
X819207Y298704D01*
X821633D01*
X823873Y299632D01*
X825588Y301347D01*
X825731Y301692D01*
X840509D01*
X840652Y301347D01*
X842367Y299632D01*
X844607Y298704D01*
X847033D01*
X849273Y299632D01*
X850988Y301347D01*
X851916Y303587D01*
Y306013D01*
X850988Y308253D01*
X849273Y309968D01*
X847033Y310896D01*
D02*
G37*
G36*
X1007080Y472972D02*
X1004600D01*
X1002203Y472330D01*
X1000055Y471090D01*
X998300Y469335D01*
X997060Y467187D01*
X996418Y464790D01*
Y462310D01*
X997060Y459913D01*
X998300Y457765D01*
X1000055Y456011D01*
X1002203Y454770D01*
X1002732Y454628D01*
Y396240D01*
X1002969Y395051D01*
X1003643Y394043D01*
X1008723Y388963D01*
X1009731Y388289D01*
X1010920Y388052D01*
X1047733D01*
X1050992Y384793D01*
Y310111D01*
X1050647Y309968D01*
X1048932Y308253D01*
X1048004Y306013D01*
Y303587D01*
X1048932Y301347D01*
X1050647Y299632D01*
X1052887Y298704D01*
X1055313D01*
X1057553Y299632D01*
X1059268Y301347D01*
X1060196Y303587D01*
Y306013D01*
X1059268Y308253D01*
X1057553Y309968D01*
X1057208Y310111D01*
Y386080D01*
X1056971Y387269D01*
X1056298Y388278D01*
X1051217Y393358D01*
X1050209Y394031D01*
X1049020Y394268D01*
X1012207D01*
X1008948Y397527D01*
Y454628D01*
X1009477Y454770D01*
X1011625Y456011D01*
X1013380Y457765D01*
X1014620Y459913D01*
X1015262Y462310D01*
Y464790D01*
X1014620Y467187D01*
X1013380Y469335D01*
X1011625Y471090D01*
X1009477Y472330D01*
X1007080Y472972D01*
D02*
G37*
G36*
X596607Y572832D02*
X592913D01*
X589344Y571876D01*
X586144Y570028D01*
X583532Y567416D01*
X581684Y564216D01*
X580728Y560647D01*
Y556953D01*
X581684Y553384D01*
X583532Y550184D01*
X586144Y547572D01*
X589344Y545724D01*
X591452Y545159D01*
Y321127D01*
X590414Y320400D01*
X588912Y319894D01*
X587052Y320968D01*
X584501Y321652D01*
X581859D01*
X579308Y320968D01*
X577882Y323078D01*
X579696Y324893D01*
X580033Y325032D01*
X581748Y326747D01*
X582676Y328987D01*
Y331413D01*
X581748Y333653D01*
X580033Y335368D01*
X577793Y336296D01*
X575367D01*
X573127Y335368D01*
X571412Y333653D01*
X571273Y333316D01*
X564748Y326792D01*
X563457Y324859D01*
X563004Y322580D01*
Y267301D01*
X560463Y266620D01*
X559614Y268092D01*
X557652Y270054D01*
X555248Y271442D01*
X552568Y272160D01*
X552450D01*
Y261620D01*
Y251080D01*
X552568D01*
X555248Y251798D01*
X557652Y253186D01*
X559614Y255148D01*
X560463Y256620D01*
X563004Y255939D01*
Y185420D01*
X563457Y183141D01*
X564748Y181208D01*
X570624Y175333D01*
Y148196D01*
X553720D01*
X551441Y147743D01*
X549508Y146452D01*
X546968Y143912D01*
X545677Y141979D01*
X545224Y139700D01*
Y114227D01*
X537904Y106908D01*
X537567Y106768D01*
X535852Y105053D01*
X534924Y102813D01*
Y100387D01*
X535064Y100050D01*
Y73660D01*
X535517Y71381D01*
X536808Y69448D01*
X539348Y66908D01*
X541281Y65617D01*
X543560Y65163D01*
X650313D01*
X658728Y56748D01*
X658728Y56748D01*
X660661Y55457D01*
X662940Y55003D01*
X679171D01*
X679507Y54864D01*
X681933D01*
X682270Y55003D01*
X786524D01*
Y42189D01*
X786384Y41853D01*
Y39427D01*
X787312Y37187D01*
X789027Y35472D01*
X791267Y34544D01*
X793693D01*
X795933Y35472D01*
X797648Y37187D01*
X798576Y39427D01*
Y41853D01*
X798437Y42189D01*
Y55003D01*
X882371D01*
X882707Y54864D01*
X885133D01*
X887373Y55792D01*
X889088Y57507D01*
X890016Y59747D01*
Y62173D01*
X889088Y64413D01*
X887373Y66128D01*
X885133Y67056D01*
X882707D01*
X882371Y66916D01*
X682270D01*
X681933Y67056D01*
X679507D01*
X679171Y66916D01*
X665407D01*
X656992Y75332D01*
X655059Y76623D01*
X652780Y77077D01*
X546977D01*
Y99133D01*
X555392Y107548D01*
X555392Y107548D01*
X556683Y109481D01*
X557136Y111760D01*
Y136284D01*
X575031D01*
X575367Y136144D01*
X577793D01*
X578044Y136248D01*
X580584Y134551D01*
Y117856D01*
X580447D01*
X578207Y116928D01*
X576492Y115213D01*
X575564Y112973D01*
Y110547D01*
X576492Y108307D01*
X578207Y106592D01*
X580447Y105664D01*
X582873D01*
X585113Y106592D01*
X586828Y108307D01*
X587756Y110547D01*
Y112973D01*
X587501Y113588D01*
X588908Y116195D01*
X589340Y116349D01*
X590607Y115824D01*
X593033D01*
X593792Y116139D01*
X596332Y114493D01*
Y106911D01*
X595987Y106768D01*
X594272Y105053D01*
X593344Y102813D01*
Y100387D01*
X594272Y98147D01*
X595987Y96432D01*
X596332Y96289D01*
Y88900D01*
X596569Y87711D01*
X597243Y86702D01*
X601814Y82130D01*
X602823Y81457D01*
X604012Y81220D01*
X940308D01*
X941497Y81457D01*
X942505Y82130D01*
X947077Y86702D01*
X947751Y87711D01*
X947988Y88900D01*
Y139132D01*
X957773D01*
X959419Y136592D01*
X959104Y135833D01*
Y133407D01*
X960032Y131167D01*
X961747Y129452D01*
X962092Y129309D01*
Y78740D01*
X962329Y77551D01*
X963002Y76543D01*
X965543Y74002D01*
X966551Y73329D01*
X967740Y73092D01*
X1132609D01*
X1132752Y72747D01*
X1134467Y71032D01*
X1136707Y70104D01*
X1139133D01*
X1141373Y71032D01*
X1143088Y72747D01*
X1144016Y74987D01*
Y77413D01*
X1143088Y79653D01*
X1141373Y81368D01*
X1139133Y82296D01*
X1136707D01*
X1134467Y81368D01*
X1132752Y79653D01*
X1132609Y79308D01*
X969027D01*
X968308Y80027D01*
Y88944D01*
X970848Y89871D01*
X971907Y88812D01*
X974147Y87884D01*
X976573D01*
X978813Y88812D01*
X980528Y90527D01*
X980671Y90872D01*
X1089660D01*
X1090849Y91109D01*
X1091858Y91783D01*
X1094398Y94323D01*
X1095071Y95331D01*
X1095308Y96520D01*
Y157249D01*
X1095653Y157392D01*
X1097368Y159107D01*
X1098296Y161347D01*
Y163773D01*
X1097368Y166013D01*
X1095653Y167728D01*
X1093413Y168656D01*
X1090987D01*
X1090228Y168341D01*
X1087688Y169987D01*
Y185420D01*
X1087451Y186609D01*
X1086777Y187617D01*
X1081697Y192698D01*
X1080689Y193371D01*
X1079500Y193608D01*
X1044171D01*
X1044028Y193953D01*
X1042313Y195668D01*
X1040073Y196596D01*
X1037647D01*
X1037310Y196457D01*
X984529D01*
X984193Y196596D01*
X981767D01*
X981431Y196457D01*
X912737D01*
Y277850D01*
X912876Y278187D01*
Y280613D01*
X911948Y282853D01*
X910233Y284568D01*
X907993Y285496D01*
X905567D01*
X903327Y284568D01*
X901612Y282853D01*
X900684Y280613D01*
Y278187D01*
X900824Y277850D01*
Y274433D01*
X898283Y273219D01*
X897188Y274104D01*
Y345209D01*
X897533Y345352D01*
X898976Y346795D01*
X900430Y346945D01*
X901884Y346795D01*
X903327Y345352D01*
X903672Y345209D01*
Y310111D01*
X903327Y309968D01*
X901612Y308253D01*
X900684Y306013D01*
Y303587D01*
X901612Y301347D01*
X903327Y299632D01*
X905567Y298704D01*
X907993D01*
X910233Y299632D01*
X911948Y301347D01*
X912876Y303587D01*
Y306013D01*
X911948Y308253D01*
X910233Y309968D01*
X909888Y310111D01*
Y345209D01*
X910233Y345352D01*
X911948Y347067D01*
X912876Y349307D01*
Y351733D01*
X911948Y353973D01*
X910889Y355032D01*
X911816Y357572D01*
X997030D01*
X998219Y357809D01*
X999227Y358483D01*
X1000417Y359673D01*
X1001091Y360681D01*
X1001328Y361870D01*
Y368069D01*
X1001673Y368212D01*
X1003388Y369927D01*
X1004316Y372167D01*
Y374593D01*
X1003388Y376833D01*
X1001673Y378548D01*
X999433Y379476D01*
X997007D01*
X994767Y378548D01*
X993052Y376833D01*
X992124Y374593D01*
Y372167D01*
X993052Y369927D01*
X994767Y368212D01*
X995112Y368069D01*
Y363788D01*
X904471D01*
X904328Y364133D01*
X902613Y365848D01*
X900373Y366776D01*
X897947D01*
X895707Y365848D01*
X893992Y364133D01*
X893064Y361893D01*
Y359467D01*
X893193Y359156D01*
X892877Y356688D01*
X891875Y356205D01*
X890627Y355688D01*
X888912Y353973D01*
X887984Y351733D01*
Y349307D01*
X888193Y348803D01*
X888180Y348745D01*
X886416Y346456D01*
X885247D01*
X883007Y345528D01*
X881292Y343813D01*
X880364Y341573D01*
Y339147D01*
X881292Y336907D01*
X883007Y335192D01*
X883352Y335049D01*
Y271780D01*
X883589Y270591D01*
X884262Y269583D01*
X885892Y267953D01*
Y251267D01*
X883352Y249621D01*
X882593Y249936D01*
X880167D01*
X877927Y249008D01*
X876212Y247293D01*
X876069Y246948D01*
X872507D01*
X871788Y247667D01*
Y363220D01*
X871551Y364409D01*
X870878Y365418D01*
X868337Y367957D01*
X867329Y368631D01*
X866140Y368868D01*
X852187D01*
X851468Y369587D01*
Y390929D01*
X851813Y391072D01*
X853528Y392787D01*
X854456Y395027D01*
Y397453D01*
X853528Y399693D01*
X851813Y401408D01*
X849573Y402336D01*
X847147D01*
X846836Y402207D01*
X844369Y402523D01*
X843885Y403525D01*
X843368Y404773D01*
X841653Y406488D01*
X839413Y407416D01*
X836987D01*
X834747Y406488D01*
X833032Y404773D01*
X832104Y402533D01*
Y400107D01*
X833032Y397867D01*
X833595Y397304D01*
X833488Y396973D01*
X832300Y394716D01*
X829875D01*
X827635Y393788D01*
X825920Y392073D01*
X825777Y391728D01*
X775890D01*
X774701Y391491D01*
X773693Y390817D01*
X772728Y389852D01*
X771785Y389971D01*
X770188Y390735D01*
Y464589D01*
X770533Y464732D01*
X772248Y466447D01*
X773176Y468687D01*
Y471113D01*
X772248Y473353D01*
X770533Y475068D01*
X768293Y475996D01*
X765867D01*
X763627Y475068D01*
X761912Y473353D01*
X760984Y471113D01*
Y470723D01*
X760709Y468651D01*
X758637Y468376D01*
X758247D01*
X756007Y467448D01*
X754292Y465733D01*
X753364Y463493D01*
Y461067D01*
X754292Y458827D01*
X756007Y457112D01*
X756352Y456969D01*
Y170748D01*
X727630D01*
X726441Y170511D01*
X725433Y169837D01*
X724242Y168647D01*
X723569Y167639D01*
X723332Y166450D01*
Y150091D01*
X722987Y149948D01*
X721272Y148233D01*
X720344Y145993D01*
Y143567D01*
X721272Y141327D01*
X722987Y139612D01*
X725227Y138684D01*
X727653D01*
X729893Y139612D01*
X731608Y141327D01*
X732536Y143567D01*
Y145993D01*
X731608Y148233D01*
X729893Y149948D01*
X729548Y150091D01*
Y164532D01*
X758270D01*
X759459Y164769D01*
X760467Y165443D01*
X761657Y166633D01*
X762331Y167641D01*
X762568Y168830D01*
Y208246D01*
X764926Y209237D01*
X766512Y207778D01*
Y165331D01*
X766167Y165188D01*
X764452Y163473D01*
X763524Y161233D01*
Y158807D01*
X764452Y156567D01*
X766167Y154852D01*
X768407Y153924D01*
X770833D01*
X773073Y154852D01*
X774788Y156567D01*
X775716Y158807D01*
Y161233D01*
X774788Y163473D01*
X773073Y165188D01*
X772728Y165331D01*
Y209562D01*
X772491Y210751D01*
X771817Y211759D01*
X770188Y213389D01*
Y249113D01*
X772728Y250759D01*
X773487Y250444D01*
X775913D01*
X778153Y251372D01*
X779868Y253087D01*
X780796Y255327D01*
Y257753D01*
X779868Y259993D01*
X778153Y261708D01*
X777808Y261851D01*
Y304993D01*
X780348Y306639D01*
X781107Y306324D01*
X783533D01*
X785773Y307252D01*
X787488Y308967D01*
X788416Y311207D01*
Y313633D01*
X787488Y315873D01*
X785773Y317588D01*
X785428Y317731D01*
Y376692D01*
X787853Y377285D01*
X789229Y375328D01*
X788924Y374593D01*
Y372167D01*
X789852Y369927D01*
X791567Y368212D01*
X791912Y368069D01*
Y349170D01*
X792149Y347981D01*
X792822Y346973D01*
X794013Y345783D01*
X795021Y345109D01*
X796210Y344872D01*
X845589D01*
X845732Y344527D01*
X847447Y342812D01*
X849687Y341884D01*
X852113D01*
X854353Y342812D01*
X856068Y344527D01*
X856996Y346767D01*
Y349193D01*
X856068Y351433D01*
X854353Y353148D01*
X852113Y354076D01*
X851723D01*
X849651Y354351D01*
X849376Y356423D01*
Y356813D01*
X848448Y359053D01*
X846733Y360768D01*
X844493Y361696D01*
X842067D01*
X839827Y360768D01*
X838112Y359053D01*
X837969Y358708D01*
X813031D01*
X812888Y359053D01*
X811173Y360768D01*
X808933Y361696D01*
X806507D01*
X804267Y360768D01*
X802552Y359053D01*
X801624Y356813D01*
Y354387D01*
X801929Y353652D01*
X800553Y351695D01*
X798128Y352288D01*
Y368069D01*
X798473Y368212D01*
X800188Y369927D01*
X801116Y372167D01*
Y374593D01*
X800801Y375352D01*
X802447Y377892D01*
X837010D01*
X838199Y378129D01*
X839207Y378802D01*
X840397Y379993D01*
X841071Y381001D01*
X841308Y382190D01*
Y390271D01*
X843795Y391332D01*
X845252Y390235D01*
Y368300D01*
X845489Y367111D01*
X846162Y366102D01*
X848702Y363563D01*
X849711Y362889D01*
X850900Y362652D01*
X864853D01*
X865572Y361933D01*
Y246380D01*
X865809Y245191D01*
X866482Y244182D01*
X869023Y241642D01*
X870031Y240969D01*
X871220Y240732D01*
X876069D01*
X876212Y240387D01*
X877927Y238672D01*
X880167Y237744D01*
X882593D01*
X883352Y238059D01*
X885892Y236413D01*
Y208511D01*
X885547Y208368D01*
X883832Y206653D01*
X882904Y204413D01*
Y201987D01*
X883832Y199747D01*
X884443Y199136D01*
X883391Y196596D01*
X882707D01*
X880467Y195668D01*
X878752Y193953D01*
X877824Y191713D01*
Y189287D01*
X878752Y187047D01*
X880467Y185332D01*
X882707Y184404D01*
X885133D01*
X885470Y184543D01*
X981431D01*
X981767Y184404D01*
X984193D01*
X984529Y184543D01*
X1037310D01*
X1037647Y184404D01*
X1040073D01*
X1042313Y185332D01*
X1044028Y187047D01*
X1044171Y187392D01*
X1078213D01*
X1081472Y184133D01*
Y126956D01*
X1078932Y126029D01*
X1077873Y127088D01*
X1075633Y128016D01*
X1073207D01*
X1072591Y127761D01*
X1070236Y129535D01*
Y130633D01*
X1069308Y132873D01*
X1067681Y134500D01*
X1069308Y136127D01*
X1070236Y138367D01*
Y140793D01*
X1069308Y143033D01*
X1067593Y144748D01*
X1065353Y145676D01*
X1062927D01*
X1060687Y144748D01*
X1058972Y143033D01*
X1058829Y142688D01*
X1004707D01*
X997878Y149517D01*
X996869Y150191D01*
X995680Y150428D01*
X940990D01*
X939801Y150191D01*
X938793Y149517D01*
X937602Y148327D01*
X936929Y147319D01*
X936692Y146130D01*
Y94548D01*
X818645D01*
X817881Y96145D01*
X817763Y97088D01*
X820078Y99403D01*
X820751Y100411D01*
X820988Y101600D01*
Y101793D01*
X823528Y103439D01*
X824287Y103124D01*
X826713D01*
X828953Y104052D01*
X830668Y105767D01*
X831596Y108007D01*
Y110433D01*
X830668Y112673D01*
X828953Y114388D01*
X828608Y114531D01*
Y132273D01*
X831148Y133919D01*
X831907Y133604D01*
X834333D01*
X836573Y134532D01*
X838288Y136247D01*
X839216Y138487D01*
Y140913D01*
X838288Y143153D01*
X836573Y144868D01*
X836228Y145011D01*
Y197889D01*
X836573Y198032D01*
X838288Y199747D01*
X839216Y201987D01*
Y204413D01*
X838288Y206653D01*
X836573Y208368D01*
X834333Y209296D01*
X831907D01*
X831148Y208981D01*
X828608Y210627D01*
Y218209D01*
X828953Y218352D01*
X830668Y220067D01*
X831596Y222307D01*
Y224733D01*
X830668Y226973D01*
X828953Y228688D01*
X826713Y229616D01*
X824287D01*
X823528Y229301D01*
X820988Y230947D01*
Y238529D01*
X821333Y238672D01*
X823048Y240387D01*
X823976Y242627D01*
Y245053D01*
X823048Y247293D01*
X821333Y249008D01*
X819093Y249936D01*
X816667D01*
X814427Y249008D01*
X812712Y247293D01*
X811784Y245053D01*
Y242627D01*
X812712Y240387D01*
X814427Y238672D01*
X814772Y238529D01*
Y102887D01*
X814053Y102168D01*
X741911D01*
X741768Y102513D01*
X740053Y104228D01*
X737813Y105156D01*
X735387D01*
X733147Y104228D01*
X731432Y102513D01*
X730504Y100273D01*
Y97847D01*
X730819Y97088D01*
X729173Y94548D01*
X614911D01*
X614768Y94893D01*
X613053Y96608D01*
X612708Y96751D01*
Y167409D01*
X613053Y167552D01*
X614768Y169267D01*
X615696Y171507D01*
Y173933D01*
X614768Y176173D01*
X613053Y177888D01*
X610813Y178816D01*
X608387D01*
X606559Y178059D01*
X604778Y178587D01*
X603769Y179102D01*
X603579Y180084D01*
X605502Y182007D01*
X605847Y181864D01*
X608273D01*
X610513Y182792D01*
X612228Y184507D01*
X613156Y186747D01*
Y189173D01*
X612228Y191413D01*
X610513Y193128D01*
X608273Y194056D01*
X605847D01*
X603607Y193128D01*
X601892Y191413D01*
X600964Y189173D01*
Y186747D01*
X601107Y186402D01*
X597243Y182537D01*
X596569Y181529D01*
X596332Y180340D01*
Y169987D01*
X593792Y168341D01*
X593033Y168656D01*
X590607D01*
X589340Y168131D01*
X586800Y169479D01*
Y202204D01*
X587052Y202272D01*
X589340Y203592D01*
X591208Y205460D01*
X592528Y207748D01*
X593212Y210299D01*
Y212941D01*
X592528Y215492D01*
X591208Y217780D01*
X590801Y218187D01*
X592239Y220340D01*
X593147Y219964D01*
X595573D01*
X597813Y220892D01*
X599528Y222607D01*
X600456Y224847D01*
Y227273D01*
X599528Y229513D01*
X597813Y231228D01*
X597668Y231288D01*
Y545052D01*
X600176Y545724D01*
X603376Y547572D01*
X605988Y550184D01*
X607836Y553384D01*
X608792Y556953D01*
Y560647D01*
X607836Y564216D01*
X605988Y567416D01*
X603376Y570028D01*
X600176Y571876D01*
X596607Y572832D01*
D02*
G37*
G36*
X1040073Y351536D02*
X1037647D01*
X1035407Y350608D01*
X1033692Y348893D01*
X1032764Y346653D01*
Y344227D01*
X1033692Y341987D01*
X1035407Y340272D01*
X1035752Y340129D01*
Y284711D01*
X1035407Y284568D01*
X1033692Y282853D01*
X1032764Y280613D01*
Y278187D01*
X1033692Y275947D01*
X1035407Y274232D01*
X1037647Y273304D01*
X1040073D01*
X1042313Y274232D01*
X1044028Y275947D01*
X1044956Y278187D01*
Y280613D01*
X1044028Y282853D01*
X1042313Y284568D01*
X1041968Y284711D01*
Y340129D01*
X1042313Y340272D01*
X1044028Y341987D01*
X1044956Y344227D01*
Y346653D01*
X1044028Y348893D01*
X1042313Y350608D01*
X1040073Y351536D01*
D02*
G37*
G36*
X610813Y379476D02*
X608387D01*
X606147Y378548D01*
X604432Y376833D01*
X603504Y374593D01*
Y372167D01*
X604432Y369927D01*
X606147Y368212D01*
X606492Y368069D01*
Y233680D01*
X606729Y232491D01*
X607402Y231483D01*
X609943Y228943D01*
X610951Y228269D01*
X612140Y228032D01*
X661653D01*
X662372Y227313D01*
Y152631D01*
X662027Y152488D01*
X660312Y150773D01*
X659384Y148533D01*
Y146107D01*
X660312Y143867D01*
X662027Y142152D01*
X664267Y141224D01*
X666693D01*
X668933Y142152D01*
X670648Y143867D01*
X671576Y146107D01*
Y148533D01*
X670648Y150773D01*
X668933Y152488D01*
X668588Y152631D01*
Y228600D01*
X668351Y229789D01*
X667678Y230798D01*
X665137Y233337D01*
X664129Y234011D01*
X662940Y234248D01*
X613427D01*
X612708Y234967D01*
Y368069D01*
X613053Y368212D01*
X614768Y369927D01*
X615696Y372167D01*
Y374593D01*
X614768Y376833D01*
X613053Y378548D01*
X610813Y379476D01*
D02*
G37*
%LPD*%
D82*
X275510Y429260D02*
X416560D01*
X274320Y428070D02*
X275510Y429260D01*
X416560D02*
X424180Y436880D01*
X274320Y368300D02*
Y428070D01*
X1038860Y279400D02*
Y345440D01*
Y190500D02*
X1079500D01*
X1084580Y185420D01*
Y101600D02*
Y185420D01*
X1092200Y96520D02*
Y162560D01*
X1089660Y93980D02*
X1092200Y96520D01*
X975360Y93980D02*
X1089660D01*
X604012Y84328D02*
X940308D01*
X609600Y91440D02*
X938610D01*
X944880Y88900D02*
Y141050D01*
X599440Y88900D02*
Y180340D01*
X938610Y91440D02*
X939800Y92630D01*
X940308Y84328D02*
X944880Y88900D01*
X599440D02*
X604012Y84328D01*
X939800Y92630D02*
Y146130D01*
X583692Y115442D02*
Y211108D01*
X581660Y111760D02*
Y113410D01*
X583692Y115442D01*
X583180Y211620D02*
Y308860D01*
X591820Y121920D02*
Y162560D01*
X583180Y211620D02*
X583692Y211108D01*
X599440Y180340D02*
X607060Y187960D01*
X695960Y487680D02*
X850900D01*
X693420Y485140D02*
X695960Y487680D01*
X693420Y447040D02*
Y485140D01*
X853440Y452120D02*
Y485140D01*
X850900Y487680D02*
X853440Y485140D01*
X424180Y436880D02*
Y457200D01*
X375920Y452120D02*
X388112Y464312D01*
X427126D02*
X439318Y452120D01*
X388112Y464312D02*
X427126D01*
X439318Y452120D02*
X524590D01*
X525780Y238760D02*
Y450930D01*
X524590Y452120D02*
X525780Y450930D01*
X767080Y212102D02*
Y469900D01*
X510540Y355600D02*
Y426720D01*
X518160Y330200D02*
Y396240D01*
X609600Y233680D02*
Y373380D01*
Y233680D02*
X612140Y231140D01*
X662940D01*
X665480Y228600D01*
Y147320D02*
Y228600D01*
Y261620D02*
X673100Y254000D01*
X665480Y533400D02*
X668020Y535940D01*
X660400Y248920D02*
Y535940D01*
X665480Y261620D02*
Y533400D01*
Y541020D02*
X703580D01*
X668020Y535940D02*
X752780D01*
X660400D02*
X665480Y541020D01*
X673100Y238760D02*
Y254000D01*
X736600Y99060D02*
X815340D01*
X817880Y101600D01*
Y243840D01*
X825500Y109220D02*
Y223520D01*
X833120Y139700D02*
Y203200D01*
X899160Y360680D02*
X997030D01*
X998220Y361870D02*
Y373380D01*
X997030Y360680D02*
X998220Y361870D01*
X906780Y304800D02*
Y350520D01*
X894080Y271780D02*
Y350520D01*
X886460Y271780D02*
Y340360D01*
X1071880Y325120D02*
Y497840D01*
X1031240Y501650D02*
X1068070D01*
X1071880Y497840D01*
X1054100Y304800D02*
Y386080D01*
X1049020Y391160D02*
X1054100Y386080D01*
X1010920Y391160D02*
X1049020D01*
X1005840Y396240D02*
X1010920Y391160D01*
X1005840Y396240D02*
Y463550D01*
X894080Y271780D02*
X896620Y269240D01*
Y223520D02*
Y269240D01*
X889000Y203200D02*
Y269240D01*
X886460Y271780D02*
X889000Y269240D01*
X871220Y243840D02*
X881380D01*
X868680Y246380D02*
X871220Y243840D01*
X868680Y246380D02*
Y363220D01*
X850900Y365760D02*
X866140D01*
X868680Y363220D01*
X848360Y368300D02*
Y396240D01*
Y368300D02*
X850900Y365760D01*
X796210Y347980D02*
X850900D01*
X795020Y349170D02*
Y373380D01*
Y349170D02*
X796210Y347980D01*
X807720Y355600D02*
X843280D01*
X774700Y387430D02*
X775890Y388620D01*
X774700Y256540D02*
Y387430D01*
X775890Y388620D02*
X831088D01*
X838200Y382190D02*
Y401320D01*
X837010Y381000D02*
X838200Y382190D01*
X783510Y381000D02*
X837010D01*
X782320Y379810D02*
X783510Y381000D01*
X767080Y212102D02*
X769620Y209562D01*
X759460Y168830D02*
Y462280D01*
X727630Y167640D02*
X758270D01*
X759460Y168830D01*
X693420Y375920D02*
X701040D01*
X690880Y373380D02*
X693420Y375920D01*
X690880Y187960D02*
Y373380D01*
X698500Y177800D02*
Y353950D01*
X701040Y356490D01*
Y358140D01*
X706374Y167894D02*
X706628Y167640D01*
X713740Y177800D02*
Y365760D01*
X721360Y187960D02*
Y386080D01*
X706120Y345440D02*
X706374Y345186D01*
Y167894D02*
Y345186D01*
X744220Y218440D02*
Y238862D01*
X736600Y208280D02*
Y240735D01*
X728980Y198120D02*
Y406400D01*
X737108Y245974D02*
X744220Y238862D01*
X820420Y304800D02*
X845820D01*
X782320Y312420D02*
Y379810D01*
X769620Y160020D02*
Y209562D01*
X744220Y342900D02*
Y447040D01*
X737108Y335788D02*
X744220Y342900D01*
X726440Y144780D02*
Y166450D01*
X727630Y167640D01*
X733044Y357124D02*
X736600Y360680D01*
Y426720D01*
X733044Y244291D02*
Y357124D01*
X737108Y245974D02*
Y335788D01*
X733044Y244291D02*
X736600Y240735D01*
X744220Y248920D02*
Y325120D01*
X1072770Y121920D02*
X1074420D01*
X1070230Y119380D02*
X1072770Y121920D01*
X975360Y119380D02*
X1070230D01*
X1005960Y129420D02*
X1064140D01*
X1003420Y139580D02*
X1064140D01*
X967740Y76200D02*
X1137920D01*
X965200Y78740D02*
X967740Y76200D01*
X965200Y78740D02*
Y134620D01*
X995680Y147320D02*
X1003420Y139580D01*
X993140Y142240D02*
X1005960Y129420D01*
X939800Y146130D02*
X940990Y147320D01*
X995680D01*
X944880Y141050D02*
X946070Y142240D01*
X993140D01*
X609600Y91440D02*
Y172720D01*
X535940Y226060D02*
Y454660D01*
X533400Y457200D02*
X535940Y454660D01*
X462280Y459740D02*
X464820Y457200D01*
X533400D01*
X462280Y459740D02*
Y495300D01*
X594360Y226060D02*
X594560Y226260D01*
Y558600D01*
X594760Y558800D01*
X756120Y539280D02*
Y558800D01*
X752780Y535940D02*
X756120Y539280D01*
X703580Y541020D02*
X706120Y543560D01*
Y558800D01*
X274320Y368300D02*
X279400Y363220D01*
D86*
X249536Y287020D02*
X254000Y291484D01*
X167640Y287020D02*
X249536D01*
X254000Y291484D02*
Y342900D01*
X279400D02*
X401320D01*
X254000D02*
X279400D01*
X401320D02*
X419100Y325120D01*
X906780Y190500D02*
X982980D01*
X883920D02*
X906780D01*
Y279400D01*
X982980Y190500D02*
X1038860D01*
X789940Y60960D02*
X883920D01*
X789940D02*
X792480Y58420D01*
X662940Y60960D02*
X680720D01*
X789940D01*
X792480Y40640D02*
Y58420D01*
X541020Y73660D02*
Y101600D01*
Y73660D02*
X543560Y71120D01*
X652780D01*
X662940Y60960D01*
X553720Y142240D02*
X576580D01*
X551180Y139700D02*
X553720Y142240D01*
X541020Y101600D02*
X551180Y111760D01*
Y139700D01*
X568960Y322580D02*
X576580Y330200D01*
X568960Y185420D02*
Y322580D01*
Y185420D02*
X576580Y177800D01*
Y142240D02*
Y177800D01*
X629920Y330200D02*
Y447040D01*
X254000Y342900D02*
Y365760D01*
D87*
X1295400Y302260D02*
X1398564D01*
X1401104Y299720D01*
X1402341D01*
X1564885Y32775D02*
X1568845D01*
X1569720Y31900D01*
X1550275Y41185D02*
X1556475D01*
X1564885Y32775D01*
X1549400Y42060D02*
X1550275Y41185D01*
X1564258Y13082D02*
X1569004D01*
X1549400Y21740D02*
X1555600D01*
X1569004Y13082D02*
X1569720Y12366D01*
X1555600Y21740D02*
X1564258Y13082D01*
X1545590Y580540D02*
X1563370Y570380D01*
X1328420Y276860D02*
X1399540D01*
X1328420Y322580D02*
X1399540D01*
D88*
X457200Y406400D02*
D03*
D89*
Y304800D02*
D03*
Y330200D02*
D03*
Y355600D02*
D03*
Y381000D02*
D03*
X43180Y43180D02*
D03*
X500380Y246380D02*
D03*
Y144780D02*
D03*
X43180Y246380D02*
D03*
D90*
X583180Y311620D02*
D03*
Y211620D02*
D03*
X551180Y261620D02*
D03*
D91*
X1055840Y574050D02*
D03*
Y416550D02*
D03*
D92*
X1135840Y558550D02*
D03*
Y533150D02*
D03*
Y457450D02*
D03*
Y432050D02*
D03*
D93*
X1005840Y539750D02*
D03*
X1031240Y527050D02*
D03*
X1005840Y514350D02*
D03*
X1031240Y501650D02*
D03*
X1005840Y488950D02*
D03*
X1031240Y476250D02*
D03*
X1005840Y463550D02*
D03*
D94*
X1031240Y450850D02*
D03*
D95*
X1094740Y552450D02*
D03*
Y438150D02*
D03*
D96*
X756120Y558800D02*
D03*
X706120D02*
D03*
X594760D02*
D03*
X35635Y511340D02*
D03*
Y461340D02*
D03*
Y335680D02*
D03*
D97*
X806120Y558800D02*
D03*
X644760D02*
D03*
D98*
X244040Y450540D02*
D03*
D99*
Y570540D02*
D03*
D100*
X122040Y450540D02*
D03*
Y570540D02*
D03*
X264040Y510540D02*
D03*
D101*
X35635Y561340D02*
D03*
Y385680D02*
D03*
D102*
X1038860Y279400D02*
D03*
Y345440D02*
D03*
X906780Y279400D02*
D03*
X1084580Y101600D02*
D03*
X1092200Y162560D02*
D03*
X1038860Y190500D02*
D03*
X982980D02*
D03*
X883920D02*
D03*
X899160Y132080D02*
D03*
X883920Y60960D02*
D03*
X830580Y71120D02*
D03*
X629920Y330200D02*
D03*
X792480Y40640D02*
D03*
X680720Y60960D02*
D03*
X643786Y12366D02*
D03*
X747620D02*
D03*
X541020Y101600D02*
D03*
X576580Y330200D02*
D03*
Y142240D02*
D03*
X591820Y121920D02*
D03*
Y162560D02*
D03*
X629920Y447040D02*
D03*
X693420D02*
D03*
X853440Y452120D02*
D03*
X388620Y447040D02*
D03*
X424180Y457200D02*
D03*
X375920Y452120D02*
D03*
X579120Y405210D02*
D03*
X767080Y469900D02*
D03*
X1402341Y299720D02*
D03*
X1295400Y302260D02*
D03*
X741680Y477520D02*
D03*
X812800Y431800D02*
D03*
X510540Y426720D02*
D03*
Y355600D02*
D03*
X518160Y396240D02*
D03*
Y330200D02*
D03*
X609600Y373380D02*
D03*
X594360Y226060D02*
D03*
X665480Y147320D02*
D03*
X736600Y99060D02*
D03*
X817880Y243840D02*
D03*
X825500Y109220D02*
D03*
Y223520D02*
D03*
X833120Y203200D02*
D03*
Y139700D02*
D03*
X998220Y325120D02*
D03*
X899160Y360680D02*
D03*
X906780Y350520D02*
D03*
X894080D02*
D03*
X886460Y340360D02*
D03*
X1071880Y325120D02*
D03*
X1054100Y304800D02*
D03*
X982980Y373380D02*
D03*
X998220D02*
D03*
X906780Y304800D02*
D03*
X881380Y264160D02*
D03*
Y243840D02*
D03*
X896620Y223520D02*
D03*
X889000Y203200D02*
D03*
X850900Y347980D02*
D03*
X843280Y355600D02*
D03*
X848360Y396240D02*
D03*
X838200Y401320D02*
D03*
X831088Y388620D02*
D03*
X759460Y462280D02*
D03*
X795020Y373380D02*
D03*
X701040Y375920D02*
D03*
X690880Y187960D02*
D03*
X807720Y355600D02*
D03*
X701040Y358140D02*
D03*
X713740Y177800D02*
D03*
X706120Y345440D02*
D03*
X713740Y365760D02*
D03*
X698500Y177800D02*
D03*
X744220Y218440D02*
D03*
X728980Y198120D02*
D03*
X706628Y167640D02*
D03*
X736600Y208280D02*
D03*
X721360Y187960D02*
D03*
X845820Y304800D02*
D03*
X820420D02*
D03*
X782320Y312420D02*
D03*
X774700Y256540D02*
D03*
X913130Y579120D02*
D03*
X726440Y144780D02*
D03*
X769620Y160020D02*
D03*
X721360Y386080D02*
D03*
X728980Y406400D02*
D03*
X744220Y248920D02*
D03*
Y325120D02*
D03*
X736600Y426720D02*
D03*
X744220Y447040D02*
D03*
X1135380Y264160D02*
D03*
X1099820Y223520D02*
D03*
X975360Y93980D02*
D03*
X1074420Y121920D02*
D03*
X1064140Y129420D02*
D03*
Y139580D02*
D03*
X1137920Y20320D02*
D03*
Y76200D02*
D03*
X965200Y134620D02*
D03*
X975360Y119380D02*
D03*
X1031240Y83820D02*
D03*
X1097280Y60960D02*
D03*
Y182880D02*
D03*
X1137920Y101600D02*
D03*
X1569720Y12366D02*
D03*
X609600Y91440D02*
D03*
X599440Y101600D02*
D03*
X419100Y325120D02*
D03*
X609600Y172720D02*
D03*
X607060Y187960D02*
D03*
X525780Y238760D02*
D03*
X535940Y226060D02*
D03*
X462280Y495300D02*
D03*
X673100Y238760D02*
D03*
X660400Y248920D02*
D03*
X421640Y541020D02*
D03*
X581660Y111760D02*
D03*
X254000Y365760D02*
D03*
X279400Y342900D02*
D03*
X167640Y287020D02*
D03*
X949960Y215900D02*
D03*
X845820Y129540D02*
D03*
X675640Y358140D02*
D03*
X541020Y132080D02*
D03*
X538480Y40640D02*
D03*
X637540Y60960D02*
D03*
X279400Y363220D02*
D03*
X375920Y467360D02*
D03*
X960120Y53340D02*
D03*
X1031240Y170180D02*
D03*
X1066800Y25400D02*
D03*
X899160Y71120D02*
D03*
X1545590Y580540D02*
D03*
X1563370Y570380D02*
D03*
X1569720Y31900D02*
D03*
X1549400Y42060D02*
D03*
X1328420Y276860D02*
D03*
X1549400Y21740D02*
D03*
X1328420Y322580D02*
D03*
X995560Y83700D02*
D03*
X1036320Y223520D02*
D03*
X894080Y35560D02*
D03*
M02*
