G04*
G04 #@! TF.GenerationSoftware,Altium Limited,Altium Designer,22.11.1 (43)*
G04*
G04 Layer_Physical_Order=1*
G04 Layer_Color=255*
%FSLAX26Y26*%
%MOIN*%
G70*
G04*
G04 #@! TF.SameCoordinates,D133BA17-E144-49A8-921F-F672E643092A*
G04*
G04*
G04 #@! TF.FilePolarity,Positive*
G04*
G01*
G75*
%ADD15R,0.062992X0.070866*%
%ADD16R,0.137795X0.062992*%
%ADD17R,0.116535X0.050000*%
%ADD18R,0.062992X0.049213*%
%ADD19R,0.027559X0.039370*%
G04:AMPARAMS|DCode=20|XSize=33.071mil|YSize=10.63mil|CornerRadius=1.329mil|HoleSize=0mil|Usage=FLASHONLY|Rotation=270.000|XOffset=0mil|YOffset=0mil|HoleType=Round|Shape=RoundedRectangle|*
%AMROUNDEDRECTD20*
21,1,0.033071,0.007973,0,0,270.0*
21,1,0.030413,0.010630,0,0,270.0*
1,1,0.002657,-0.003986,-0.015207*
1,1,0.002657,-0.003986,0.015207*
1,1,0.002657,0.003986,0.015207*
1,1,0.002657,0.003986,-0.015207*
%
%ADD20ROUNDEDRECTD20*%
G04:AMPARAMS|DCode=21|XSize=33.071mil|YSize=10.63mil|CornerRadius=1.329mil|HoleSize=0mil|Usage=FLASHONLY|Rotation=180.000|XOffset=0mil|YOffset=0mil|HoleType=Round|Shape=RoundedRectangle|*
%AMROUNDEDRECTD21*
21,1,0.033071,0.007973,0,0,180.0*
21,1,0.030413,0.010630,0,0,180.0*
1,1,0.002657,-0.015207,0.003986*
1,1,0.002657,0.015207,0.003986*
1,1,0.002657,0.015207,-0.003986*
1,1,0.002657,-0.015207,-0.003986*
%
%ADD21ROUNDEDRECTD21*%
G04:AMPARAMS|DCode=23|XSize=85.827mil|YSize=122.835mil|CornerRadius=10.728mil|HoleSize=0mil|Usage=FLASHONLY|Rotation=0.000|XOffset=0mil|YOffset=0mil|HoleType=Round|Shape=RoundedRectangle|*
%AMROUNDEDRECTD23*
21,1,0.085827,0.101378,0,0,0.0*
21,1,0.064370,0.122835,0,0,0.0*
1,1,0.021457,0.032185,-0.050689*
1,1,0.021457,-0.032185,-0.050689*
1,1,0.021457,-0.032185,0.050689*
1,1,0.021457,0.032185,0.050689*
%
%ADD23ROUNDEDRECTD23*%
%ADD24R,0.098425X0.066929*%
%ADD25R,0.025591X0.035433*%
%ADD26R,0.029528X0.027559*%
%ADD27R,0.061024X0.011811*%
%ADD28R,0.011811X0.061024*%
%ADD29R,0.120079X0.118110*%
%ADD30R,0.031496X0.035433*%
%ADD31R,0.043307X0.023622*%
%ADD32R,0.094488X0.059055*%
%ADD33R,0.086614X0.248031*%
%ADD34R,0.016535X0.033071*%
%ADD35R,0.039370X0.062992*%
%ADD36R,0.023228X0.017716*%
G04:AMPARAMS|DCode=37|XSize=165.354mil|YSize=165.354mil|CornerRadius=8.268mil|HoleSize=0mil|Usage=FLASHONLY|Rotation=0.000|XOffset=0mil|YOffset=0mil|HoleType=Round|Shape=RoundedRectangle|*
%AMROUNDEDRECTD37*
21,1,0.165354,0.148819,0,0,0.0*
21,1,0.148819,0.165354,0,0,0.0*
1,1,0.016535,0.074409,-0.074409*
1,1,0.016535,-0.074409,-0.074409*
1,1,0.016535,-0.074409,0.074409*
1,1,0.016535,0.074409,0.074409*
%
%ADD37ROUNDEDRECTD37*%
G04:AMPARAMS|DCode=38|XSize=31.496mil|YSize=11.811mil|CornerRadius=2.953mil|HoleSize=0mil|Usage=FLASHONLY|Rotation=270.000|XOffset=0mil|YOffset=0mil|HoleType=Round|Shape=RoundedRectangle|*
%AMROUNDEDRECTD38*
21,1,0.031496,0.005905,0,0,270.0*
21,1,0.025590,0.011811,0,0,270.0*
1,1,0.005906,-0.002953,-0.012795*
1,1,0.005906,-0.002953,0.012795*
1,1,0.005906,0.002953,0.012795*
1,1,0.005906,0.002953,-0.012795*
%
%ADD38ROUNDEDRECTD38*%
G04:AMPARAMS|DCode=39|XSize=31.496mil|YSize=11.811mil|CornerRadius=2.953mil|HoleSize=0mil|Usage=FLASHONLY|Rotation=180.000|XOffset=0mil|YOffset=0mil|HoleType=Round|Shape=RoundedRectangle|*
%AMROUNDEDRECTD39*
21,1,0.031496,0.005905,0,0,180.0*
21,1,0.025590,0.011811,0,0,180.0*
1,1,0.005906,-0.012795,0.002953*
1,1,0.005906,0.012795,0.002953*
1,1,0.005906,0.012795,-0.002953*
1,1,0.005906,-0.012795,-0.002953*
%
%ADD39ROUNDEDRECTD39*%
%ADD40R,0.023622X0.031496*%
%ADD41R,0.039370X0.027559*%
%ADD42R,0.055118X0.047244*%
%ADD89R,0.122047X0.122047*%
%ADD90C,0.039370*%
%ADD91R,0.098425X0.062992*%
%ADD92C,0.014000*%
%ADD93C,0.008000*%
%ADD94C,0.030000*%
%ADD95C,0.015000*%
%ADD96O,0.248031X0.070866*%
%ADD97O,0.212598X0.070866*%
%ADD98O,0.070866X0.212598*%
%ADD99C,0.097441*%
%ADD100C,0.064961*%
%ADD101C,0.058189*%
%ADD102R,0.058189X0.058189*%
%ADD103C,0.128346*%
%ADD104C,0.062992*%
%ADD105R,0.094488X0.094488*%
%ADD106C,0.094488*%
%ADD107C,0.086614*%
%ADD108C,0.086614*%
%ADD109C,0.118110*%
%ADD110R,0.070866X0.070866*%
%ADD111C,0.070866*%
%ADD112C,0.032000*%
G36*
X600000Y641032D02*
X585038D01*
X580866Y643032D01*
Y643032D01*
X580866Y643032D01*
X567598D01*
Y616496D01*
X562598D01*
Y611496D01*
X544331D01*
Y600000D01*
X290000D01*
Y1010000D01*
X600000D01*
Y641032D01*
D02*
G37*
G36*
X1235317Y939660D02*
X1233419Y937559D01*
X1231862Y935396D01*
X1230647Y933169D01*
X1229774Y930880D01*
X1229243Y928527D01*
X1229052Y926111D01*
X1229204Y923632D01*
X1229697Y921090D01*
X1230531Y918485D01*
X1231707Y915816D01*
X1202156Y935367D01*
X1205398Y935274D01*
X1208505Y935396D01*
X1211476Y935735D01*
X1214313Y936289D01*
X1217015Y937060D01*
X1219582Y938047D01*
X1222014Y939250D01*
X1224311Y940670D01*
X1226473Y942305D01*
X1228500Y944157D01*
X1235317Y939660D01*
D02*
G37*
G36*
X1252923Y996000D02*
X1250123Y995863D01*
X1247452Y995451D01*
X1244908Y994765D01*
X1242493Y993805D01*
X1240205Y992571D01*
X1238045Y991062D01*
X1236013Y989279D01*
X1234110Y987221D01*
X1232334Y984890D01*
X1230686Y982284D01*
Y1017716D01*
X1232334Y1015110D01*
X1234110Y1012779D01*
X1236013Y1010721D01*
X1238045Y1008938D01*
X1240205Y1007429D01*
X1242493Y1006195D01*
X1244908Y1005235D01*
X1247452Y1004549D01*
X1250123Y1004137D01*
X1252923Y1004000D01*
Y996000D01*
D02*
G37*
G36*
X226779Y1130492D02*
X226546Y1133559D01*
X225846Y1136784D01*
X224681Y1140168D01*
X223048Y1143710D01*
X220950Y1147411D01*
X218386Y1151269D01*
X215355Y1155286D01*
X207894Y1163794D01*
X203464Y1168286D01*
X264094D01*
X259664Y1163794D01*
X252203Y1155286D01*
X249172Y1151269D01*
X246608Y1147411D01*
X244509Y1143710D01*
X242877Y1140168D01*
X241712Y1136784D01*
X241012Y1133559D01*
X240779Y1130492D01*
X226779D01*
D02*
G37*
G36*
X713221Y1267935D02*
X713454Y1264868D01*
X714154Y1261642D01*
X715319Y1258258D01*
X716951Y1254716D01*
X719050Y1251016D01*
X721614Y1247157D01*
X724645Y1243140D01*
X732106Y1234632D01*
X736536Y1230141D01*
X675906D01*
X680336Y1234632D01*
X687797Y1243140D01*
X690827Y1247157D01*
X693392Y1251016D01*
X695490Y1254716D01*
X697123Y1258258D01*
X698288Y1261642D01*
X698988Y1264868D01*
X699221Y1267935D01*
X713221D01*
D02*
G37*
G36*
X1252923Y1096000D02*
X1250123Y1095863D01*
X1247452Y1095451D01*
X1244908Y1094765D01*
X1242493Y1093805D01*
X1240205Y1092571D01*
X1238045Y1091062D01*
X1236013Y1089279D01*
X1234110Y1087221D01*
X1232334Y1084890D01*
X1230686Y1082284D01*
Y1117716D01*
X1232334Y1115110D01*
X1234110Y1112779D01*
X1236013Y1110721D01*
X1238045Y1108938D01*
X1240205Y1107429D01*
X1242493Y1106195D01*
X1244908Y1105235D01*
X1247452Y1104549D01*
X1250123Y1104137D01*
X1252923Y1104000D01*
Y1096000D01*
D02*
G37*
G36*
X1433008Y2124579D02*
X1432717Y2127369D01*
X1431845Y2130466D01*
X1430391Y2133869D01*
X1428357Y2137578D01*
X1425740Y2141593D01*
X1422542Y2145914D01*
X1414402Y2155475D01*
X1403937Y2166261D01*
X1470079D01*
X1464555Y2160715D01*
X1451473Y2145914D01*
X1448276Y2141593D01*
X1445659Y2137578D01*
X1443624Y2133869D01*
X1442171Y2130466D01*
X1441299Y2127369D01*
X1441008Y2124579D01*
X1433008D01*
D02*
G37*
G36*
X3666687Y1144000D02*
X3668230Y1144040D01*
X3669610Y1144160D01*
X3670828Y1144360D01*
X3671884Y1144640D01*
X3672777Y1145000D01*
X3673508Y1145440D01*
X3674076Y1145960D01*
X3674482Y1146560D01*
X3674726Y1147240D01*
X3674807Y1148000D01*
Y1132000D01*
X3674726Y1132760D01*
X3674482Y1133440D01*
X3674076Y1134040D01*
X3673508Y1134560D01*
X3672777Y1135000D01*
X3671884Y1135360D01*
X3670828Y1135640D01*
X3669610Y1135840D01*
X3668230Y1135960D01*
X3666687Y1136000D01*
Y1144000D01*
D02*
G37*
G36*
X3657077Y1344000D02*
X3659876Y1344137D01*
X3662548Y1344549D01*
X3665092Y1345235D01*
X3667508Y1346195D01*
X3669795Y1347429D01*
X3671955Y1348938D01*
X3673987Y1350721D01*
X3675890Y1352779D01*
X3677666Y1355110D01*
X3679314Y1357716D01*
Y1322284D01*
X3677666Y1324890D01*
X3675890Y1327221D01*
X3673987Y1329279D01*
X3671955Y1331062D01*
X3669795Y1332571D01*
X3667508Y1333805D01*
X3665092Y1334765D01*
X3662548Y1335451D01*
X3659876Y1335863D01*
X3657077Y1336000D01*
Y1344000D01*
D02*
G37*
G36*
X3341039Y1672381D02*
X3340979Y1673956D01*
X3340798Y1675411D01*
X3340496Y1676748D01*
X3340073Y1677965D01*
X3339530Y1679064D01*
X3338866Y1680043D01*
X3338081Y1680903D01*
X3337176Y1681645D01*
X3336150Y1682267D01*
X3335003Y1682770D01*
X3355076D01*
X3353929Y1682267D01*
X3352903Y1681645D01*
X3351997Y1680903D01*
X3351213Y1680043D01*
X3350549Y1679064D01*
X3350005Y1677965D01*
X3349583Y1676748D01*
X3349281Y1675411D01*
X3349100Y1673956D01*
X3349039Y1672381D01*
X3341039D01*
D02*
G37*
G36*
X3449039Y1750000D02*
X3449126Y1748143D01*
X3449385Y1746395D01*
X3449816Y1744754D01*
X3450420Y1743221D01*
X3451197Y1741796D01*
X3452147Y1740479D01*
X3453269Y1739269D01*
X3454563Y1738168D01*
X3456031Y1737174D01*
X3457671Y1736288D01*
X3432408D01*
X3434048Y1737174D01*
X3435515Y1738168D01*
X3436810Y1739269D01*
X3437932Y1740479D01*
X3438882Y1741796D01*
X3439658Y1743221D01*
X3440263Y1744754D01*
X3440694Y1746395D01*
X3440953Y1748143D01*
X3441039Y1750000D01*
X3449039D01*
D02*
G37*
G36*
X3499039Y1852636D02*
X3499157Y1850555D01*
X3499508Y1848534D01*
X3500093Y1846575D01*
X3500912Y1844677D01*
X3501966Y1842840D01*
X3503254Y1841064D01*
X3504776Y1839349D01*
X3506532Y1837695D01*
X3508522Y1836101D01*
X3510746Y1834569D01*
X3479333D01*
X3481557Y1836101D01*
X3483547Y1837695D01*
X3485303Y1839349D01*
X3486825Y1841064D01*
X3488113Y1842840D01*
X3489166Y1844677D01*
X3489986Y1846575D01*
X3490571Y1848534D01*
X3490922Y1850555D01*
X3491039Y1852636D01*
X3499039D01*
D02*
G37*
G36*
X3599039Y1847053D02*
X3599079Y1845510D01*
X3599199Y1844130D01*
X3599399Y1842912D01*
X3599679Y1841856D01*
X3600039Y1840963D01*
X3600479Y1840232D01*
X3600999Y1839664D01*
X3601599Y1839258D01*
X3602279Y1839014D01*
X3603039Y1838933D01*
X3587039D01*
X3587799Y1839014D01*
X3588479Y1839258D01*
X3589079Y1839664D01*
X3589599Y1840232D01*
X3590039Y1840963D01*
X3590399Y1841856D01*
X3590679Y1842912D01*
X3590879Y1844130D01*
X3590999Y1845510D01*
X3591039Y1847053D01*
X3599039D01*
D02*
G37*
G36*
X3541662Y2186177D02*
X3543025Y2187805D01*
X3544238Y2189813D01*
X3545303Y2192202D01*
X3546218Y2194973D01*
X3546985Y2198124D01*
X3547603Y2201657D01*
X3548072Y2205570D01*
X3548562Y2214540D01*
X3548584Y2219596D01*
X3580738Y2187443D01*
X3575682Y2187421D01*
X3562798Y2186461D01*
X3559266Y2185843D01*
X3556115Y2185077D01*
X3553344Y2184161D01*
X3550955Y2183096D01*
X3548946Y2181883D01*
X3547319Y2180520D01*
X3541662Y2186177D01*
D02*
G37*
%LPC*%
G36*
X572598Y974016D02*
X524291D01*
Y845000D01*
X572598D01*
Y974016D01*
D02*
G37*
G36*
X514291D02*
X465984D01*
Y845000D01*
X514291D01*
Y974016D01*
D02*
G37*
G36*
X389390Y911823D02*
X362205D01*
Y845000D01*
X410524D01*
Y890689D01*
X408915Y898777D01*
X404334Y905633D01*
X397478Y910215D01*
X389390Y911823D01*
D02*
G37*
G36*
X352205D02*
X325020D01*
X316932Y910215D01*
X310075Y905633D01*
X305494Y898777D01*
X303885Y890689D01*
Y845000D01*
X352205D01*
Y911823D01*
D02*
G37*
G36*
X410524Y835000D02*
X362205D01*
Y768177D01*
X389390D01*
X397478Y769785D01*
X404334Y774367D01*
X408915Y781223D01*
X410524Y789311D01*
Y835000D01*
D02*
G37*
G36*
X352205D02*
X303885D01*
Y789311D01*
X305494Y781223D01*
X310075Y774367D01*
X316932Y769785D01*
X325020Y768177D01*
X352205D01*
Y835000D01*
D02*
G37*
G36*
X572598D02*
X524291D01*
Y705984D01*
X572598D01*
Y835000D01*
D02*
G37*
G36*
X514291D02*
X465984D01*
Y705984D01*
X514291D01*
Y835000D01*
D02*
G37*
G36*
X557598Y643032D02*
X544331D01*
Y621496D01*
X557598D01*
Y643032D01*
D02*
G37*
%LPD*%
G54D15*
X1055118Y760000D02*
D03*
X944882D02*
D03*
X745118Y380000D02*
D03*
X634882D02*
D03*
X745118Y280000D02*
D03*
X634882D02*
D03*
G54D16*
X889764Y560000D02*
D03*
X1110236D02*
D03*
G54D17*
X4251732Y1300000D02*
D03*
X4110000Y1200000D02*
D03*
X4251732Y1100000D02*
D03*
G54D18*
X2892835Y2006693D02*
D03*
X2747165Y2093307D02*
D03*
Y2006693D02*
D03*
X2892835Y2093307D02*
D03*
X2072835Y173307D02*
D03*
X1927165Y86693D02*
D03*
Y173307D02*
D03*
X2072835Y86693D02*
D03*
G54D19*
X2893425Y2210000D02*
D03*
X2946575D02*
D03*
X2746575D02*
D03*
X2693425D02*
D03*
X2453425Y1700000D02*
D03*
X2506575D02*
D03*
X2453425Y1780000D02*
D03*
X2506575D02*
D03*
X1426575Y1600000D02*
D03*
X1373425D02*
D03*
X3026575Y1280000D02*
D03*
X2973425D02*
D03*
X3173425Y1200000D02*
D03*
X3226575D02*
D03*
X3173425Y1280000D02*
D03*
X3226575D02*
D03*
X3026575Y1440000D02*
D03*
X2973425D02*
D03*
X3026575Y1360000D02*
D03*
X2973425D02*
D03*
X2573425Y560000D02*
D03*
X2626575D02*
D03*
X2426575Y240000D02*
D03*
X2373425D02*
D03*
Y160000D02*
D03*
X2426575D02*
D03*
X2173425Y80000D02*
D03*
X2226575D02*
D03*
X1773425D02*
D03*
X1826575D02*
D03*
X1773425Y240000D02*
D03*
X1826575D02*
D03*
X2626575Y1040000D02*
D03*
X2573425D02*
D03*
X1826575Y1360000D02*
D03*
X1773425D02*
D03*
X1573425Y80000D02*
D03*
X1626575D02*
D03*
X1826575Y1280000D02*
D03*
X1773425D02*
D03*
X3573425Y400000D02*
D03*
X3626575D02*
D03*
Y240000D02*
D03*
X3573425D02*
D03*
Y720000D02*
D03*
X3626575D02*
D03*
X3173425Y880000D02*
D03*
X3226575D02*
D03*
X3573425Y80000D02*
D03*
X3626575D02*
D03*
Y160000D02*
D03*
X3573425D02*
D03*
Y880000D02*
D03*
X3626575D02*
D03*
X3573425Y800000D02*
D03*
X3626575D02*
D03*
X3573425Y640000D02*
D03*
X3626575D02*
D03*
X2826575Y160000D02*
D03*
X2773425D02*
D03*
Y320000D02*
D03*
X2826575D02*
D03*
Y240000D02*
D03*
X2773425D02*
D03*
Y560000D02*
D03*
X2826575D02*
D03*
Y480000D02*
D03*
X2773425D02*
D03*
X3173425Y720000D02*
D03*
X3226575D02*
D03*
X3026575Y800000D02*
D03*
X2973425D02*
D03*
X3026575Y720000D02*
D03*
X2973425D02*
D03*
X1426575Y560000D02*
D03*
X1373425D02*
D03*
X1626575Y240000D02*
D03*
X1573425D02*
D03*
G54D20*
X2768898Y1695866D02*
D03*
X2749213D02*
D03*
X2729528D02*
D03*
X2709843D02*
D03*
X2690157D02*
D03*
X2670472D02*
D03*
X2650787D02*
D03*
X2631102D02*
D03*
Y1504134D02*
D03*
X2650787D02*
D03*
X2670472D02*
D03*
X2690157D02*
D03*
X2709843D02*
D03*
X2729528D02*
D03*
X2749213D02*
D03*
X2768898D02*
D03*
G54D21*
X2795866Y1531102D02*
D03*
Y1550787D02*
D03*
Y1570472D02*
D03*
Y1590158D02*
D03*
Y1609842D02*
D03*
Y1629528D02*
D03*
Y1649213D02*
D03*
Y1668898D02*
D03*
X2604134D02*
D03*
Y1649213D02*
D03*
Y1629528D02*
D03*
Y1609842D02*
D03*
Y1590158D02*
D03*
Y1570472D02*
D03*
Y1550787D02*
D03*
Y1531102D02*
D03*
G54D23*
X357205Y840000D02*
D03*
X82795D02*
D03*
G54D24*
X1078740Y320000D02*
D03*
X921260D02*
D03*
X611260Y160000D02*
D03*
X768740D02*
D03*
G54D25*
X2171457Y1920000D02*
D03*
X2228543D02*
D03*
X1828543Y1520000D02*
D03*
X1771457D02*
D03*
X1371457Y1680000D02*
D03*
X1428543D02*
D03*
Y1520000D02*
D03*
X1371457D02*
D03*
X1771457Y1600000D02*
D03*
X1828543D02*
D03*
X2971457Y1200000D02*
D03*
X3028543D02*
D03*
X3228543Y1440000D02*
D03*
X3171457D02*
D03*
X2571457Y800000D02*
D03*
X2628543D02*
D03*
X2571457Y880000D02*
D03*
X2628543D02*
D03*
X2571457Y960000D02*
D03*
X2628543D02*
D03*
X1428543Y480000D02*
D03*
X1371457D02*
D03*
X2170000Y1360000D02*
D03*
X2227087D02*
D03*
X2171457Y1280000D02*
D03*
X2228543D02*
D03*
X2171457Y1600000D02*
D03*
X2228543D02*
D03*
X2170000Y1440000D02*
D03*
X2227087D02*
D03*
X2171457Y1520000D02*
D03*
X2228543D02*
D03*
X2171457Y1760000D02*
D03*
X2228543D02*
D03*
X2171457Y1680000D02*
D03*
X2228543D02*
D03*
X1571457Y1920000D02*
D03*
X1628543D02*
D03*
X1371457Y400000D02*
D03*
X1428543D02*
D03*
X1371457Y320000D02*
D03*
X1428543D02*
D03*
X1171457Y1760000D02*
D03*
X1228543D02*
D03*
Y1840000D02*
D03*
X1171457D02*
D03*
X971457Y960000D02*
D03*
X1028543D02*
D03*
Y1120000D02*
D03*
X971457D02*
D03*
Y880000D02*
D03*
X1028543D02*
D03*
X971457Y1200000D02*
D03*
X1028543D02*
D03*
X2828543Y80000D02*
D03*
X2771457D02*
D03*
X3571457Y1040000D02*
D03*
X3628543D02*
D03*
X3571457Y960000D02*
D03*
X3628543D02*
D03*
X3571457Y560000D02*
D03*
X3628543D02*
D03*
X3228543Y800000D02*
D03*
X3171457D02*
D03*
G54D26*
X3228543Y1360000D02*
D03*
X3171457D02*
D03*
X2828543Y640000D02*
D03*
X2771457D02*
D03*
Y400000D02*
D03*
X2828543D02*
D03*
G54D27*
X1694882Y563779D02*
D03*
Y583465D02*
D03*
Y603150D02*
D03*
Y622835D02*
D03*
Y642520D02*
D03*
Y662205D02*
D03*
Y681890D02*
D03*
Y701575D02*
D03*
Y721260D02*
D03*
Y740945D02*
D03*
Y760630D02*
D03*
Y780315D02*
D03*
Y800000D02*
D03*
Y819685D02*
D03*
Y839370D02*
D03*
Y859055D02*
D03*
Y878740D02*
D03*
Y898425D02*
D03*
Y918110D02*
D03*
Y937795D02*
D03*
Y957480D02*
D03*
Y977165D02*
D03*
Y996850D02*
D03*
Y1016535D02*
D03*
Y1036220D02*
D03*
X2305118D02*
D03*
Y1016535D02*
D03*
Y996850D02*
D03*
Y977165D02*
D03*
Y957480D02*
D03*
Y937795D02*
D03*
Y918110D02*
D03*
Y898425D02*
D03*
Y878740D02*
D03*
Y859055D02*
D03*
Y839370D02*
D03*
Y819685D02*
D03*
Y800000D02*
D03*
Y780315D02*
D03*
Y760630D02*
D03*
Y740945D02*
D03*
Y721260D02*
D03*
Y701575D02*
D03*
Y681890D02*
D03*
Y662205D02*
D03*
Y642520D02*
D03*
Y622835D02*
D03*
Y603150D02*
D03*
Y583465D02*
D03*
Y563779D02*
D03*
G54D28*
X1763780Y1105118D02*
D03*
X1783465D02*
D03*
X1803150D02*
D03*
X1822835D02*
D03*
X1842520D02*
D03*
X1862205D02*
D03*
X1881890D02*
D03*
X1901575D02*
D03*
X1921260D02*
D03*
X1940945D02*
D03*
X1960630D02*
D03*
X1980315D02*
D03*
X2000000D02*
D03*
X2019685D02*
D03*
X2039370D02*
D03*
X2059055D02*
D03*
X2078740D02*
D03*
X2098425D02*
D03*
X2118110D02*
D03*
X2137795D02*
D03*
X2157480D02*
D03*
X2177165D02*
D03*
X2196850D02*
D03*
X2216535D02*
D03*
X2236220D02*
D03*
Y494882D02*
D03*
X2216535D02*
D03*
X2196850D02*
D03*
X2177165D02*
D03*
X2157480D02*
D03*
X2137795D02*
D03*
X2118110D02*
D03*
X2098425D02*
D03*
X2078740D02*
D03*
X2059055D02*
D03*
X2039370D02*
D03*
X2019685D02*
D03*
X2000000D02*
D03*
X1980315D02*
D03*
X1960630D02*
D03*
X1940945D02*
D03*
X1921260D02*
D03*
X1901575D02*
D03*
X1881890D02*
D03*
X1862205D02*
D03*
X1842520D02*
D03*
X1822835D02*
D03*
X1803150D02*
D03*
X1783465D02*
D03*
X1763780D02*
D03*
G54D29*
X883661Y2140000D02*
D03*
X1216339D02*
D03*
G54D30*
X1037402Y1720630D02*
D03*
X1000000Y1799370D02*
D03*
X962598Y1720630D02*
D03*
X1037402Y1320630D02*
D03*
X1000000Y1399370D02*
D03*
X962598Y1320630D02*
D03*
G54D31*
X1629252Y177716D02*
D03*
Y142284D02*
D03*
G54D32*
X1410748Y160000D02*
D03*
G54D33*
X519291Y840000D02*
D03*
X680709D02*
D03*
G54D34*
X637402Y503504D02*
D03*
X600000D02*
D03*
X562598D02*
D03*
Y616496D02*
D03*
X600000D02*
D03*
X637402D02*
D03*
G54D35*
X1059055Y160000D02*
D03*
X940945D02*
D03*
G54D36*
X1044291Y1520000D02*
D03*
X955709D02*
D03*
G54D37*
X3209528Y489528D02*
D03*
G54D38*
X3120945Y605669D02*
D03*
X3140630D02*
D03*
X3160315D02*
D03*
X3180000D02*
D03*
X3199685D02*
D03*
X3219370D02*
D03*
X3239055D02*
D03*
X3258740D02*
D03*
X3278425D02*
D03*
X3298110D02*
D03*
Y373386D02*
D03*
X3278425D02*
D03*
X3258740D02*
D03*
X3239055D02*
D03*
X3219370D02*
D03*
X3199685D02*
D03*
X3180000D02*
D03*
X3160315D02*
D03*
X3140630D02*
D03*
X3120945D02*
D03*
G54D39*
X3325669Y578110D02*
D03*
Y558425D02*
D03*
Y538740D02*
D03*
Y519055D02*
D03*
Y499370D02*
D03*
Y479685D02*
D03*
Y460000D02*
D03*
Y440315D02*
D03*
Y420630D02*
D03*
Y400945D02*
D03*
X3093386D02*
D03*
Y420630D02*
D03*
Y440315D02*
D03*
Y460000D02*
D03*
Y479685D02*
D03*
Y499370D02*
D03*
Y519055D02*
D03*
Y538740D02*
D03*
Y558425D02*
D03*
Y578110D02*
D03*
G54D40*
X3572441Y320000D02*
D03*
X3627559D02*
D03*
X3572441Y480000D02*
D03*
X3627559D02*
D03*
G54D41*
X3340000Y186575D02*
D03*
Y133425D02*
D03*
X3040000D02*
D03*
Y186575D02*
D03*
G54D42*
X3156693Y193465D02*
D03*
X3243307D02*
D03*
X3156693Y126535D02*
D03*
X3243307D02*
D03*
G54D89*
X2700000Y1600000D02*
D03*
G54D90*
X2830000Y1470000D02*
D03*
X3360000Y640000D02*
D03*
X1690000Y490000D02*
D03*
G54D91*
X600000Y560000D02*
D03*
G54D92*
X562598Y450000D02*
Y503504D01*
X241980Y1040000D02*
X621799D01*
X233779Y1048201D02*
X241980Y1040000D01*
X233779Y1048201D02*
Y1199213D01*
X621799Y1040000D02*
X630000Y1048201D01*
Y1500000D01*
X1000000Y1799370D02*
Y2120000D01*
X980000Y2140000D02*
X1000000Y2120000D01*
X883661Y2140000D02*
X980000D01*
X3850000Y1300000D02*
Y2255590D01*
X3850000Y125590D02*
Y1100000D01*
X4010000D02*
X4240000D01*
X4010000Y1300000D02*
X4250000D01*
X706221Y1199213D02*
Y1416221D01*
X730000Y1440000D01*
X1000000D01*
X650000Y1520000D02*
X955709D01*
X1040000Y1260000D02*
Y1318032D01*
Y1253506D02*
Y1260000D01*
X3970000Y1200000D02*
X4100000D01*
X3970000D02*
Y2175590D01*
Y195590D02*
Y1200000D01*
X3850000Y125590D02*
X3930000Y45590D01*
X4740000D01*
X4780000Y85590D01*
X5580000D01*
X5620000Y125590D01*
X3930000Y165590D02*
X3970000Y125590D01*
X4740000D01*
X3970000Y2175590D02*
X4000000Y2205590D01*
X5590000Y2285590D02*
X5620000Y2255590D01*
X5520000Y2205590D02*
X5540000Y2185590D01*
X4720000Y2245590D02*
X4760000Y2285590D01*
X3890000Y145590D02*
Y2225590D01*
X5510000Y165590D02*
X5540000Y195590D01*
X3930000Y2195590D02*
X3980000Y2245590D01*
X4740000Y125590D02*
X4780000Y165590D01*
X5620000Y125590D02*
Y2255590D01*
X4000000Y2205590D02*
X5520000D01*
X4760000Y2285590D02*
X5590000D01*
X5540000Y195590D02*
Y2185590D01*
X3930000Y165590D02*
Y2195590D01*
X3980000Y2245590D02*
X4720000D01*
X4780000Y165590D02*
X5510000D01*
X3850000Y2255590D02*
X3914410Y2320000D01*
X600000Y450000D02*
Y503504D01*
Y560000D02*
Y616496D01*
X630000Y1500000D02*
X650000Y1520000D01*
X1080000Y1448201D02*
Y1511799D01*
X1071799Y1520000D02*
X1080000Y1511799D01*
X1044291Y1520000D02*
X1071799D01*
X1000000Y1440000D02*
X1071799D01*
X1000000Y1399370D02*
Y1440000D01*
X1071799D02*
X1080000Y1448201D01*
X1370000Y1760000D02*
X1480000D01*
X1360000Y1770000D02*
Y2130000D01*
Y1770000D02*
X1370000Y1760000D01*
X1256339Y2140000D02*
X1350000D01*
X1360000Y2130000D01*
X1038701Y1671299D02*
Y1719331D01*
X1037402Y1720630D02*
X1038701Y1719331D01*
Y1671299D02*
X1040000Y1670000D01*
X1033444Y1716672D02*
X1037402Y1720630D01*
X1680000Y1300000D02*
X1700000Y1280000D01*
X1744686D01*
X1744686Y1280000D02*
X1773425D01*
X3914410Y2320000D02*
X5610000D01*
X5660000Y2270000D01*
X4800000Y48685D02*
X4803095Y45590D01*
X5600000D01*
X3890000Y2225590D02*
X3950000Y2285590D01*
X4705000D01*
X4775000Y2245590D02*
X5560000D01*
X5580000Y2225590D01*
Y155590D02*
Y2225590D01*
X5550000Y125590D02*
X5580000Y155590D01*
X4800000Y125590D02*
X5550000D01*
X4000000Y165590D02*
X4720000D01*
X3970000Y195590D02*
X4000000Y165590D01*
X3890000Y145590D02*
X3950000Y85590D01*
X4720000D01*
X5600000Y45590D02*
X5660000Y105590D01*
Y2270000D01*
G54D93*
X3540000Y1910000D02*
X3640000D01*
X3530000Y1920000D02*
Y2168858D01*
X3581063Y2219921D01*
X3530000Y1920000D02*
X3540000Y1910000D01*
X3640000D02*
X3650000Y1900000D01*
Y1624686D02*
Y1900000D01*
X3540000Y1450000D02*
Y1615314D01*
X3645314Y1620000D02*
X3650000Y1624686D01*
X3544686Y1620000D02*
X3645314D01*
X3540000Y1615314D02*
X3544686Y1620000D01*
X3530000Y1440000D02*
X3540000Y1450000D01*
X3226575Y1200000D02*
X3430000D01*
X3381686Y1281686D02*
X3388314D01*
X3380000Y1280000D02*
X3381686Y1281686D01*
X3388314D02*
X3390000Y1280000D01*
X3090000Y1614686D02*
Y1750000D01*
X3435039Y1760000D02*
X3445039Y1750000D01*
Y1710079D02*
Y1750000D01*
X3100000Y1760000D02*
X3435039D01*
X3090000Y1750000D02*
X3100000Y1760000D01*
X3086000Y1860000D02*
X3487675D01*
X3066000Y1876000D02*
X3584000D01*
X3070000Y1844000D02*
X3086000Y1860000D01*
X3487675D02*
X3495039Y1852636D01*
X3584000Y1876000D02*
X3595039Y1864961D01*
X3050000Y1860000D02*
X3066000Y1876000D01*
X3226575Y1280000D02*
X3380000D01*
X3131799Y1448201D02*
Y1468201D01*
X3140000Y1440000D02*
X3171457D01*
X3130000Y1470000D02*
X3131799Y1468201D01*
Y1448201D02*
X3140000Y1440000D01*
X3345039Y1672381D02*
Y1710079D01*
X3125000Y1665000D02*
X3337658D01*
X3345039Y1672381D01*
X3110000Y1650000D02*
X3125000Y1665000D01*
X3110000Y1600000D02*
Y1650000D01*
X3495039Y1810079D02*
Y1852636D01*
X3070000Y1634214D02*
Y1844000D01*
X2795866Y1649213D02*
X3045314D01*
X3050000Y1653899D01*
Y1860000D01*
X3595039Y1810079D02*
Y1864961D01*
X3258740Y373386D02*
Y489528D01*
X3239055Y373386D02*
Y489528D01*
X3232835Y136063D02*
X3244400Y124497D01*
X645408Y655408D02*
X665408D01*
X670000Y660000D01*
X637402Y647402D02*
X645408Y655408D01*
X1028543Y880000D02*
X1090000D01*
X1100000Y840000D02*
Y870000D01*
X1090000Y880000D02*
X1100000Y870000D01*
X1110000Y1120000D02*
X1128000Y1102000D01*
X1132686Y727000D02*
X1265314D01*
X1128000Y731686D02*
Y1102000D01*
Y731686D02*
X1132686Y727000D01*
X880000Y763787D02*
X883787Y760000D01*
X850000Y1005314D02*
X854686Y1010000D01*
X850000Y840000D02*
Y1005314D01*
X854686Y1010000D02*
X1060000D01*
X1470000Y560000D02*
X1610000D01*
X1426575D02*
X1470000D01*
X1028543Y1120000D02*
X1110000D01*
X2820000Y2290000D02*
X2975314D01*
X2980000Y2210000D02*
Y2285314D01*
X2670000Y2290000D02*
X2820000D01*
X2975314D02*
X2980000Y2285314D01*
X2946575Y2210000D02*
X2980000D01*
X2892835Y2006693D02*
X2975314D01*
X2980000Y2011379D01*
Y2210000D01*
X1734592Y48685D02*
Y80000D01*
Y120627D01*
Y80000D02*
X1773425D01*
X1734592Y120627D02*
X1739278Y125314D01*
X1865002D01*
X1334686Y600000D02*
X1600000D01*
X1616535Y583465D02*
X1694882D01*
X1600000Y600000D02*
X1616535Y583465D01*
X1613780Y563779D02*
X1694882D01*
X1610000Y560000D02*
X1613780Y563779D01*
X1437008Y1932992D02*
Y2200000D01*
Y1932992D02*
X1450000Y1920000D01*
X2098425Y494882D02*
X2099213Y494094D01*
Y390787D02*
Y494094D01*
X2466220Y563779D02*
X2480000Y550000D01*
X2305118Y563779D02*
X2466220D01*
X2840000Y2205314D02*
X2844686Y2210000D01*
X2893425D01*
X2840000Y2093307D02*
Y2205314D01*
X2835314Y1668898D02*
X2840000Y1673584D01*
X2795866Y1668898D02*
X2835314D01*
X2840000Y1673584D02*
Y2093307D01*
X2892835D01*
X2768898Y1695866D02*
Y1738898D01*
X2800000Y1770000D02*
Y2003775D01*
X2768898Y1738898D02*
X2800000Y1770000D01*
X2747165Y2006693D02*
X2797082D01*
X2800000Y2003775D01*
Y2006888D02*
Y2200000D01*
X2747360Y2006888D02*
X2800000D01*
X2790000Y2210000D02*
X2800000Y2200000D01*
X2746575Y2210000D02*
X2790000D01*
X2660000Y2100000D02*
X2666693Y2093307D01*
X2660000Y2100000D02*
Y2210000D01*
Y2280000D02*
X2670000Y2290000D01*
X2660000Y2210000D02*
X2693425D01*
X2660000D02*
Y2280000D01*
X2666693Y2093307D02*
X2747165D01*
X2130000Y50000D02*
Y80000D01*
X2173425D01*
X2079528D02*
X2130000D01*
X2260000Y90000D02*
Y160000D01*
X2250000Y80000D02*
X2260000Y90000D01*
X2226575Y80000D02*
X2250000D01*
X1500000Y440000D02*
X1857518D01*
X3520000Y1335314D02*
X3524686Y1340000D01*
X3520000Y970000D02*
Y1335314D01*
Y970000D02*
X3530000Y960000D01*
X2729528Y1426686D02*
Y1504134D01*
X2740000Y1410000D02*
Y1416214D01*
X2729528Y1426686D02*
X2740000Y1416214D01*
X2768898Y1451102D02*
X2800000Y1420000D01*
X2875314D01*
X2768898Y1451102D02*
Y1504134D01*
X2749213Y1440787D02*
Y1504134D01*
Y1440787D02*
X2770000Y1420000D01*
Y1360000D02*
Y1420000D01*
X2720000Y1360000D02*
Y1386494D01*
X2709843Y1396652D02*
X2720000Y1386494D01*
X2709843Y1396652D02*
Y1504134D01*
X2690079Y1330079D02*
Y1504055D01*
X2690000Y1330000D02*
X2690079Y1330079D01*
X2880000Y1280000D02*
Y1415314D01*
X2875314Y1420000D02*
X2880000Y1415314D01*
X2427575Y241000D02*
X2470000D01*
X2426575Y240000D02*
X2427575Y241000D01*
X3379528Y89528D02*
X3410000Y120000D01*
X3340000Y89528D02*
X3379528D01*
X3571457Y1040000D02*
X3576770D01*
X3550000D02*
X3571457D01*
X3524686Y1340000D02*
X3710000D01*
X3540000Y1050000D02*
Y1135314D01*
X3544686Y1140000D02*
X3710000D01*
X3540000Y1135314D02*
X3544686Y1140000D01*
X3540000Y1050000D02*
X3550000Y1040000D01*
X3705314D02*
X3710000Y1035314D01*
X3634262Y1040000D02*
X3705314D01*
X3710000Y250000D02*
Y1035314D01*
X1450000Y1920000D02*
X1520000D01*
X1571457D01*
X1680000Y1760000D02*
Y1910000D01*
X1670000Y1920000D02*
X1680000Y1910000D01*
X1628543Y1920000D02*
X1670000D01*
X2740000Y520000D02*
Y555314D01*
Y484686D02*
Y520000D01*
X3627559Y320000D02*
X3660000D01*
X3680000Y300000D01*
X3530000Y960000D02*
X3571457D01*
X1270000Y731686D02*
Y930000D01*
X1265314Y727000D02*
X1270000Y731686D01*
X930000Y880000D02*
X971457D01*
X930000D02*
Y950000D01*
X637402Y616496D02*
Y647402D01*
X940000Y960000D02*
X971457D01*
X930000Y950000D02*
X940000Y960000D01*
X1060000Y1010000D02*
X1070000Y1000000D01*
Y970000D02*
Y1000000D01*
X1060000Y960000D02*
X1070000Y970000D01*
X1028543Y960000D02*
X1060000D01*
X1330000Y560000D02*
X1373425D01*
X1330000Y520000D02*
Y560000D01*
Y595314D02*
X1334686Y600000D01*
X1330000Y560000D02*
Y595314D01*
X970000Y1630000D02*
X1080000D01*
X1090000Y1640000D02*
Y1760000D01*
X1080000Y1630000D02*
X1090000Y1640000D01*
X1396342Y910000D02*
X1404452Y918110D01*
X1310000Y910000D02*
X1396342D01*
X1270000Y930000D02*
X1278898Y938898D01*
X1693780D01*
X1028543Y1242049D02*
X1040000Y1253506D01*
X1028543Y1200000D02*
Y1242049D01*
X1037402Y1320630D02*
X1040000Y1318032D01*
X960000Y1640000D02*
X970000Y1630000D01*
X960000Y1640000D02*
Y1718032D01*
X1090000Y1760000D02*
X1171457D01*
X1100000Y1840000D02*
X1171457D01*
X1090000Y1760000D02*
Y1830000D01*
X1100000Y1840000D01*
X960000Y1718032D02*
X962598Y1720630D01*
X1228543Y1760000D02*
X1280000D01*
X1228543Y1840000D02*
X1310000D01*
X1200000Y1100000D02*
X1583506D01*
X1593506Y1110000D01*
X1600000D01*
X1283496Y1073496D02*
X1726504D01*
X1278374Y1008374D02*
Y1068374D01*
X1283496Y1073496D01*
X1726504D02*
X1750000Y1050000D01*
X1270000Y1000000D02*
X1278374Y1008374D01*
X1200000Y1000000D02*
X1270000D01*
X1610000Y1025314D02*
X1620907Y1036220D01*
X1694882D01*
X1610000Y980000D02*
Y1025314D01*
X1200000Y910000D02*
X1260000Y970000D01*
X1200000Y900000D02*
Y910000D01*
X1260000Y970000D02*
X1600000D01*
X1610000Y980000D01*
X3228543Y1440000D02*
X3530000D01*
X2700000Y1600000D02*
X2768331Y1531669D01*
X2795299D02*
X2795866Y1531102D01*
X2768331Y1531669D02*
X2795299D01*
X3060000Y1100000D02*
Y1190000D01*
X3028543Y1200000D02*
X3050000D01*
X3060000Y1190000D01*
X3228543Y1360000D02*
X3290000D01*
X2400000Y1100000D02*
X2770000D01*
X2390000Y1050000D02*
Y1090000D01*
X2400000Y1100000D01*
X2305118Y1036220D02*
X2376220D01*
X2390000Y1050000D01*
X2386535Y1016535D02*
X2410000Y1040000D01*
X2305118Y1016535D02*
X2386535D01*
X2410000Y1040000D02*
X2573425D01*
X3470000Y400000D02*
X3573425D01*
X3450000D02*
X3470000D01*
X3500000Y640000D02*
X3573425D01*
X3290000Y750000D02*
Y790000D01*
X3228543Y800000D02*
X3280000D01*
X3290000Y790000D01*
X3070000Y640000D02*
Y720000D01*
X3076000Y634000D02*
X3116259D01*
X3070000Y640000D02*
X3076000Y634000D01*
X3026575Y720000D02*
X3070000D01*
Y750000D01*
X2710000Y414686D02*
X2724686Y400000D01*
X2710000Y414686D02*
Y640000D01*
Y685314D02*
X2714686Y690000D01*
X2710000Y640000D02*
X2771457D01*
X2714686Y690000D02*
X2905314D01*
X2710000Y640000D02*
Y685314D01*
X2650000Y560000D02*
X2675909D01*
X2626575D02*
X2650000D01*
X1744686Y1280000D02*
X1744686Y1280000D01*
X1740000Y1275314D02*
X1744686Y1280000D01*
X2305118Y603150D02*
X2645314D01*
X2650000Y560000D02*
Y598463D01*
X2645314Y603150D02*
X2650000Y598463D01*
X1740000Y1234686D02*
Y1275314D01*
X2744686Y560000D02*
X2773425D01*
X2740000Y555314D02*
X2744686Y560000D01*
X2740000Y484686D02*
X2744686Y480000D01*
X2773425D01*
X2724686Y400000D02*
X2771457D01*
X2292000Y72686D02*
X2304686Y60000D01*
X2150000Y300000D02*
X2287314D01*
X2292000Y72686D02*
Y295314D01*
X2287314Y300000D02*
X2292000Y295314D01*
X2470000Y64686D02*
Y160000D01*
X2465314Y60000D02*
X2470000Y64686D01*
X2304686Y60000D02*
X2465314D01*
X1880000Y240000D02*
Y355314D01*
X1826575Y240000D02*
X1880000D01*
X1920473Y80000D02*
X1927165Y86693D01*
X1826575Y80000D02*
X1920473D01*
X1927165Y84773D02*
X1975629D01*
X1980315Y89459D01*
Y494882D01*
X2072835Y86693D02*
X2079528Y80000D01*
X2246693Y173307D02*
X2260000Y160000D01*
X2004686Y173307D02*
X2246693D01*
X2000000Y177993D02*
X2004686Y173307D01*
X2000000Y177993D02*
Y494882D01*
X1869688Y165314D02*
X1874374Y170000D01*
X1869688Y130000D02*
Y165314D01*
X1874374Y170000D02*
X1920530D01*
X1330000Y400000D02*
X1371457D01*
X1330000Y330000D02*
Y400000D01*
Y330000D02*
X1340000Y320000D01*
X1371457D01*
X1428543Y480000D02*
X1530000D01*
Y640000D02*
X1620000D01*
X1874272Y1600000D02*
X1920000D01*
X1828543D02*
X1874272D01*
X1869585Y1560000D02*
X1874272Y1564686D01*
X1740000Y1560000D02*
X1869585D01*
X1874272Y1564686D02*
Y1600000D01*
X1730000Y1550000D02*
X1740000Y1560000D01*
X1730000Y1530000D02*
Y1550000D01*
X1740000Y1520000D02*
X1771457D01*
X1730000Y1530000D02*
X1740000Y1520000D01*
X1930000Y1610000D02*
Y1760000D01*
X1920000Y1600000D02*
X1930000Y1610000D01*
X2506575Y1780000D02*
X2560000D01*
Y1700000D02*
Y1780000D01*
Y1673584D02*
Y1700000D01*
X2564686Y1668898D02*
X2604134D01*
X2506575Y1700000D02*
X2560000D01*
Y1673584D02*
X2564686Y1668898D01*
X1480000Y1690000D02*
Y1760000D01*
X1470000Y1680000D02*
X1480000Y1690000D01*
X1428543Y1680000D02*
X1470000D01*
X1475314Y1600000D02*
X1480000Y1595314D01*
Y1540000D02*
Y1595314D01*
X1426575Y1600000D02*
X1475314D01*
X1460000Y1520000D02*
X1480000Y1540000D01*
X1428543Y1520000D02*
X1460000D01*
X2358686Y1840000D02*
X2646101D01*
X2345314Y1600000D02*
X2354000Y1608686D01*
X2338000Y1855314D02*
X2342686Y1860000D01*
X2354000Y1835314D02*
X2358686Y1840000D01*
X2306000Y1895314D02*
X2310686Y1900000D01*
X2294686Y1921754D02*
X2724841D01*
X2280000Y1850000D02*
X2290000Y1860000D01*
Y1917068D02*
X2294686Y1921754D01*
X2326686Y1880000D02*
X2685471D01*
X2306000Y1828627D02*
Y1895314D01*
X2305314Y1760000D02*
X2322000Y1776686D01*
X2354000Y1608686D02*
Y1835314D01*
X2297373Y1820000D02*
X2306000Y1828627D01*
X2322000Y1776686D02*
Y1875314D01*
X2220000Y1850000D02*
X2280000D01*
X2325314Y1680000D02*
X2338000Y1692686D01*
X2310686Y1900000D02*
X2705156D01*
X2290000Y1860000D02*
Y1917068D01*
X2338000Y1692686D02*
Y1855314D01*
X2322000Y1875314D02*
X2326686Y1880000D01*
X2342686Y1860000D02*
X2665314D01*
X2260000Y1920000D02*
X2280000Y1940000D01*
X2228543Y1920000D02*
X2260000D01*
X2744526Y1940000D02*
X2749213Y1935314D01*
Y1695866D02*
Y1935314D01*
X2280000Y1940000D02*
X2744526D01*
X2724841Y1921754D02*
X2729528Y1917068D01*
Y1695866D02*
Y1917068D01*
X2709843Y1695866D02*
Y1895314D01*
X2705156Y1900000D02*
X2709843Y1895314D01*
X2690157Y1695866D02*
Y1875314D01*
X2685471Y1880000D02*
X2690157Y1875314D01*
X2670000Y1696339D02*
Y1855314D01*
X2665314Y1860000D02*
X2670000Y1855314D01*
X2646101Y1840000D02*
X2650787Y1835314D01*
Y1695866D02*
Y1835314D01*
X2374686Y1820000D02*
X2626416D01*
X2631102Y1815314D01*
X2370000Y1524686D02*
Y1815314D01*
X2374686Y1820000D01*
X2631102Y1695866D02*
Y1815314D01*
X2404686Y1780000D02*
X2453425D01*
X2400000Y1700000D02*
Y1775314D01*
X2404686Y1780000D01*
X2190000Y1820000D02*
X2297373D01*
X2228543Y1760000D02*
X2305314D01*
X2228543Y1680000D02*
X2325314D01*
X2228543Y1600000D02*
X2345314D01*
X2228543Y1520000D02*
X2365314D01*
X2370000Y1524686D01*
X3065314Y1629528D02*
X3070000Y1634214D01*
X3085314Y1610000D02*
X3090000Y1614686D01*
X2795866Y1629528D02*
X3065314D01*
X2796024Y1610000D02*
X3085314D01*
X3100157Y1590158D02*
X3110000Y1600000D01*
X2795866Y1590158D02*
X3100157D01*
X2420000Y1650000D02*
X2603347D01*
X2410000Y1640000D02*
X2420000Y1650000D01*
X2603347D02*
X2604134Y1649213D01*
X2120000Y1910000D02*
X2130000Y1920000D01*
X2171457D01*
X2120000Y1880000D02*
Y1910000D01*
X2400000Y1700000D02*
X2453425D01*
X2400000Y1440000D02*
X2410000Y1450000D01*
Y1640000D01*
X1600000Y1470000D02*
Y1590000D01*
X1610000Y1600000D02*
X1771457D01*
X1600000Y1590000D02*
X1610000Y1600000D01*
X1130000Y1680000D02*
X1371457D01*
X1339331Y1560000D02*
Y1589331D01*
X1350000Y1600000D01*
X1373425D01*
X1339331Y1530669D02*
Y1560000D01*
X1100000D02*
X1339331D01*
Y1530669D02*
X1350000Y1520000D01*
X1371457D01*
X1820000Y580000D02*
X2000000D01*
X2019685Y560315D01*
Y494882D02*
Y560315D01*
X1750000Y1050000D02*
X1818148D01*
X1822835Y1054686D01*
Y1105118D01*
X2420000Y960000D02*
X2571457D01*
X2196850Y443150D02*
Y494882D01*
Y443150D02*
X2210000Y430000D01*
X2450000D01*
Y880000D02*
X2571457D01*
X2480000Y800000D02*
X2571457D01*
X3026575Y1280000D02*
X3130000D01*
Y1210000D02*
Y1280000D01*
X3173425D01*
X2880000Y1210000D02*
Y1280000D01*
X2973425D01*
X2880000Y1210000D02*
X2890000Y1200000D01*
X2971457D01*
X3140000D02*
X3173425D01*
X3130000Y1210000D02*
X3140000Y1200000D01*
X2795866Y1609842D02*
X2796024Y1610000D01*
X2796338Y1570000D02*
X3080000D01*
X2795866Y1570472D02*
X2796338Y1570000D01*
X3098000Y1382000D02*
Y1552000D01*
Y1382000D02*
X3120000Y1360000D01*
X3080000Y1570000D02*
X3098000Y1552000D01*
X3120000Y1360000D02*
X3171457D01*
X3070000Y1440000D02*
Y1470000D01*
X2910000Y1330000D02*
X2920000Y1320000D01*
X3060000D01*
X2910000Y1330000D02*
Y1520000D01*
X3070000Y1330000D02*
Y1360000D01*
X3060000Y1320000D02*
X3070000Y1330000D01*
Y1360000D02*
Y1440000D01*
X3026575Y1360000D02*
X3070000D01*
X3026575Y1440000D02*
X3070000D01*
X2898898Y1531102D02*
X2910000Y1520000D01*
X2795866Y1531102D02*
X2898898D01*
X2795866Y1550787D02*
X2925314D01*
X2930000Y1546101D01*
Y1440000D02*
Y1546101D01*
Y1370000D02*
Y1440000D01*
X2973425D01*
X2940000Y1360000D02*
X2973425D01*
X2930000Y1370000D02*
X2940000Y1360000D01*
X2622627Y1370000D02*
X2670472Y1417845D01*
Y1504134D01*
X2626575Y1040000D02*
X2670000D01*
X2628543Y960000D02*
X2670000D01*
X2628543Y880000D02*
X2730000D01*
X2690079Y1504055D02*
X2690157Y1504134D01*
X2650394Y1503740D02*
X2650787Y1504134D01*
X2650394Y1420394D02*
Y1503740D01*
X2630000Y1400000D02*
X2650394Y1420394D01*
X2628543Y800000D02*
X2700000D01*
X2474686Y1500000D02*
X2550000D01*
X2581102Y1531102D01*
X2470000Y1170000D02*
Y1495314D01*
X2474686Y1500000D01*
X2626416Y1450000D02*
X2631102Y1454686D01*
X2500000Y1450000D02*
X2626416D01*
X2631102Y1454686D02*
Y1504134D01*
X2550000Y1370000D02*
X2622627D01*
X2520000Y1400000D02*
X2630000D01*
X2581102Y1531102D02*
X2604134D01*
X2474000Y1532000D02*
X2552000D01*
X2569472Y1549472D02*
X2602819D01*
X2552000Y1532000D02*
X2569472Y1549472D01*
X2546214Y1560000D02*
X2556686Y1570472D01*
X2604134D01*
X2540000Y1560000D02*
X2546214D01*
X2516652Y1590158D02*
X2604134D01*
X2500000Y1580000D02*
X2506494D01*
X2516652Y1590158D01*
X2456000Y1610000D02*
X2603976D01*
X2428000Y1618000D02*
X2440000Y1630000D01*
X2603662D02*
X2604134Y1629528D01*
X2444000Y1598000D02*
X2456000Y1610000D01*
X2440000Y1630000D02*
X2603662D01*
X2444000Y1284686D02*
Y1598000D01*
X2428000Y1368000D02*
Y1618000D01*
X2420000Y1360000D02*
X2428000Y1368000D01*
X2472000Y1530000D02*
X2474000Y1532000D01*
X2439314Y1280000D02*
X2444000Y1284686D01*
X2228543Y1280000D02*
X2439314D01*
X2602819Y1549472D02*
X2604134Y1550787D01*
X2603976Y1610000D02*
X2604134Y1609842D01*
X2313506Y1480000D02*
X2323506Y1470000D01*
X1960000Y1480000D02*
X2313506D01*
X2323506Y1470000D02*
X2330000D01*
X1763780Y723779D02*
X1780000Y740000D01*
X1920000D01*
X1763780Y494882D02*
Y723779D01*
X2010000Y1400000D02*
X2380000D01*
X2490000Y1440000D02*
X2500000Y1450000D01*
X2490000Y1150000D02*
Y1440000D01*
X1960000Y1410000D02*
X2000000D01*
X2010000Y1400000D01*
Y696750D02*
X2024860Y681890D01*
X2010000Y696750D02*
Y700000D01*
X1980000Y1360000D02*
X2170000D01*
X1828543Y1520000D02*
X1920000D01*
X1930000Y1240000D02*
X1940000Y1230000D01*
X1930000Y1240000D02*
Y1510000D01*
X1920000Y1520000D02*
X1930000Y1510000D01*
X2010000Y1440000D02*
X2170000D01*
X1950000Y614686D02*
Y700000D01*
Y614686D02*
X1954686Y610000D01*
X2080000D01*
X2100000Y590000D01*
Y570000D02*
Y590000D01*
X2078740Y548740D02*
X2100000Y570000D01*
X2078740Y494882D02*
Y548740D01*
X2195314Y660000D02*
X2200000Y655314D01*
Y604686D02*
Y655314D01*
X1982000Y660000D02*
X2195314D01*
X2200000Y604686D02*
X2204686Y600000D01*
X2210000D01*
X2216535Y593465D01*
Y494882D02*
Y593465D01*
X2130000Y765001D02*
X2134686Y760315D01*
X2130000Y765001D02*
Y860000D01*
X2134686Y760315D02*
X2304803D01*
X2100000Y745631D02*
Y820000D01*
Y745631D02*
X2104686Y740945D01*
X2305118D01*
X2070000Y725946D02*
Y780000D01*
Y725946D02*
X2074686Y721260D01*
X2305118D01*
X2024860Y681890D02*
X2305118D01*
X2044686Y701575D02*
X2305118D01*
X2040000Y706261D02*
X2044686Y701575D01*
X2040000Y706261D02*
Y740000D01*
X1330000Y490000D02*
Y520000D01*
Y490000D02*
X1340000Y480000D01*
X1371457D01*
X1641890Y681890D02*
X1694882D01*
X1630000Y670000D02*
X1641890Y681890D01*
X1630000Y650000D02*
Y670000D01*
X1620000Y640000D02*
X1630000Y650000D01*
X1940000Y1230000D02*
X1980611D01*
X1980315Y1229704D02*
X1980611Y1230000D01*
X2280000D01*
X1980315Y1105118D02*
Y1229704D01*
X2530000Y1200000D02*
X2770000D01*
X2010000D02*
X2430000D01*
X2000000Y1190000D02*
X2010000Y1200000D01*
X2000000Y1105118D02*
Y1190000D01*
X2252623Y1010000D02*
X2265773Y996850D01*
X2250000Y1010000D02*
X2252623D01*
X2265773Y996850D02*
X2305118D01*
X2132835Y977165D02*
X2305118D01*
X2130000Y980000D02*
X2132835Y977165D01*
X2480000Y1140000D02*
X2490000Y1150000D01*
X2460000Y1160000D02*
X2470000Y1170000D01*
X2250000Y1160000D02*
X2460000D01*
X2294686Y1140000D02*
X2480000D01*
X2285314Y1060000D02*
X2290000Y1064686D01*
Y1135314D01*
X2294686Y1140000D01*
X2223127Y1060000D02*
X2285314D01*
X2227087Y1360000D02*
X2420000D01*
X2227087Y1440000D02*
X2400000D01*
X2670000Y1696339D02*
X2670472Y1695866D01*
X2236220Y1146220D02*
X2250000Y1160000D01*
X2059528Y569528D02*
X2060000Y570000D01*
X2059055Y494882D02*
X2059528Y495354D01*
Y569528D01*
X2234315Y496787D02*
Y625685D01*
X2230000Y630000D02*
X2234315Y625685D01*
Y496787D02*
X2236220Y494882D01*
X2218441Y1064686D02*
Y1103213D01*
Y1064686D02*
X2223127Y1060000D01*
X2216535Y1105118D02*
X2218441Y1103213D01*
X2236220Y1105118D02*
Y1146220D01*
X2130000Y1760000D02*
X2171457D01*
X2100000Y1680000D02*
X2171457D01*
X2070000Y1600000D02*
X2171457D01*
X2040000Y1520000D02*
X2171457D01*
X2130000Y1280000D02*
X2171457D01*
X2304803Y760315D02*
X2305118Y760630D01*
X3700000Y240000D02*
X3710000Y250000D01*
X3669528Y240000D02*
X3700000D01*
X3680000Y490000D02*
Y560000D01*
Y800000D01*
X3628543Y560000D02*
X3680000D01*
Y800000D02*
Y870000D01*
X3626575Y800000D02*
X3680000D01*
X3626575Y880000D02*
X3670000D01*
X3680000Y870000D01*
X3500000Y810000D02*
X3510000Y800000D01*
X3530000D01*
X3500000Y810000D02*
Y910000D01*
X3530000Y800000D02*
X3573425D01*
X3530000Y764686D02*
X3534686Y760000D01*
X3530000Y764686D02*
Y800000D01*
X3534686Y760000D02*
X3650000D01*
X3530000Y880000D02*
X3573425D01*
X3510000Y920000D02*
X3650000D01*
X3500000Y910000D02*
X3510000Y920000D01*
X3628543Y960000D02*
X3655314D01*
X3660000Y955314D01*
Y930000D02*
Y955314D01*
X3650000Y920000D02*
X3660000Y930000D01*
X3650000Y760000D02*
X3660000Y750000D01*
Y730000D02*
Y750000D01*
X3626575Y720000D02*
X3650000D01*
X3660000Y730000D01*
X3325669Y440315D02*
X3370000D01*
X3430315D01*
X3360000Y300000D02*
X3370000Y310000D01*
X3230000Y300000D02*
X3360000D01*
X3370000Y310000D02*
Y440315D01*
X3219370Y310630D02*
X3230000Y300000D01*
X3219370Y310630D02*
Y373386D01*
X3040000Y400945D02*
X3093386D01*
X3040000Y370000D02*
Y400945D01*
X3670000Y480000D02*
X3680000Y490000D01*
X3627559Y480000D02*
X3670000D01*
X3544214Y600000D02*
X3654841D01*
X3659528Y604686D01*
X3654841Y640000D02*
X3659528Y635314D01*
X3626575Y640000D02*
X3654841D01*
X3659528Y604686D02*
Y635314D01*
X3539528Y595314D02*
X3544214Y600000D01*
X3430000Y480000D02*
X3572441D01*
X3369528Y509528D02*
X3389528D01*
X3369528Y549528D02*
X3389528D01*
X3626575Y80000D02*
X3680000D01*
X3000000Y530000D02*
X3045550D01*
X3056494Y519055D01*
X2884449Y499533D02*
X3093223D01*
X3056494Y519055D02*
X3093386D01*
X3056180Y479685D02*
X3093386D01*
X3046494Y470000D02*
X3056180Y479685D01*
X3040000Y470000D02*
X3046494D01*
X2894214Y440315D02*
X3093386D01*
X2889528Y435629D02*
X2894214Y440315D01*
X2889528Y400000D02*
Y435629D01*
X3487668Y162332D02*
X3526207D01*
Y84686D02*
X3530893Y80000D01*
X3526207Y84686D02*
Y162332D01*
X3565757D01*
X3530893Y80000D02*
X3573425D01*
X3490000Y320000D02*
X3572441D01*
X3480000Y310000D02*
X3490000Y320000D01*
X3480000Y170000D02*
Y310000D01*
Y170000D02*
X3487668Y162332D01*
X3259370Y330630D02*
Y372756D01*
Y330630D02*
X3260000Y330000D01*
X3258740Y373386D02*
X3259370Y372756D01*
X2929528Y89528D02*
Y400945D01*
X2838071Y89528D02*
X2929528D01*
X2909528Y164686D02*
Y420630D01*
X3093386D01*
X2929528Y400945D02*
X3040000D01*
X3520000Y240000D02*
X3573425D01*
X3520000Y720000D02*
X3573425D01*
X3626575Y400000D02*
X3680000D01*
X3430315Y440315D02*
X3440000Y430630D01*
Y410000D02*
X3450000Y400000D01*
X3440000Y410000D02*
Y430630D01*
X3360000Y519055D02*
X3369528Y509528D01*
X3358740Y538740D02*
X3369528Y549528D01*
X1865002Y125314D02*
X1869688Y130000D01*
X1510000Y360000D02*
X1600000D01*
X1500000Y350000D02*
X1510000Y360000D01*
X1857518Y440000D02*
X1862205Y444686D01*
Y494882D01*
X1428543Y400000D02*
X1560000D01*
X1428543Y320000D02*
X1490000D01*
X1500000Y330000D01*
Y350000D01*
X1749373Y1440000D02*
X1880000D01*
X1740000Y1430627D02*
X1749373Y1440000D01*
X1740000Y1370000D02*
Y1430627D01*
X1600000Y680000D02*
X1621575Y701575D01*
X1694882D01*
X1592118Y740000D02*
X1610858Y721260D01*
X1694882D01*
X1590000Y740000D02*
X1592118D01*
X1693780Y938898D02*
X1694882Y937795D01*
X1404452Y918110D02*
X1694882D01*
X1546494Y890000D02*
X1554920Y898425D01*
X1694882D01*
X1540000Y890000D02*
X1546494D01*
X1780000Y940000D02*
X1850000D01*
X1694882Y957480D02*
X1762520D01*
X1780000Y940000D01*
X1694882Y977165D02*
X1696299Y978583D01*
X1798583D01*
X1800000Y980000D01*
X2910000Y875314D02*
X2914686Y880000D01*
X3100000D01*
X2905314Y690000D02*
X2910000Y694686D01*
Y875314D01*
X3100000Y800000D02*
Y880000D01*
X3173425D01*
X2940000Y800000D02*
Y850000D01*
X2530000Y560000D02*
Y578778D01*
Y510000D02*
Y560000D01*
X2573425D01*
X2525314Y583465D02*
X2530000Y578778D01*
X1750000Y1360000D02*
X1773425D01*
X1740000Y1370000D02*
X1750000Y1360000D01*
X1880000Y1440000D02*
X1890000Y1430000D01*
X1885314Y1210000D02*
X1890000Y1214686D01*
X1810000Y1210000D02*
X1885314D01*
X1890000Y1214686D02*
Y1430000D01*
X1790000Y1230000D02*
X1855314D01*
X1783465Y1223465D02*
X1790000Y1230000D01*
X1860000Y1234686D02*
Y1280000D01*
X1855314Y1230000D02*
X1860000Y1234686D01*
X1803150Y1203150D02*
X1810000Y1210000D01*
X1803150Y1105118D02*
Y1203150D01*
X1744686Y1230000D02*
X1759093D01*
X1740000Y1234686D02*
X1744686Y1230000D01*
X1763780Y1105118D02*
Y1225314D01*
X1759093Y1230000D02*
X1763780Y1225314D01*
X1860000Y1360000D02*
Y1410000D01*
X1826575Y1360000D02*
X1860000D01*
X2305118Y583465D02*
X2525314D01*
X1783465Y1105118D02*
Y1223465D01*
X1860000Y1280000D02*
Y1360000D01*
X1826575Y1280000D02*
X1860000D01*
X2137795Y312205D02*
X2150000Y300000D01*
X2137795Y312205D02*
Y494882D01*
X2122796Y550000D02*
X2150000D01*
X2118110Y494882D02*
Y545314D01*
X2122796Y550000D01*
X2150000D02*
X2157480Y542520D01*
Y494882D02*
Y542520D01*
X2162167Y320000D02*
X2310000D01*
X2157480Y324686D02*
Y430000D01*
Y324686D02*
X2162167Y320000D01*
X2177165Y438094D02*
Y494882D01*
X2157480Y430000D02*
X2169071D01*
X2177165Y438094D01*
X2157480Y430000D02*
Y494882D01*
X1320000Y160000D02*
Y230000D01*
Y90000D02*
Y160000D01*
X1410748D01*
X1330000Y80000D02*
X1573425D01*
X1320000Y90000D02*
X1330000Y80000D01*
X1320000Y230000D02*
X1330000Y240000D01*
X1573425D01*
X1664000D02*
Y414000D01*
Y184686D02*
Y240000D01*
X1626575D02*
X1664000D01*
X1670000Y420000D02*
X1896889D01*
X1901575Y424686D01*
Y494882D01*
X1664000Y414000D02*
X1670000Y420000D01*
X1680000Y395314D02*
X1684686Y400000D01*
X1680000Y140000D02*
Y395314D01*
X1684686Y400000D02*
X1916573D01*
X1921260Y404686D01*
X1659314Y180000D02*
X1664000Y184686D01*
X1631535Y180000D02*
X1659314D01*
X1629252Y177716D02*
X1631535Y180000D01*
X1680000Y90000D02*
Y140000D01*
X1629252Y142284D02*
X1677716D01*
X1680000Y140000D01*
X1960000Y370000D02*
Y494252D01*
X1950000Y360000D02*
X1960000Y370000D01*
X1880000Y355314D02*
X1884686Y360000D01*
X1950000D01*
X1921260Y404686D02*
Y494882D01*
X1940945Y384686D02*
Y494882D01*
X1864686Y380000D02*
X1936259D01*
X1940945Y384686D01*
X1860000Y294686D02*
Y375314D01*
X1864686Y380000D01*
X1626575Y80000D02*
X1670000D01*
X1680000Y90000D01*
X1855314Y290000D02*
X1860000Y294686D01*
X1750000Y290000D02*
X1855314D01*
X1960000Y494252D02*
X1960630Y494882D01*
X1741713Y240000D02*
X1773425D01*
X1710000D02*
X1741713D01*
Y281713D02*
X1750000Y290000D01*
X1741713Y240000D02*
Y281713D01*
X2470000Y160000D02*
Y240000D01*
X2320000D02*
Y310000D01*
Y170000D02*
Y240000D01*
X2373425D01*
X2310000Y320000D02*
X2320000Y310000D01*
X2426575Y160000D02*
X2470000D01*
X2330000D02*
X2373425D01*
X962598Y1264686D02*
Y1320630D01*
X934686Y1260000D02*
X957912D01*
X962598Y1264686D01*
X930000Y1200000D02*
Y1255314D01*
Y1130000D02*
Y1200000D01*
X971457D01*
X930000Y1255314D02*
X934686Y1260000D01*
X930000Y1130000D02*
X940000Y1120000D01*
X971457D01*
X2995255Y240000D02*
X3040000D01*
X2980000Y210000D02*
X2984592Y214592D01*
Y229337D01*
X2995255Y240000D01*
X3626575D02*
X3669528D01*
Y164686D02*
Y240000D01*
X3664841Y160000D02*
X3669528Y164686D01*
X3626575Y160000D02*
X3664841D01*
X3565757Y162332D02*
X3572953Y169528D01*
X3539528Y564686D02*
Y595314D01*
X3544214Y560000D02*
X3571457D01*
X3539528Y564686D02*
X3544214Y560000D01*
X3260000Y670000D02*
Y715314D01*
X3140000Y694686D02*
X3144686Y690000D01*
X3174315D02*
X3180000Y684315D01*
X3144686Y690000D02*
X3174315D01*
X3140000Y694686D02*
Y715314D01*
X3120000Y674686D02*
X3124686Y670000D01*
X3120000Y674686D02*
Y790000D01*
X3150000Y670000D02*
X3157535Y662465D01*
X3124686Y670000D02*
X3150000D01*
X3130000Y800000D02*
X3171457D01*
X3120000Y790000D02*
X3130000Y800000D01*
X3140630Y605669D02*
Y645314D01*
X3135944Y650000D02*
X3140630Y645314D01*
X3104686Y650000D02*
X3135944D01*
X3116259Y634000D02*
X3120945Y629314D01*
X3100000Y654686D02*
Y800000D01*
Y654686D02*
X3104686Y650000D01*
X3120945Y605669D02*
Y629314D01*
X3157535Y622104D02*
Y662465D01*
X3180000Y605669D02*
Y684315D01*
X3026575Y800000D02*
X3100000D01*
X3144686Y720000D02*
X3173425D01*
X3140000Y715314D02*
X3144686Y720000D01*
X3157535Y622104D02*
X3158410Y621230D01*
Y607575D02*
Y621230D01*
Y607575D02*
X3160315Y605669D01*
X2940000Y582797D02*
Y720000D01*
X2944686Y578110D02*
X3093386D01*
X2940000Y720000D02*
X2973425D01*
X2940000D02*
Y800000D01*
Y582797D02*
X2944686Y578110D01*
X2740000Y280000D02*
Y315314D01*
Y244686D02*
Y280000D01*
X2940000Y800000D02*
X2973425D01*
X3155600Y194558D02*
X3156693Y193465D01*
X3040000Y240000D02*
X3140000D01*
X3155600Y194558D02*
Y224400D01*
X3140000Y240000D02*
X3155600Y224400D01*
X3040000Y104686D02*
Y133425D01*
X3100000Y104686D02*
Y120000D01*
X3095314Y100000D02*
X3100000Y104686D01*
X3044686Y100000D02*
X3095314D01*
X3040000Y104686D02*
X3044686Y100000D01*
X3244401Y95600D02*
X3250472Y89528D01*
X3340000D01*
X3243307Y126535D02*
X3244401Y125442D01*
Y95600D02*
Y125442D01*
X3340000Y89528D02*
Y133425D01*
X3304686Y229528D02*
X3335314D01*
X3340000Y186575D02*
Y224841D01*
X3335314Y229528D02*
X3340000Y224841D01*
X3300000D02*
X3304686Y229528D01*
X3300000Y200000D02*
Y224841D01*
X3293465Y193465D02*
X3300000Y200000D01*
X3243307Y193465D02*
X3293465D01*
X3199685Y304056D02*
X3243307Y260434D01*
Y193465D02*
Y260434D01*
X3200000Y140000D02*
Y259055D01*
X3156693Y126535D02*
X3161723Y131566D01*
X3191566D01*
X3200000Y140000D01*
X3100000Y120000D02*
X3106535Y126535D01*
X3156693D01*
X3180000Y279055D02*
X3200000Y259055D01*
X2869528Y160000D02*
X2904841D01*
X2909528Y164686D01*
X2826575Y160000D02*
X2869528D01*
Y124686D02*
Y160000D01*
X2744686Y120000D02*
X2864841D01*
X2740000Y84686D02*
Y115314D01*
X2744686Y80000D02*
X2771457D01*
X2740000Y84686D02*
X2744686Y80000D01*
X2740000Y115314D02*
X2744686Y120000D01*
X2864841D02*
X2869528Y124686D01*
X2744686Y240000D02*
X2773425D01*
X2740000Y244686D02*
X2744686Y240000D01*
Y320000D02*
X2773425D01*
X2740000Y315314D02*
X2744686Y320000D01*
X2826575Y240000D02*
X2884841D01*
X2889528Y244686D02*
Y320000D01*
X2884841Y240000D02*
X2889528Y244686D01*
X2826575Y320000D02*
X2889528D01*
Y400000D01*
X2828543D02*
X2889528D01*
X2884449Y484686D02*
Y499533D01*
X2879763Y480000D02*
X2884449Y484686D01*
X2826575Y480000D02*
X2879763D01*
X2884449Y499533D02*
Y560000D01*
X2828543Y640000D02*
X2879763D01*
X2884449Y635314D01*
Y560000D02*
Y635314D01*
X2826575Y560000D02*
X2884449D01*
X3120236Y330236D02*
Y372677D01*
X3120945Y373386D01*
X3119528Y329528D02*
X3120236Y330236D01*
X3325669Y519055D02*
X3360000D01*
X3325669Y538740D02*
X3358740D01*
X3226575Y880000D02*
X3280000D01*
X2720000Y140000D02*
X2740000Y160000D01*
X2773425D01*
X3199685Y304056D02*
Y373386D01*
X3180000Y279055D02*
Y373386D01*
X3040000Y186575D02*
Y240000D01*
X3120945Y373386D02*
Y389181D01*
X3134669Y402905D01*
Y414669D01*
X3180000Y460000D01*
X3093386Y578110D02*
X3095291Y576205D01*
X3111086D01*
X3122905Y564386D01*
X3093386Y538740D02*
X3160315D01*
X3209528Y489528D01*
X3134669Y564386D02*
X3160315Y538740D01*
X3122905Y564386D02*
X3134669D01*
X3093386Y460000D02*
X3180000D01*
X3209528Y489528D01*
X3239055D02*
X3258740D01*
X3209528D02*
X3239055D01*
X3226575Y720000D02*
X3255314D01*
X3260000Y715314D01*
G54D94*
X820000Y710000D02*
Y750000D01*
Y680000D02*
Y710000D01*
X800000Y490000D02*
Y560000D01*
Y490000D02*
X839617Y450383D01*
Y380000D02*
Y450383D01*
X600000Y560000D02*
X800000D01*
Y660000D01*
Y560000D02*
X889764D01*
X800000Y660000D02*
X820000Y680000D01*
X560000Y380000D02*
Y447402D01*
Y297574D02*
Y380000D01*
X634882D01*
X560000Y297574D02*
X577574Y280000D01*
X634882D01*
X745118Y380000D02*
X839617D01*
Y320383D02*
Y380000D01*
X821503Y280000D02*
X839617Y298115D01*
X745118Y280000D02*
X821503D01*
X839617Y298115D02*
Y319617D01*
X840000Y320000D01*
X839617Y320383D02*
X840000Y320000D01*
X880000Y763787D02*
Y810000D01*
Y717574D02*
Y763787D01*
X883787Y760000D02*
X944882D01*
X680709Y840000D02*
X850000D01*
X880000Y810000D01*
X897574Y700000D02*
X1470000D01*
X880000Y717574D02*
X897574Y700000D01*
X270000Y560000D02*
X600000D01*
X100000Y620000D02*
X210000D01*
X270000Y560000D01*
X80000Y640000D02*
Y837205D01*
Y640000D02*
X100000Y620000D01*
X233779Y1679527D02*
X235231Y1680979D01*
X2680000Y280000D02*
Y750000D01*
X80000Y837205D02*
X82795Y840000D01*
X240000Y320000D02*
Y382426D01*
X257574Y400000D02*
X440000D01*
X490000Y350000D01*
X240000Y382426D02*
X257574Y400000D01*
X490000Y177574D02*
Y350000D01*
Y177574D02*
X507574Y160000D01*
X611260D01*
X1230000Y450000D02*
Y540000D01*
Y320000D02*
Y450000D01*
X840000Y320000D02*
X921260D01*
X1230000Y177574D02*
Y320000D01*
X1078740D02*
X1230000D01*
X1210000Y560000D02*
X1219988Y550012D01*
X1230000Y540000D01*
X1110236Y560000D02*
X1210000D01*
X1059055Y160000D02*
X1212426D01*
X1230000Y177574D01*
X768740Y160000D02*
X940945D01*
X1480000Y1760000D02*
X1680000D01*
X1200000Y1282426D02*
X1217574Y1300000D01*
X1440000D01*
X1200000Y1200000D02*
Y1282426D01*
X1440000Y1300000D02*
X1680000D01*
X3060000Y1100000D02*
X3290000D01*
X2770000D02*
X3060000D01*
X1680000Y1760000D02*
X1930000D01*
G54D95*
X1100000Y770000D02*
Y840000D01*
X1090000Y760000D02*
X1100000Y770000D01*
X1055118Y760000D02*
X1090000D01*
G54D96*
X240000Y310000D02*
D03*
G54D97*
Y73779D02*
D03*
G54D98*
X425039Y191890D02*
D03*
G54D99*
X3110000Y1940000D02*
D03*
X3730079D02*
D03*
G54D100*
X3159016Y2219921D02*
D03*
X3259016D02*
D03*
X3581063D02*
D03*
X3681063D02*
D03*
G54D101*
X3245039Y1710079D02*
D03*
X3295039Y1810079D02*
D03*
X3345039Y1710079D02*
D03*
X3395039Y1810079D02*
D03*
X3445039Y1710079D02*
D03*
X3495039Y1810079D02*
D03*
X3545039Y1710079D02*
D03*
G54D102*
X3595039Y1810079D02*
D03*
G54D103*
X3195039Y2060079D02*
D03*
X3645039D02*
D03*
G54D104*
X1370000Y1030000D02*
D03*
X1495984Y833150D02*
D03*
Y1226850D02*
D03*
G54D105*
X1633858Y2200000D02*
D03*
X2500000D02*
D03*
X666850D02*
D03*
G54D106*
X1437008D02*
D03*
X2106299D02*
D03*
X2303150D02*
D03*
X470000D02*
D03*
X273150D02*
D03*
G54D107*
X233779Y1199213D02*
D03*
G54D108*
X706221D02*
D03*
G54D109*
X233779Y1679527D02*
D03*
X706221D02*
D03*
X469999Y1120473D02*
D03*
X5433071Y275591D02*
D03*
X4094488D02*
D03*
X5433071Y2086614D02*
D03*
X4094488D02*
D03*
X2598425Y157480D02*
D03*
X3661417Y1496063D02*
D03*
X1870079Y2204724D02*
D03*
X157480Y1929134D02*
D03*
Y472441D02*
D03*
G54D110*
X3710000Y1140000D02*
D03*
X1200000Y1200000D02*
D03*
G54D111*
X3710000Y1340000D02*
D03*
Y1240000D02*
D03*
X1200000Y800000D02*
D03*
Y900000D02*
D03*
Y1000000D02*
D03*
Y1100000D02*
D03*
G54D112*
X3430000Y1200000D02*
D03*
X3390000Y1280000D02*
D03*
X820000Y710000D02*
D03*
X1230000Y450000D02*
D03*
X600000Y450000D02*
D03*
X820000Y750000D02*
D03*
X560000Y450000D02*
D03*
X670000Y660000D02*
D03*
X1100000Y840000D02*
D03*
X2099213Y390787D02*
D03*
X2820000Y2290000D02*
D03*
X2130000Y50000D02*
D03*
X1500000Y440000D02*
D03*
X4010000Y1100000D02*
D03*
Y1300000D02*
D03*
X2740000Y1410000D02*
D03*
X2770000Y1360000D02*
D03*
X2720000D02*
D03*
X2690000Y1330000D02*
D03*
X2680000Y280000D02*
D03*
X2470000Y241000D02*
D03*
X3410000Y120000D02*
D03*
X1520000Y1920000D02*
D03*
X3680000Y300000D02*
D03*
X3848973Y1100000D02*
D03*
X3848973Y1300000D02*
D03*
X1470000Y700000D02*
D03*
X930000Y880000D02*
D03*
X840000Y320000D02*
D03*
X1310000Y910000D02*
D03*
X1040000Y1260000D02*
D03*
Y1670000D02*
D03*
X1280000Y1760000D02*
D03*
X1310000Y1840000D02*
D03*
X1600000Y1110000D02*
D03*
X1100000Y1560000D02*
D03*
X1130000Y1680000D02*
D03*
X1440000Y1300000D02*
D03*
X3290000Y1100000D02*
D03*
Y1360000D02*
D03*
X2770000Y1100000D02*
D03*
X3470000Y400000D02*
D03*
X3500000Y640000D02*
D03*
X3290000Y750000D02*
D03*
X3070000D02*
D03*
X2680000D02*
D03*
X2740000Y520000D02*
D03*
X1680000Y1300000D02*
D03*
X2320000Y160000D02*
D03*
X1880000Y240000D02*
D03*
X1734592Y48685D02*
D03*
X1330000Y400000D02*
D03*
X1470000Y560000D02*
D03*
X1530000Y480000D02*
D03*
Y640000D02*
D03*
X1680000Y1760000D02*
D03*
X1930000D02*
D03*
X2560000Y1780000D02*
D03*
X1480000Y1595314D02*
D03*
X2220000Y1850000D02*
D03*
X2120000Y1880000D02*
D03*
X2400000Y1700000D02*
D03*
X1600000Y1470000D02*
D03*
X1540000Y890000D02*
D03*
X1820000Y580000D02*
D03*
X2420000Y960000D02*
D03*
X2450000Y430000D02*
D03*
Y880000D02*
D03*
X2480000Y800000D02*
D03*
Y550000D02*
D03*
X3130000Y1280000D02*
D03*
X3070000Y1470000D02*
D03*
X3130000D02*
D03*
X2770000Y1200000D02*
D03*
X2670000Y1040000D02*
D03*
Y960000D02*
D03*
X2730000Y880000D02*
D03*
X2700000Y800000D02*
D03*
X2550000Y1370000D02*
D03*
X2520000Y1400000D02*
D03*
X2540000Y1560000D02*
D03*
X2500000Y1580000D02*
D03*
X2472000Y1530000D02*
D03*
X2190000Y1820000D02*
D03*
X2330000Y1470000D02*
D03*
X1960000Y1480000D02*
D03*
X1920000Y740000D02*
D03*
X2380000Y1400000D02*
D03*
X1960000Y1410000D02*
D03*
X2010000Y700000D02*
D03*
X1980000Y1360000D02*
D03*
X2010000Y1440000D02*
D03*
X1950000Y700000D02*
D03*
X2130000Y860000D02*
D03*
X2070000Y780000D02*
D03*
X1982000Y660000D02*
D03*
X2100000Y820000D02*
D03*
X2040000Y740000D02*
D03*
X2530000Y1200000D02*
D03*
X2430000D02*
D03*
X2280000Y1230000D02*
D03*
X2250000Y1010000D02*
D03*
X2060000Y570000D02*
D03*
X2230000Y630000D02*
D03*
X2040000Y1520000D02*
D03*
X2070000Y1600000D02*
D03*
X2130000Y980000D02*
D03*
Y1280000D02*
D03*
X2100000Y1680000D02*
D03*
X2130000Y1760000D02*
D03*
X3530000Y880000D02*
D03*
X3040000Y370000D02*
D03*
X3430000Y480000D02*
D03*
X3389528Y509528D02*
D03*
Y549528D02*
D03*
X3680000Y80000D02*
D03*
X3000000Y530000D02*
D03*
X3040000Y470000D02*
D03*
X3260000Y330000D02*
D03*
X3520000Y240000D02*
D03*
Y720000D02*
D03*
X3680000Y400000D02*
D03*
X4800000Y48685D02*
D03*
X1600000Y360000D02*
D03*
X1560000Y400000D02*
D03*
X1600000Y680000D02*
D03*
X1590000Y740000D02*
D03*
X1850000Y940000D02*
D03*
X1800000Y980000D02*
D03*
X2940000Y850000D02*
D03*
X2530000Y510000D02*
D03*
X1860000Y1410000D02*
D03*
X1330000Y520000D02*
D03*
X1320000Y160000D02*
D03*
X1710000Y240000D02*
D03*
X2980000Y210000D02*
D03*
X3260000Y670000D02*
D03*
X2740000Y280000D02*
D03*
X4705000Y2285590D02*
D03*
X4775000Y2245590D02*
D03*
X4800000Y125590D02*
D03*
X4720000Y165590D02*
D03*
Y85590D02*
D03*
X3119528Y329528D02*
D03*
X3280000Y880000D02*
D03*
X2720000Y140000D02*
D03*
M02*
