G04*
G04 #@! TF.GenerationSoftware,Altium Limited,Altium Designer,22.11.1 (43)*
G04*
G04 Layer_Color=16711935*
%FSLAX26Y26*%
%MOIN*%
G70*
G04*
G04 #@! TF.SameCoordinates,D133BA17-E144-49A8-921F-F672E643092A*
G04*
G04*
G04 #@! TF.FilePolarity,Negative*
G04*
G01*
G75*
%ADD73O,0.256031X0.078866*%
%ADD74O,0.220598X0.078866*%
%ADD75O,0.078866X0.220598*%
%ADD76C,0.105441*%
%ADD77C,0.072961*%
%ADD78C,0.066189*%
%ADD79R,0.066189X0.066189*%
%ADD80C,0.136346*%
%ADD81C,0.070992*%
%ADD82R,0.102488X0.102488*%
%ADD83C,0.102488*%
%ADD84C,0.094614*%
%ADD85C,0.094614*%
%ADD86C,0.126110*%
%ADD87R,0.078866X0.078866*%
%ADD88C,0.078866*%
G54D73*
X240000Y310000D02*
D03*
G54D74*
Y73779D02*
D03*
G54D75*
X425039Y191890D02*
D03*
G54D76*
X3110000Y1940000D02*
D03*
X3730079D02*
D03*
G54D77*
X3159016Y2219921D02*
D03*
X3259016D02*
D03*
X3581063D02*
D03*
X3681063D02*
D03*
G54D78*
X3245039Y1710079D02*
D03*
X3295039Y1810079D02*
D03*
X3345039Y1710079D02*
D03*
X3395039Y1810079D02*
D03*
X3445039Y1710079D02*
D03*
X3495039Y1810079D02*
D03*
X3545039Y1710079D02*
D03*
G54D79*
X3595039Y1810079D02*
D03*
G54D80*
X3195039Y2060079D02*
D03*
X3645039D02*
D03*
G54D81*
X1370000Y1030000D02*
D03*
X1495984Y833150D02*
D03*
Y1226850D02*
D03*
G54D82*
X1633858Y2200000D02*
D03*
X2500000D02*
D03*
X666850D02*
D03*
G54D83*
X1437008D02*
D03*
X2106299D02*
D03*
X2303150D02*
D03*
X470000D02*
D03*
X273150D02*
D03*
G54D84*
X233779Y1199213D02*
D03*
G54D85*
X706221D02*
D03*
G54D86*
X233779Y1679527D02*
D03*
X706221D02*
D03*
X469999Y1120473D02*
D03*
G54D87*
X3710000Y1140000D02*
D03*
X1200000Y1200000D02*
D03*
G54D88*
X3710000Y1340000D02*
D03*
Y1240000D02*
D03*
X1200000Y800000D02*
D03*
Y900000D02*
D03*
Y1000000D02*
D03*
Y1100000D02*
D03*
M02*
