G04*
G04 #@! TF.GenerationSoftware,Altium Limited,Altium Designer,22.11.1 (43)*
G04*
G04 Layer_Color=8421504*
%FSLAX26Y26*%
%MOIN*%
G70*
G04*
G04 #@! TF.SameCoordinates,67F67C38-30AF-46BA-A3ED-EFA9B6B7045E*
G04*
G04*
G04 #@! TF.FilePolarity,Positive*
G04*
G01*
G75*
%ADD11R,0.062992X0.070866*%
%ADD12R,0.137795X0.062992*%
%ADD13R,0.116535X0.050000*%
%ADD14R,0.062992X0.049213*%
%ADD15R,0.027559X0.039370*%
G04:AMPARAMS|DCode=16|XSize=33.071mil|YSize=10.63mil|CornerRadius=1.329mil|HoleSize=0mil|Usage=FLASHONLY|Rotation=270.000|XOffset=0mil|YOffset=0mil|HoleType=Round|Shape=RoundedRectangle|*
%AMROUNDEDRECTD16*
21,1,0.033071,0.007973,0,0,270.0*
21,1,0.030413,0.010630,0,0,270.0*
1,1,0.002657,-0.003986,-0.015207*
1,1,0.002657,-0.003986,0.015207*
1,1,0.002657,0.003986,0.015207*
1,1,0.002657,0.003986,-0.015207*
%
%ADD16ROUNDEDRECTD16*%
G04:AMPARAMS|DCode=17|XSize=33.071mil|YSize=10.63mil|CornerRadius=1.329mil|HoleSize=0mil|Usage=FLASHONLY|Rotation=180.000|XOffset=0mil|YOffset=0mil|HoleType=Round|Shape=RoundedRectangle|*
%AMROUNDEDRECTD17*
21,1,0.033071,0.007973,0,0,180.0*
21,1,0.030413,0.010630,0,0,180.0*
1,1,0.002657,-0.015207,0.003986*
1,1,0.002657,0.015207,0.003986*
1,1,0.002657,0.015207,-0.003986*
1,1,0.002657,-0.015207,-0.003986*
%
%ADD17ROUNDEDRECTD17*%
G04:AMPARAMS|DCode=19|XSize=85.827mil|YSize=122.835mil|CornerRadius=10.728mil|HoleSize=0mil|Usage=FLASHONLY|Rotation=0.000|XOffset=0mil|YOffset=0mil|HoleType=Round|Shape=RoundedRectangle|*
%AMROUNDEDRECTD19*
21,1,0.085827,0.101378,0,0,0.0*
21,1,0.064370,0.122835,0,0,0.0*
1,1,0.021457,0.032185,-0.050689*
1,1,0.021457,-0.032185,-0.050689*
1,1,0.021457,-0.032185,0.050689*
1,1,0.021457,0.032185,0.050689*
%
%ADD19ROUNDEDRECTD19*%
%ADD20R,0.098425X0.066929*%
%ADD21R,0.025591X0.035433*%
%ADD22R,0.029528X0.027559*%
%ADD23R,0.061024X0.011811*%
%ADD24R,0.011811X0.061024*%
%ADD25R,0.120079X0.118110*%
%ADD26R,0.031496X0.035433*%
%ADD27R,0.043307X0.023622*%
%ADD28R,0.094488X0.059055*%
%ADD29R,0.086614X0.248031*%
%ADD31R,0.016535X0.033071*%
%ADD32R,0.039370X0.062992*%
%ADD33R,0.023228X0.017716*%
G04:AMPARAMS|DCode=34|XSize=165.354mil|YSize=165.354mil|CornerRadius=8.268mil|HoleSize=0mil|Usage=FLASHONLY|Rotation=0.000|XOffset=0mil|YOffset=0mil|HoleType=Round|Shape=RoundedRectangle|*
%AMROUNDEDRECTD34*
21,1,0.165354,0.148819,0,0,0.0*
21,1,0.148819,0.165354,0,0,0.0*
1,1,0.016535,0.074409,-0.074409*
1,1,0.016535,-0.074409,-0.074409*
1,1,0.016535,-0.074409,0.074409*
1,1,0.016535,0.074409,0.074409*
%
%ADD34ROUNDEDRECTD34*%
G04:AMPARAMS|DCode=35|XSize=31.496mil|YSize=11.811mil|CornerRadius=2.953mil|HoleSize=0mil|Usage=FLASHONLY|Rotation=270.000|XOffset=0mil|YOffset=0mil|HoleType=Round|Shape=RoundedRectangle|*
%AMROUNDEDRECTD35*
21,1,0.031496,0.005905,0,0,270.0*
21,1,0.025590,0.011811,0,0,270.0*
1,1,0.005906,-0.002953,-0.012795*
1,1,0.005906,-0.002953,0.012795*
1,1,0.005906,0.002953,0.012795*
1,1,0.005906,0.002953,-0.012795*
%
%ADD35ROUNDEDRECTD35*%
G04:AMPARAMS|DCode=36|XSize=31.496mil|YSize=11.811mil|CornerRadius=2.953mil|HoleSize=0mil|Usage=FLASHONLY|Rotation=180.000|XOffset=0mil|YOffset=0mil|HoleType=Round|Shape=RoundedRectangle|*
%AMROUNDEDRECTD36*
21,1,0.031496,0.005905,0,0,180.0*
21,1,0.025590,0.011811,0,0,180.0*
1,1,0.005906,-0.012795,0.002953*
1,1,0.005906,0.012795,0.002953*
1,1,0.005906,0.012795,-0.002953*
1,1,0.005906,-0.012795,-0.002953*
%
%ADD36ROUNDEDRECTD36*%
%ADD37R,0.023622X0.031496*%
%ADD38R,0.039370X0.027559*%
%ADD39R,0.055118X0.047244*%
%ADD68R,0.077165X0.077165*%
G36*
X631125Y5736931D02*
X568875D01*
Y5776770D01*
X631125D01*
Y5736931D01*
D02*
G37*
G36*
Y3138505D02*
X568875D01*
Y3178345D01*
X631125D01*
Y3138505D01*
D02*
G37*
G36*
Y540080D02*
X568875D01*
Y579920D01*
X631125D01*
Y540080D01*
D02*
G37*
G54D11*
X1055118Y760000D02*
D03*
X944882D02*
D03*
X745118Y380000D02*
D03*
X634882D02*
D03*
X745118Y280000D02*
D03*
X634882D02*
D03*
X1055118Y3358425D02*
D03*
X944882D02*
D03*
X745118Y2978425D02*
D03*
X634882D02*
D03*
X745118Y2878425D02*
D03*
X634882D02*
D03*
X1055118Y5956850D02*
D03*
X944882D02*
D03*
X745118Y5576850D02*
D03*
X634882D02*
D03*
X745118Y5476850D02*
D03*
X634882D02*
D03*
G54D12*
X889764Y560000D02*
D03*
X1110236D02*
D03*
X889764Y3158425D02*
D03*
X1110236D02*
D03*
X889764Y5756850D02*
D03*
X1110236D02*
D03*
G54D13*
X4251732Y1300000D02*
D03*
X4110000Y1200000D02*
D03*
X4251732Y1100000D02*
D03*
Y3898425D02*
D03*
X4110000Y3798425D02*
D03*
X4251732Y3698425D02*
D03*
Y6496850D02*
D03*
X4110000Y6396850D02*
D03*
X4251732Y6296850D02*
D03*
G54D14*
X2892835Y2006693D02*
D03*
X2747166Y2093307D02*
D03*
Y2006693D02*
D03*
X2892835Y2093307D02*
D03*
X2072835Y173307D02*
D03*
X1927166Y86693D02*
D03*
Y173307D02*
D03*
X2072835Y86693D02*
D03*
X2892835Y4605118D02*
D03*
X2747166Y4691732D02*
D03*
Y4605118D02*
D03*
X2892835Y4691732D02*
D03*
X2072835Y2771732D02*
D03*
X1927166Y2685118D02*
D03*
Y2771732D02*
D03*
X2072835Y2685118D02*
D03*
X2892835Y7203543D02*
D03*
X2747166Y7290158D02*
D03*
Y7203543D02*
D03*
X2892835Y7290158D02*
D03*
X2072835Y5370158D02*
D03*
X1927166Y5283543D02*
D03*
Y5370158D02*
D03*
X2072835Y5283543D02*
D03*
G54D15*
X2893425Y2210000D02*
D03*
X2946575D02*
D03*
X2746575D02*
D03*
X2693425D02*
D03*
X2453425Y1700000D02*
D03*
X2506575D02*
D03*
X2453425Y1780000D02*
D03*
X2506575D02*
D03*
X1426575Y1600000D02*
D03*
X1373425D02*
D03*
X3026575Y1280000D02*
D03*
X2973425D02*
D03*
X3173425Y1200000D02*
D03*
X3226575D02*
D03*
X3173425Y1280000D02*
D03*
X3226575D02*
D03*
X3026575Y1440000D02*
D03*
X2973425D02*
D03*
X3026575Y1360000D02*
D03*
X2973425D02*
D03*
X2573425Y560000D02*
D03*
X2626575D02*
D03*
X2426575Y240000D02*
D03*
X2373425D02*
D03*
Y160000D02*
D03*
X2426575D02*
D03*
X2173425Y80000D02*
D03*
X2226575D02*
D03*
X1773425D02*
D03*
X1826575D02*
D03*
X1773425Y240000D02*
D03*
X1826575D02*
D03*
X2626575Y1040000D02*
D03*
X2573425D02*
D03*
X1826575Y1360000D02*
D03*
X1773425D02*
D03*
X1573425Y80000D02*
D03*
X1626575D02*
D03*
X1826575Y1280000D02*
D03*
X1773425D02*
D03*
X3573425Y400000D02*
D03*
X3626575D02*
D03*
Y240000D02*
D03*
X3573425D02*
D03*
Y720000D02*
D03*
X3626575D02*
D03*
X3173425Y880000D02*
D03*
X3226575D02*
D03*
X3573425Y80000D02*
D03*
X3626575D02*
D03*
Y160000D02*
D03*
X3573425D02*
D03*
Y880000D02*
D03*
X3626575D02*
D03*
X3573425Y800000D02*
D03*
X3626575D02*
D03*
X3573425Y640000D02*
D03*
X3626575D02*
D03*
X2826575Y160000D02*
D03*
X2773425D02*
D03*
Y320000D02*
D03*
X2826575D02*
D03*
Y240000D02*
D03*
X2773425D02*
D03*
Y560000D02*
D03*
X2826575D02*
D03*
Y480000D02*
D03*
X2773425D02*
D03*
X3173425Y720000D02*
D03*
X3226575D02*
D03*
X3026575Y800000D02*
D03*
X2973425D02*
D03*
X3026575Y720000D02*
D03*
X2973425D02*
D03*
X1426575Y560000D02*
D03*
X1373425D02*
D03*
X1626575Y240000D02*
D03*
X1573425D02*
D03*
X2893425Y4808425D02*
D03*
X2946575D02*
D03*
X2746575D02*
D03*
X2693425D02*
D03*
X2453425Y4298425D02*
D03*
X2506575D02*
D03*
X2453425Y4378425D02*
D03*
X2506575D02*
D03*
X1426575Y4198425D02*
D03*
X1373425D02*
D03*
X3026575Y3878425D02*
D03*
X2973425D02*
D03*
X3173425Y3798425D02*
D03*
X3226575D02*
D03*
X3173425Y3878425D02*
D03*
X3226575D02*
D03*
X3026575Y4038425D02*
D03*
X2973425D02*
D03*
X3026575Y3958425D02*
D03*
X2973425D02*
D03*
X2573425Y3158425D02*
D03*
X2626575D02*
D03*
X2426575Y2838425D02*
D03*
X2373425D02*
D03*
Y2758425D02*
D03*
X2426575D02*
D03*
X2173425Y2678425D02*
D03*
X2226575D02*
D03*
X1773425D02*
D03*
X1826575D02*
D03*
X1773425Y2838425D02*
D03*
X1826575D02*
D03*
X2626575Y3638425D02*
D03*
X2573425D02*
D03*
X1826575Y3958425D02*
D03*
X1773425D02*
D03*
X1573425Y2678425D02*
D03*
X1626575D02*
D03*
X1826575Y3878425D02*
D03*
X1773425D02*
D03*
X3573425Y2998425D02*
D03*
X3626575D02*
D03*
Y2838425D02*
D03*
X3573425D02*
D03*
Y3318425D02*
D03*
X3626575D02*
D03*
X3173425Y3478425D02*
D03*
X3226575D02*
D03*
X3573425Y2678425D02*
D03*
X3626575D02*
D03*
Y2758425D02*
D03*
X3573425D02*
D03*
Y3478425D02*
D03*
X3626575D02*
D03*
X3573425Y3398425D02*
D03*
X3626575D02*
D03*
X3573425Y3238425D02*
D03*
X3626575D02*
D03*
X2826575Y2758425D02*
D03*
X2773425D02*
D03*
Y2918425D02*
D03*
X2826575D02*
D03*
Y2838425D02*
D03*
X2773425D02*
D03*
Y3158425D02*
D03*
X2826575D02*
D03*
Y3078425D02*
D03*
X2773425D02*
D03*
X3173425Y3318425D02*
D03*
X3226575D02*
D03*
X3026575Y3398425D02*
D03*
X2973425D02*
D03*
X3026575Y3318425D02*
D03*
X2973425D02*
D03*
X1426575Y3158425D02*
D03*
X1373425D02*
D03*
X1626575Y2838425D02*
D03*
X1573425D02*
D03*
X2893425Y7406850D02*
D03*
X2946575D02*
D03*
X2746575D02*
D03*
X2693425D02*
D03*
X2453425Y6896850D02*
D03*
X2506575D02*
D03*
X2453425Y6976850D02*
D03*
X2506575D02*
D03*
X1426575Y6796850D02*
D03*
X1373425D02*
D03*
X3026575Y6476850D02*
D03*
X2973425D02*
D03*
X3173425Y6396850D02*
D03*
X3226575D02*
D03*
X3173425Y6476850D02*
D03*
X3226575D02*
D03*
X3026575Y6636850D02*
D03*
X2973425D02*
D03*
X3026575Y6556850D02*
D03*
X2973425D02*
D03*
X2573425Y5756850D02*
D03*
X2626575D02*
D03*
X2426575Y5436850D02*
D03*
X2373425D02*
D03*
Y5356850D02*
D03*
X2426575D02*
D03*
X2173425Y5276850D02*
D03*
X2226575D02*
D03*
X1773425D02*
D03*
X1826575D02*
D03*
X1773425Y5436850D02*
D03*
X1826575D02*
D03*
X2626575Y6236850D02*
D03*
X2573425D02*
D03*
X1826575Y6556850D02*
D03*
X1773425D02*
D03*
X1573425Y5276850D02*
D03*
X1626575D02*
D03*
X1826575Y6476850D02*
D03*
X1773425D02*
D03*
X3573425Y5596850D02*
D03*
X3626575D02*
D03*
Y5436850D02*
D03*
X3573425D02*
D03*
Y5916850D02*
D03*
X3626575D02*
D03*
X3173425Y6076850D02*
D03*
X3226575D02*
D03*
X3573425Y5276850D02*
D03*
X3626575D02*
D03*
Y5356850D02*
D03*
X3573425D02*
D03*
Y6076850D02*
D03*
X3626575D02*
D03*
X3573425Y5996850D02*
D03*
X3626575D02*
D03*
X3573425Y5836850D02*
D03*
X3626575D02*
D03*
X2826575Y5356850D02*
D03*
X2773425D02*
D03*
Y5516850D02*
D03*
X2826575D02*
D03*
Y5436850D02*
D03*
X2773425D02*
D03*
Y5756850D02*
D03*
X2826575D02*
D03*
Y5676850D02*
D03*
X2773425D02*
D03*
X3173425Y5916850D02*
D03*
X3226575D02*
D03*
X3026575Y5996850D02*
D03*
X2973425D02*
D03*
X3026575Y5916850D02*
D03*
X2973425D02*
D03*
X1426575Y5756850D02*
D03*
X1373425D02*
D03*
X1626575Y5436850D02*
D03*
X1573425D02*
D03*
G54D16*
X2768898Y1695866D02*
D03*
X2749213D02*
D03*
X2729528D02*
D03*
X2709843D02*
D03*
X2690158D02*
D03*
X2670472D02*
D03*
X2650787D02*
D03*
X2631102D02*
D03*
Y1504134D02*
D03*
X2650787D02*
D03*
X2670472D02*
D03*
X2690158D02*
D03*
X2709843D02*
D03*
X2729528D02*
D03*
X2749213D02*
D03*
X2768898D02*
D03*
Y4294291D02*
D03*
X2749213D02*
D03*
X2729528D02*
D03*
X2709843D02*
D03*
X2690158D02*
D03*
X2670472D02*
D03*
X2650787D02*
D03*
X2631102D02*
D03*
Y4102559D02*
D03*
X2650787D02*
D03*
X2670472D02*
D03*
X2690158D02*
D03*
X2709843D02*
D03*
X2729528D02*
D03*
X2749213D02*
D03*
X2768898D02*
D03*
Y6892717D02*
D03*
X2749213D02*
D03*
X2729528D02*
D03*
X2709843D02*
D03*
X2690158D02*
D03*
X2670472D02*
D03*
X2650787D02*
D03*
X2631102D02*
D03*
Y6700984D02*
D03*
X2650787D02*
D03*
X2670472D02*
D03*
X2690158D02*
D03*
X2709843D02*
D03*
X2729528D02*
D03*
X2749213D02*
D03*
X2768898D02*
D03*
G54D17*
X2795866Y1531102D02*
D03*
Y1550787D02*
D03*
Y1570472D02*
D03*
Y1590158D02*
D03*
Y1609842D02*
D03*
Y1629528D02*
D03*
Y1649213D02*
D03*
Y1668898D02*
D03*
X2604134D02*
D03*
Y1649213D02*
D03*
Y1629528D02*
D03*
Y1609842D02*
D03*
Y1590158D02*
D03*
Y1570472D02*
D03*
Y1550787D02*
D03*
Y1531102D02*
D03*
X2795866Y4129528D02*
D03*
Y4149213D02*
D03*
Y4168898D02*
D03*
Y4188583D02*
D03*
Y4208268D02*
D03*
Y4227953D02*
D03*
Y4247638D02*
D03*
Y4267323D02*
D03*
X2604134D02*
D03*
Y4247638D02*
D03*
Y4227953D02*
D03*
Y4208268D02*
D03*
Y4188583D02*
D03*
Y4168898D02*
D03*
Y4149213D02*
D03*
Y4129528D02*
D03*
X2795866Y6727953D02*
D03*
Y6747638D02*
D03*
Y6767323D02*
D03*
Y6787008D02*
D03*
Y6806693D02*
D03*
Y6826378D02*
D03*
Y6846063D02*
D03*
Y6865748D02*
D03*
X2604134D02*
D03*
Y6846063D02*
D03*
Y6826378D02*
D03*
Y6806693D02*
D03*
Y6787008D02*
D03*
Y6767323D02*
D03*
Y6747638D02*
D03*
Y6727953D02*
D03*
G54D19*
X357205Y840000D02*
D03*
X82795D02*
D03*
X357205Y3438425D02*
D03*
X82795D02*
D03*
X357205Y6036850D02*
D03*
X82795D02*
D03*
G54D20*
X1078740Y320000D02*
D03*
X921260D02*
D03*
X611260Y160000D02*
D03*
X768740D02*
D03*
X1078740Y2918425D02*
D03*
X921260D02*
D03*
X611260Y2758425D02*
D03*
X768740D02*
D03*
X1078740Y5516850D02*
D03*
X921260D02*
D03*
X611260Y5356850D02*
D03*
X768740D02*
D03*
G54D21*
X2171457Y1920000D02*
D03*
X2228543D02*
D03*
X1828543Y1520000D02*
D03*
X1771457D02*
D03*
X1371457Y1680000D02*
D03*
X1428543D02*
D03*
Y1520000D02*
D03*
X1371457D02*
D03*
X1771457Y1600000D02*
D03*
X1828543D02*
D03*
X2971457Y1200000D02*
D03*
X3028543D02*
D03*
X3228543Y1440000D02*
D03*
X3171457D02*
D03*
X2571457Y800000D02*
D03*
X2628543D02*
D03*
X2571457Y880000D02*
D03*
X2628543D02*
D03*
X2571457Y960000D02*
D03*
X2628543D02*
D03*
X1428543Y480000D02*
D03*
X1371457D02*
D03*
X2170000Y1360000D02*
D03*
X2227087D02*
D03*
X2171457Y1280000D02*
D03*
X2228543D02*
D03*
X2171457Y1600000D02*
D03*
X2228543D02*
D03*
X2170000Y1440000D02*
D03*
X2227087D02*
D03*
X2171457Y1520000D02*
D03*
X2228543D02*
D03*
X2171457Y1760000D02*
D03*
X2228543D02*
D03*
X2171457Y1680000D02*
D03*
X2228543D02*
D03*
X1571457Y1920000D02*
D03*
X1628543D02*
D03*
X1371457Y400000D02*
D03*
X1428543D02*
D03*
X1371457Y320000D02*
D03*
X1428543D02*
D03*
X1171457Y1760000D02*
D03*
X1228543D02*
D03*
Y1840000D02*
D03*
X1171457D02*
D03*
X971457Y960000D02*
D03*
X1028543D02*
D03*
Y1120000D02*
D03*
X971457D02*
D03*
Y880000D02*
D03*
X1028543D02*
D03*
X971457Y1200000D02*
D03*
X1028543D02*
D03*
X2828543Y80000D02*
D03*
X2771457D02*
D03*
X3571457Y1040000D02*
D03*
X3628543D02*
D03*
X3571457Y960000D02*
D03*
X3628543D02*
D03*
X3571457Y560000D02*
D03*
X3628543D02*
D03*
X3228543Y800000D02*
D03*
X3171457D02*
D03*
X2171457Y4518425D02*
D03*
X2228543D02*
D03*
X1828543Y4118425D02*
D03*
X1771457D02*
D03*
X1371457Y4278425D02*
D03*
X1428543D02*
D03*
Y4118425D02*
D03*
X1371457D02*
D03*
X1771457Y4198425D02*
D03*
X1828543D02*
D03*
X2971457Y3798425D02*
D03*
X3028543D02*
D03*
X3228543Y4038425D02*
D03*
X3171457D02*
D03*
X2571457Y3398425D02*
D03*
X2628543D02*
D03*
X2571457Y3478425D02*
D03*
X2628543D02*
D03*
X2571457Y3558425D02*
D03*
X2628543D02*
D03*
X1428543Y3078425D02*
D03*
X1371457D02*
D03*
X2170000Y3958425D02*
D03*
X2227087D02*
D03*
X2171457Y3878425D02*
D03*
X2228543D02*
D03*
X2171457Y4198425D02*
D03*
X2228543D02*
D03*
X2170000Y4038425D02*
D03*
X2227087D02*
D03*
X2171457Y4118425D02*
D03*
X2228543D02*
D03*
X2171457Y4358425D02*
D03*
X2228543D02*
D03*
X2171457Y4278425D02*
D03*
X2228543D02*
D03*
X1571457Y4518425D02*
D03*
X1628543D02*
D03*
X1371457Y2998425D02*
D03*
X1428543D02*
D03*
X1371457Y2918425D02*
D03*
X1428543D02*
D03*
X1171457Y4358425D02*
D03*
X1228543D02*
D03*
Y4438425D02*
D03*
X1171457D02*
D03*
X971457Y3558425D02*
D03*
X1028543D02*
D03*
Y3718425D02*
D03*
X971457D02*
D03*
Y3478425D02*
D03*
X1028543D02*
D03*
X971457Y3798425D02*
D03*
X1028543D02*
D03*
X2828543Y2678425D02*
D03*
X2771457D02*
D03*
X3571457Y3638425D02*
D03*
X3628543D02*
D03*
X3571457Y3558425D02*
D03*
X3628543D02*
D03*
X3571457Y3158425D02*
D03*
X3628543D02*
D03*
X3228543Y3398425D02*
D03*
X3171457D02*
D03*
X2171457Y7116850D02*
D03*
X2228543D02*
D03*
X1828543Y6716850D02*
D03*
X1771457D02*
D03*
X1371457Y6876850D02*
D03*
X1428543D02*
D03*
Y6716850D02*
D03*
X1371457D02*
D03*
X1771457Y6796850D02*
D03*
X1828543D02*
D03*
X2971457Y6396850D02*
D03*
X3028543D02*
D03*
X3228543Y6636850D02*
D03*
X3171457D02*
D03*
X2571457Y5996850D02*
D03*
X2628543D02*
D03*
X2571457Y6076850D02*
D03*
X2628543D02*
D03*
X2571457Y6156850D02*
D03*
X2628543D02*
D03*
X1428543Y5676850D02*
D03*
X1371457D02*
D03*
X2170000Y6556850D02*
D03*
X2227087D02*
D03*
X2171457Y6476850D02*
D03*
X2228543D02*
D03*
X2171457Y6796850D02*
D03*
X2228543D02*
D03*
X2170000Y6636850D02*
D03*
X2227087D02*
D03*
X2171457Y6716850D02*
D03*
X2228543D02*
D03*
X2171457Y6956850D02*
D03*
X2228543D02*
D03*
X2171457Y6876850D02*
D03*
X2228543D02*
D03*
X1571457Y7116850D02*
D03*
X1628543D02*
D03*
X1371457Y5596850D02*
D03*
X1428543D02*
D03*
X1371457Y5516850D02*
D03*
X1428543D02*
D03*
X1171457Y6956850D02*
D03*
X1228543D02*
D03*
Y7036850D02*
D03*
X1171457D02*
D03*
X971457Y6156850D02*
D03*
X1028543D02*
D03*
Y6316850D02*
D03*
X971457D02*
D03*
Y6076850D02*
D03*
X1028543D02*
D03*
X971457Y6396850D02*
D03*
X1028543D02*
D03*
X2828543Y5276850D02*
D03*
X2771457D02*
D03*
X3571457Y6236850D02*
D03*
X3628543D02*
D03*
X3571457Y6156850D02*
D03*
X3628543D02*
D03*
X3571457Y5756850D02*
D03*
X3628543D02*
D03*
X3228543Y5996850D02*
D03*
X3171457D02*
D03*
G54D22*
X3228543Y1360000D02*
D03*
X3171457D02*
D03*
X2828543Y640000D02*
D03*
X2771457D02*
D03*
Y400000D02*
D03*
X2828543D02*
D03*
X3228543Y3958425D02*
D03*
X3171457D02*
D03*
X2828543Y3238425D02*
D03*
X2771457D02*
D03*
Y2998425D02*
D03*
X2828543D02*
D03*
X3228543Y6556850D02*
D03*
X3171457D02*
D03*
X2828543Y5836850D02*
D03*
X2771457D02*
D03*
Y5596850D02*
D03*
X2828543D02*
D03*
G54D23*
X1694882Y563779D02*
D03*
Y583465D02*
D03*
Y603150D02*
D03*
Y622835D02*
D03*
Y642520D02*
D03*
Y662205D02*
D03*
Y681890D02*
D03*
Y701575D02*
D03*
Y721260D02*
D03*
Y740945D02*
D03*
Y760630D02*
D03*
Y780315D02*
D03*
Y800000D02*
D03*
Y819685D02*
D03*
Y839370D02*
D03*
Y859055D02*
D03*
Y878740D02*
D03*
Y898425D02*
D03*
Y918110D02*
D03*
Y937795D02*
D03*
Y957480D02*
D03*
Y977165D02*
D03*
Y996850D02*
D03*
Y1016535D02*
D03*
Y1036220D02*
D03*
X2305118D02*
D03*
Y1016535D02*
D03*
Y996850D02*
D03*
Y977165D02*
D03*
Y957480D02*
D03*
Y937795D02*
D03*
Y918110D02*
D03*
Y898425D02*
D03*
Y878740D02*
D03*
Y859055D02*
D03*
Y839370D02*
D03*
Y819685D02*
D03*
Y800000D02*
D03*
Y780315D02*
D03*
Y760630D02*
D03*
Y740945D02*
D03*
Y721260D02*
D03*
Y701575D02*
D03*
Y681890D02*
D03*
Y662205D02*
D03*
Y642520D02*
D03*
Y622835D02*
D03*
Y603150D02*
D03*
Y583465D02*
D03*
Y563779D02*
D03*
X1694882Y3162205D02*
D03*
Y3181890D02*
D03*
Y3201575D02*
D03*
Y3221260D02*
D03*
Y3240945D02*
D03*
Y3260630D02*
D03*
Y3280315D02*
D03*
Y3300000D02*
D03*
Y3319685D02*
D03*
Y3339370D02*
D03*
Y3359055D02*
D03*
Y3378740D02*
D03*
Y3398425D02*
D03*
Y3418110D02*
D03*
Y3437795D02*
D03*
Y3457480D02*
D03*
Y3477165D02*
D03*
Y3496850D02*
D03*
Y3516535D02*
D03*
Y3536220D02*
D03*
Y3555905D02*
D03*
Y3575591D02*
D03*
Y3595276D02*
D03*
Y3614961D02*
D03*
Y3634646D02*
D03*
X2305118D02*
D03*
Y3614961D02*
D03*
Y3595276D02*
D03*
Y3575591D02*
D03*
Y3555905D02*
D03*
Y3536220D02*
D03*
Y3516535D02*
D03*
Y3496850D02*
D03*
Y3477165D02*
D03*
Y3457480D02*
D03*
Y3437795D02*
D03*
Y3418110D02*
D03*
Y3398425D02*
D03*
Y3378740D02*
D03*
Y3359055D02*
D03*
Y3339370D02*
D03*
Y3319685D02*
D03*
Y3300000D02*
D03*
Y3280315D02*
D03*
Y3260630D02*
D03*
Y3240945D02*
D03*
Y3221260D02*
D03*
Y3201575D02*
D03*
Y3181890D02*
D03*
Y3162205D02*
D03*
X1694882Y5760630D02*
D03*
Y5780315D02*
D03*
Y5800000D02*
D03*
Y5819685D02*
D03*
Y5839370D02*
D03*
Y5859055D02*
D03*
Y5878740D02*
D03*
Y5898425D02*
D03*
Y5918110D02*
D03*
Y5937795D02*
D03*
Y5957480D02*
D03*
Y5977165D02*
D03*
Y5996850D02*
D03*
Y6016535D02*
D03*
Y6036221D02*
D03*
Y6055905D02*
D03*
Y6075591D02*
D03*
Y6095276D02*
D03*
Y6114961D02*
D03*
Y6134646D02*
D03*
Y6154331D02*
D03*
Y6174016D02*
D03*
Y6193701D02*
D03*
Y6213386D02*
D03*
Y6233071D02*
D03*
X2305118D02*
D03*
Y6213386D02*
D03*
Y6193701D02*
D03*
Y6174016D02*
D03*
Y6154331D02*
D03*
Y6134646D02*
D03*
Y6114961D02*
D03*
Y6095276D02*
D03*
Y6075591D02*
D03*
Y6055905D02*
D03*
Y6036221D02*
D03*
Y6016535D02*
D03*
Y5996850D02*
D03*
Y5977165D02*
D03*
Y5957480D02*
D03*
Y5937795D02*
D03*
Y5918110D02*
D03*
Y5898425D02*
D03*
Y5878740D02*
D03*
Y5859055D02*
D03*
Y5839370D02*
D03*
Y5819685D02*
D03*
Y5800000D02*
D03*
Y5780315D02*
D03*
Y5760630D02*
D03*
G54D24*
X1763780Y1105118D02*
D03*
X1783465D02*
D03*
X1803150D02*
D03*
X1822835D02*
D03*
X1842520D02*
D03*
X1862205D02*
D03*
X1881890D02*
D03*
X1901575D02*
D03*
X1921260D02*
D03*
X1940945D02*
D03*
X1960630D02*
D03*
X1980315D02*
D03*
X2000000D02*
D03*
X2019685D02*
D03*
X2039370D02*
D03*
X2059055D02*
D03*
X2078740D02*
D03*
X2098425D02*
D03*
X2118110D02*
D03*
X2137795D02*
D03*
X2157480D02*
D03*
X2177166D02*
D03*
X2196851D02*
D03*
X2216535D02*
D03*
X2236221D02*
D03*
Y494882D02*
D03*
X2216535D02*
D03*
X2196851D02*
D03*
X2177166D02*
D03*
X2157480D02*
D03*
X2137795D02*
D03*
X2118110D02*
D03*
X2098425D02*
D03*
X2078740D02*
D03*
X2059055D02*
D03*
X2039370D02*
D03*
X2019685D02*
D03*
X2000000D02*
D03*
X1980315D02*
D03*
X1960630D02*
D03*
X1940945D02*
D03*
X1921260D02*
D03*
X1901575D02*
D03*
X1881890D02*
D03*
X1862205D02*
D03*
X1842520D02*
D03*
X1822835D02*
D03*
X1803150D02*
D03*
X1783465D02*
D03*
X1763780D02*
D03*
Y3703543D02*
D03*
X1783465D02*
D03*
X1803150D02*
D03*
X1822835D02*
D03*
X1842520D02*
D03*
X1862205D02*
D03*
X1881890D02*
D03*
X1901575D02*
D03*
X1921260D02*
D03*
X1940945D02*
D03*
X1960630D02*
D03*
X1980315D02*
D03*
X2000000D02*
D03*
X2019685D02*
D03*
X2039370D02*
D03*
X2059055D02*
D03*
X2078740D02*
D03*
X2098425D02*
D03*
X2118110D02*
D03*
X2137795D02*
D03*
X2157480D02*
D03*
X2177166D02*
D03*
X2196851D02*
D03*
X2216535D02*
D03*
X2236221D02*
D03*
Y3093307D02*
D03*
X2216535D02*
D03*
X2196851D02*
D03*
X2177166D02*
D03*
X2157480D02*
D03*
X2137795D02*
D03*
X2118110D02*
D03*
X2098425D02*
D03*
X2078740D02*
D03*
X2059055D02*
D03*
X2039370D02*
D03*
X2019685D02*
D03*
X2000000D02*
D03*
X1980315D02*
D03*
X1960630D02*
D03*
X1940945D02*
D03*
X1921260D02*
D03*
X1901575D02*
D03*
X1881890D02*
D03*
X1862205D02*
D03*
X1842520D02*
D03*
X1822835D02*
D03*
X1803150D02*
D03*
X1783465D02*
D03*
X1763780D02*
D03*
Y6301968D02*
D03*
X1783465D02*
D03*
X1803150D02*
D03*
X1822835D02*
D03*
X1842520D02*
D03*
X1862205D02*
D03*
X1881890D02*
D03*
X1901575D02*
D03*
X1921260D02*
D03*
X1940945D02*
D03*
X1960630D02*
D03*
X1980315D02*
D03*
X2000000D02*
D03*
X2019685D02*
D03*
X2039370D02*
D03*
X2059055D02*
D03*
X2078740D02*
D03*
X2098425D02*
D03*
X2118110D02*
D03*
X2137795D02*
D03*
X2157480D02*
D03*
X2177166D02*
D03*
X2196851D02*
D03*
X2216535D02*
D03*
X2236221D02*
D03*
Y5691732D02*
D03*
X2216535D02*
D03*
X2196851D02*
D03*
X2177166D02*
D03*
X2157480D02*
D03*
X2137795D02*
D03*
X2118110D02*
D03*
X2098425D02*
D03*
X2078740D02*
D03*
X2059055D02*
D03*
X2039370D02*
D03*
X2019685D02*
D03*
X2000000D02*
D03*
X1980315D02*
D03*
X1960630D02*
D03*
X1940945D02*
D03*
X1921260D02*
D03*
X1901575D02*
D03*
X1881890D02*
D03*
X1862205D02*
D03*
X1842520D02*
D03*
X1822835D02*
D03*
X1803150D02*
D03*
X1783465D02*
D03*
X1763780D02*
D03*
G54D25*
X883662Y2140000D02*
D03*
X1216339D02*
D03*
X883662Y4738425D02*
D03*
X1216339D02*
D03*
X883662Y7336850D02*
D03*
X1216339D02*
D03*
G54D26*
X1037402Y1720630D02*
D03*
X1000000Y1799370D02*
D03*
X962598Y1720630D02*
D03*
X1037402Y1320630D02*
D03*
X1000000Y1399370D02*
D03*
X962598Y1320630D02*
D03*
X1037402Y4319055D02*
D03*
X1000000Y4397795D02*
D03*
X962598Y4319055D02*
D03*
X1037402Y3919055D02*
D03*
X1000000Y3997795D02*
D03*
X962598Y3919055D02*
D03*
X1037402Y6917480D02*
D03*
X1000000Y6996221D02*
D03*
X962598Y6917480D02*
D03*
X1037402Y6517480D02*
D03*
X1000000Y6596221D02*
D03*
X962598Y6517480D02*
D03*
G54D27*
X1629252Y177716D02*
D03*
Y142284D02*
D03*
Y2776142D02*
D03*
Y2740709D02*
D03*
Y5374567D02*
D03*
Y5339134D02*
D03*
G54D28*
X1410748Y160000D02*
D03*
Y2758425D02*
D03*
Y5356850D02*
D03*
G54D29*
X519291Y840000D02*
D03*
X680709D02*
D03*
X519291Y3438425D02*
D03*
X680709D02*
D03*
X519291Y6036850D02*
D03*
X680709D02*
D03*
G54D31*
X637402Y503504D02*
D03*
X600000D02*
D03*
X562598D02*
D03*
Y616496D02*
D03*
X600000D02*
D03*
X637402D02*
D03*
Y3101929D02*
D03*
X600000D02*
D03*
X562598D02*
D03*
Y3214921D02*
D03*
X600000D02*
D03*
X637402D02*
D03*
Y5700354D02*
D03*
X600000D02*
D03*
X562598D02*
D03*
Y5813346D02*
D03*
X600000D02*
D03*
X637402D02*
D03*
G54D32*
X1059055Y160000D02*
D03*
X940945D02*
D03*
X1059055Y2758425D02*
D03*
X940945D02*
D03*
X1059055Y5356850D02*
D03*
X940945D02*
D03*
G54D33*
X1044291Y1520000D02*
D03*
X955709D02*
D03*
X1044291Y4118425D02*
D03*
X955709D02*
D03*
X1044291Y6716850D02*
D03*
X955709D02*
D03*
G54D34*
X3209528Y489528D02*
D03*
Y3087953D02*
D03*
Y5686378D02*
D03*
G54D35*
X3120945Y605669D02*
D03*
X3140630D02*
D03*
X3160315D02*
D03*
X3180000D02*
D03*
X3199685D02*
D03*
X3219370D02*
D03*
X3239055D02*
D03*
X3258740D02*
D03*
X3278425D02*
D03*
X3298110D02*
D03*
Y373386D02*
D03*
X3278425D02*
D03*
X3258740D02*
D03*
X3239055D02*
D03*
X3219370D02*
D03*
X3199685D02*
D03*
X3180000D02*
D03*
X3160315D02*
D03*
X3140630D02*
D03*
X3120945D02*
D03*
Y3204095D02*
D03*
X3140630D02*
D03*
X3160315D02*
D03*
X3180000D02*
D03*
X3199685D02*
D03*
X3219370D02*
D03*
X3239055D02*
D03*
X3258740D02*
D03*
X3278425D02*
D03*
X3298110D02*
D03*
Y2971811D02*
D03*
X3278425D02*
D03*
X3258740D02*
D03*
X3239055D02*
D03*
X3219370D02*
D03*
X3199685D02*
D03*
X3180000D02*
D03*
X3160315D02*
D03*
X3140630D02*
D03*
X3120945D02*
D03*
Y5802520D02*
D03*
X3140630D02*
D03*
X3160315D02*
D03*
X3180000D02*
D03*
X3199685D02*
D03*
X3219370D02*
D03*
X3239055D02*
D03*
X3258740D02*
D03*
X3278425D02*
D03*
X3298110D02*
D03*
Y5570236D02*
D03*
X3278425D02*
D03*
X3258740D02*
D03*
X3239055D02*
D03*
X3219370D02*
D03*
X3199685D02*
D03*
X3180000D02*
D03*
X3160315D02*
D03*
X3140630D02*
D03*
X3120945D02*
D03*
G54D36*
X3325669Y578110D02*
D03*
Y558425D02*
D03*
Y538740D02*
D03*
Y519055D02*
D03*
Y499370D02*
D03*
Y479685D02*
D03*
Y460000D02*
D03*
Y440315D02*
D03*
Y420630D02*
D03*
Y400945D02*
D03*
X3093386D02*
D03*
Y420630D02*
D03*
Y440315D02*
D03*
Y460000D02*
D03*
Y479685D02*
D03*
Y499370D02*
D03*
Y519055D02*
D03*
Y538740D02*
D03*
Y558425D02*
D03*
Y578110D02*
D03*
X3325669Y3176535D02*
D03*
Y3156850D02*
D03*
Y3137165D02*
D03*
Y3117480D02*
D03*
Y3097795D02*
D03*
Y3078110D02*
D03*
Y3058425D02*
D03*
Y3038740D02*
D03*
Y3019055D02*
D03*
Y2999370D02*
D03*
X3093386D02*
D03*
Y3019055D02*
D03*
Y3038740D02*
D03*
Y3058425D02*
D03*
Y3078110D02*
D03*
Y3097795D02*
D03*
Y3117480D02*
D03*
Y3137165D02*
D03*
Y3156850D02*
D03*
Y3176535D02*
D03*
X3325669Y5774961D02*
D03*
Y5755276D02*
D03*
Y5735591D02*
D03*
Y5715906D02*
D03*
Y5696221D02*
D03*
Y5676535D02*
D03*
Y5656850D02*
D03*
Y5637165D02*
D03*
Y5617480D02*
D03*
Y5597795D02*
D03*
X3093386D02*
D03*
Y5617480D02*
D03*
Y5637165D02*
D03*
Y5656850D02*
D03*
Y5676535D02*
D03*
Y5696221D02*
D03*
Y5715906D02*
D03*
Y5735591D02*
D03*
Y5755276D02*
D03*
Y5774961D02*
D03*
G54D37*
X3572441Y320000D02*
D03*
X3627559D02*
D03*
X3572441Y480000D02*
D03*
X3627559D02*
D03*
X3572441Y2918425D02*
D03*
X3627559D02*
D03*
X3572441Y3078425D02*
D03*
X3627559D02*
D03*
X3572441Y5516850D02*
D03*
X3627559D02*
D03*
X3572441Y5676850D02*
D03*
X3627559D02*
D03*
G54D38*
X3340000Y186575D02*
D03*
Y133425D02*
D03*
X3040000D02*
D03*
Y186575D02*
D03*
X3340000Y2785000D02*
D03*
Y2731850D02*
D03*
X3040000D02*
D03*
Y2785000D02*
D03*
X3340000Y5383425D02*
D03*
Y5330276D02*
D03*
X3040000D02*
D03*
Y5383425D02*
D03*
G54D39*
X3156693Y193465D02*
D03*
X3243307D02*
D03*
X3156693Y126535D02*
D03*
X3243307D02*
D03*
X3156693Y2791890D02*
D03*
X3243307D02*
D03*
X3156693Y2724961D02*
D03*
X3243307D02*
D03*
X3156693Y5390315D02*
D03*
X3243307D02*
D03*
X3156693Y5323386D02*
D03*
X3243307D02*
D03*
G54D68*
X2700000Y1600000D02*
D03*
Y4198425D02*
D03*
Y6796850D02*
D03*
M02*
