G04*
G04 #@! TF.GenerationSoftware,Altium Limited,Altium Designer,22.11.1 (43)*
G04*
G04 Layer_Color=65535*
%FSLAX44Y44*%
%MOMM*%
G71*
G04*
G04 #@! TF.SameCoordinates,B420DA26-4F65-45AB-BA35-ACA1F2937355*
G04*
G04*
G04 #@! TF.FilePolarity,Positive*
G04*
G01*
G75*
%ADD10C,0.2000*%
%ADD11C,0.1270*%
%ADD12C,0.2540*%
%ADD13C,0.1016*%
%ADD14R,0.5080X1.0160*%
D10*
X924750Y388900D02*
G03*
X924750Y388900I-1000J0D01*
G01*
X1032240Y398750D02*
G03*
X1032240Y398750I-1000J0D01*
G01*
X281550Y376580D02*
G03*
X281550Y376580I-1000J0D01*
G01*
X414140Y324120D02*
G03*
X414140Y324120I-1000J0D01*
G01*
X644700Y136700D02*
X777700D01*
Y269700D01*
X644700D02*
X777700D01*
X644700Y136700D02*
Y269700D01*
D11*
X645200Y119200D02*
G03*
X645200Y119200I-1000J0D01*
G01*
X645614D02*
G03*
X645614Y119200I-1414J0D01*
G01*
X657614Y148200D02*
G03*
X657614Y148200I-1414J0D01*
G01*
X656200Y147200D02*
G03*
X656200Y147200I-1000J0D01*
G01*
X656614D02*
G03*
X656614Y147200I-1414J0D01*
G01*
X657436D02*
G03*
X657436Y147200I-2236J0D01*
G01*
X658028D02*
G03*
X658028Y147200I-2828J0D01*
G01*
X761120Y523800D02*
G03*
X761120Y523800I-5000J0D01*
G01*
X811120D02*
G03*
X811120Y523800I-5000J0D01*
G01*
X711120D02*
G03*
X711120Y523800I-5000J0D01*
G01*
X649760D02*
G03*
X649760Y523800I-5000J0D01*
G01*
X599760D02*
G03*
X599760Y523800I-5000J0D01*
G01*
X75635Y511340D02*
G03*
X75635Y511340I-5000J0D01*
G01*
Y561340D02*
G03*
X75635Y561340I-5000J0D01*
G01*
Y461340D02*
G03*
X75635Y461340I-5000J0D01*
G01*
Y385680D02*
G03*
X75635Y385680I-5000J0D01*
G01*
Y335680D02*
G03*
X75635Y335680I-5000J0D01*
G01*
X914000Y381400D02*
Y384350D01*
Y428450D02*
Y431400D01*
X864000Y381400D02*
Y384350D01*
Y428450D02*
Y431400D01*
X911050Y381400D02*
X914000D01*
X911050Y431400D02*
X914000D01*
X864000Y381400D02*
X866950D01*
X864000Y431400D02*
X866950D01*
X444500Y292100D02*
X469900D01*
Y419100D01*
X444500Y292100D02*
Y419100D01*
X469900D01*
X450850Y434975D02*
X457200Y428625D01*
X450850Y434975D02*
X463550D01*
X457200Y428625D02*
X463550Y434975D01*
X758190Y495300D02*
X765810D01*
X758190Y480060D02*
X765810D01*
X830580Y439420D02*
X835660D01*
X830580Y424180D02*
X835660D01*
X830580Y459740D02*
X835660D01*
X830580Y444500D02*
X835660D01*
X656590Y378460D02*
X664210D01*
X656590Y393700D02*
X664210D01*
X556260Y398780D02*
X561340D01*
X556260Y414020D02*
X561340D01*
X554990Y434340D02*
X562610D01*
X554990Y419100D02*
X562610D01*
X554990Y378460D02*
X562610D01*
X554990Y393700D02*
X562610D01*
X656590Y414020D02*
X664210D01*
X656590Y398780D02*
X664210D01*
X961390Y312420D02*
X969010D01*
X961390Y297180D02*
X969010D01*
X962660Y317500D02*
X967740D01*
X962660Y332740D02*
X967740D01*
X1013460Y312420D02*
X1018540D01*
X1013460Y297180D02*
X1018540D01*
X1013460Y332740D02*
X1018540D01*
X1013460Y317500D02*
X1018540D01*
X1071440Y412750D02*
X1162540D01*
X989840D02*
X1040240D01*
X989840D02*
Y577850D01*
X1040240D01*
X1071440D02*
X1162540D01*
Y412750D02*
Y577850D01*
X1012190Y358140D02*
X1019810D01*
X1012190Y373380D02*
X1019810D01*
X859790Y210820D02*
X867410D01*
X859790Y195580D02*
X867410D01*
X859790Y231140D02*
X867410D01*
X859790Y215900D02*
X867410D01*
X859790Y251460D02*
X867410D01*
X859790Y236220D02*
X867410D01*
X554990Y114300D02*
X562610D01*
X554990Y129540D02*
X562610D01*
X962660Y358140D02*
X967740D01*
X962660Y373380D02*
X967740D01*
X962660Y337820D02*
X967740D01*
X962660Y353060D02*
X967740D01*
X1008000Y351790D02*
X1024000D01*
X1008000Y339090D02*
X1024000D01*
X934720Y551180D02*
X939800D01*
X934720Y566420D02*
X939800D01*
X883920D02*
X889000D01*
X883920Y551180D02*
X889000D01*
X757820Y353060D02*
X765440D01*
X757820Y337820D02*
X765440D01*
X758190Y332740D02*
X765810D01*
X758190Y317500D02*
X765810D01*
X758190Y414020D02*
X765810D01*
X758190Y398780D02*
X765810D01*
X757820Y373380D02*
X765440D01*
X757820Y358140D02*
X765440D01*
X758190Y393700D02*
X765810D01*
X758190Y378460D02*
X765810D01*
X758190Y454660D02*
X765810D01*
X758190Y439420D02*
X765810D01*
X758190Y434340D02*
X765810D01*
X758190Y419100D02*
X765810D01*
X681120Y528800D02*
X831120D01*
X831050Y576300D02*
X831120Y517800D01*
X681120D02*
X831120D01*
X681120D02*
X681190Y576300D01*
X569760Y517800D02*
X669760D01*
X569760Y593800D02*
X669760D01*
X569760Y517800D02*
Y593800D01*
X669760Y517800D02*
Y593800D01*
X569760Y528800D02*
X669760D01*
X649760Y578800D02*
Y593800D01*
X639760Y578800D02*
X649760D01*
X639760D02*
Y593800D01*
X599760Y578800D02*
Y593800D01*
X589760Y578800D02*
X599760D01*
X589760D02*
Y593800D01*
X605790Y480060D02*
X613410D01*
X605790Y495300D02*
X613410D01*
X554990Y109220D02*
X562610D01*
X554990Y93980D02*
X562610D01*
X554990Y88900D02*
X562610D01*
X554990Y73660D02*
X562610D01*
X391160Y565150D02*
Y572770D01*
X421640D01*
Y565150D02*
Y572770D01*
X391160Y565150D02*
X421640D01*
X402590Y535940D02*
X410210D01*
X402590Y520700D02*
X410210D01*
X402590Y500380D02*
X410210D01*
X402590Y515620D02*
X410210D01*
X403860Y454660D02*
X408940D01*
X403860Y439420D02*
X408940D01*
X251460Y360680D02*
X256540D01*
X251460Y345440D02*
X256540D01*
X251460Y322580D02*
X256540D01*
X251460Y337820D02*
X256540D01*
X402590Y480060D02*
X410210D01*
X402590Y495300D02*
X410210D01*
X861060Y149860D02*
X866140D01*
X861060Y134620D02*
X866140D01*
X810260Y53340D02*
X815340D01*
X810260Y68580D02*
X815340D01*
X810260Y48260D02*
X815340D01*
X810260Y33020D02*
X815340D01*
X759460Y30480D02*
X764540D01*
X759460Y15240D02*
X764540D01*
X657860Y27940D02*
X662940D01*
X657860Y12700D02*
X662940D01*
X576326Y33390D02*
X604774D01*
X576326Y47890D02*
X604774D01*
X657860Y68580D02*
X662940D01*
X657860Y53340D02*
X662940D01*
X861060Y256540D02*
X866140D01*
X861060Y271780D02*
X866140D01*
X657860Y337820D02*
X662940D01*
X657860Y353060D02*
X662940D01*
X607060Y27940D02*
X612140D01*
X607060Y12700D02*
X612140D01*
X657860Y317500D02*
X662940D01*
X657860Y332740D02*
X662940D01*
X351790Y439420D02*
X359410D01*
X351790Y454660D02*
X359410D01*
X269000Y400880D02*
Y401080D01*
Y371080D02*
Y371280D01*
X239000Y401080D02*
X242800D01*
X265200D02*
X269000D01*
X239000Y400880D02*
Y401080D01*
Y371080D02*
Y371280D01*
Y371080D02*
X242800D01*
X265200D02*
X269000D01*
X402590Y459740D02*
X410210D01*
X402590Y474980D02*
X410210D01*
X392415Y295595D02*
Y306120D01*
X323865Y295595D02*
X392415D01*
X323865D02*
Y306120D01*
X392415Y344120D02*
Y354645D01*
X323865D02*
X392415D01*
X323865Y344120D02*
Y354645D01*
X237000Y314800D02*
X271000D01*
X237000Y294800D02*
X271000D01*
X278040Y432540D02*
Y492540D01*
Y528540D02*
Y588540D01*
X87040D02*
X278040D01*
X87040Y432540D02*
Y588540D01*
Y432540D02*
X278040D01*
X65635Y436340D02*
Y586340D01*
X18135Y586270D02*
X76635Y586340D01*
Y436340D02*
Y586340D01*
X18135Y436410D02*
X76635Y436340D01*
Y310680D02*
Y410680D01*
X635Y310680D02*
Y410680D01*
Y310680D02*
X76635D01*
X635Y410680D02*
X76635D01*
X65635Y310680D02*
Y410680D01*
X635Y390680D02*
X15635D01*
Y380680D02*
Y390680D01*
X635Y380680D02*
X15635D01*
X635Y340680D02*
X15635D01*
Y330680D02*
Y340680D01*
X635Y330680D02*
X15635D01*
X350774Y541782D02*
Y555640D01*
X346600D02*
X364600D01*
X346600Y541640D02*
X364600D01*
X341757Y542671D02*
X343027Y541401D01*
X340487D02*
X343027D01*
X340487D02*
X341757Y542671D01*
X364600Y553720D02*
Y555640D01*
Y541640D02*
Y543814D01*
X346600Y541640D02*
Y544068D01*
Y553720D02*
Y555640D01*
X340360Y504190D02*
Y511810D01*
X370840D01*
Y504190D02*
Y511810D01*
X340360Y504190D02*
X370840D01*
X351790Y474980D02*
X359410D01*
X351790Y459740D02*
X359410D01*
X910590Y12700D02*
X918210D01*
X910590Y27940D02*
X918210D01*
X1113790Y271780D02*
X1121410D01*
X1113790Y256540D02*
X1121410D01*
X1113790Y292100D02*
X1121410D01*
X1113790Y276860D02*
X1121410D01*
X1115060Y109220D02*
X1120140D01*
X1115060Y93980D02*
X1120140D01*
X1115060Y53340D02*
X1120140D01*
X1115060Y68580D02*
X1120140D01*
X1115060Y190500D02*
X1120140D01*
X1115060Y175260D02*
X1120140D01*
X1113790Y251460D02*
X1121410D01*
X1113790Y236220D02*
X1121410D01*
X1013460Y231140D02*
X1018540D01*
X1013460Y215900D02*
X1018540D01*
X1115060Y27940D02*
X1120140D01*
X1115060Y12700D02*
X1120140D01*
X1115060Y33020D02*
X1120140D01*
X1115060Y48260D02*
X1120140D01*
X1115060Y231140D02*
X1120140D01*
X1115060Y215900D02*
X1120140D01*
X1115060Y210820D02*
X1120140D01*
X1115060Y195580D02*
X1120140D01*
X1113790Y149860D02*
X1121410D01*
X1113790Y134620D02*
X1121410D01*
X1115060Y170180D02*
X1120140D01*
X1115060Y154940D02*
X1120140D01*
X1110600Y88900D02*
X1124600D01*
X1110600Y73660D02*
X1124600D01*
X1110600Y129540D02*
X1124600D01*
X1110600Y114300D02*
X1124600D01*
X911860Y33020D02*
X916940D01*
X911860Y48260D02*
X916940D01*
X911860Y88900D02*
X916940D01*
X911860Y73660D02*
X916940D01*
X911860Y53340D02*
X916940D01*
X911860Y68580D02*
X916940D01*
X911860Y149860D02*
X916940D01*
X911860Y134620D02*
X916940D01*
X911860Y114300D02*
X916940D01*
X911860Y129540D02*
X916940D01*
X906400Y168910D02*
X922400D01*
X906400Y156210D02*
X922400D01*
X906400Y95250D02*
X922400D01*
X906400Y107950D02*
X922400D01*
X1059180Y38100D02*
Y43180D01*
X1043940Y38100D02*
Y43180D01*
X967740Y38100D02*
Y43180D01*
X982980Y38100D02*
Y43180D01*
X1012190Y195580D02*
X1019810D01*
X1012190Y210820D02*
X1019810D01*
X1013460Y190500D02*
X1018540D01*
X1013460Y175260D02*
X1018540D01*
X962660Y195580D02*
X967740D01*
X962660Y210820D02*
X967740D01*
X962660Y175260D02*
X967740D01*
X962660Y190500D02*
X967740D01*
X556260Y134620D02*
X561340D01*
X556260Y149860D02*
X561340D01*
X607060Y53340D02*
X612140D01*
X607060Y68580D02*
X612140D01*
X87000Y330060D02*
Y376060D01*
X116200Y330060D02*
Y376060D01*
X87000Y330060D02*
X90170D01*
X113030D02*
X116200D01*
X113030Y376060D02*
X116200D01*
X87000D02*
X90170D01*
X86360Y379730D02*
Y384810D01*
X90170Y382270D01*
X86360Y379730D02*
X90170Y382270D01*
X485143Y410209D02*
X483238Y412113D01*
X479429D01*
X477525Y410209D01*
Y402591D01*
X479429Y400687D01*
X483238D01*
X485143Y402591D01*
X488951Y400687D02*
Y412113D01*
X496569Y400687D01*
Y412113D01*
X500378Y410209D02*
X502282Y412113D01*
X506091D01*
X507995Y410209D01*
Y408304D01*
X506091Y406400D01*
X504186D01*
X506091D01*
X507995Y404496D01*
Y402591D01*
X506091Y400687D01*
X502282D01*
X500378Y402591D01*
X221616Y356869D02*
X219711Y358773D01*
X215903D01*
X213998Y356869D01*
Y349251D01*
X215903Y347347D01*
X219711D01*
X221616Y349251D01*
X225424Y356869D02*
X227329Y358773D01*
X231138D01*
X233042Y356869D01*
Y354964D01*
X231138Y353060D01*
X229233D01*
X231138D01*
X233042Y351156D01*
Y349251D01*
X231138Y347347D01*
X227329D01*
X225424Y349251D01*
X193676Y400049D02*
X191771Y401953D01*
X187962D01*
X186058Y400049D01*
Y392431D01*
X187962Y390527D01*
X191771D01*
X193676Y392431D01*
X205102Y390527D02*
X197484D01*
X205102Y398144D01*
Y400049D01*
X203197Y401953D01*
X199389D01*
X197484Y400049D01*
X500382Y300353D02*
Y290831D01*
X502287Y288927D01*
X506096D01*
X508000Y290831D01*
Y300353D01*
X511809Y288927D02*
X515618D01*
X513713D01*
Y300353D01*
X511809Y298449D01*
X1069345Y258447D02*
Y269873D01*
X1075058D01*
X1076963Y267969D01*
Y264160D01*
X1075058Y262256D01*
X1069345D01*
X1073154D02*
X1076963Y258447D01*
X1080771Y267969D02*
X1082676Y269873D01*
X1086484D01*
X1088389Y267969D01*
Y266064D01*
X1086484Y264160D01*
X1084580D01*
X1086484D01*
X1088389Y262256D01*
Y260351D01*
X1086484Y258447D01*
X1082676D01*
X1080771Y260351D01*
X1092198Y267969D02*
X1094102Y269873D01*
X1097911D01*
X1099815Y267969D01*
Y266064D01*
X1097911Y264160D01*
X1096006D01*
X1097911D01*
X1099815Y262256D01*
Y260351D01*
X1097911Y258447D01*
X1094102D01*
X1092198Y260351D01*
X531286Y64768D02*
X538057Y54612D01*
Y64768D02*
X531286Y54612D01*
X546521D02*
Y64768D01*
X541443Y59690D01*
X548214D01*
X606429Y361313D02*
Y349887D01*
X612142D01*
X614047Y351791D01*
Y353696D01*
X612142Y355600D01*
X606429D01*
X612142D01*
X614047Y357504D01*
Y359409D01*
X612142Y361313D01*
X606429D01*
X617856D02*
X625473D01*
X621664D01*
Y349887D01*
X629282D02*
X633091D01*
X631186D01*
Y361313D01*
X629282Y359409D01*
X701678Y69213D02*
X709296Y57787D01*
Y69213D02*
X701678Y57787D01*
X713104Y67309D02*
X715009Y69213D01*
X718818D01*
X720722Y67309D01*
Y65404D01*
X718818Y63500D01*
X716913D01*
X718818D01*
X720722Y61596D01*
Y59691D01*
X718818Y57787D01*
X715009D01*
X713104Y59691D01*
X945518Y523873D02*
X953136Y512447D01*
Y523873D02*
X945518Y512447D01*
X964562D02*
X956944D01*
X964562Y520064D01*
Y521969D01*
X962657Y523873D01*
X958849D01*
X956944Y521969D01*
X1008382Y74293D02*
X1016000Y62867D01*
Y74293D02*
X1008382Y62867D01*
X1019809D02*
X1023618D01*
X1021713D01*
Y74293D01*
X1019809Y72389D01*
X612778Y292733D02*
Y283211D01*
X614683Y281307D01*
X618491D01*
X620396Y283211D01*
Y292733D01*
X631822D02*
X624204D01*
Y287020D01*
X628013Y288924D01*
X629917D01*
X631822Y287020D01*
Y283211D01*
X629917Y281307D01*
X626109D01*
X624204Y283211D01*
X963178Y170693D02*
Y161171D01*
X965082Y159267D01*
X968891D01*
X970796Y161171D01*
Y170693D01*
X974604Y168789D02*
X976509Y170693D01*
X980318D01*
X982222Y168789D01*
Y166884D01*
X980318Y164980D01*
X978413D01*
X980318D01*
X982222Y163076D01*
Y161171D01*
X980318Y159267D01*
X976509D01*
X974604Y161171D01*
X244478Y419733D02*
Y410211D01*
X246383Y408307D01*
X250191D01*
X252096Y410211D01*
Y419733D01*
X263522Y408307D02*
X255904D01*
X263522Y415924D01*
Y417829D01*
X261618Y419733D01*
X257809D01*
X255904Y417829D01*
X90809Y413387D02*
Y424813D01*
X96522D01*
X98427Y422909D01*
Y419100D01*
X96522Y417196D01*
X90809D01*
X94618D02*
X98427Y413387D01*
X102236Y424813D02*
Y413387D01*
X109853D01*
X113662D02*
X117471D01*
X115566D01*
Y424813D01*
X113662Y422909D01*
X306921Y461647D02*
Y473073D01*
X312634D01*
X314538Y471169D01*
Y467360D01*
X312634Y465456D01*
X306921D01*
X310730D02*
X314538Y461647D01*
X318347Y471169D02*
X320252Y473073D01*
X324060D01*
X325965Y471169D01*
Y469264D01*
X324060Y467360D01*
X322156D01*
X324060D01*
X325965Y465456D01*
Y463551D01*
X324060Y461647D01*
X320252D01*
X318347Y463551D01*
X337391Y461647D02*
X329774D01*
X337391Y469264D01*
Y471169D01*
X335487Y473073D01*
X331678D01*
X329774Y471169D01*
X306709Y441327D02*
Y452753D01*
X312422D01*
X314327Y450849D01*
Y447040D01*
X312422Y445136D01*
X306709D01*
X310518D02*
X314327Y441327D01*
X318136Y450849D02*
X320040Y452753D01*
X323849D01*
X325753Y450849D01*
Y448944D01*
X323849Y447040D01*
X321944D01*
X323849D01*
X325753Y445136D01*
Y443231D01*
X323849Y441327D01*
X320040D01*
X318136Y443231D01*
X329562Y441327D02*
X333371D01*
X331466D01*
Y452753D01*
X329562Y450849D01*
X424185Y522607D02*
Y534033D01*
X429898D01*
X431802Y532129D01*
Y528320D01*
X429898Y526416D01*
X424185D01*
X427994D02*
X431802Y522607D01*
X435611Y532129D02*
X437516Y534033D01*
X441324D01*
X443229Y532129D01*
Y530224D01*
X441324Y528320D01*
X439420D01*
X441324D01*
X443229Y526416D01*
Y524511D01*
X441324Y522607D01*
X437516D01*
X435611Y524511D01*
X447038Y532129D02*
X448942Y534033D01*
X452751D01*
X454655Y532129D01*
Y524511D01*
X452751Y522607D01*
X448942D01*
X447038Y524511D01*
Y532129D01*
X424185Y502287D02*
Y513713D01*
X429898D01*
X431802Y511809D01*
Y508000D01*
X429898Y506096D01*
X424185D01*
X427994D02*
X431802Y502287D01*
X443229D02*
X435611D01*
X443229Y509904D01*
Y511809D01*
X441324Y513713D01*
X437516D01*
X435611Y511809D01*
X447038Y504191D02*
X448942Y502287D01*
X452751D01*
X454655Y504191D01*
Y511809D01*
X452751Y513713D01*
X448942D01*
X447038Y511809D01*
Y509904D01*
X448942Y508000D01*
X454655D01*
X561345Y481967D02*
Y493393D01*
X567058D01*
X568963Y491489D01*
Y487680D01*
X567058Y485776D01*
X561345D01*
X565154D02*
X568963Y481967D01*
X580389D02*
X572771D01*
X580389Y489584D01*
Y491489D01*
X578484Y493393D01*
X574676D01*
X572771Y491489D01*
X584198D02*
X586102Y493393D01*
X589911D01*
X591815Y491489D01*
Y489584D01*
X589911Y487680D01*
X591815Y485776D01*
Y483871D01*
X589911Y481967D01*
X586102D01*
X584198Y483871D01*
Y485776D01*
X586102Y487680D01*
X584198Y489584D01*
Y491489D01*
X586102Y487680D02*
X589911D01*
X576585Y116207D02*
Y127633D01*
X582298D01*
X584202Y125729D01*
Y121920D01*
X582298Y120016D01*
X576585D01*
X580394D02*
X584202Y116207D01*
X595629D02*
X588011D01*
X595629Y123824D01*
Y125729D01*
X593724Y127633D01*
X589916D01*
X588011Y125729D01*
X599438Y127633D02*
X607055D01*
Y125729D01*
X599438Y118111D01*
Y116207D01*
X576585Y380367D02*
Y391793D01*
X582298D01*
X584202Y389889D01*
Y386080D01*
X582298Y384176D01*
X576585D01*
X580394D02*
X584202Y380367D01*
X595629D02*
X588011D01*
X595629Y387984D01*
Y389889D01*
X593724Y391793D01*
X589916D01*
X588011Y389889D01*
X607055Y391793D02*
X603246Y389889D01*
X599438Y386080D01*
Y382271D01*
X601342Y380367D01*
X605151D01*
X607055Y382271D01*
Y384176D01*
X605151Y386080D01*
X599438D01*
X675645Y400687D02*
Y412113D01*
X681358D01*
X683262Y410209D01*
Y406400D01*
X681358Y404496D01*
X675645D01*
X679454D02*
X683262Y400687D01*
X694689D02*
X687071D01*
X694689Y408304D01*
Y410209D01*
X692784Y412113D01*
X688976D01*
X687071Y410209D01*
X706115Y412113D02*
X698498D01*
Y406400D01*
X702306Y408304D01*
X704211D01*
X706115Y406400D01*
Y402591D01*
X704211Y400687D01*
X700402D01*
X698498Y402591D01*
X576585Y421007D02*
Y432433D01*
X582298D01*
X584202Y430529D01*
Y426720D01*
X582298Y424816D01*
X576585D01*
X580394D02*
X584202Y421007D01*
X595629D02*
X588011D01*
X595629Y428624D01*
Y430529D01*
X593724Y432433D01*
X589916D01*
X588011Y430529D01*
X605151Y421007D02*
Y432433D01*
X599438Y426720D01*
X607055D01*
X576585Y95887D02*
Y107313D01*
X582298D01*
X584202Y105409D01*
Y101600D01*
X582298Y99696D01*
X576585D01*
X580394D02*
X584202Y95887D01*
X595629D02*
X588011D01*
X595629Y103504D01*
Y105409D01*
X593724Y107313D01*
X589916D01*
X588011Y105409D01*
X599438D02*
X601342Y107313D01*
X605151D01*
X607055Y105409D01*
Y103504D01*
X605151Y101600D01*
X603246D01*
X605151D01*
X607055Y99696D01*
Y97791D01*
X605151Y95887D01*
X601342D01*
X599438Y97791D01*
X576585Y75567D02*
Y86993D01*
X582298D01*
X584202Y85089D01*
Y81280D01*
X582298Y79376D01*
X576585D01*
X580394D02*
X584202Y75567D01*
X595629D02*
X588011D01*
X595629Y83184D01*
Y85089D01*
X593724Y86993D01*
X589916D01*
X588011Y85089D01*
X607055Y75567D02*
X599438D01*
X607055Y83184D01*
Y85089D01*
X605151Y86993D01*
X601342D01*
X599438Y85089D01*
X716019Y443867D02*
Y455293D01*
X721732D01*
X723637Y453389D01*
Y449580D01*
X721732Y447676D01*
X716019D01*
X719828D02*
X723637Y443867D01*
X735063D02*
X727446D01*
X735063Y451484D01*
Y453389D01*
X733159Y455293D01*
X729350D01*
X727446Y453389D01*
X738872Y443867D02*
X742681D01*
X740776D01*
Y455293D01*
X738872Y453389D01*
X715915Y360047D02*
Y371473D01*
X721628D01*
X723532Y369569D01*
Y365760D01*
X721628Y363856D01*
X715915D01*
X719724D02*
X723532Y360047D01*
X734959D02*
X727341D01*
X734959Y367664D01*
Y369569D01*
X733054Y371473D01*
X729246D01*
X727341Y369569D01*
X738768D02*
X740672Y371473D01*
X744481D01*
X746385Y369569D01*
Y361951D01*
X744481Y360047D01*
X740672D01*
X738768Y361951D01*
Y369569D01*
X717237Y421007D02*
Y432433D01*
X722950D01*
X724855Y430529D01*
Y426720D01*
X722950Y424816D01*
X717237D01*
X721046D02*
X724855Y421007D01*
X728663D02*
X732472D01*
X730568D01*
Y432433D01*
X728663Y430529D01*
X738185Y422911D02*
X740090Y421007D01*
X743898D01*
X745803Y422911D01*
Y430529D01*
X743898Y432433D01*
X740090D01*
X738185Y430529D01*
Y428624D01*
X740090Y426720D01*
X745803D01*
X716867Y339727D02*
Y351153D01*
X722580D01*
X724485Y349249D01*
Y345440D01*
X722580Y343536D01*
X716867D01*
X720676D02*
X724485Y339727D01*
X728293D02*
X732102D01*
X730198D01*
Y351153D01*
X728293Y349249D01*
X737815D02*
X739720Y351153D01*
X743529D01*
X745433Y349249D01*
Y347344D01*
X743529Y345440D01*
X745433Y343536D01*
Y341631D01*
X743529Y339727D01*
X739720D01*
X737815Y341631D01*
Y343536D01*
X739720Y345440D01*
X737815Y347344D01*
Y349249D01*
X739720Y345440D02*
X743529D01*
X714697Y400687D02*
Y412113D01*
X720410D01*
X722315Y410209D01*
Y406400D01*
X720410Y404496D01*
X714697D01*
X718506D02*
X722315Y400687D01*
X726123D02*
X729932D01*
X728028D01*
Y412113D01*
X726123Y410209D01*
X735645Y412113D02*
X743263D01*
Y410209D01*
X735645Y402591D01*
Y400687D01*
X717237Y319407D02*
Y330833D01*
X722950D01*
X724855Y328929D01*
Y325120D01*
X722950Y323216D01*
X717237D01*
X721046D02*
X724855Y319407D01*
X728663D02*
X732472D01*
X730568D01*
Y330833D01*
X728663Y328929D01*
X745803Y330833D02*
X741994Y328929D01*
X738185Y325120D01*
Y321311D01*
X740090Y319407D01*
X743898D01*
X745803Y321311D01*
Y323216D01*
X743898Y325120D01*
X738185D01*
X717237Y380367D02*
Y391793D01*
X722950D01*
X724855Y389889D01*
Y386080D01*
X722950Y384176D01*
X717237D01*
X721046D02*
X724855Y380367D01*
X728663D02*
X732472D01*
X730568D01*
Y391793D01*
X728663Y389889D01*
X745803Y391793D02*
X738185D01*
Y386080D01*
X741994Y387984D01*
X743898D01*
X745803Y386080D01*
Y382271D01*
X743898Y380367D01*
X740090D01*
X738185Y382271D01*
X717237Y481967D02*
Y493393D01*
X722950D01*
X724855Y491489D01*
Y487680D01*
X722950Y485776D01*
X717237D01*
X721046D02*
X724855Y481967D01*
X728663D02*
X732472D01*
X730568D01*
Y493393D01*
X728663Y491489D01*
X743898Y481967D02*
Y493393D01*
X738185Y487680D01*
X745803D01*
X1034737Y360047D02*
Y371473D01*
X1040450D01*
X1042355Y369569D01*
Y365760D01*
X1040450Y363856D01*
X1034737D01*
X1038546D02*
X1042355Y360047D01*
X1046163D02*
X1049972D01*
X1048068D01*
Y371473D01*
X1046163Y369569D01*
X1055685D02*
X1057590Y371473D01*
X1061398D01*
X1063303Y369569D01*
Y367664D01*
X1061398Y365760D01*
X1059494D01*
X1061398D01*
X1063303Y363856D01*
Y361951D01*
X1061398Y360047D01*
X1057590D01*
X1055685Y361951D01*
X676597Y380367D02*
Y391793D01*
X682310D01*
X684215Y389889D01*
Y386080D01*
X682310Y384176D01*
X676597D01*
X680406D02*
X684215Y380367D01*
X688023D02*
X691832D01*
X689928D01*
Y391793D01*
X688023Y389889D01*
X705163Y380367D02*
X697545D01*
X705163Y387984D01*
Y389889D01*
X703259Y391793D01*
X699450D01*
X697545Y389889D01*
X924882Y299087D02*
Y310513D01*
X930595D01*
X932499Y308609D01*
Y304800D01*
X930595Y302896D01*
X924882D01*
X928690D02*
X932499Y299087D01*
X936308D02*
X940117D01*
X938212D01*
Y310513D01*
X936308Y308609D01*
X945830Y299087D02*
X949639D01*
X947734D01*
Y310513D01*
X945830Y308609D01*
X816297Y197487D02*
Y208913D01*
X822010D01*
X823915Y207009D01*
Y203200D01*
X822010Y201296D01*
X816297D01*
X820106D02*
X823915Y197487D01*
X827723D02*
X831532D01*
X829628D01*
Y208913D01*
X827723Y207009D01*
X837245D02*
X839150Y208913D01*
X842959D01*
X844863Y207009D01*
Y199391D01*
X842959Y197487D01*
X839150D01*
X837245Y199391D01*
Y207009D01*
X826138Y238127D02*
Y249553D01*
X831851D01*
X833756Y247649D01*
Y243840D01*
X831851Y241936D01*
X826138D01*
X829947D02*
X833756Y238127D01*
X837564Y240031D02*
X839469Y238127D01*
X843278D01*
X845182Y240031D01*
Y247649D01*
X843278Y249553D01*
X839469D01*
X837564Y247649D01*
Y245744D01*
X839469Y243840D01*
X845182D01*
X826138Y217807D02*
Y229233D01*
X831851D01*
X833756Y227329D01*
Y223520D01*
X831851Y221616D01*
X826138D01*
X829947D02*
X833756Y217807D01*
X837564Y227329D02*
X839469Y229233D01*
X843278D01*
X845182Y227329D01*
Y225424D01*
X843278Y223520D01*
X845182Y221616D01*
Y219711D01*
X843278Y217807D01*
X839469D01*
X837564Y219711D01*
Y221616D01*
X839469Y223520D01*
X837564Y225424D01*
Y227329D01*
X839469Y223520D02*
X843278D01*
X1082888Y136527D02*
Y147953D01*
X1088601D01*
X1090506Y146049D01*
Y142240D01*
X1088601Y140336D01*
X1082888D01*
X1086697D02*
X1090506Y136527D01*
X1094314Y147953D02*
X1101932D01*
Y146049D01*
X1094314Y138431D01*
Y136527D01*
X1080138Y238127D02*
Y249553D01*
X1085851D01*
X1087756Y247649D01*
Y243840D01*
X1085851Y241936D01*
X1080138D01*
X1083947D02*
X1087756Y238127D01*
X1099182Y249553D02*
X1095373Y247649D01*
X1091564Y243840D01*
Y240031D01*
X1093469Y238127D01*
X1097278D01*
X1099182Y240031D01*
Y241936D01*
X1097278Y243840D01*
X1091564D01*
X874398Y14607D02*
Y26033D01*
X880111D01*
X882016Y24129D01*
Y20320D01*
X880111Y18416D01*
X874398D01*
X878207D02*
X882016Y14607D01*
X893442Y26033D02*
X885824D01*
Y20320D01*
X889633Y22224D01*
X891537D01*
X893442Y20320D01*
Y16511D01*
X891537Y14607D01*
X887729D01*
X885824Y16511D01*
X1082678Y278767D02*
Y290193D01*
X1088391D01*
X1090296Y288289D01*
Y284480D01*
X1088391Y282576D01*
X1082678D01*
X1086487D02*
X1090296Y278767D01*
X1099818D02*
Y290193D01*
X1094104Y284480D01*
X1101722D01*
X1031878Y197487D02*
Y208913D01*
X1037591D01*
X1039496Y207009D01*
Y203200D01*
X1037591Y201296D01*
X1031878D01*
X1035687D02*
X1039496Y197487D01*
X1043304Y207009D02*
X1045209Y208913D01*
X1049017D01*
X1050922Y207009D01*
Y205104D01*
X1049017Y203200D01*
X1047113D01*
X1049017D01*
X1050922Y201296D01*
Y199391D01*
X1049017Y197487D01*
X1045209D01*
X1043304Y199391D01*
X424818Y461647D02*
Y473073D01*
X430531D01*
X432436Y471169D01*
Y467360D01*
X430531Y465456D01*
X424818D01*
X428627D02*
X432436Y461647D01*
X443862D02*
X436244D01*
X443862Y469264D01*
Y471169D01*
X441958Y473073D01*
X438149D01*
X436244Y471169D01*
X424183Y481967D02*
Y493393D01*
X429896D01*
X431800Y491489D01*
Y487680D01*
X429896Y485776D01*
X424183D01*
X427991D02*
X431800Y481967D01*
X435609D02*
X439418D01*
X437513D01*
Y493393D01*
X435609Y491489D01*
X313904Y504191D02*
Y511809D01*
X311999Y513713D01*
X308190D01*
X306286Y511809D01*
Y504191D01*
X308190Y502287D01*
X311999D01*
X310095Y506096D02*
X313904Y502287D01*
X311999D02*
X313904Y504191D01*
X325330Y502287D02*
X317712D01*
X325330Y509904D01*
Y511809D01*
X323426Y513713D01*
X319617D01*
X317712Y511809D01*
X436880Y565151D02*
Y572769D01*
X434976Y574673D01*
X431167D01*
X429263Y572769D01*
Y565151D01*
X431167Y563247D01*
X434976D01*
X433071Y567056D02*
X436880Y563247D01*
X434976D02*
X436880Y565151D01*
X440689Y563247D02*
X444498D01*
X442593D01*
Y574673D01*
X440689Y572769D01*
X213363Y299087D02*
Y310513D01*
X219076D01*
X220980Y308609D01*
Y304800D01*
X219076Y302896D01*
X213363D01*
X224789Y299087D02*
X228598D01*
X226693D01*
Y310513D01*
X224789Y308609D01*
X1034418Y351153D02*
Y339727D01*
X1042036D01*
X1053462Y351153D02*
X1049653Y349249D01*
X1045844Y345440D01*
Y341631D01*
X1047749Y339727D01*
X1051557D01*
X1053462Y341631D01*
Y343536D01*
X1051557Y345440D01*
X1045844D01*
X1082678Y127633D02*
Y116207D01*
X1090296D01*
X1101722Y127633D02*
X1094104D01*
Y121920D01*
X1097913Y123824D01*
X1099818D01*
X1101722Y121920D01*
Y118111D01*
X1099818Y116207D01*
X1096009D01*
X1094104Y118111D01*
X1080138Y86993D02*
Y75567D01*
X1087756D01*
X1097278D02*
Y86993D01*
X1091564Y81280D01*
X1099182D01*
X874608Y107313D02*
Y95887D01*
X882226D01*
X886034Y105409D02*
X887939Y107313D01*
X891748D01*
X893652Y105409D01*
Y103504D01*
X891748Y101600D01*
X889843D01*
X891748D01*
X893652Y99696D01*
Y97791D01*
X891748Y95887D01*
X887939D01*
X886034Y97791D01*
X874608Y168273D02*
Y156847D01*
X882226D01*
X893652D02*
X886034D01*
X893652Y164464D01*
Y166369D01*
X891748Y168273D01*
X887939D01*
X886034Y166369D01*
X304802Y419733D02*
Y408307D01*
X312420D01*
X316229D02*
X320038D01*
X318133D01*
Y419733D01*
X316229Y417829D01*
X981073Y500380D02*
Y504189D01*
Y502284D01*
X971551D01*
X969647Y504189D01*
Y506093D01*
X971551Y507998D01*
X969647Y496571D02*
Y492762D01*
Y494667D01*
X981073D01*
X979169Y496571D01*
X306286Y554353D02*
Y542927D01*
X311999D01*
X313904Y544831D01*
Y552449D01*
X311999Y554353D01*
X306286D01*
X317712Y552449D02*
X319617Y554353D01*
X323426D01*
X325330Y552449D01*
Y550544D01*
X323426Y548640D01*
X321521D01*
X323426D01*
X325330Y546736D01*
Y544831D01*
X323426Y542927D01*
X319617D01*
X317712Y544831D01*
X295278Y356233D02*
Y344807D01*
X300991D01*
X302896Y346711D01*
Y354329D01*
X300991Y356233D01*
X295278D01*
X314322Y344807D02*
X306704D01*
X314322Y352424D01*
Y354329D01*
X312418Y356233D01*
X308609D01*
X306704Y354329D01*
X86868Y404364D02*
Y392938D01*
X92581D01*
X94486Y394842D01*
Y402460D01*
X92581Y404364D01*
X86868D01*
X98294Y392938D02*
X102103D01*
X100199D01*
Y404364D01*
X98294Y402460D01*
X50802Y427989D02*
X48898Y429893D01*
X45089D01*
X43185Y427989D01*
Y420371D01*
X45089Y418467D01*
X48898D01*
X50802Y420371D01*
X54611Y418467D02*
Y429893D01*
X62229Y418467D01*
Y429893D01*
X73655D02*
X66038D01*
Y424180D01*
X69846Y426084D01*
X71751D01*
X73655Y424180D01*
Y420371D01*
X71751Y418467D01*
X67942D01*
X66038Y420371D01*
X614683Y510539D02*
X612778Y512443D01*
X608969D01*
X607065Y510539D01*
Y502921D01*
X608969Y501017D01*
X612778D01*
X614683Y502921D01*
X618491Y501017D02*
Y512443D01*
X626109Y501017D01*
Y512443D01*
X635631Y501017D02*
Y512443D01*
X629918Y506730D01*
X637535D01*
X749303Y510539D02*
X747398Y512443D01*
X743589D01*
X741685Y510539D01*
Y502921D01*
X743589Y501017D01*
X747398D01*
X749303Y502921D01*
X753111Y501017D02*
Y512443D01*
X760729Y501017D01*
Y512443D01*
X772155Y501017D02*
X764538D01*
X772155Y508634D01*
Y510539D01*
X770251Y512443D01*
X766442D01*
X764538Y510539D01*
X55247Y303529D02*
X53342Y305433D01*
X49534D01*
X47629Y303529D01*
Y295911D01*
X49534Y294007D01*
X53342D01*
X55247Y295911D01*
X59056Y294007D02*
Y305433D01*
X66673Y294007D01*
Y305433D01*
X70482Y294007D02*
X74291D01*
X72386D01*
Y305433D01*
X70482Y303529D01*
X756923Y44449D02*
X755018Y46353D01*
X751209D01*
X749305Y44449D01*
Y36831D01*
X751209Y34927D01*
X755018D01*
X756923Y36831D01*
X766444Y34927D02*
Y46353D01*
X760731Y40640D01*
X768349D01*
X779775Y46353D02*
X772158D01*
Y40640D01*
X775966Y42544D01*
X777871D01*
X779775Y40640D01*
Y36831D01*
X777871Y34927D01*
X774062D01*
X772158Y36831D01*
X568963Y24129D02*
X567058Y26033D01*
X563249D01*
X561345Y24129D01*
Y16511D01*
X563249Y14607D01*
X567058D01*
X568963Y16511D01*
X578484Y14607D02*
Y26033D01*
X572771Y20320D01*
X580389D01*
X589911Y14607D02*
Y26033D01*
X584198Y20320D01*
X591815D01*
X650242Y41909D02*
X648338Y43813D01*
X644529D01*
X642625Y41909D01*
Y34291D01*
X644529Y32387D01*
X648338D01*
X650242Y34291D01*
X659764Y32387D02*
Y43813D01*
X654051Y38100D01*
X661669D01*
X665478Y41909D02*
X667382Y43813D01*
X671191D01*
X673095Y41909D01*
Y40004D01*
X671191Y38100D01*
X669286D01*
X671191D01*
X673095Y36196D01*
Y34291D01*
X671191Y32387D01*
X667382D01*
X665478Y34291D01*
X568963Y64769D02*
X567058Y66673D01*
X563249D01*
X561345Y64769D01*
Y57151D01*
X563249Y55247D01*
X567058D01*
X568963Y57151D01*
X578484Y55247D02*
Y66673D01*
X572771Y60960D01*
X580389D01*
X591815Y55247D02*
X584198D01*
X591815Y62864D01*
Y64769D01*
X589911Y66673D01*
X586102D01*
X584198Y64769D01*
X583567Y146049D02*
X581662Y147953D01*
X577854D01*
X575949Y146049D01*
Y138431D01*
X577854Y136527D01*
X581662D01*
X583567Y138431D01*
X593089Y136527D02*
Y147953D01*
X587376Y142240D01*
X594993D01*
X598802Y136527D02*
X602611D01*
X600706D01*
Y147953D01*
X598802Y146049D01*
X805182Y82549D02*
X803278Y84453D01*
X799469D01*
X797565Y82549D01*
Y74931D01*
X799469Y73027D01*
X803278D01*
X805182Y74931D01*
X814704Y73027D02*
Y84453D01*
X808991Y78740D01*
X816609D01*
X820418Y82549D02*
X822322Y84453D01*
X826131D01*
X828035Y82549D01*
Y74931D01*
X826131Y73027D01*
X822322D01*
X820418Y74931D01*
Y82549D01*
X805182Y24129D02*
X803278Y26033D01*
X799469D01*
X797565Y24129D01*
Y16511D01*
X799469Y14607D01*
X803278D01*
X805182Y16511D01*
X808991Y24129D02*
X810896Y26033D01*
X814704D01*
X816609Y24129D01*
Y22224D01*
X814704Y20320D01*
X812800D01*
X814704D01*
X816609Y18416D01*
Y16511D01*
X814704Y14607D01*
X810896D01*
X808991Y16511D01*
X820418D02*
X822322Y14607D01*
X826131D01*
X828035Y16511D01*
Y24129D01*
X826131Y26033D01*
X822322D01*
X820418Y24129D01*
Y22224D01*
X822322Y20320D01*
X828035D01*
X685803Y349249D02*
X683898Y351153D01*
X680089D01*
X678185Y349249D01*
Y341631D01*
X680089Y339727D01*
X683898D01*
X685803Y341631D01*
X689611Y349249D02*
X691516Y351153D01*
X695324D01*
X697229Y349249D01*
Y347344D01*
X695324Y345440D01*
X693420D01*
X695324D01*
X697229Y343536D01*
Y341631D01*
X695324Y339727D01*
X691516D01*
X689611Y341631D01*
X701038Y349249D02*
X702942Y351153D01*
X706751D01*
X708655Y349249D01*
Y347344D01*
X706751Y345440D01*
X708655Y343536D01*
Y341631D01*
X706751Y339727D01*
X702942D01*
X701038Y341631D01*
Y343536D01*
X702942Y345440D01*
X701038Y347344D01*
Y349249D01*
X702942Y345440D02*
X706751D01*
X822962Y267969D02*
X821058Y269873D01*
X817249D01*
X815345Y267969D01*
Y260351D01*
X817249Y258447D01*
X821058D01*
X822962Y260351D01*
X826771Y267969D02*
X828676Y269873D01*
X832484D01*
X834389Y267969D01*
Y266064D01*
X832484Y264160D01*
X830580D01*
X832484D01*
X834389Y262256D01*
Y260351D01*
X832484Y258447D01*
X828676D01*
X826771Y260351D01*
X838198Y269873D02*
X845815D01*
Y267969D01*
X838198Y260351D01*
Y258447D01*
X685803Y328929D02*
X683898Y330833D01*
X680089D01*
X678185Y328929D01*
Y321311D01*
X680089Y319407D01*
X683898D01*
X685803Y321311D01*
X689611Y328929D02*
X691516Y330833D01*
X695324D01*
X697229Y328929D01*
Y327024D01*
X695324Y325120D01*
X693420D01*
X695324D01*
X697229Y323216D01*
Y321311D01*
X695324Y319407D01*
X691516D01*
X689611Y321311D01*
X708655Y330833D02*
X704846Y328929D01*
X701038Y325120D01*
Y321311D01*
X702942Y319407D01*
X706751D01*
X708655Y321311D01*
Y323216D01*
X706751Y325120D01*
X701038D01*
X822962Y146049D02*
X821058Y147953D01*
X817249D01*
X815345Y146049D01*
Y138431D01*
X817249Y136527D01*
X821058D01*
X822962Y138431D01*
X826771Y146049D02*
X828676Y147953D01*
X832484D01*
X834389Y146049D01*
Y144144D01*
X832484Y142240D01*
X830580D01*
X832484D01*
X834389Y140336D01*
Y138431D01*
X832484Y136527D01*
X828676D01*
X826771Y138431D01*
X845815Y147953D02*
X838198D01*
Y142240D01*
X842006Y144144D01*
X843911D01*
X845815Y142240D01*
Y138431D01*
X843911Y136527D01*
X840102D01*
X838198Y138431D01*
X652783Y82549D02*
X650878Y84453D01*
X647069D01*
X645165Y82549D01*
Y74931D01*
X647069Y73027D01*
X650878D01*
X652783Y74931D01*
X656591Y82549D02*
X658496Y84453D01*
X662304D01*
X664209Y82549D01*
Y80644D01*
X662304Y78740D01*
X660400D01*
X662304D01*
X664209Y76836D01*
Y74931D01*
X662304Y73027D01*
X658496D01*
X656591Y74931D01*
X673731Y73027D02*
Y84453D01*
X668018Y78740D01*
X675635D01*
X583332Y410209D02*
X581428Y412113D01*
X577619D01*
X575715Y410209D01*
Y402591D01*
X577619Y400687D01*
X581428D01*
X583332Y402591D01*
X587141Y410209D02*
X589046Y412113D01*
X592854D01*
X594759Y410209D01*
Y408304D01*
X592854Y406400D01*
X590950D01*
X592854D01*
X594759Y404496D01*
Y402591D01*
X592854Y400687D01*
X589046D01*
X587141Y402591D01*
X598568Y410209D02*
X600472Y412113D01*
X604281D01*
X606185Y410209D01*
Y408304D01*
X604281Y406400D01*
X602376D01*
X604281D01*
X606185Y404496D01*
Y402591D01*
X604281Y400687D01*
X600472D01*
X598568Y402591D01*
X878842Y580389D02*
X876938Y582293D01*
X873129D01*
X871225Y580389D01*
Y572771D01*
X873129Y570867D01*
X876938D01*
X878842Y572771D01*
X882651Y580389D02*
X884556Y582293D01*
X888364D01*
X890269Y580389D01*
Y578484D01*
X888364Y576580D01*
X886460D01*
X888364D01*
X890269Y574676D01*
Y572771D01*
X888364Y570867D01*
X884556D01*
X882651Y572771D01*
X901695Y570867D02*
X894078D01*
X901695Y578484D01*
Y580389D01*
X899791Y582293D01*
X895982D01*
X894078Y580389D01*
X931547D02*
X929642Y582293D01*
X925834D01*
X923929Y580389D01*
Y572771D01*
X925834Y570867D01*
X929642D01*
X931547Y572771D01*
X935356Y580389D02*
X937260Y582293D01*
X941069D01*
X942973Y580389D01*
Y578484D01*
X941069Y576580D01*
X939164D01*
X941069D01*
X942973Y574676D01*
Y572771D01*
X941069Y570867D01*
X937260D01*
X935356Y572771D01*
X946782Y570867D02*
X950591D01*
X948686D01*
Y582293D01*
X946782Y580389D01*
X1041403Y308609D02*
X1039498Y310513D01*
X1035689D01*
X1033785Y308609D01*
Y300991D01*
X1035689Y299087D01*
X1039498D01*
X1041403Y300991D01*
X1045211Y308609D02*
X1047116Y310513D01*
X1050924D01*
X1052829Y308609D01*
Y306704D01*
X1050924Y304800D01*
X1049020D01*
X1050924D01*
X1052829Y302896D01*
Y300991D01*
X1050924Y299087D01*
X1047116D01*
X1045211Y300991D01*
X1056638Y308609D02*
X1058542Y310513D01*
X1062351D01*
X1064255Y308609D01*
Y300991D01*
X1062351Y299087D01*
X1058542D01*
X1056638Y300991D01*
Y308609D01*
X1041403Y328929D02*
X1039498Y330833D01*
X1035689D01*
X1033785Y328929D01*
Y321311D01*
X1035689Y319407D01*
X1039498D01*
X1041403Y321311D01*
X1052829Y319407D02*
X1045211D01*
X1052829Y327024D01*
Y328929D01*
X1050924Y330833D01*
X1047116D01*
X1045211Y328929D01*
X1056638Y321311D02*
X1058542Y319407D01*
X1062351D01*
X1064255Y321311D01*
Y328929D01*
X1062351Y330833D01*
X1058542D01*
X1056638Y328929D01*
Y327024D01*
X1058542Y325120D01*
X1064255D01*
X789942Y455929D02*
X788038Y457833D01*
X784229D01*
X782325Y455929D01*
Y448311D01*
X784229Y446407D01*
X788038D01*
X789942Y448311D01*
X801369Y446407D02*
X793751D01*
X801369Y454024D01*
Y455929D01*
X799464Y457833D01*
X795656D01*
X793751Y455929D01*
X805178D02*
X807082Y457833D01*
X810891D01*
X812795Y455929D01*
Y454024D01*
X810891Y452120D01*
X812795Y450216D01*
Y448311D01*
X810891Y446407D01*
X807082D01*
X805178Y448311D01*
Y450216D01*
X807082Y452120D01*
X805178Y454024D01*
Y455929D01*
X807082Y452120D02*
X810891D01*
X792483Y435609D02*
X790578Y437513D01*
X786769D01*
X784865Y435609D01*
Y427991D01*
X786769Y426087D01*
X790578D01*
X792483Y427991D01*
X803909Y426087D02*
X796291D01*
X803909Y433704D01*
Y435609D01*
X802004Y437513D01*
X798196D01*
X796291Y435609D01*
X807718Y437513D02*
X815335D01*
Y435609D01*
X807718Y427991D01*
Y426087D01*
X927103Y369569D02*
X925198Y371473D01*
X921389D01*
X919485Y369569D01*
Y361951D01*
X921389Y360047D01*
X925198D01*
X927103Y361951D01*
X938529Y360047D02*
X930911D01*
X938529Y367664D01*
Y369569D01*
X936624Y371473D01*
X932816D01*
X930911Y369569D01*
X949955Y371473D02*
X946146Y369569D01*
X942338Y365760D01*
Y361951D01*
X944242Y360047D01*
X948051D01*
X949955Y361951D01*
Y363856D01*
X948051Y365760D01*
X942338D01*
X927103Y349249D02*
X925198Y351153D01*
X921389D01*
X919485Y349249D01*
Y341631D01*
X921389Y339727D01*
X925198D01*
X927103Y341631D01*
X938529Y339727D02*
X930911D01*
X938529Y347344D01*
Y349249D01*
X936624Y351153D01*
X932816D01*
X930911Y349249D01*
X949955Y351153D02*
X942338D01*
Y345440D01*
X946146Y347344D01*
X948051D01*
X949955Y345440D01*
Y341631D01*
X948051Y339727D01*
X944242D01*
X942338Y341631D01*
X927103Y328929D02*
X925198Y330833D01*
X921389D01*
X919485Y328929D01*
Y321311D01*
X921389Y319407D01*
X925198D01*
X927103Y321311D01*
X938529Y319407D02*
X930911D01*
X938529Y327024D01*
Y328929D01*
X936624Y330833D01*
X932816D01*
X930911Y328929D01*
X948051Y319407D02*
Y330833D01*
X942338Y325120D01*
X949955D01*
X1043942Y68489D02*
X1042038Y70393D01*
X1038229D01*
X1036325Y68489D01*
Y60871D01*
X1038229Y58967D01*
X1042038D01*
X1043942Y60871D01*
X1055369Y58967D02*
X1047751D01*
X1055369Y66584D01*
Y68489D01*
X1053464Y70393D01*
X1049656D01*
X1047751Y68489D01*
X1059178D02*
X1061082Y70393D01*
X1064891D01*
X1066795Y68489D01*
Y66584D01*
X1064891Y64680D01*
X1062986D01*
X1064891D01*
X1066795Y62776D01*
Y60871D01*
X1064891Y58967D01*
X1061082D01*
X1059178Y60871D01*
X967383Y68489D02*
X965478Y70393D01*
X961669D01*
X959765Y68489D01*
Y60871D01*
X961669Y58967D01*
X965478D01*
X967383Y60871D01*
X978809Y58967D02*
X971191D01*
X978809Y66584D01*
Y68489D01*
X976904Y70393D01*
X973096D01*
X971191Y68489D01*
X990235Y58967D02*
X982618D01*
X990235Y66584D01*
Y68489D01*
X988331Y70393D01*
X984522D01*
X982618Y68489D01*
X1082465Y166369D02*
X1080560Y168273D01*
X1076752D01*
X1074847Y166369D01*
Y158751D01*
X1076752Y156847D01*
X1080560D01*
X1082465Y158751D01*
X1093891Y156847D02*
X1086274D01*
X1093891Y164464D01*
Y166369D01*
X1091987Y168273D01*
X1088178D01*
X1086274Y166369D01*
X1097700Y156847D02*
X1101509D01*
X1099604D01*
Y168273D01*
X1097700Y166369D01*
X1076963Y207009D02*
X1075058Y208913D01*
X1071249D01*
X1069345Y207009D01*
Y199391D01*
X1071249Y197487D01*
X1075058D01*
X1076963Y199391D01*
X1088389Y197487D02*
X1080771D01*
X1088389Y205104D01*
Y207009D01*
X1086484Y208913D01*
X1082676D01*
X1080771Y207009D01*
X1092198D02*
X1094102Y208913D01*
X1097911D01*
X1099815Y207009D01*
Y199391D01*
X1097911Y197487D01*
X1094102D01*
X1092198Y199391D01*
Y207009D01*
X1077915Y227329D02*
X1076010Y229233D01*
X1072202D01*
X1070297Y227329D01*
Y219711D01*
X1072202Y217807D01*
X1076010D01*
X1077915Y219711D01*
X1081723Y217807D02*
X1085532D01*
X1083628D01*
Y229233D01*
X1081723Y227329D01*
X1091245Y219711D02*
X1093150Y217807D01*
X1096958D01*
X1098863Y219711D01*
Y227329D01*
X1096958Y229233D01*
X1093150D01*
X1091245Y227329D01*
Y225424D01*
X1093150Y223520D01*
X1098863D01*
X1077915Y186689D02*
X1076010Y188593D01*
X1072202D01*
X1070297Y186689D01*
Y179071D01*
X1072202Y177167D01*
X1076010D01*
X1077915Y179071D01*
X1081723Y177167D02*
X1085532D01*
X1083628D01*
Y188593D01*
X1081723Y186689D01*
X1091245D02*
X1093150Y188593D01*
X1096958D01*
X1098863Y186689D01*
Y184784D01*
X1096958Y182880D01*
X1098863Y180976D01*
Y179071D01*
X1096958Y177167D01*
X1093150D01*
X1091245Y179071D01*
Y180976D01*
X1093150Y182880D01*
X1091245Y184784D01*
Y186689D01*
X1093150Y182880D02*
X1096958D01*
X872175Y44449D02*
X870270Y46353D01*
X866461D01*
X864557Y44449D01*
Y36831D01*
X866461Y34927D01*
X870270D01*
X872175Y36831D01*
X875983Y34927D02*
X879792D01*
X877888D01*
Y46353D01*
X875983Y44449D01*
X885505Y46353D02*
X893123D01*
Y44449D01*
X885505Y36831D01*
Y34927D01*
X1080455Y24129D02*
X1078550Y26033D01*
X1074742D01*
X1072837Y24129D01*
Y16511D01*
X1074742Y14607D01*
X1078550D01*
X1080455Y16511D01*
X1084263Y14607D02*
X1088072D01*
X1086168D01*
Y26033D01*
X1084263Y24129D01*
X1101403Y26033D02*
X1097594Y24129D01*
X1093785Y20320D01*
Y16511D01*
X1095690Y14607D01*
X1099499D01*
X1101403Y16511D01*
Y18416D01*
X1099499Y20320D01*
X1093785D01*
X1080455Y64769D02*
X1078550Y66673D01*
X1074742D01*
X1072837Y64769D01*
Y57151D01*
X1074742Y55247D01*
X1078550D01*
X1080455Y57151D01*
X1084263Y55247D02*
X1088072D01*
X1086168D01*
Y66673D01*
X1084263Y64769D01*
X1101403Y66673D02*
X1093785D01*
Y60960D01*
X1097594Y62864D01*
X1099499D01*
X1101403Y60960D01*
Y57151D01*
X1099499Y55247D01*
X1095690D01*
X1093785Y57151D01*
X1080455Y105409D02*
X1078550Y107313D01*
X1074742D01*
X1072837Y105409D01*
Y97791D01*
X1074742Y95887D01*
X1078550D01*
X1080455Y97791D01*
X1084263Y95887D02*
X1088072D01*
X1086168D01*
Y107313D01*
X1084263Y105409D01*
X1099499Y95887D02*
Y107313D01*
X1093785Y101600D01*
X1101403D01*
X1080455Y44449D02*
X1078550Y46353D01*
X1074742D01*
X1072837Y44449D01*
Y36831D01*
X1074742Y34927D01*
X1078550D01*
X1080455Y36831D01*
X1084263Y34927D02*
X1088072D01*
X1086168D01*
Y46353D01*
X1084263Y44449D01*
X1093785D02*
X1095690Y46353D01*
X1099499D01*
X1101403Y44449D01*
Y42544D01*
X1099499Y40640D01*
X1097594D01*
X1099499D01*
X1101403Y38736D01*
Y36831D01*
X1099499Y34927D01*
X1095690D01*
X1093785Y36831D01*
X1039815Y186689D02*
X1037910Y188593D01*
X1034101D01*
X1032197Y186689D01*
Y179071D01*
X1034101Y177167D01*
X1037910D01*
X1039815Y179071D01*
X1043623Y177167D02*
X1047432D01*
X1045528D01*
Y188593D01*
X1043623Y186689D01*
X1060763Y177167D02*
X1053145D01*
X1060763Y184784D01*
Y186689D01*
X1058858Y188593D01*
X1055050D01*
X1053145Y186689D01*
X929959D02*
X928055Y188593D01*
X924246D01*
X922342Y186689D01*
Y179071D01*
X924246Y177167D01*
X928055D01*
X929959Y179071D01*
X933768Y177167D02*
X937577D01*
X935672D01*
Y188593D01*
X933768Y186689D01*
X943290Y177167D02*
X947098D01*
X945194D01*
Y188593D01*
X943290Y186689D01*
X872175Y64769D02*
X870270Y66673D01*
X866461D01*
X864557Y64769D01*
Y57151D01*
X866461Y55247D01*
X870270D01*
X872175Y57151D01*
X875983Y55247D02*
X879792D01*
X877888D01*
Y66673D01*
X875983Y64769D01*
X885505D02*
X887410Y66673D01*
X891218D01*
X893123Y64769D01*
Y57151D01*
X891218Y55247D01*
X887410D01*
X885505Y57151D01*
Y64769D01*
X882226Y85089D02*
X880321Y86993D01*
X876512D01*
X874608Y85089D01*
Y77471D01*
X876512Y75567D01*
X880321D01*
X882226Y77471D01*
X886034D02*
X887939Y75567D01*
X891748D01*
X893652Y77471D01*
Y85089D01*
X891748Y86993D01*
X887939D01*
X886034Y85089D01*
Y83184D01*
X887939Y81280D01*
X893652D01*
X882226Y125729D02*
X880321Y127633D01*
X876512D01*
X874608Y125729D01*
Y118111D01*
X876512Y116207D01*
X880321D01*
X882226Y118111D01*
X886034Y125729D02*
X887939Y127633D01*
X891748D01*
X893652Y125729D01*
Y123824D01*
X891748Y121920D01*
X893652Y120016D01*
Y118111D01*
X891748Y116207D01*
X887939D01*
X886034Y118111D01*
Y120016D01*
X887939Y121920D01*
X886034Y123824D01*
Y125729D01*
X887939Y121920D02*
X891748D01*
X887096Y146049D02*
X885191Y147953D01*
X881383D01*
X879478Y146049D01*
Y138431D01*
X881383Y136527D01*
X885191D01*
X887096Y138431D01*
X890904Y147953D02*
X898522D01*
Y146049D01*
X890904Y138431D01*
Y136527D01*
X1039496Y227329D02*
X1037591Y229233D01*
X1033783D01*
X1031878Y227329D01*
Y219711D01*
X1033783Y217807D01*
X1037591D01*
X1039496Y219711D01*
X1050922Y229233D02*
X1047113Y227329D01*
X1043304Y223520D01*
Y219711D01*
X1045209Y217807D01*
X1049017D01*
X1050922Y219711D01*
Y221616D01*
X1049017Y223520D01*
X1043304D01*
X935990Y207009D02*
X934085Y208913D01*
X930276D01*
X928372Y207009D01*
Y199391D01*
X930276Y197487D01*
X934085D01*
X935990Y199391D01*
X947416Y208913D02*
X939798D01*
Y203200D01*
X943607Y205104D01*
X945511D01*
X947416Y203200D01*
Y199391D01*
X945511Y197487D01*
X941703D01*
X939798Y199391D01*
X432436Y450849D02*
X430531Y452753D01*
X426722D01*
X424818Y450849D01*
Y443231D01*
X426722Y441327D01*
X430531D01*
X432436Y443231D01*
X441958Y441327D02*
Y452753D01*
X436244Y447040D01*
X443862D01*
X226060Y336549D02*
X224156Y338453D01*
X220347D01*
X218442Y336549D01*
Y328931D01*
X220347Y327027D01*
X224156D01*
X226060Y328931D01*
X229869Y327027D02*
X233678D01*
X231773D01*
Y338453D01*
X229869Y336549D01*
X454029Y584833D02*
Y573407D01*
X459742D01*
X461647Y575311D01*
Y577216D01*
X459742Y579120D01*
X454029D01*
X459742D01*
X461647Y581024D01*
Y582929D01*
X459742Y584833D01*
X454029D01*
X465456D02*
X473073D01*
Y582929D01*
X465456Y575311D01*
Y573407D01*
X473073D01*
X476882D02*
X480691D01*
X478786D01*
Y584833D01*
X476882Y582929D01*
D12*
X493955Y570156D02*
G03*
X494045Y486443I19125J-41836D01*
G01*
X532285Y486521D02*
G03*
X532115Y570197I-19205J41799D01*
G01*
X980320Y146946D02*
G03*
X980320Y146946I-762J0D01*
G01*
X134620Y317500D02*
X154686D01*
X180594D02*
X200660D01*
X149840Y383540D02*
X154178D01*
X181102D02*
X185440D01*
Y383520D02*
X200640Y368320D01*
Y317520D02*
Y368320D01*
X134640D02*
X149840Y383520D01*
X134640Y317520D02*
Y368320D01*
X534180Y327620D02*
X600180D01*
X534180Y195620D02*
X600180D01*
X534180Y361620D02*
X600180D01*
X534180Y161620D02*
X600180D01*
Y361620D01*
X534180Y161620D02*
Y361620D01*
X462080Y516320D02*
Y540320D01*
Y516320D02*
X468630D01*
X462080Y539750D02*
Y540320D01*
X468630D01*
X533400Y477520D02*
X541020D01*
X537210Y473710D02*
Y481330D01*
X8890Y8180D02*
X9280D01*
Y282180D01*
X524280D01*
Y8180D02*
Y282180D01*
X9280Y8180D02*
X524280D01*
X351790Y367240D02*
X364490D01*
X351790Y425240D02*
X364490D01*
X860298Y460497D02*
Y447801D01*
X862837Y445262D01*
X867915D01*
X870455Y447801D01*
Y460497D01*
X883151Y445262D02*
Y460497D01*
X875533Y452879D01*
X885690D01*
D13*
X936860Y515160D02*
Y521160D01*
X886860Y515160D02*
Y521160D01*
X902860Y533160D02*
X920860D01*
X902860Y503160D02*
X920860D01*
X736200Y30020D02*
Y36020D01*
X686200Y30020D02*
Y36020D01*
X702200Y48020D02*
X720200D01*
X702200Y18020D02*
X720200D01*
X1000000Y57150D02*
X1032000D01*
X1000000Y24130D02*
X1032000D01*
D14*
X88900Y368300D02*
D03*
X114300D02*
D03*
M02*
