G04*
G04 #@! TF.GenerationSoftware,Altium Limited,Altium Designer,22.11.1 (43)*
G04*
G04 Layer_Color=65535*
%FSLAX26Y26*%
%MOIN*%
G70*
G04*
G04 #@! TF.SameCoordinates,FE5708A9-2E2A-4F9C-B417-3F3F3253DDB8*
G04*
G04*
G04 #@! TF.FilePolarity,Positive*
G04*
G01*
G75*
%ADD10C,0.007874*%
%ADD11C,0.005000*%
%ADD12C,0.010000*%
%ADD13C,0.004000*%
%ADD14R,0.040000X0.020000*%
G54D10*
X3763976Y1810079D02*
X3756102D01*
X3763976D01*
X2840748Y1531102D02*
X2832874D01*
X2840748D01*
X641339Y664528D02*
X633465D01*
X641339D01*
X1738189Y538189D02*
X2261811D01*
Y1061811D01*
X1738189D02*
X2261811D01*
X1738189Y538189D02*
Y1061811D01*
G54D11*
X1653543Y2058268D02*
X1650906Y2068110D01*
X1643701Y2075315D01*
X1633858Y2077953D01*
X1624016Y2075315D01*
X1616811Y2068110D01*
X1614173Y2058268D01*
X1616811Y2048425D01*
X1624016Y2041220D01*
X1633858Y2038583D01*
X1643701Y2041220D01*
X1650906Y2048425D01*
X1653543Y2058268D01*
X1456693D02*
X1454056Y2068110D01*
X1446850Y2075315D01*
X1437008Y2077953D01*
X1427165Y2075315D01*
X1419960Y2068110D01*
X1417323Y2058268D01*
X1419960Y2048425D01*
X1427165Y2041220D01*
X1437008Y2038583D01*
X1446850Y2041220D01*
X1454056Y2048425D01*
X1456693Y2058268D01*
X2125984D02*
X2123347Y2068110D01*
X2116142Y2075315D01*
X2106299Y2077953D01*
X2096457Y2075315D01*
X2089251Y2068110D01*
X2086614Y2058268D01*
X2089251Y2048425D01*
X2096457Y2041220D01*
X2106299Y2038583D01*
X2116142Y2041220D01*
X2123347Y2048425D01*
X2125984Y2058268D01*
X2519685D02*
X2517048Y2068110D01*
X2509843Y2075315D01*
X2500000Y2077953D01*
X2490157Y2075315D01*
X2482952Y2068110D01*
X2480315Y2058268D01*
X2482952Y2048425D01*
X2490157Y2041220D01*
X2500000Y2038583D01*
X2509843Y2041220D01*
X2517048Y2048425D01*
X2519685Y2058268D01*
X2322835D02*
X2320197Y2068110D01*
X2312992Y2075315D01*
X2303150Y2077953D01*
X2293307Y2075315D01*
X2286102Y2068110D01*
X2283465Y2058268D01*
X2286102Y2048425D01*
X2293307Y2041220D01*
X2303150Y2038583D01*
X2312992Y2041220D01*
X2320197Y2048425D01*
X2322835Y2058268D01*
X489685D02*
X487048Y2068110D01*
X479842Y2075315D01*
X470000Y2077953D01*
X460158Y2075315D01*
X452952Y2068110D01*
X450315Y2058268D01*
X452952Y2048425D01*
X460158Y2041220D01*
X470000Y2038583D01*
X479842Y2041220D01*
X487048Y2048425D01*
X489685Y2058268D01*
X686535D02*
X683898Y2068110D01*
X676693Y2075315D01*
X666850Y2077953D01*
X657008Y2075315D01*
X649803Y2068110D01*
X647165Y2058268D01*
X649803Y2048425D01*
X657008Y2041220D01*
X666850Y2038583D01*
X676693Y2041220D01*
X683898Y2048425D01*
X686535Y2058268D01*
X292835D02*
X290197Y2068110D01*
X282992Y2075315D01*
X273150Y2077953D01*
X263307Y2075315D01*
X256102Y2068110D01*
X253465Y2058268D01*
X256102Y2048425D01*
X263307Y2041220D01*
X273150Y2038583D01*
X282992Y2041220D01*
X290197Y2048425D01*
X292835Y2058268D01*
X5511811Y275591D02*
X5511165Y285660D01*
X5509236Y295563D01*
X5506056Y305139D01*
X5501679Y314230D01*
X5496174Y322686D01*
X5489634Y330369D01*
X5482165Y337152D01*
X5473889Y342925D01*
X5464944Y347592D01*
X5455475Y351076D01*
X5445638Y353322D01*
X5435595Y354290D01*
X5425510Y353967D01*
X5415550Y352357D01*
X5405877Y349486D01*
X5396650Y345402D01*
X5388022Y340171D01*
X5380134Y333880D01*
X5373114Y326632D01*
X5367080Y318546D01*
X5362128Y309755D01*
X5358342Y300402D01*
X5355783Y290642D01*
X5354493Y280635D01*
Y270546D01*
X5355783Y260539D01*
X5358342Y250779D01*
X5362128Y241427D01*
X5367080Y232635D01*
X5373114Y224549D01*
X5380134Y217301D01*
X5388022Y211010D01*
X5396650Y205780D01*
X5405877Y201695D01*
X5415550Y198825D01*
X5425510Y197214D01*
X5435595Y196891D01*
X5445638Y197860D01*
X5455475Y200105D01*
X5464944Y203589D01*
X5473889Y208256D01*
X5482164Y214029D01*
X5489634Y220812D01*
X5496174Y228495D01*
X5501679Y236951D01*
X5506056Y246042D01*
X5509236Y255618D01*
X5511165Y265521D01*
X5511811Y275590D01*
X4173228Y275591D02*
X4172582Y285660D01*
X4170653Y295563D01*
X4167474Y305139D01*
X4163096Y314230D01*
X4157592Y322686D01*
X4151051Y330369D01*
X4143582Y337152D01*
X4135306Y342925D01*
X4126361Y347592D01*
X4116892Y351076D01*
X4107055Y353322D01*
X4097012Y354290D01*
X4086927Y353967D01*
X4076967Y352357D01*
X4067294Y349486D01*
X4058068Y345402D01*
X4049440Y340171D01*
X4041551Y333880D01*
X4034532Y326632D01*
X4028497Y318546D01*
X4023546Y309755D01*
X4019759Y300402D01*
X4017200Y290642D01*
X4015910Y280635D01*
Y270546D01*
X4017200Y260539D01*
X4019759Y250779D01*
X4023546Y241427D01*
X4028497Y232635D01*
X4034532Y224549D01*
X4041551Y217301D01*
X4049440Y211010D01*
X4058068Y205780D01*
X4067294Y201695D01*
X4076967Y198825D01*
X4086927Y197214D01*
X4097012Y196891D01*
X4107055Y197860D01*
X4116892Y200105D01*
X4126361Y203589D01*
X4135306Y208256D01*
X4143582Y214029D01*
X4151051Y220812D01*
X4157592Y228495D01*
X4163096Y236951D01*
X4167474Y246042D01*
X4170653Y255618D01*
X4172582Y265521D01*
X4173228Y275590D01*
X5511811Y2086614D02*
X5511165Y2096683D01*
X5509236Y2106587D01*
X5506056Y2116163D01*
X5501679Y2125253D01*
X5496174Y2133709D01*
X5489634Y2141392D01*
X5482165Y2148176D01*
X5473889Y2153948D01*
X5464944Y2158615D01*
X5455475Y2162100D01*
X5445638Y2164345D01*
X5435595Y2165314D01*
X5425510Y2164991D01*
X5415550Y2163380D01*
X5405877Y2160509D01*
X5396650Y2156425D01*
X5388022Y2151195D01*
X5380134Y2144904D01*
X5373114Y2137656D01*
X5367080Y2129570D01*
X5362128Y2120778D01*
X5358342Y2111426D01*
X5355783Y2101666D01*
X5354493Y2091659D01*
Y2081569D01*
X5355783Y2071562D01*
X5358342Y2061802D01*
X5362128Y2052450D01*
X5367080Y2043659D01*
X5373114Y2035573D01*
X5380134Y2028325D01*
X5388022Y2022034D01*
X5396650Y2016803D01*
X5405877Y2012719D01*
X5415550Y2009848D01*
X5425510Y2008238D01*
X5435595Y2007915D01*
X5445638Y2008883D01*
X5455475Y2011129D01*
X5464944Y2014613D01*
X5473889Y2019280D01*
X5482164Y2025053D01*
X5489634Y2031836D01*
X5496174Y2039519D01*
X5501679Y2047975D01*
X5506056Y2057065D01*
X5509236Y2066641D01*
X5511165Y2076545D01*
X5511811Y2086614D01*
X4173228Y2086614D02*
X4172582Y2096683D01*
X4170653Y2106587D01*
X4167474Y2116163D01*
X4163096Y2125253D01*
X4157592Y2133709D01*
X4151051Y2141392D01*
X4143582Y2148176D01*
X4135306Y2153948D01*
X4126361Y2158615D01*
X4116892Y2162100D01*
X4107055Y2164345D01*
X4097012Y2165314D01*
X4086927Y2164991D01*
X4076967Y2163380D01*
X4067294Y2160509D01*
X4058068Y2156425D01*
X4049440Y2151195D01*
X4041551Y2144904D01*
X4034532Y2137656D01*
X4028497Y2129570D01*
X4023546Y2120778D01*
X4019759Y2111426D01*
X4017200Y2101666D01*
X4015910Y2091659D01*
Y2081569D01*
X4017200Y2071562D01*
X4019759Y2061802D01*
X4023546Y2052450D01*
X4028497Y2043659D01*
X4034532Y2035573D01*
X4041551Y2028325D01*
X4049440Y2022034D01*
X4058068Y2016803D01*
X4067294Y2012719D01*
X4076967Y2009848D01*
X4086927Y2008238D01*
X4097012Y2007915D01*
X4107055Y2008883D01*
X4116892Y2011129D01*
X4126361Y2014613D01*
X4135306Y2019280D01*
X4143582Y2025053D01*
X4151051Y2031836D01*
X4157592Y2039519D01*
X4163096Y2047975D01*
X4167474Y2057065D01*
X4170653Y2066641D01*
X4172582Y2076545D01*
X4173228Y2086614D01*
X2677165Y157480D02*
X2676519Y167549D01*
X2674590Y177453D01*
X2671411Y187029D01*
X2667033Y196119D01*
X2661529Y204576D01*
X2654988Y212258D01*
X2647519Y219042D01*
X2639244Y224814D01*
X2630298Y229481D01*
X2620829Y232966D01*
X2610992Y235211D01*
X2600949Y236180D01*
X2590864Y235857D01*
X2580904Y234246D01*
X2571231Y231375D01*
X2562005Y227291D01*
X2553377Y222061D01*
X2545488Y215770D01*
X2538469Y208522D01*
X2532434Y200436D01*
X2527483Y191644D01*
X2523696Y182292D01*
X2521137Y172532D01*
X2519847Y162525D01*
Y152435D01*
X2521137Y142428D01*
X2523696Y132669D01*
X2527483Y123316D01*
X2532434Y114525D01*
X2538469Y106439D01*
X2545488Y99191D01*
X2553377Y92900D01*
X2562005Y87669D01*
X2571231Y83585D01*
X2580904Y80714D01*
X2590864Y79104D01*
X2600949Y78781D01*
X2610992Y79749D01*
X2620829Y81995D01*
X2630298Y85479D01*
X2639243Y90146D01*
X2647519Y95919D01*
X2654988Y102702D01*
X2661529Y110385D01*
X2667033Y118841D01*
X2671411Y127931D01*
X2674590Y137507D01*
X2676519Y147411D01*
X2677165Y157480D01*
X3740157Y1496063D02*
X3739511Y1506132D01*
X3737582Y1516036D01*
X3734403Y1525612D01*
X3730025Y1534702D01*
X3724521Y1543158D01*
X3717980Y1550841D01*
X3710511Y1557625D01*
X3702236Y1563397D01*
X3693290Y1568064D01*
X3683821Y1571549D01*
X3673984Y1573794D01*
X3663941Y1574763D01*
X3653856Y1574439D01*
X3643896Y1572829D01*
X3634223Y1569958D01*
X3624997Y1565874D01*
X3616369Y1560643D01*
X3608480Y1554353D01*
X3601461Y1547105D01*
X3595426Y1539018D01*
X3590475Y1530227D01*
X3586689Y1520875D01*
X3584129Y1511115D01*
X3582839Y1501108D01*
Y1491018D01*
X3584129Y1481011D01*
X3586689Y1471251D01*
X3590475Y1461899D01*
X3595426Y1453108D01*
X3601461Y1445021D01*
X3608480Y1437773D01*
X3616369Y1431483D01*
X3624997Y1426252D01*
X3634223Y1422168D01*
X3643896Y1419297D01*
X3653856Y1417687D01*
X3663941Y1417363D01*
X3673984Y1418332D01*
X3683821Y1420577D01*
X3693290Y1424062D01*
X3702235Y1428729D01*
X3710511Y1434501D01*
X3717980Y1441285D01*
X3724521Y1448967D01*
X3730025Y1457424D01*
X3734403Y1466514D01*
X3737582Y1476090D01*
X3739511Y1485994D01*
X3740157Y1496063D01*
X1948819Y2204724D02*
X1948172Y2214794D01*
X1946244Y2224697D01*
X1943064Y2234273D01*
X1938687Y2243364D01*
X1933182Y2251820D01*
X1926642Y2259503D01*
X1919172Y2266286D01*
X1910897Y2272059D01*
X1901951Y2276725D01*
X1892483Y2280210D01*
X1882646Y2282455D01*
X1872602Y2283424D01*
X1862518Y2283101D01*
X1852557Y2281490D01*
X1842885Y2278620D01*
X1833658Y2274535D01*
X1825030Y2269305D01*
X1817142Y2263014D01*
X1810122Y2255766D01*
X1804088Y2247680D01*
X1799136Y2238889D01*
X1795350Y2229536D01*
X1792791Y2219776D01*
X1791500Y2209769D01*
Y2199680D01*
X1792791Y2189673D01*
X1795350Y2179913D01*
X1799136Y2170560D01*
X1804088Y2161769D01*
X1810122Y2153683D01*
X1817142Y2146435D01*
X1825030Y2140144D01*
X1833658Y2134913D01*
X1842885Y2130829D01*
X1852557Y2127958D01*
X1862518Y2126348D01*
X1872602Y2126025D01*
X1882646Y2126994D01*
X1892482Y2129239D01*
X1901951Y2132723D01*
X1910897Y2137390D01*
X1919172Y2143163D01*
X1926642Y2149946D01*
X1933182Y2157629D01*
X1938686Y2166085D01*
X1943064Y2175176D01*
X1946244Y2184751D01*
X1948172Y2194655D01*
X1948819Y2204724D01*
X236220Y1929134D02*
X235574Y1939203D01*
X233645Y1949107D01*
X230466Y1958682D01*
X226088Y1967773D01*
X220584Y1976229D01*
X214043Y1983912D01*
X206574Y1990696D01*
X198299Y1996468D01*
X189353Y2001135D01*
X179884Y2004620D01*
X170047Y2006865D01*
X160004Y2007834D01*
X149919Y2007510D01*
X139959Y2005900D01*
X130286Y2003029D01*
X121060Y1998945D01*
X112432Y1993714D01*
X104543Y1987424D01*
X97524Y1980176D01*
X91489Y1972089D01*
X86538Y1963298D01*
X82751Y1953946D01*
X80192Y1944186D01*
X78902Y1934179D01*
Y1924089D01*
X80192Y1914082D01*
X82751Y1904322D01*
X86538Y1894970D01*
X91489Y1886178D01*
X97524Y1878092D01*
X104543Y1870844D01*
X112432Y1864553D01*
X121060Y1859323D01*
X130286Y1855239D01*
X139959Y1852368D01*
X149919Y1850758D01*
X160004Y1850434D01*
X170047Y1851403D01*
X179884Y1853648D01*
X189353Y1857133D01*
X198298Y1861800D01*
X206574Y1867572D01*
X214043Y1874356D01*
X220584Y1882038D01*
X226088Y1890495D01*
X230466Y1899585D01*
X233645Y1909161D01*
X235574Y1919065D01*
X236220Y1929134D01*
Y472441D02*
X235574Y482510D01*
X233645Y492414D01*
X230466Y501990D01*
X226088Y511080D01*
X220584Y519536D01*
X214043Y527219D01*
X206574Y534003D01*
X198299Y539775D01*
X189353Y544442D01*
X179884Y547927D01*
X170047Y550172D01*
X160004Y551141D01*
X149919Y550817D01*
X139959Y549207D01*
X130286Y546336D01*
X121060Y542252D01*
X112432Y537021D01*
X104543Y530731D01*
X97524Y523482D01*
X91489Y515396D01*
X86538Y506605D01*
X82751Y497253D01*
X80192Y487493D01*
X78902Y477486D01*
Y467396D01*
X80192Y457389D01*
X82751Y447629D01*
X86538Y438277D01*
X91489Y429485D01*
X97524Y421399D01*
X104543Y414151D01*
X112432Y407860D01*
X121060Y402630D01*
X130286Y398546D01*
X139959Y395675D01*
X149919Y394065D01*
X160004Y393741D01*
X170047Y394710D01*
X179884Y396955D01*
X189353Y400440D01*
X198298Y405107D01*
X206574Y410879D01*
X214043Y417663D01*
X220584Y425345D01*
X226088Y433801D01*
X230466Y442892D01*
X233645Y452468D01*
X235574Y462372D01*
X236220Y472441D01*
X1740158Y469291D02*
X1732284D01*
X1740158D01*
X1741788D02*
X1733437Y474113D01*
Y464469D01*
X1741788Y469291D01*
X1789032Y583465D02*
X1780681Y588286D01*
Y578643D01*
X1789032Y583465D01*
X1783465Y579528D02*
X1775591D01*
X1783465D01*
X1785095D02*
X1776744Y584349D01*
Y574706D01*
X1785095Y579528D01*
X1788331D02*
X1783929Y587152D01*
X1775126D01*
X1770724Y579528D01*
X1775126Y571904D01*
X1783929D01*
X1788331Y579528D01*
X1790663D02*
X1786470Y588234D01*
X1777050Y590384D01*
X1769495Y584359D01*
Y574696D01*
X1777050Y568671D01*
X1786470Y570822D01*
X1790663Y579528D01*
X62835Y26535D02*
Y337559D01*
X417165Y26535D02*
X417165Y54094D01*
Y310000D02*
Y337559D01*
X62835D02*
X102205D01*
X377795D02*
X417165D01*
X3735000Y2010079D02*
Y2327008D01*
Y1654567D02*
Y1870079D01*
X3105079Y1654567D02*
X3735000D01*
X3105079D02*
Y1870079D01*
Y2010079D02*
Y2327008D01*
X3735000D01*
X940000Y715000D02*
X1060000D01*
X940000Y805000D02*
X1060000D01*
X630000Y335000D02*
X750000D01*
X630000Y425000D02*
X750000D01*
X630000Y235000D02*
X750000D01*
X630000Y325000D02*
X750000D01*
X870000Y611000D02*
Y690000D01*
Y430000D02*
Y509000D01*
X1130000Y613000D02*
Y630079D01*
Y489921D02*
Y507000D01*
X1070079Y430079D02*
X1129921Y489921D01*
X870079Y430079D02*
X1070079D01*
Y689921D02*
X1129921Y630079D01*
X870079Y689921D02*
X1070079D01*
X1303071Y636299D02*
Y1423701D01*
X1562913Y636299D02*
Y1423701D01*
X1303071Y636299D02*
X1562913D01*
X1303071Y1423701D02*
X1562913D01*
X1303071Y770158D02*
X1562913D01*
X1303071Y1289842D02*
X1562913D01*
X4063497Y1277059D02*
Y1322941D01*
Y1277059D02*
X4101732Y1300000D01*
X4063497Y1322941D02*
X4101732Y1300000D01*
X4230079Y1140000D02*
Y1260000D01*
X4131654Y1240000D02*
Y1349213D01*
Y1050787D02*
Y1160000D01*
Y1349213D02*
X4230079D01*
Y1340000D02*
Y1349213D01*
X4131654Y1050787D02*
X4230079D01*
Y1060000D01*
X4131654Y1250000D02*
X4230079D01*
X4131654Y1150000D02*
X4230079D01*
X2910000Y2240000D02*
X2930000D01*
X2910000Y2180000D02*
X2930000D01*
X2710000D02*
X2730000D01*
X2710000Y2240000D02*
X2730000D01*
X1314961Y2034646D02*
X1755906D01*
X1314961Y2333858D02*
X1755906D01*
X1314961Y2034646D02*
Y2333858D01*
X1755906Y2034646D02*
Y2333858D01*
X1315433Y2077953D02*
X1755433D01*
X1653543Y2274803D02*
Y2333858D01*
X1614173Y2274803D02*
X1653543D01*
X1614173D02*
Y2333858D01*
X1456693Y2274803D02*
Y2333858D01*
X1417323Y2274803D02*
X1456693D01*
X1417323D02*
Y2333858D01*
X1984252Y2077953D02*
X2622047D01*
Y2264961D02*
Y2333858D01*
X2519685Y2274803D02*
Y2333858D01*
X2480315Y2274803D02*
X2519685D01*
X2480315D02*
Y2333858D01*
X2322835Y2274803D02*
Y2333858D01*
X2283465Y2274803D02*
Y2333858D01*
X2086614Y2274803D02*
Y2333858D01*
Y2274803D02*
X2125984D01*
Y2333858D01*
X1984252Y2264961D02*
Y2333858D01*
X2283465Y2274803D02*
X2322835D01*
X1984252Y2333858D02*
X2622047Y2333858D01*
X1984252Y2264961D02*
X2622047Y2264961D01*
X1984252Y2034646D02*
Y2264961D01*
Y2034646D02*
X2622047D01*
Y2264961D01*
X788898Y2034646D02*
Y2264961D01*
X151102Y2034646D02*
X788898D01*
X151102D02*
Y2264961D01*
X788898Y2264961D01*
X151102Y2333858D02*
X788898Y2333858D01*
X450315Y2274803D02*
X489685D01*
X151102Y2264961D02*
Y2333858D01*
X292835Y2274803D02*
Y2333858D01*
X253465Y2274803D02*
X292835D01*
X253465D02*
Y2333858D01*
X450315Y2274803D02*
Y2333858D01*
X489685Y2274803D02*
Y2333858D01*
X647165Y2274803D02*
Y2333858D01*
Y2274803D02*
X686535D01*
Y2333858D01*
X788898Y2264961D02*
Y2333858D01*
X151102Y2077953D02*
X788898D01*
X162913Y1065355D02*
X399134D01*
X540866D02*
X777087D01*
Y1817323D01*
X162913D02*
X777087D01*
X162913Y1065355D02*
Y1817323D01*
X2601575Y1698425D02*
X2613189D01*
X2601575Y1501575D02*
X2613189D01*
X2786811Y1698425D02*
X2798425D01*
X2786811Y1501575D02*
X2798425D01*
X2601575Y1686811D02*
Y1698425D01*
Y1501575D02*
Y1513189D01*
X2798425Y1686811D02*
Y1698425D01*
Y1501575D02*
Y1513189D01*
X354941Y723760D02*
Y765197D01*
X85059Y723760D02*
X354941D01*
X85059D02*
Y765197D01*
X354941Y914803D02*
Y956240D01*
X85059D02*
X354941D01*
X85059Y914803D02*
Y956240D01*
X3660000Y1390000D02*
X3760000D01*
X3660000Y1090000D02*
Y1390000D01*
X3760000Y1090000D02*
Y1390000D01*
X3660000Y1090000D02*
X3760000D01*
X3610000Y1115000D02*
X3635000Y1140000D01*
X3610000Y1115000D02*
Y1165000D01*
X3635000Y1140000D01*
X1105000Y380000D02*
X1115000Y365000D01*
X1125000Y380000D01*
X1105000D02*
X1125000D01*
X1090551Y365000D02*
Y377480D01*
Y262520D02*
Y275000D01*
X909449Y262520D02*
Y275000D01*
Y365000D02*
Y377480D01*
Y262520D02*
X1090551D01*
X909449Y377480D02*
X1090551D01*
X599449Y217480D02*
X780551D01*
X599449Y102520D02*
X780551D01*
X599449Y205000D02*
Y217480D01*
Y102520D02*
Y115000D01*
X780551Y102520D02*
Y115000D01*
Y205000D02*
Y217480D01*
X795000Y220000D02*
X815000D01*
X805000Y205000D02*
X815000Y220000D01*
X795000D02*
X805000Y205000D01*
X1150000Y750000D02*
X1250000D01*
Y1250000D01*
X1150000Y750000D02*
Y1250000D01*
X1250000D01*
X1175000Y1312500D02*
X1200000Y1287500D01*
X1175000Y1312500D02*
X1225000D01*
X1200000Y1287500D02*
X1225000Y1312500D01*
X2185000Y1950000D02*
X2215000D01*
X2185000Y1890000D02*
X2215000D01*
X2470000Y1730000D02*
X2490000D01*
X2470000Y1670000D02*
X2490000D01*
X2470000Y1810000D02*
X2490000D01*
X2470000Y1750000D02*
X2490000D01*
X1785000Y1490000D02*
X1815000D01*
X1785000Y1550000D02*
X1815000D01*
X1390000Y1570000D02*
X1410000D01*
X1390000Y1630000D02*
X1410000D01*
X1385000Y1710000D02*
X1415000D01*
X1385000Y1650000D02*
X1415000D01*
X1385000Y1490000D02*
X1415000D01*
X1385000Y1550000D02*
X1415000D01*
X1785000Y1630000D02*
X1815000D01*
X1785000Y1570000D02*
X1815000D01*
X2985000Y1230000D02*
X3015000D01*
X2985000Y1170000D02*
X3015000D01*
X2990000Y1250000D02*
X3010000D01*
X2990000Y1310000D02*
X3010000D01*
X3190000Y1230000D02*
X3210000D01*
X3190000Y1170000D02*
X3210000D01*
X3190000Y1310000D02*
X3210000D01*
X3190000Y1250000D02*
X3210000D01*
X3185000Y1410000D02*
X3215000D01*
X3185000Y1470000D02*
X3215000D01*
X2585000Y830000D02*
X2615000D01*
X2585000Y770000D02*
X2615000D01*
X2585000Y910000D02*
X2615000D01*
X2585000Y850000D02*
X2615000D01*
X2585000Y990000D02*
X2615000D01*
X2585000Y930000D02*
X2615000D01*
X1385000Y450000D02*
X1415000D01*
X1385000Y510000D02*
X1415000D01*
X2990000Y1410000D02*
X3010000D01*
X2990000Y1470000D02*
X3010000D01*
X2990000Y1330000D02*
X3010000D01*
X2990000Y1390000D02*
X3010000D01*
X3168504Y1385000D02*
X3231496D01*
X3168504Y1335000D02*
X3231496D01*
X2183543Y1390000D02*
X2213543D01*
X2183543Y1330000D02*
X2213543D01*
X2185000Y1310000D02*
X2215000D01*
X2185000Y1250000D02*
X2215000D01*
X2185000Y1630000D02*
X2215000D01*
X2185000Y1570000D02*
X2215000D01*
X2183543Y1470000D02*
X2213543D01*
X2183543Y1410000D02*
X2213543D01*
X2185000Y1550000D02*
X2215000D01*
X2185000Y1490000D02*
X2215000D01*
X2185000Y1790000D02*
X2215000D01*
X2185000Y1730000D02*
X2215000D01*
X2185000Y1710000D02*
X2215000D01*
X2185000Y1650000D02*
X2215000D01*
X1585000Y1950000D02*
X1615000D01*
X1585000Y1890000D02*
X1615000D01*
X1385000Y430000D02*
X1415000D01*
X1385000Y370000D02*
X1415000D01*
X1385000Y350000D02*
X1415000D01*
X1385000Y290000D02*
X1415000D01*
X940000Y1745000D02*
Y1775000D01*
X1060000D01*
Y1745000D02*
Y1775000D01*
X940000Y1745000D02*
X1060000D01*
X1185000Y1790000D02*
X1215000D01*
X1185000Y1730000D02*
X1215000D01*
X1185000Y1810000D02*
X1215000D01*
X1185000Y1870000D02*
X1215000D01*
X985000Y990000D02*
X1015000D01*
X985000Y930000D02*
X1015000D01*
X2590000Y590000D02*
X2610000D01*
X2590000Y530000D02*
X2610000D01*
X2390000Y210000D02*
X2410000D01*
X2390000Y270000D02*
X2410000D01*
X2390000Y190000D02*
X2410000D01*
X2390000Y130000D02*
X2410000D01*
X2190000Y110000D02*
X2210000D01*
X2190000Y50000D02*
X2210000D01*
X1790000Y110000D02*
X1810000D01*
X1790000Y50000D02*
X1810000D01*
X1469000Y131457D02*
X1581000D01*
X1469000Y188543D02*
X1581000D01*
X1790000Y270000D02*
X1810000D01*
X1790000Y210000D02*
X1810000D01*
X2590000Y1010000D02*
X2610000D01*
X2590000Y1070000D02*
X2610000D01*
X1790000Y1330000D02*
X1810000D01*
X1790000Y1390000D02*
X1810000D01*
X1590000Y110000D02*
X1610000D01*
X1590000Y50000D02*
X1610000D01*
X1790000Y1250000D02*
X1810000D01*
X1790000Y1310000D02*
X1810000D01*
X985000Y1090000D02*
X1015000D01*
X985000Y1150000D02*
X1015000D01*
X540945Y619055D02*
X541732D01*
X658268D02*
X659055D01*
X540945Y500945D02*
Y515905D01*
Y604095D02*
Y619055D01*
Y500945D02*
X541732D01*
X658268D02*
X659055D01*
Y515905D01*
Y604095D02*
Y619055D01*
X985000Y910000D02*
X1015000D01*
X985000Y850000D02*
X1015000D01*
X933071Y120630D02*
X1066929D01*
X933071Y199370D02*
X1066929D01*
X981000Y1493000D02*
Y1547559D01*
X964567D02*
X1035433D01*
X964567Y1492441D02*
X1035433D01*
X945500Y1496500D02*
X950500Y1491500D01*
X940500D02*
X950500D01*
X940500D02*
X945500Y1496500D01*
X1035433Y1540000D02*
Y1547559D01*
Y1492441D02*
Y1501000D01*
X964567Y1492441D02*
Y1502000D01*
Y1540000D02*
Y1547559D01*
X940000Y1345000D02*
Y1375000D01*
X1060000D01*
Y1345000D02*
Y1375000D01*
X940000Y1345000D02*
X1060000D01*
X985000Y1230000D02*
X1015000D01*
X985000Y1170000D02*
X1015000D01*
X2785000Y50000D02*
X2815000D01*
X2785000Y110000D02*
X2815000D01*
X3585000Y1070000D02*
X3615000D01*
X3585000Y1010000D02*
X3615000D01*
X3590000Y430000D02*
X3610000D01*
X3590000Y370000D02*
X3610000D01*
X3590000Y210000D02*
X3610000D01*
X3590000Y270000D02*
X3610000D01*
X3590000Y750000D02*
X3610000D01*
X3590000Y690000D02*
X3610000D01*
X3585000Y990000D02*
X3615000D01*
X3585000Y930000D02*
X3615000D01*
X3190000Y910000D02*
X3210000D01*
X3190000Y850000D02*
X3210000D01*
X3590000Y110000D02*
X3610000D01*
X3590000Y50000D02*
X3610000D01*
X3590000Y130000D02*
X3610000D01*
X3590000Y190000D02*
X3610000D01*
X3590000Y910000D02*
X3610000D01*
X3590000Y850000D02*
X3610000D01*
X3590000Y830000D02*
X3610000D01*
X3590000Y770000D02*
X3610000D01*
X3585000Y590000D02*
X3615000D01*
X3585000Y530000D02*
X3615000D01*
X3590000Y670000D02*
X3610000D01*
X3590000Y610000D02*
X3610000D01*
X3572441Y350000D02*
X3627559D01*
X3572441Y290000D02*
X3627559D01*
X3572441Y510000D02*
X3627559D01*
X3572441Y450000D02*
X3627559D01*
X2790000Y130000D02*
X2810000D01*
X2790000Y190000D02*
X2810000D01*
X2790000Y350000D02*
X2810000D01*
X2790000Y290000D02*
X2810000D01*
X2790000Y210000D02*
X2810000D01*
X2790000Y270000D02*
X2810000D01*
X2790000Y590000D02*
X2810000D01*
X2790000Y530000D02*
X2810000D01*
X2790000Y450000D02*
X2810000D01*
X2790000Y510000D02*
X2810000D01*
X2768504Y665000D02*
X2831496D01*
X2768504Y615000D02*
X2831496D01*
X2768504Y375000D02*
X2831496D01*
X2768504Y425000D02*
X2831496D01*
X3370000Y150000D02*
Y170000D01*
X3310000Y150000D02*
Y170000D01*
X3010000Y150000D02*
Y170000D01*
X3070000Y150000D02*
Y170000D01*
X3185000Y770000D02*
X3215000D01*
X3185000Y830000D02*
X3215000D01*
X3190000Y750000D02*
X3210000D01*
X3190000Y690000D02*
X3210000D01*
X2990000Y770000D02*
X3010000D01*
X2990000Y830000D02*
X3010000D01*
X2990000Y690000D02*
X3010000D01*
X2990000Y750000D02*
X3010000D01*
X1390000Y530000D02*
X1410000D01*
X1390000Y590000D02*
X1410000D01*
X1590000Y210000D02*
X1610000D01*
X1590000Y270000D02*
X1610000D01*
X347507Y404995D02*
X340010Y412493D01*
X325014D01*
X317517Y404995D01*
Y375005D01*
X325014Y367507D01*
X340010D01*
X347507Y375005D01*
X362502Y367507D02*
Y412493D01*
X392493Y367507D01*
Y412493D01*
X407488Y367507D02*
X422483D01*
X414986D01*
Y412493D01*
X407488Y404995D01*
X3390000Y1632493D02*
X3375005D01*
X3382502D01*
Y1595005D01*
X3375005Y1587507D01*
X3367507D01*
X3360010Y1595005D01*
X3404995Y1587507D02*
X3419990D01*
X3412493D01*
Y1632493D01*
X3404995Y1624995D01*
X417517Y1847507D02*
Y1892493D01*
X440010D01*
X447507Y1884995D01*
Y1870000D01*
X440010Y1862503D01*
X417517D01*
X432512D02*
X447507Y1847507D01*
X462502Y1892493D02*
Y1847507D01*
X492493D01*
X507488D02*
X522483D01*
X514986D01*
Y1892493D01*
X507488Y1884995D01*
X172512Y1022493D02*
Y977507D01*
X195005D01*
X202502Y985005D01*
Y1014995D01*
X195005Y1022493D01*
X172512D01*
X247488Y977507D02*
X217498D01*
X247488Y1007498D01*
Y1014995D01*
X239990Y1022493D01*
X224995D01*
X217498Y1014995D01*
X652512Y82493D02*
Y37507D01*
X675005D01*
X682502Y45005D01*
Y74995D01*
X675005Y82493D01*
X652512D01*
X719990Y37507D02*
Y82493D01*
X697498Y60000D01*
X727488D01*
X4150010Y1424995D02*
X4142512Y1432493D01*
X4127517D01*
X4120019Y1424995D01*
Y1395005D01*
X4127517Y1387507D01*
X4142512D01*
X4150010Y1395005D01*
X4165005Y1387507D02*
Y1432493D01*
X4194995Y1387507D01*
Y1432493D01*
X4209990D02*
X4239981D01*
Y1424995D01*
X4209990Y1395005D01*
Y1387507D01*
X3550010Y1254995D02*
X3542512Y1262493D01*
X3527517D01*
X3520019Y1254995D01*
Y1225005D01*
X3527517Y1217507D01*
X3542512D01*
X3550010Y1225005D01*
X3565005Y1217507D02*
Y1262493D01*
X3594995Y1217507D01*
Y1262493D01*
X3639981D02*
X3624986Y1254995D01*
X3609990Y1240000D01*
Y1225005D01*
X3617488Y1217507D01*
X3632483D01*
X3639981Y1225005D01*
Y1232503D01*
X3632483Y1240000D01*
X3609990D01*
X2662512Y1782493D02*
Y1745005D01*
X2670010Y1737507D01*
X2685005D01*
X2692502Y1745005D01*
Y1782493D01*
X2729990Y1737507D02*
Y1782493D01*
X2707498Y1760000D01*
X2737488D01*
X542502Y394995D02*
X535005Y402493D01*
X520010D01*
X512512Y394995D01*
Y365005D01*
X520010Y357507D01*
X535005D01*
X542502Y365005D01*
X557498Y394995D02*
X564995Y402493D01*
X579990D01*
X587488Y394995D01*
Y387498D01*
X579990Y380000D01*
X572493D01*
X579990D01*
X587488Y372502D01*
Y365005D01*
X579990Y357507D01*
X564995D01*
X557498Y365005D01*
X1192502Y674995D02*
X1185005Y682493D01*
X1170010D01*
X1162512Y674995D01*
Y645005D01*
X1170010Y637507D01*
X1185005D01*
X1192502Y645005D01*
X1237488Y637507D02*
X1207498D01*
X1237488Y667498D01*
Y674995D01*
X1229990Y682493D01*
X1214995D01*
X1207498Y674995D01*
X1276678Y179994D02*
X1303335Y140006D01*
Y179994D02*
X1276678Y140006D01*
X1336658D02*
Y179994D01*
X1316665Y160000D01*
X1343323D01*
X1587517Y1422493D02*
Y1377507D01*
X1610010D01*
X1617507Y1385005D01*
Y1392503D01*
X1610010Y1400000D01*
X1587517D01*
X1610010D01*
X1617507Y1407498D01*
Y1414995D01*
X1610010Y1422493D01*
X1587517D01*
X1632502D02*
X1662493D01*
X1647498D01*
Y1377507D01*
X1677488D02*
X1692483D01*
X1684986D01*
Y1422493D01*
X1677488Y1414995D01*
X1962512Y262493D02*
X1992502Y217507D01*
Y262493D02*
X1962512Y217507D01*
X2007498Y254995D02*
X2014995Y262493D01*
X2029990D01*
X2037488Y254995D01*
Y247498D01*
X2029990Y240000D01*
X2022493D01*
X2029990D01*
X2037488Y232502D01*
Y225005D01*
X2029990Y217507D01*
X2014995D01*
X2007498Y225005D01*
X2782512Y2182493D02*
X2812502Y2137507D01*
Y2182493D02*
X2782512Y2137507D01*
X2857488D02*
X2827498D01*
X2857488Y2167498D01*
Y2174995D01*
X2849990Y2182493D01*
X2834995D01*
X2827498Y2174995D01*
X3170010Y292493D02*
X3200000Y247507D01*
Y292493D02*
X3170010Y247507D01*
X3214995D02*
X3229990D01*
X3222493D01*
Y292493D01*
X3214995Y284995D01*
X1622512Y1152493D02*
Y1115005D01*
X1630010Y1107507D01*
X1645005D01*
X1652502Y1115005D01*
Y1152493D01*
X1697488D02*
X1667498D01*
Y1130000D01*
X1682493Y1137498D01*
X1689990D01*
X1697488Y1130000D01*
Y1115005D01*
X1689990Y1107507D01*
X1674995D01*
X1667498Y1115005D01*
X3002512Y672493D02*
Y635005D01*
X3010010Y627507D01*
X3025005D01*
X3032502Y635005D01*
Y672493D01*
X3047498Y664995D02*
X3054995Y672493D01*
X3069990D01*
X3077488Y664995D01*
Y657498D01*
X3069990Y650000D01*
X3062493D01*
X3069990D01*
X3077488Y642503D01*
Y635005D01*
X3069990Y627507D01*
X3054995D01*
X3047498Y635005D01*
X432512Y582493D02*
Y545005D01*
X440010Y537507D01*
X455005D01*
X462502Y545005D01*
Y582493D01*
X507488Y537507D02*
X477498D01*
X507488Y567498D01*
Y574995D01*
X499990Y582493D01*
X484995D01*
X477498Y574995D01*
X808350Y1177507D02*
Y1222493D01*
X830843D01*
X838340Y1214995D01*
Y1200000D01*
X830843Y1192503D01*
X808350D01*
X823345D02*
X838340Y1177507D01*
X853336Y1214995D02*
X860833Y1222493D01*
X875828D01*
X883326Y1214995D01*
Y1207498D01*
X875828Y1200000D01*
X868331D01*
X875828D01*
X883326Y1192503D01*
Y1185005D01*
X875828Y1177507D01*
X860833D01*
X853336Y1185005D01*
X928311Y1177507D02*
X898321D01*
X928311Y1207498D01*
Y1214995D01*
X920814Y1222493D01*
X905819D01*
X898321Y1214995D01*
X823345Y1097507D02*
Y1142493D01*
X845838D01*
X853336Y1134995D01*
Y1120000D01*
X845838Y1112503D01*
X823345D01*
X838340D02*
X853336Y1097507D01*
X868331Y1134995D02*
X875828Y1142493D01*
X890823D01*
X898321Y1134995D01*
Y1127498D01*
X890823Y1120000D01*
X883326D01*
X890823D01*
X898321Y1112503D01*
Y1105005D01*
X890823Y1097507D01*
X875828D01*
X868331Y1105005D01*
X913316Y1097507D02*
X928311D01*
X920814D01*
Y1142493D01*
X913316Y1134995D01*
X1260019Y1737507D02*
Y1782493D01*
X1282512D01*
X1290010Y1774995D01*
Y1760000D01*
X1282512Y1752503D01*
X1260019D01*
X1275015D02*
X1290010Y1737507D01*
X1305005Y1774995D02*
X1312503Y1782493D01*
X1327498D01*
X1334995Y1774995D01*
Y1767498D01*
X1327498Y1760000D01*
X1320000D01*
X1327498D01*
X1334995Y1752503D01*
Y1745005D01*
X1327498Y1737507D01*
X1312503D01*
X1305005Y1745005D01*
X1349990Y1774995D02*
X1357488Y1782493D01*
X1372483D01*
X1379981Y1774995D01*
Y1745005D01*
X1372483Y1737507D01*
X1357488D01*
X1349990Y1745005D01*
Y1774995D01*
X1260019Y1817507D02*
Y1862493D01*
X1282512D01*
X1290010Y1854995D01*
Y1840000D01*
X1282512Y1832503D01*
X1260019D01*
X1275015D02*
X1290010Y1817507D01*
X1334995D02*
X1305005D01*
X1334995Y1847498D01*
Y1854995D01*
X1327498Y1862493D01*
X1312503D01*
X1305005Y1854995D01*
X1349990Y1825005D02*
X1357488Y1817507D01*
X1372483D01*
X1379981Y1825005D01*
Y1854995D01*
X1372483Y1862493D01*
X1357488D01*
X1349990Y1854995D01*
Y1847498D01*
X1357488Y1840000D01*
X1379981D01*
X1670019Y1897507D02*
Y1942493D01*
X1692512D01*
X1700010Y1934995D01*
Y1920000D01*
X1692512Y1912503D01*
X1670019D01*
X1685015D02*
X1700010Y1897507D01*
X1744995D02*
X1715005D01*
X1744995Y1927498D01*
Y1934995D01*
X1737498Y1942493D01*
X1722503D01*
X1715005Y1934995D01*
X1759990D02*
X1767488Y1942493D01*
X1782483D01*
X1789981Y1934995D01*
Y1927498D01*
X1782483Y1920000D01*
X1789981Y1912503D01*
Y1905005D01*
X1782483Y1897507D01*
X1767488D01*
X1759990Y1905005D01*
Y1912503D01*
X1767488Y1920000D01*
X1759990Y1927498D01*
Y1934995D01*
X1767488Y1920000D02*
X1782483D01*
X1467517Y457507D02*
Y502493D01*
X1490010D01*
X1497507Y494995D01*
Y480000D01*
X1490010Y472502D01*
X1467517D01*
X1482512D02*
X1497507Y457507D01*
X1542493D02*
X1512502D01*
X1542493Y487498D01*
Y494995D01*
X1534995Y502493D01*
X1520000D01*
X1512502Y494995D01*
X1557488Y502493D02*
X1587478D01*
Y494995D01*
X1557488Y465005D01*
Y457507D01*
X1466594Y1497507D02*
Y1542493D01*
X1489087D01*
X1496584Y1534995D01*
Y1520000D01*
X1489087Y1512503D01*
X1466594D01*
X1481589D02*
X1496584Y1497507D01*
X1541570D02*
X1511580D01*
X1541570Y1527498D01*
Y1534995D01*
X1534072Y1542493D01*
X1519077D01*
X1511580Y1534995D01*
X1586555Y1542493D02*
X1571560Y1534995D01*
X1556565Y1520000D01*
Y1505005D01*
X1564063Y1497507D01*
X1579058D01*
X1586555Y1505005D01*
Y1512503D01*
X1579058Y1520000D01*
X1556565D01*
X1860019Y1577507D02*
Y1622493D01*
X1882512D01*
X1890010Y1614995D01*
Y1600000D01*
X1882512Y1592503D01*
X1860019D01*
X1875015D02*
X1890010Y1577507D01*
X1934995D02*
X1905005D01*
X1934995Y1607498D01*
Y1614995D01*
X1927498Y1622493D01*
X1912503D01*
X1905005Y1614995D01*
X1979981Y1622493D02*
X1949990D01*
Y1600000D01*
X1964986Y1607498D01*
X1972483D01*
X1979981Y1600000D01*
Y1585005D01*
X1972483Y1577507D01*
X1957488D01*
X1949990Y1585005D01*
X1466594Y1657507D02*
Y1702493D01*
X1489087D01*
X1496584Y1694995D01*
Y1680000D01*
X1489087Y1672503D01*
X1466594D01*
X1481589D02*
X1496584Y1657507D01*
X1541570D02*
X1511580D01*
X1541570Y1687498D01*
Y1694995D01*
X1534072Y1702493D01*
X1519077D01*
X1511580Y1694995D01*
X1579058Y1657507D02*
Y1702493D01*
X1556565Y1680000D01*
X1586555D01*
X1467517Y377507D02*
Y422493D01*
X1490010D01*
X1497507Y414995D01*
Y400000D01*
X1490010Y392502D01*
X1467517D01*
X1482512D02*
X1497507Y377507D01*
X1542493D02*
X1512502D01*
X1542493Y407498D01*
Y414995D01*
X1534995Y422493D01*
X1520000D01*
X1512502Y414995D01*
X1557488D02*
X1564986Y422493D01*
X1579981D01*
X1587478Y414995D01*
Y407498D01*
X1579981Y400000D01*
X1572483D01*
X1579981D01*
X1587478Y392502D01*
Y385005D01*
X1579981Y377507D01*
X1564986D01*
X1557488Y385005D01*
X1467517Y297507D02*
Y342493D01*
X1490010D01*
X1497507Y334995D01*
Y320000D01*
X1490010Y312502D01*
X1467517D01*
X1482512D02*
X1497507Y297507D01*
X1542493D02*
X1512502D01*
X1542493Y327498D01*
Y334995D01*
X1534995Y342493D01*
X1520000D01*
X1512502Y334995D01*
X1587478Y297507D02*
X1557488D01*
X1587478Y327498D01*
Y334995D01*
X1579981Y342493D01*
X1564986D01*
X1557488Y334995D01*
X2033558Y1747507D02*
Y1792493D01*
X2056050D01*
X2063548Y1784995D01*
Y1770000D01*
X2056050Y1762503D01*
X2033558D01*
X2048553D02*
X2063548Y1747507D01*
X2108534D02*
X2078543D01*
X2108534Y1777498D01*
Y1784995D01*
X2101036Y1792493D01*
X2086041D01*
X2078543Y1784995D01*
X2123529Y1747507D02*
X2138524D01*
X2131026D01*
Y1792493D01*
X2123529Y1784995D01*
X2018563Y1417507D02*
Y1462493D01*
X2041055D01*
X2048553Y1454995D01*
Y1440000D01*
X2041055Y1432503D01*
X2018563D01*
X2033558D02*
X2048553Y1417507D01*
X2093539D02*
X2063548D01*
X2093539Y1447498D01*
Y1454995D01*
X2086041Y1462493D01*
X2071046D01*
X2063548Y1454995D01*
X2108534D02*
X2116031Y1462493D01*
X2131026D01*
X2138524Y1454995D01*
Y1425005D01*
X2131026Y1417507D01*
X2116031D01*
X2108534Y1425005D01*
Y1454995D01*
X2026060Y1657507D02*
Y1702493D01*
X2048553D01*
X2056051Y1694995D01*
Y1680000D01*
X2048553Y1672503D01*
X2026060D01*
X2041055D02*
X2056051Y1657507D01*
X2071046D02*
X2086041D01*
X2078543D01*
Y1702493D01*
X2071046Y1694995D01*
X2108534Y1665005D02*
X2116031Y1657507D01*
X2131026D01*
X2138524Y1665005D01*
Y1694995D01*
X2131026Y1702493D01*
X2116031D01*
X2108534Y1694995D01*
Y1687498D01*
X2116031Y1680000D01*
X2138524D01*
X2026060Y1337507D02*
Y1382493D01*
X2048553D01*
X2056051Y1374995D01*
Y1360000D01*
X2048553Y1352503D01*
X2026060D01*
X2041055D02*
X2056051Y1337507D01*
X2071046D02*
X2086041D01*
X2078543D01*
Y1382493D01*
X2071046Y1374995D01*
X2108534D02*
X2116031Y1382493D01*
X2131026D01*
X2138524Y1374995D01*
Y1367498D01*
X2131026Y1360000D01*
X2138524Y1352503D01*
Y1345005D01*
X2131026Y1337507D01*
X2116031D01*
X2108534Y1345005D01*
Y1352503D01*
X2116031Y1360000D01*
X2108534Y1367498D01*
Y1374995D01*
X2116031Y1360000D02*
X2131026D01*
X2026060Y1577507D02*
Y1622493D01*
X2048553D01*
X2056051Y1614995D01*
Y1600000D01*
X2048553Y1592503D01*
X2026060D01*
X2041055D02*
X2056051Y1577507D01*
X2071046D02*
X2086041D01*
X2078543D01*
Y1622493D01*
X2071046Y1614995D01*
X2108534Y1622493D02*
X2138524D01*
Y1614995D01*
X2108534Y1585005D01*
Y1577507D01*
X2026060Y1257507D02*
Y1302493D01*
X2048553D01*
X2056051Y1294995D01*
Y1280000D01*
X2048553Y1272503D01*
X2026060D01*
X2041055D02*
X2056051Y1257507D01*
X2071046D02*
X2086041D01*
X2078543D01*
Y1302493D01*
X2071046Y1294995D01*
X2138524Y1302493D02*
X2123529Y1294995D01*
X2108534Y1280000D01*
Y1265005D01*
X2116031Y1257507D01*
X2131026D01*
X2138524Y1265005D01*
Y1272503D01*
X2131026Y1280000D01*
X2108534D01*
X2026060Y1497507D02*
Y1542493D01*
X2048553D01*
X2056051Y1534995D01*
Y1520000D01*
X2048553Y1512503D01*
X2026060D01*
X2041055D02*
X2056051Y1497507D01*
X2071046D02*
X2086041D01*
X2078543D01*
Y1542493D01*
X2071046Y1534995D01*
X2138524Y1542493D02*
X2108534D01*
Y1520000D01*
X2123529Y1527498D01*
X2131026D01*
X2138524Y1520000D01*
Y1505005D01*
X2131026Y1497507D01*
X2116031D01*
X2108534Y1505005D01*
X2026060Y1897507D02*
Y1942493D01*
X2048553D01*
X2056051Y1934995D01*
Y1920000D01*
X2048553Y1912503D01*
X2026060D01*
X2041055D02*
X2056051Y1897507D01*
X2071046D02*
X2086041D01*
X2078543D01*
Y1942493D01*
X2071046Y1934995D01*
X2131026Y1897507D02*
Y1942493D01*
X2108534Y1920000D01*
X2138524D01*
X3270019Y1417507D02*
Y1462493D01*
X3292512D01*
X3300010Y1454995D01*
Y1440000D01*
X3292512Y1432503D01*
X3270019D01*
X3285015D02*
X3300010Y1417507D01*
X3315005D02*
X3330000D01*
X3322503D01*
Y1462493D01*
X3315005Y1454995D01*
X3352493D02*
X3359990Y1462493D01*
X3374985D01*
X3382483Y1454995D01*
Y1447498D01*
X3374985Y1440000D01*
X3367488D01*
X3374985D01*
X3382483Y1432503D01*
Y1425005D01*
X3374985Y1417507D01*
X3359990D01*
X3352493Y1425005D01*
X1860019Y1497507D02*
Y1542493D01*
X1882512D01*
X1890010Y1534995D01*
Y1520000D01*
X1882512Y1512503D01*
X1860019D01*
X1875015D02*
X1890010Y1497507D01*
X1905005D02*
X1920000D01*
X1912503D01*
Y1542493D01*
X1905005Y1534995D01*
X1972483Y1497507D02*
X1942493D01*
X1972483Y1527498D01*
Y1534995D01*
X1964986Y1542493D01*
X1949990D01*
X1942493Y1534995D01*
X2842512Y1177507D02*
Y1222493D01*
X2865005D01*
X2872502Y1214995D01*
Y1200000D01*
X2865005Y1192503D01*
X2842512D01*
X2857507D02*
X2872502Y1177507D01*
X2887498D02*
X2902493D01*
X2894995D01*
Y1222493D01*
X2887498Y1214995D01*
X2924985Y1177507D02*
X2939981D01*
X2932483D01*
Y1222493D01*
X2924985Y1214995D01*
X2427517Y777507D02*
Y822493D01*
X2450010D01*
X2457507Y814995D01*
Y800000D01*
X2450010Y792503D01*
X2427517D01*
X2442512D02*
X2457507Y777507D01*
X2472503D02*
X2487498D01*
X2480000D01*
Y822493D01*
X2472503Y814995D01*
X2509990D02*
X2517488Y822493D01*
X2532483D01*
X2539981Y814995D01*
Y785005D01*
X2532483Y777507D01*
X2517488D01*
X2509990Y785005D01*
Y814995D01*
X2465005Y937507D02*
Y982493D01*
X2487498D01*
X2494995Y974995D01*
Y960000D01*
X2487498Y952503D01*
X2465005D01*
X2480000D02*
X2494995Y937507D01*
X2509990Y945005D02*
X2517488Y937507D01*
X2532483D01*
X2539981Y945005D01*
Y974995D01*
X2532483Y982493D01*
X2517488D01*
X2509990Y974995D01*
Y967498D01*
X2517488Y960000D01*
X2539981D01*
X2465005Y857507D02*
Y902493D01*
X2487498D01*
X2494995Y894995D01*
Y880000D01*
X2487498Y872503D01*
X2465005D01*
X2480000D02*
X2494995Y857507D01*
X2509990Y894995D02*
X2517488Y902493D01*
X2532483D01*
X2539981Y894995D01*
Y887498D01*
X2532483Y880000D01*
X2539981Y872503D01*
Y865005D01*
X2532483Y857507D01*
X2517488D01*
X2509990Y865005D01*
Y872503D01*
X2517488Y880000D01*
X2509990Y887498D01*
Y894995D01*
X2517488Y880000D02*
X2532483D01*
X3463339Y537507D02*
Y582493D01*
X3485831D01*
X3493329Y574995D01*
Y560000D01*
X3485831Y552503D01*
X3463339D01*
X3478334D02*
X3493329Y537507D01*
X3508324Y582493D02*
X3538314D01*
Y574995D01*
X3508324Y545005D01*
Y537507D01*
X3463339Y937507D02*
Y982493D01*
X3485831D01*
X3493329Y974995D01*
Y960000D01*
X3485831Y952503D01*
X3463339D01*
X3478334D02*
X3493329Y937507D01*
X3538314Y982493D02*
X3523319Y974995D01*
X3508324Y960000D01*
Y945005D01*
X3515822Y937507D01*
X3530817D01*
X3538314Y945005D01*
Y952503D01*
X3530817Y960000D01*
X3508324D01*
X2863768Y57507D02*
Y102493D01*
X2886261D01*
X2893758Y94995D01*
Y80000D01*
X2886261Y72502D01*
X2863768D01*
X2878763D02*
X2893758Y57507D01*
X2938744Y102493D02*
X2908754D01*
Y80000D01*
X2923749Y87498D01*
X2931246D01*
X2938744Y80000D01*
Y65005D01*
X2931246Y57507D01*
X2916251D01*
X2908754Y65005D01*
X3463339Y1017507D02*
Y1062493D01*
X3485831D01*
X3493329Y1054995D01*
Y1040000D01*
X3485831Y1032503D01*
X3463339D01*
X3478334D02*
X3493329Y1017507D01*
X3530817D02*
Y1062493D01*
X3508324Y1040000D01*
X3538314D01*
X3262512Y777507D02*
Y822493D01*
X3285005D01*
X3292502Y814995D01*
Y800000D01*
X3285005Y792503D01*
X3262512D01*
X3277507D02*
X3292502Y777507D01*
X3307498Y814995D02*
X3314995Y822493D01*
X3329990D01*
X3337488Y814995D01*
Y807498D01*
X3329990Y800000D01*
X3322493D01*
X3329990D01*
X3337488Y792503D01*
Y785005D01*
X3329990Y777507D01*
X3314995D01*
X3307498Y785005D01*
X853336Y867507D02*
Y912493D01*
X875828D01*
X883326Y904995D01*
Y890000D01*
X875828Y882503D01*
X853336D01*
X868331D02*
X883326Y867507D01*
X928311D02*
X898321D01*
X928311Y897498D01*
Y904995D01*
X920814Y912493D01*
X905819D01*
X898321Y904995D01*
X868331Y937507D02*
Y982493D01*
X890823D01*
X898321Y974995D01*
Y960000D01*
X890823Y952503D01*
X868331D01*
X883326D02*
X898321Y937507D01*
X913316D02*
X928311D01*
X920814D01*
Y982493D01*
X913316Y974995D01*
X875005Y1345005D02*
Y1374995D01*
X867507Y1382493D01*
X852512D01*
X845015Y1374995D01*
Y1345005D01*
X852512Y1337507D01*
X867507D01*
X860010Y1352503D02*
X875005Y1337507D01*
X867507D02*
X875005Y1345005D01*
X919990Y1337507D02*
X890000D01*
X919990Y1367498D01*
Y1374995D01*
X912493Y1382493D01*
X897498D01*
X890000Y1374995D01*
X890000Y1745005D02*
Y1774995D01*
X882502Y1782493D01*
X867507D01*
X860010Y1774995D01*
Y1745005D01*
X867507Y1737507D01*
X882502D01*
X875005Y1752503D02*
X890000Y1737507D01*
X882502D02*
X890000Y1745005D01*
X904995Y1737507D02*
X919990D01*
X912493D01*
Y1782493D01*
X904995Y1774995D01*
X1110010Y137507D02*
Y182493D01*
X1132502D01*
X1140000Y174995D01*
Y160000D01*
X1132502Y152502D01*
X1110010D01*
X1154995Y137507D02*
X1169990D01*
X1162493D01*
Y182493D01*
X1154995Y174995D01*
X3270019Y1382493D02*
Y1337507D01*
X3300010D01*
X3344995Y1382493D02*
X3330000Y1374995D01*
X3315005Y1360000D01*
Y1345005D01*
X3322503Y1337507D01*
X3337498D01*
X3344995Y1345005D01*
Y1352503D01*
X3337498Y1360000D01*
X3315005D01*
X3463339Y502493D02*
Y457507D01*
X3493329D01*
X3538314Y502493D02*
X3508324D01*
Y480000D01*
X3523319Y487498D01*
X3530817D01*
X3538314Y480000D01*
Y465005D01*
X3530817Y457507D01*
X3515822D01*
X3508324Y465005D01*
X3463339Y342493D02*
Y297507D01*
X3493329D01*
X3530817D02*
Y342493D01*
X3508324Y320000D01*
X3538314D01*
X2662512Y422493D02*
Y377507D01*
X2692502D01*
X2707498Y414995D02*
X2714995Y422493D01*
X2729990D01*
X2737488Y414995D01*
Y407498D01*
X2729990Y400000D01*
X2722493D01*
X2729990D01*
X2737488Y392502D01*
Y385005D01*
X2729990Y377507D01*
X2714995D01*
X2707498Y385005D01*
X2662512Y662493D02*
Y617507D01*
X2692502D01*
X2737488D02*
X2707498D01*
X2737488Y647498D01*
Y654995D01*
X2729990Y662493D01*
X2714995D01*
X2707498Y654995D01*
X570010Y1032493D02*
Y987507D01*
X600000D01*
X614995D02*
X629990D01*
X622493D01*
Y1032493D01*
X614995Y1024995D01*
X853336Y1542493D02*
Y1497507D01*
X875828D01*
X883326Y1505005D01*
Y1534995D01*
X875828Y1542493D01*
X853336D01*
X898321Y1534995D02*
X905819Y1542493D01*
X920814D01*
X928311Y1534995D01*
Y1527498D01*
X920814Y1520000D01*
X913316D01*
X920814D01*
X928311Y1512503D01*
Y1505005D01*
X920814Y1497507D01*
X905819D01*
X898321Y1505005D01*
X1160010Y342493D02*
Y297507D01*
X1182502D01*
X1190000Y305005D01*
Y334995D01*
X1182502Y342493D01*
X1160010D01*
X1204995Y297507D02*
X1219990D01*
X1212493D01*
Y342493D01*
X1204995Y334995D01*
X440010Y2004995D02*
X432512Y2012493D01*
X417517D01*
X410019Y2004995D01*
Y1975005D01*
X417517Y1967507D01*
X432512D01*
X440010Y1975005D01*
X455005Y1967507D02*
Y2012493D01*
X484995Y1967507D01*
Y2012493D01*
X529981D02*
X499990D01*
Y1990000D01*
X514986Y1997498D01*
X522483D01*
X529981Y1990000D01*
Y1975005D01*
X522483Y1967507D01*
X507488D01*
X499990Y1975005D01*
X1515443Y2009995D02*
X1507945Y2017493D01*
X1492950D01*
X1485453Y2009995D01*
Y1980005D01*
X1492950Y1972507D01*
X1507945D01*
X1515443Y1980005D01*
X1530438Y1972507D02*
Y2017493D01*
X1560428Y1972507D01*
Y2017493D01*
X1597916Y1972507D02*
Y2017493D01*
X1575424Y1995000D01*
X1605414D01*
X1170010Y1374995D02*
X1162512Y1382493D01*
X1147517D01*
X1140019Y1374995D01*
Y1345005D01*
X1147517Y1337507D01*
X1162512D01*
X1170010Y1345005D01*
X1185005Y1337507D02*
Y1382493D01*
X1214995Y1337507D01*
Y1382493D01*
X1229990Y1374995D02*
X1237488Y1382493D01*
X1252483D01*
X1259981Y1374995D01*
Y1367498D01*
X1252483Y1360000D01*
X1244986D01*
X1252483D01*
X1259981Y1352503D01*
Y1345005D01*
X1252483Y1337507D01*
X1237488D01*
X1229990Y1345005D01*
X2276309Y2009995D02*
X2268811Y2017493D01*
X2253816D01*
X2246319Y2009995D01*
Y1980005D01*
X2253816Y1972507D01*
X2268811D01*
X2276309Y1980005D01*
X2291304Y1972507D02*
Y2017493D01*
X2321294Y1972507D01*
Y2017493D01*
X2366280Y1972507D02*
X2336290D01*
X2366280Y2002498D01*
Y2009995D01*
X2358782Y2017493D01*
X2343787D01*
X2336290Y2009995D01*
X2170010Y164995D02*
X2162512Y172493D01*
X2147517D01*
X2140019Y164995D01*
Y135005D01*
X2147517Y127507D01*
X2162512D01*
X2170010Y135005D01*
X2207498Y127507D02*
Y172493D01*
X2185005Y150000D01*
X2214995D01*
X2259981Y172493D02*
X2229990D01*
Y150000D01*
X2244986Y157498D01*
X2252483D01*
X2259981Y150000D01*
Y135005D01*
X2252483Y127507D01*
X2237488D01*
X2229990Y135005D01*
X1440010Y94995D02*
X1432512Y102493D01*
X1417517D01*
X1410019Y94995D01*
Y65005D01*
X1417517Y57507D01*
X1432512D01*
X1440010Y65005D01*
X1477498Y57507D02*
Y102493D01*
X1455005Y80000D01*
X1484995D01*
X1522483Y57507D02*
Y102493D01*
X1499990Y80000D01*
X1529981D01*
X1760010Y164995D02*
X1752512Y172493D01*
X1737517D01*
X1730019Y164995D01*
Y135005D01*
X1737517Y127507D01*
X1752512D01*
X1760010Y135005D01*
X1797498Y127507D02*
Y172493D01*
X1775005Y150000D01*
X1804995D01*
X1819990Y164995D02*
X1827488Y172493D01*
X1842483D01*
X1849981Y164995D01*
Y157498D01*
X1842483Y150000D01*
X1834986D01*
X1842483D01*
X1849981Y142502D01*
Y135005D01*
X1842483Y127507D01*
X1827488D01*
X1819990Y135005D01*
X1440010Y254995D02*
X1432512Y262493D01*
X1417517D01*
X1410019Y254995D01*
Y225005D01*
X1417517Y217507D01*
X1432512D01*
X1440010Y225005D01*
X1477498Y217507D02*
Y262493D01*
X1455005Y240000D01*
X1484995D01*
X1529981Y217507D02*
X1499990D01*
X1529981Y247498D01*
Y254995D01*
X1522483Y262493D01*
X1507488D01*
X1499990Y254995D01*
X1497507Y574995D02*
X1490010Y582493D01*
X1475014D01*
X1467517Y574995D01*
Y545005D01*
X1475014Y537507D01*
X1490010D01*
X1497507Y545005D01*
X1534995Y537507D02*
Y582493D01*
X1512502Y560000D01*
X1542493D01*
X1557488Y537507D02*
X1572483D01*
X1564986D01*
Y582493D01*
X1557488Y574995D01*
X2370010Y324995D02*
X2362512Y332493D01*
X2347517D01*
X2340019Y324995D01*
Y295005D01*
X2347517Y287507D01*
X2362512D01*
X2370010Y295005D01*
X2407498Y287507D02*
Y332493D01*
X2385005Y310000D01*
X2414995D01*
X2429990Y324995D02*
X2437488Y332493D01*
X2452483D01*
X2459981Y324995D01*
Y295005D01*
X2452483Y287507D01*
X2437488D01*
X2429990Y295005D01*
Y324995D01*
X2370010Y104995D02*
X2362512Y112493D01*
X2347517D01*
X2340019Y104995D01*
Y75005D01*
X2347517Y67507D01*
X2362512D01*
X2370010Y75005D01*
X2385005Y104995D02*
X2392503Y112493D01*
X2407498D01*
X2414995Y104995D01*
Y97498D01*
X2407498Y90000D01*
X2400000D01*
X2407498D01*
X2414995Y82502D01*
Y75005D01*
X2407498Y67507D01*
X2392503D01*
X2385005Y75005D01*
X2429990D02*
X2437488Y67507D01*
X2452483D01*
X2459981Y75005D01*
Y104995D01*
X2452483Y112493D01*
X2437488D01*
X2429990Y104995D01*
Y97498D01*
X2437488Y90000D01*
X2459981D01*
X1890010Y1374995D02*
X1882512Y1382493D01*
X1867517D01*
X1860019Y1374995D01*
Y1345005D01*
X1867517Y1337507D01*
X1882512D01*
X1890010Y1345005D01*
X1905005Y1374995D02*
X1912503Y1382493D01*
X1927498D01*
X1934995Y1374995D01*
Y1367498D01*
X1927498Y1360000D01*
X1920000D01*
X1927498D01*
X1934995Y1352503D01*
Y1345005D01*
X1927498Y1337507D01*
X1912503D01*
X1905005Y1345005D01*
X1949990Y1374995D02*
X1957488Y1382493D01*
X1972483D01*
X1979981Y1374995D01*
Y1367498D01*
X1972483Y1360000D01*
X1979981Y1352503D01*
Y1345005D01*
X1972483Y1337507D01*
X1957488D01*
X1949990Y1345005D01*
Y1352503D01*
X1957488Y1360000D01*
X1949990Y1367498D01*
Y1374995D01*
X1957488Y1360000D02*
X1972483D01*
X2450010Y1054995D02*
X2442512Y1062493D01*
X2427517D01*
X2420019Y1054995D01*
Y1025005D01*
X2427517Y1017507D01*
X2442512D01*
X2450010Y1025005D01*
X2465005Y1054995D02*
X2472503Y1062493D01*
X2487498D01*
X2494995Y1054995D01*
Y1047498D01*
X2487498Y1040000D01*
X2480000D01*
X2487498D01*
X2494995Y1032503D01*
Y1025005D01*
X2487498Y1017507D01*
X2472503D01*
X2465005Y1025005D01*
X2509990Y1062493D02*
X2539981D01*
Y1054995D01*
X2509990Y1025005D01*
Y1017507D01*
X1890010Y1294995D02*
X1882512Y1302493D01*
X1867517D01*
X1860019Y1294995D01*
Y1265005D01*
X1867517Y1257507D01*
X1882512D01*
X1890010Y1265005D01*
X1905005Y1294995D02*
X1912503Y1302493D01*
X1927498D01*
X1934995Y1294995D01*
Y1287498D01*
X1927498Y1280000D01*
X1920000D01*
X1927498D01*
X1934995Y1272503D01*
Y1265005D01*
X1927498Y1257507D01*
X1912503D01*
X1905005Y1265005D01*
X1979981Y1302493D02*
X1964986Y1294995D01*
X1949990Y1280000D01*
Y1265005D01*
X1957488Y1257507D01*
X1972483D01*
X1979981Y1265005D01*
Y1272503D01*
X1972483Y1280000D01*
X1949990D01*
X2450010Y574995D02*
X2442512Y582493D01*
X2427517D01*
X2420019Y574995D01*
Y545005D01*
X2427517Y537507D01*
X2442512D01*
X2450010Y545005D01*
X2465005Y574995D02*
X2472503Y582493D01*
X2487498D01*
X2494995Y574995D01*
Y567498D01*
X2487498Y560000D01*
X2480000D01*
X2487498D01*
X2494995Y552503D01*
Y545005D01*
X2487498Y537507D01*
X2472503D01*
X2465005Y545005D01*
X2539981Y582493D02*
X2509990D01*
Y560000D01*
X2524986Y567498D01*
X2532483D01*
X2539981Y560000D01*
Y545005D01*
X2532483Y537507D01*
X2517488D01*
X2509990Y545005D01*
X1770010Y324995D02*
X1762512Y332493D01*
X1747517D01*
X1740019Y324995D01*
Y295005D01*
X1747517Y287507D01*
X1762512D01*
X1770010Y295005D01*
X1785005Y324995D02*
X1792503Y332493D01*
X1807498D01*
X1814995Y324995D01*
Y317498D01*
X1807498Y310000D01*
X1800000D01*
X1807498D01*
X1814995Y302502D01*
Y295005D01*
X1807498Y287507D01*
X1792503D01*
X1785005Y295005D01*
X1852483Y287507D02*
Y332493D01*
X1829990Y310000D01*
X1859981D01*
X1496584Y1614995D02*
X1489087Y1622493D01*
X1474092D01*
X1466594Y1614995D01*
Y1585005D01*
X1474092Y1577507D01*
X1489087D01*
X1496584Y1585005D01*
X1511580Y1614995D02*
X1519077Y1622493D01*
X1534072D01*
X1541570Y1614995D01*
Y1607498D01*
X1534072Y1600000D01*
X1526575D01*
X1534072D01*
X1541570Y1592503D01*
Y1585005D01*
X1534072Y1577507D01*
X1519077D01*
X1511580Y1585005D01*
X1556565Y1614995D02*
X1564063Y1622493D01*
X1579058D01*
X1586555Y1614995D01*
Y1607498D01*
X1579058Y1600000D01*
X1571560D01*
X1579058D01*
X1586555Y1592503D01*
Y1585005D01*
X1579058Y1577507D01*
X1564063D01*
X1556565Y1585005D01*
X2690010Y2294995D02*
X2682512Y2302493D01*
X2667517D01*
X2660019Y2294995D01*
Y2265005D01*
X2667517Y2257507D01*
X2682512D01*
X2690010Y2265005D01*
X2705005Y2294995D02*
X2712503Y2302493D01*
X2727498D01*
X2734995Y2294995D01*
Y2287498D01*
X2727498Y2280000D01*
X2720000D01*
X2727498D01*
X2734995Y2272503D01*
Y2265005D01*
X2727498Y2257507D01*
X2712503D01*
X2705005Y2265005D01*
X2779981Y2257507D02*
X2749990D01*
X2779981Y2287498D01*
Y2294995D01*
X2772483Y2302493D01*
X2757488D01*
X2749990Y2294995D01*
X2887507D02*
X2880010Y2302493D01*
X2865015D01*
X2857517Y2294995D01*
Y2265005D01*
X2865015Y2257507D01*
X2880010D01*
X2887507Y2265005D01*
X2902502Y2294995D02*
X2910000Y2302493D01*
X2924995D01*
X2932493Y2294995D01*
Y2287498D01*
X2924995Y2280000D01*
X2917498D01*
X2924995D01*
X2932493Y2272503D01*
Y2265005D01*
X2924995Y2257507D01*
X2910000D01*
X2902502Y2265005D01*
X2947488Y2257507D02*
X2962483D01*
X2954985D01*
Y2302493D01*
X2947488Y2294995D01*
X3300010Y1214995D02*
X3292512Y1222493D01*
X3277517D01*
X3270019Y1214995D01*
Y1185005D01*
X3277517Y1177507D01*
X3292512D01*
X3300010Y1185005D01*
X3315005Y1214995D02*
X3322503Y1222493D01*
X3337498D01*
X3344995Y1214995D01*
Y1207498D01*
X3337498Y1200000D01*
X3330000D01*
X3337498D01*
X3344995Y1192503D01*
Y1185005D01*
X3337498Y1177507D01*
X3322503D01*
X3315005Y1185005D01*
X3359990Y1214995D02*
X3367488Y1222493D01*
X3382483D01*
X3389981Y1214995D01*
Y1185005D01*
X3382483Y1177507D01*
X3367488D01*
X3359990Y1185005D01*
Y1214995D01*
X3300010Y1294995D02*
X3292512Y1302493D01*
X3277517D01*
X3270019Y1294995D01*
Y1265005D01*
X3277517Y1257507D01*
X3292512D01*
X3300010Y1265005D01*
X3344995Y1257507D02*
X3315005D01*
X3344995Y1287498D01*
Y1294995D01*
X3337498Y1302493D01*
X3322503D01*
X3315005Y1294995D01*
X3359990Y1265005D02*
X3367488Y1257507D01*
X3382483D01*
X3389981Y1265005D01*
Y1294995D01*
X3382483Y1302493D01*
X3367488D01*
X3359990Y1294995D01*
Y1287498D01*
X3367488Y1280000D01*
X3389981D01*
X2330010Y1794995D02*
X2322512Y1802493D01*
X2307517D01*
X2300019Y1794995D01*
Y1765005D01*
X2307517Y1757507D01*
X2322512D01*
X2330010Y1765005D01*
X2374995Y1757507D02*
X2345005D01*
X2374995Y1787498D01*
Y1794995D01*
X2367498Y1802493D01*
X2352503D01*
X2345005Y1794995D01*
X2389990D02*
X2397488Y1802493D01*
X2412483D01*
X2419981Y1794995D01*
Y1787498D01*
X2412483Y1780000D01*
X2419981Y1772503D01*
Y1765005D01*
X2412483Y1757507D01*
X2397488D01*
X2389990Y1765005D01*
Y1772503D01*
X2397488Y1780000D01*
X2389990Y1787498D01*
Y1794995D01*
X2397488Y1780000D02*
X2412483D01*
X2330010Y1714995D02*
X2322512Y1722493D01*
X2307517D01*
X2300019Y1714995D01*
Y1685005D01*
X2307517Y1677507D01*
X2322512D01*
X2330010Y1685005D01*
X2374995Y1677507D02*
X2345005D01*
X2374995Y1707498D01*
Y1714995D01*
X2367498Y1722493D01*
X2352503D01*
X2345005Y1714995D01*
X2389990Y1722493D02*
X2419981D01*
Y1714995D01*
X2389990Y1685005D01*
Y1677507D01*
X2970010Y1524995D02*
X2962512Y1532493D01*
X2947517D01*
X2940019Y1524995D01*
Y1495005D01*
X2947517Y1487507D01*
X2962512D01*
X2970010Y1495005D01*
X3014995Y1487507D02*
X2985005D01*
X3014995Y1517498D01*
Y1524995D01*
X3007498Y1532493D01*
X2992503D01*
X2985005Y1524995D01*
X3059981Y1532493D02*
X3044986Y1524995D01*
X3029990Y1510000D01*
Y1495005D01*
X3037488Y1487507D01*
X3052483D01*
X3059981Y1495005D01*
Y1502503D01*
X3052483Y1510000D01*
X3029990D01*
X2850010Y1374995D02*
X2842512Y1382493D01*
X2827517D01*
X2820019Y1374995D01*
Y1345005D01*
X2827517Y1337507D01*
X2842512D01*
X2850010Y1345005D01*
X2894995Y1337507D02*
X2865005D01*
X2894995Y1367498D01*
Y1374995D01*
X2887498Y1382493D01*
X2872503D01*
X2865005Y1374995D01*
X2939981Y1382493D02*
X2909990D01*
Y1360000D01*
X2924986Y1367498D01*
X2932483D01*
X2939981Y1360000D01*
Y1345005D01*
X2932483Y1337507D01*
X2917488D01*
X2909990Y1345005D01*
X2850010Y1294995D02*
X2842512Y1302493D01*
X2827517D01*
X2820019Y1294995D01*
Y1265005D01*
X2827517Y1257507D01*
X2842512D01*
X2850010Y1265005D01*
X2894995Y1257507D02*
X2865005D01*
X2894995Y1287498D01*
Y1294995D01*
X2887498Y1302493D01*
X2872503D01*
X2865005Y1294995D01*
X2932483Y1257507D02*
Y1302493D01*
X2909990Y1280000D01*
X2939981D01*
X3310010Y94995D02*
X3302512Y102493D01*
X3287517D01*
X3280019Y94995D01*
Y65005D01*
X3287517Y57507D01*
X3302512D01*
X3310010Y65005D01*
X3354995Y57507D02*
X3325005D01*
X3354995Y87498D01*
Y94995D01*
X3347498Y102493D01*
X3332503D01*
X3325005Y94995D01*
X3369990D02*
X3377488Y102493D01*
X3392483D01*
X3399981Y94995D01*
Y87498D01*
X3392483Y80000D01*
X3384986D01*
X3392483D01*
X3399981Y72502D01*
Y65005D01*
X3392483Y57507D01*
X3377488D01*
X3369990Y65005D01*
X3010010Y94995D02*
X3002512Y102493D01*
X2987517D01*
X2980019Y94995D01*
Y65005D01*
X2987517Y57507D01*
X3002512D01*
X3010010Y65005D01*
X3054995Y57507D02*
X3025005D01*
X3054995Y87498D01*
Y94995D01*
X3047498Y102493D01*
X3032503D01*
X3025005Y94995D01*
X3099981Y57507D02*
X3069990D01*
X3099981Y87498D01*
Y94995D01*
X3092483Y102493D01*
X3077488D01*
X3069990Y94995D01*
X3463339Y654995D02*
X3455841Y662493D01*
X3440846D01*
X3433348Y654995D01*
Y625005D01*
X3440846Y617507D01*
X3455841D01*
X3463339Y625005D01*
X3508324Y617507D02*
X3478334D01*
X3508324Y647498D01*
Y654995D01*
X3500827Y662493D01*
X3485831D01*
X3478334Y654995D01*
X3523319Y617507D02*
X3538314D01*
X3530817D01*
Y662493D01*
X3523319Y654995D01*
X3448343Y814995D02*
X3440846Y822493D01*
X3425851D01*
X3418353Y814995D01*
Y785005D01*
X3425851Y777507D01*
X3440846D01*
X3448343Y785005D01*
X3493329Y777507D02*
X3463339D01*
X3493329Y807498D01*
Y814995D01*
X3485831Y822493D01*
X3470836D01*
X3463339Y814995D01*
X3508324D02*
X3515822Y822493D01*
X3530817D01*
X3538314Y814995D01*
Y785005D01*
X3530817Y777507D01*
X3515822D01*
X3508324Y785005D01*
Y814995D01*
X3455841Y894995D02*
X3448343Y902493D01*
X3433348D01*
X3425851Y894995D01*
Y865005D01*
X3433348Y857507D01*
X3448343D01*
X3455841Y865005D01*
X3470836Y857507D02*
X3485831D01*
X3478334D01*
Y902493D01*
X3470836Y894995D01*
X3508324Y865005D02*
X3515822Y857507D01*
X3530817D01*
X3538314Y865005D01*
Y894995D01*
X3530817Y902493D01*
X3515822D01*
X3508324Y894995D01*
Y887498D01*
X3515822Y880000D01*
X3538314D01*
X3455841Y734995D02*
X3448343Y742493D01*
X3433348D01*
X3425851Y734995D01*
Y705005D01*
X3433348Y697507D01*
X3448343D01*
X3455841Y705005D01*
X3470836Y697507D02*
X3485831D01*
X3478334D01*
Y742493D01*
X3470836Y734995D01*
X3508324D02*
X3515822Y742493D01*
X3530817D01*
X3538314Y734995D01*
Y727498D01*
X3530817Y720000D01*
X3538314Y712503D01*
Y705005D01*
X3530817Y697507D01*
X3515822D01*
X3508324Y705005D01*
Y712503D01*
X3515822Y720000D01*
X3508324Y727498D01*
Y734995D01*
X3515822Y720000D02*
X3530817D01*
X2893758Y174995D02*
X2886261Y182493D01*
X2871266D01*
X2863768Y174995D01*
Y145005D01*
X2871266Y137507D01*
X2886261D01*
X2893758Y145005D01*
X2908754Y137507D02*
X2923749D01*
X2916251D01*
Y182493D01*
X2908754Y174995D01*
X2946242Y182493D02*
X2976232D01*
Y174995D01*
X2946242Y145005D01*
Y137507D01*
X3455841Y94995D02*
X3448343Y102493D01*
X3433348D01*
X3425851Y94995D01*
Y65005D01*
X3433348Y57507D01*
X3448343D01*
X3455841Y65005D01*
X3470836Y57507D02*
X3485831D01*
X3478334D01*
Y102493D01*
X3470836Y94995D01*
X3538314Y102493D02*
X3523319Y94995D01*
X3508324Y80000D01*
Y65005D01*
X3515822Y57507D01*
X3530817D01*
X3538314Y65005D01*
Y72502D01*
X3530817Y80000D01*
X3508324D01*
X3455841Y254995D02*
X3448343Y262493D01*
X3433348D01*
X3425851Y254995D01*
Y225005D01*
X3433348Y217507D01*
X3448343D01*
X3455841Y225005D01*
X3470836Y217507D02*
X3485831D01*
X3478334D01*
Y262493D01*
X3470836Y254995D01*
X3538314Y262493D02*
X3508324D01*
Y240000D01*
X3523319Y247498D01*
X3530817D01*
X3538314Y240000D01*
Y225005D01*
X3530817Y217507D01*
X3515822D01*
X3508324Y225005D01*
X3455841Y414995D02*
X3448343Y422493D01*
X3433348D01*
X3425851Y414995D01*
Y385005D01*
X3433348Y377507D01*
X3448343D01*
X3455841Y385005D01*
X3470836Y377507D02*
X3485831D01*
X3478334D01*
Y422493D01*
X3470836Y414995D01*
X3530817Y377507D02*
Y422493D01*
X3508324Y400000D01*
X3538314D01*
X3455841Y174995D02*
X3448343Y182493D01*
X3433348D01*
X3425851Y174995D01*
Y145005D01*
X3433348Y137507D01*
X3448343D01*
X3455841Y145005D01*
X3470836Y137507D02*
X3485831D01*
X3478334D01*
Y182493D01*
X3470836Y174995D01*
X3508324D02*
X3515822Y182493D01*
X3530817D01*
X3538314Y174995D01*
Y167498D01*
X3530817Y160000D01*
X3523319D01*
X3530817D01*
X3538314Y152502D01*
Y145005D01*
X3530817Y137507D01*
X3515822D01*
X3508324Y145005D01*
X3292502Y734995D02*
X3285005Y742493D01*
X3270010D01*
X3262512Y734995D01*
Y705005D01*
X3270010Y697507D01*
X3285005D01*
X3292502Y705005D01*
X3307498Y697507D02*
X3322493D01*
X3314995D01*
Y742493D01*
X3307498Y734995D01*
X3374976Y697507D02*
X3344985D01*
X3374976Y727498D01*
Y734995D01*
X3367478Y742493D01*
X3352483D01*
X3344985Y734995D01*
X2872506D02*
X2865008Y742493D01*
X2850013D01*
X2842515Y734995D01*
Y705005D01*
X2850013Y697507D01*
X2865008D01*
X2872506Y705005D01*
X2887501Y697507D02*
X2902496D01*
X2894998D01*
Y742493D01*
X2887501Y734995D01*
X2924989Y697507D02*
X2939984D01*
X2932486D01*
Y742493D01*
X2924989Y734995D01*
X2893758Y254995D02*
X2886261Y262493D01*
X2871266D01*
X2863768Y254995D01*
Y225005D01*
X2871266Y217507D01*
X2886261D01*
X2893758Y225005D01*
X2908754Y217507D02*
X2923749D01*
X2916251D01*
Y262493D01*
X2908754Y254995D01*
X2946242D02*
X2953739Y262493D01*
X2968734D01*
X2976232Y254995D01*
Y225005D01*
X2968734Y217507D01*
X2953739D01*
X2946242Y225005D01*
Y254995D01*
X2692502Y334995D02*
X2685005Y342493D01*
X2670010D01*
X2662512Y334995D01*
Y305005D01*
X2670010Y297507D01*
X2685005D01*
X2692502Y305005D01*
X2707498D02*
X2714995Y297507D01*
X2729990D01*
X2737488Y305005D01*
Y334995D01*
X2729990Y342493D01*
X2714995D01*
X2707498Y334995D01*
Y327498D01*
X2714995Y320000D01*
X2737488D01*
X2692502Y494995D02*
X2685005Y502493D01*
X2670010D01*
X2662512Y494995D01*
Y465005D01*
X2670010Y457507D01*
X2685005D01*
X2692502Y465005D01*
X2707498Y494995D02*
X2714995Y502493D01*
X2729990D01*
X2737488Y494995D01*
Y487498D01*
X2729990Y480000D01*
X2737488Y472502D01*
Y465005D01*
X2729990Y457507D01*
X2714995D01*
X2707498Y465005D01*
Y472502D01*
X2714995Y480000D01*
X2707498Y487498D01*
Y494995D01*
X2714995Y480000D02*
X2729990D01*
X2692502Y574995D02*
X2685005Y582493D01*
X2670010D01*
X2662512Y574995D01*
Y545005D01*
X2670010Y537507D01*
X2685005D01*
X2692502Y545005D01*
X2707498Y582493D02*
X2737488D01*
Y574995D01*
X2707498Y545005D01*
Y537507D01*
X3292502Y894995D02*
X3285005Y902493D01*
X3270010D01*
X3262512Y894995D01*
Y865005D01*
X3270010Y857507D01*
X3285005D01*
X3292502Y865005D01*
X3337488Y902493D02*
X3322493Y894995D01*
X3307498Y880000D01*
Y865005D01*
X3314995Y857507D01*
X3329990D01*
X3337488Y865005D01*
Y872503D01*
X3329990Y880000D01*
X3307498D01*
X2894998Y814995D02*
X2887501Y822493D01*
X2872506D01*
X2865008Y814995D01*
Y785005D01*
X2872506Y777507D01*
X2887501D01*
X2894998Y785005D01*
X2939984Y822493D02*
X2909994D01*
Y800000D01*
X2924989Y807498D01*
X2932486D01*
X2939984Y800000D01*
Y785005D01*
X2932486Y777507D01*
X2917491D01*
X2909994Y785005D01*
X852502Y774995D02*
X845005Y782493D01*
X830010D01*
X822512Y774995D01*
Y745005D01*
X830010Y737507D01*
X845005D01*
X852502Y745005D01*
X889990Y737507D02*
Y782493D01*
X867498Y760000D01*
X897488D01*
X557497Y294995D02*
X550000Y302493D01*
X535005D01*
X527507Y294995D01*
Y265005D01*
X535005Y257507D01*
X550000D01*
X557497Y265005D01*
X572493Y257507D02*
X587488D01*
X579990D01*
Y302493D01*
X572493Y294995D01*
X807517Y1982493D02*
Y1937507D01*
X830010D01*
X837507Y1945005D01*
Y1952503D01*
X830010Y1960000D01*
X807517D01*
X830010D01*
X837507Y1967498D01*
Y1974995D01*
X830010Y1982493D01*
X807517D01*
X852502D02*
X882493D01*
Y1974995D01*
X852502Y1945005D01*
Y1937507D01*
X882493D01*
X897488D02*
X912483D01*
X904986D01*
Y1982493D01*
X897488Y1974995D01*
G54D12*
X885292Y2064705D02*
X889744Y2055642D01*
X894695Y2046842D01*
X900128Y2038332D01*
X906027Y2030137D01*
X912374Y2022284D01*
X919148Y2014797D01*
X926329Y2007699D01*
X933895Y2001012D01*
X941822Y1994757D01*
X950084Y1988954D01*
X958658Y1983620D01*
X967515Y1978773D01*
X976629Y1974426D01*
X985971Y1970594D01*
X995511Y1967289D01*
X1005221Y1964521D01*
X1015071Y1962298D01*
X1025029Y1960627D01*
X1035064Y1959514D01*
X1045146Y1958963D01*
X1055244Y1958974D01*
X1065324Y1959547D01*
X1075357Y1960682D01*
X1085312Y1962373D01*
X1095156Y1964618D01*
X1104861Y1967407D01*
X1114394Y1970733D01*
X1123728Y1974584D01*
X1132832Y1978950D01*
X1141679Y1983817D01*
X1150241Y1989169D01*
X1158491Y1994990D01*
X1166404Y2001262D01*
X1173955Y2007965D01*
X1181121Y2015079D01*
X1187879Y2022581D01*
X1194209Y2030447D01*
X1200091Y2038655D01*
X1205505Y2047177D01*
X1210437Y2055988D01*
X1214870Y2065059D01*
X1214564Y2215610D02*
X1210098Y2224657D01*
X1205135Y2233440D01*
X1199691Y2241934D01*
X1193783Y2250112D01*
X1187428Y2257947D01*
X1180647Y2265417D01*
X1173460Y2272497D01*
X1165891Y2279167D01*
X1157961Y2285404D01*
X1149697Y2291191D01*
X1141123Y2296508D01*
X1132267Y2301339D01*
X1123155Y2305670D01*
X1113816Y2309486D01*
X1104279Y2312777D01*
X1094574Y2315531D01*
X1084730Y2317741D01*
X1074779Y2319399D01*
X1064750Y2320501D01*
X1054676Y2321042D01*
X1044588Y2321021D01*
X1034516Y2320439D01*
X1024492Y2319297D01*
X1014548Y2317598D01*
X1004713Y2315349D01*
X995019Y2312555D01*
X985495Y2309225D01*
X976172Y2305371D01*
X967078Y2301003D01*
X958241Y2296136D01*
X949689Y2290784D01*
X941448Y2284964D01*
X933544Y2278695D01*
X926002Y2271994D01*
X918844Y2264885D01*
X912093Y2257388D01*
X905771Y2249526D01*
X899895Y2241325D01*
X894486Y2232809D01*
X889559Y2224005D01*
X885130Y2214941D01*
X3059528Y578528D02*
X3053528D01*
X3059528D01*
X1002756Y1939213D02*
X1097244D01*
Y1965000D01*
X1002756Y1939213D02*
X1005000D01*
X1002756D02*
Y1965000D01*
X1250000Y2220000D02*
Y2250000D01*
X1235000Y2235000D02*
X1265000D01*
X575000Y725827D02*
X625000D01*
X575000Y954173D02*
X625000D01*
G54D13*
X2784567Y1990945D02*
X2855433D01*
X2784567Y2109055D02*
X2855433D01*
X2721575Y2038189D02*
Y2061811D01*
X2918425Y2038189D02*
Y2061811D01*
X2098425Y118189D02*
Y141811D01*
X1901575Y118189D02*
Y141811D01*
X1964567Y189055D02*
X2035433D01*
X1964567Y70945D02*
X2035433D01*
X3137008Y225000D02*
X3262992D01*
X3137008Y95000D02*
X3262992D01*
G54D14*
X1060000Y270000D02*
D03*
Y370000D02*
D03*
X749999Y210000D02*
D03*
Y110000D02*
D03*
M02*
