G04*
G04 #@! TF.GenerationSoftware,Altium Limited,Altium Designer,22.11.1 (43)*
G04*
G04 Layer_Color=65535*
%FSLAX26Y26*%
%MOIN*%
G70*
G04*
G04 #@! TF.SameCoordinates,67F67C38-30AF-46BA-A3ED-EFA9B6B7045E*
G04*
G04*
G04 #@! TF.FilePolarity,Positive*
G04*
G01*
G75*
%ADD63C,0.010000*%
%ADD64C,0.007874*%
%ADD65C,0.005000*%
%ADD66C,0.004000*%
%ADD67R,0.040000X0.020000*%
G54D63*
X3865000Y-155000D02*
Y-95019D01*
X3904987Y-155000D01*
Y-95019D01*
X3964968D02*
X3924981D01*
Y-125010D01*
X3944974D01*
X3924981D01*
Y-155000D01*
X4024948Y-105016D02*
X4014952Y-95019D01*
X3994958D01*
X3984961Y-105016D01*
Y-145003D01*
X3994958Y-155000D01*
X4014952D01*
X4024948Y-145003D01*
X4104922Y-155000D02*
Y-115013D01*
X4124916Y-95019D01*
X4144909Y-115013D01*
Y-155000D01*
Y-125010D01*
X4104922D01*
X4204890Y-115013D02*
X4174900D01*
X4164903Y-125010D01*
Y-145003D01*
X4174900Y-155000D01*
X4204890D01*
X4264871Y-115013D02*
X4234880D01*
X4224884Y-125010D01*
Y-145003D01*
X4234880Y-155000D01*
X4264871D01*
X4314855D02*
X4294861D01*
X4284864Y-145003D01*
Y-125010D01*
X4294861Y-115013D01*
X4314855D01*
X4324851Y-125010D01*
Y-135006D01*
X4284864D01*
X4344845Y-155000D02*
X4374835D01*
X4384832Y-145003D01*
X4374835Y-135006D01*
X4354842D01*
X4344845Y-125010D01*
X4354842Y-115013D01*
X4384832D01*
X4404825Y-155000D02*
X4434816D01*
X4444812Y-145003D01*
X4434816Y-135006D01*
X4414822D01*
X4404825Y-125010D01*
X4414822Y-115013D01*
X4444812D01*
X4524787Y-155000D02*
Y-95019D01*
X4554777D01*
X4564774Y-105016D01*
Y-125010D01*
X4554777Y-135006D01*
X4524787D01*
X4544780D02*
X4564774Y-155000D01*
X4584767Y-105016D02*
X4594764Y-95019D01*
X4614757D01*
X4624754Y-105016D01*
Y-145003D01*
X4614757Y-155000D01*
X4594764D01*
X4584767Y-145003D01*
Y-105016D01*
X4644748D02*
X4654745Y-95019D01*
X4674738D01*
X4684735Y-105016D01*
Y-145003D01*
X4674738Y-155000D01*
X4654745D01*
X4644748Y-145003D01*
Y-105016D01*
X4764709Y-125010D02*
X4804696D01*
X4884670Y-95019D02*
Y-145003D01*
X4894667Y-155000D01*
X4914660D01*
X4924657Y-145003D01*
Y-95019D01*
X4944651D02*
X4984638D01*
X4964644D01*
Y-155000D01*
X5004631D02*
Y-95019D01*
X5044618Y-155000D01*
Y-95019D01*
X5164580D02*
X5124593D01*
Y-125010D01*
X5144586D01*
X5124593D01*
Y-155000D01*
X5184573D02*
Y-95019D01*
X5214564D01*
X5224560Y-105016D01*
Y-125010D01*
X5214564Y-135006D01*
X5184573D01*
X5204567D02*
X5224560Y-155000D01*
X5244554Y-95019D02*
Y-155000D01*
X5274544D01*
X5284541Y-145003D01*
Y-135006D01*
X5274544Y-125010D01*
X5244554D01*
X5274544D01*
X5284541Y-115013D01*
Y-105016D01*
X5274544Y-95019D01*
X5244554D01*
X5304534Y-155000D02*
Y-115013D01*
X5324528Y-95019D01*
X5344521Y-115013D01*
Y-155000D01*
Y-125010D01*
X5304534D01*
X885292Y2064705D02*
X889744Y2055642D01*
X894695Y2046842D01*
X900128Y2038332D01*
X906027Y2030137D01*
X912374Y2022284D01*
X919148Y2014797D01*
X926330Y2007699D01*
X933895Y2001012D01*
X941822Y1994757D01*
X950084Y1988954D01*
X958658Y1983620D01*
X967515Y1978773D01*
X976629Y1974426D01*
X985971Y1970594D01*
X995511Y1967289D01*
X1005222Y1964521D01*
X1015071Y1962298D01*
X1025029Y1960627D01*
X1035064Y1959514D01*
X1045147Y1958963D01*
X1055244Y1958974D01*
X1065324Y1959547D01*
X1075358Y1960682D01*
X1085312Y1962373D01*
X1095156Y1964618D01*
X1104861Y1967407D01*
X1114394Y1970733D01*
X1123728Y1974584D01*
X1132832Y1978950D01*
X1141679Y1983817D01*
X1150241Y1989169D01*
X1158491Y1994990D01*
X1166404Y2001262D01*
X1173955Y2007965D01*
X1181121Y2015079D01*
X1187880Y2022581D01*
X1194209Y2030447D01*
X1200091Y2038655D01*
X1205506Y2047177D01*
X1210437Y2055988D01*
X1214870Y2065059D01*
X1214564Y2215610D02*
X1210098Y2224657D01*
X1205135Y2233440D01*
X1199691Y2241934D01*
X1193783Y2250112D01*
X1187428Y2257947D01*
X1180647Y2265417D01*
X1173461Y2272497D01*
X1165891Y2279167D01*
X1157961Y2285404D01*
X1149697Y2291191D01*
X1141123Y2296508D01*
X1132267Y2301339D01*
X1123155Y2305670D01*
X1113816Y2309486D01*
X1104279Y2312777D01*
X1094574Y2315531D01*
X1084730Y2317741D01*
X1074779Y2319399D01*
X1064751Y2320501D01*
X1054676Y2321042D01*
X1044588Y2321021D01*
X1034516Y2320439D01*
X1024492Y2319297D01*
X1014548Y2317598D01*
X1004713Y2315349D01*
X995019Y2312555D01*
X985495Y2309225D01*
X976172Y2305371D01*
X967078Y2301003D01*
X958241Y2296136D01*
X949689Y2290784D01*
X941448Y2284964D01*
X933544Y2278695D01*
X926002Y2271994D01*
X918844Y2264885D01*
X912093Y2257388D01*
X905771Y2249526D01*
X899896Y2241325D01*
X894486Y2232809D01*
X889559Y2224005D01*
X885130Y2214941D01*
X3059528Y578528D02*
X3053528D01*
X3059528D01*
X1002756Y1939213D02*
X1097244D01*
Y1965000D01*
X1002756Y1939213D02*
X1005000D01*
X1002756D02*
Y1965000D01*
X1250000Y2220000D02*
Y2250000D01*
X1235000Y2235000D02*
X1265000D01*
X575000Y725827D02*
X625000D01*
X575000Y954173D02*
X625000D01*
X885292Y4663130D02*
X889744Y4654068D01*
X894695Y4645267D01*
X900128Y4636757D01*
X906027Y4628562D01*
X912374Y4620709D01*
X919148Y4613222D01*
X926330Y4606124D01*
X933895Y4599437D01*
X941822Y4593182D01*
X950084Y4587379D01*
X958658Y4582045D01*
X967515Y4577198D01*
X976629Y4572851D01*
X985971Y4569020D01*
X995511Y4565714D01*
X1005222Y4562946D01*
X1015071Y4560723D01*
X1025029Y4559053D01*
X1035064Y4557940D01*
X1045147Y4557388D01*
X1055244Y4557399D01*
X1065324Y4557972D01*
X1075358Y4559107D01*
X1085312Y4560799D01*
X1095156Y4563043D01*
X1104861Y4565832D01*
X1114394Y4569158D01*
X1123728Y4573010D01*
X1132832Y4577376D01*
X1141679Y4582242D01*
X1150241Y4587595D01*
X1158491Y4593416D01*
X1166404Y4599687D01*
X1173955Y4606390D01*
X1181121Y4613504D01*
X1187880Y4621006D01*
X1194209Y4628872D01*
X1200091Y4637080D01*
X1205506Y4645602D01*
X1210437Y4654413D01*
X1214870Y4663484D01*
X1214564Y4814035D02*
X1210098Y4823082D01*
X1205135Y4831866D01*
X1199691Y4840359D01*
X1193783Y4848537D01*
X1187428Y4856373D01*
X1180647Y4863842D01*
X1173461Y4870923D01*
X1165891Y4877592D01*
X1157961Y4883829D01*
X1149697Y4889616D01*
X1141123Y4894933D01*
X1132267Y4899764D01*
X1123155Y4904095D01*
X1113816Y4907912D01*
X1104279Y4911202D01*
X1094574Y4913957D01*
X1084730Y4916166D01*
X1074779Y4917824D01*
X1064751Y4918926D01*
X1054676Y4919467D01*
X1044588Y4919447D01*
X1034516Y4918864D01*
X1024492Y4917722D01*
X1014548Y4916024D01*
X1004713Y4913774D01*
X995019Y4910980D01*
X985495Y4907651D01*
X976172Y4903796D01*
X967078Y4899428D01*
X958241Y4894561D01*
X949689Y4889209D01*
X941448Y4883389D01*
X933544Y4877120D01*
X926002Y4870420D01*
X918844Y4863310D01*
X912093Y4855813D01*
X905771Y4847951D01*
X899896Y4839750D01*
X894486Y4831234D01*
X889559Y4822430D01*
X885130Y4813366D01*
X3059528Y3176953D02*
X3053528D01*
X3059528D01*
X1002756Y4537638D02*
X1097244D01*
Y4563425D01*
X1002756Y4537638D02*
X1005000D01*
X1002756D02*
Y4563425D01*
X1250000Y4818425D02*
Y4848425D01*
X1235000Y4833425D02*
X1265000D01*
X575000Y3324252D02*
X625000D01*
X575000Y3552598D02*
X625000D01*
X885292Y7261555D02*
X889744Y7252493D01*
X894695Y7243693D01*
X900128Y7235182D01*
X906027Y7226987D01*
X912374Y7219134D01*
X919148Y7211647D01*
X926330Y7204549D01*
X933895Y7197862D01*
X941822Y7191608D01*
X950084Y7185804D01*
X958658Y7180471D01*
X967515Y7175623D01*
X976629Y7171276D01*
X985971Y7167445D01*
X995511Y7164140D01*
X1005222Y7161371D01*
X1015071Y7159148D01*
X1025029Y7157478D01*
X1035064Y7156365D01*
X1045147Y7155813D01*
X1055244Y7155824D01*
X1065324Y7156398D01*
X1075358Y7157532D01*
X1085312Y7159224D01*
X1095156Y7161468D01*
X1104861Y7164257D01*
X1114394Y7167583D01*
X1123728Y7171435D01*
X1132832Y7175801D01*
X1141679Y7180668D01*
X1150241Y7186020D01*
X1158491Y7191841D01*
X1166404Y7198113D01*
X1173955Y7204816D01*
X1181121Y7211929D01*
X1187880Y7219431D01*
X1194209Y7227298D01*
X1200091Y7235505D01*
X1205506Y7244027D01*
X1210437Y7252838D01*
X1214870Y7261910D01*
X1214564Y7412461D02*
X1210098Y7421507D01*
X1205135Y7430291D01*
X1199691Y7438785D01*
X1193783Y7446962D01*
X1187428Y7454798D01*
X1180647Y7462267D01*
X1173461Y7469348D01*
X1165891Y7476017D01*
X1157961Y7482255D01*
X1149697Y7488041D01*
X1141123Y7493358D01*
X1132267Y7498189D01*
X1123155Y7502520D01*
X1113816Y7506337D01*
X1104279Y7509627D01*
X1094574Y7512382D01*
X1084730Y7514592D01*
X1074779Y7516250D01*
X1064751Y7517351D01*
X1054676Y7517892D01*
X1044588Y7517872D01*
X1034516Y7517290D01*
X1024492Y7516147D01*
X1014548Y7514449D01*
X1004713Y7512199D01*
X995019Y7509405D01*
X985495Y7506076D01*
X976172Y7502221D01*
X967078Y7497854D01*
X958241Y7492986D01*
X949689Y7487634D01*
X941448Y7481815D01*
X933544Y7475545D01*
X926002Y7468845D01*
X918844Y7461735D01*
X912093Y7454238D01*
X905771Y7446377D01*
X899896Y7438175D01*
X894486Y7429659D01*
X889559Y7420856D01*
X885130Y7411791D01*
X3059528Y5775378D02*
X3053528D01*
X3059528D01*
X1002756Y7136063D02*
X1097244D01*
Y7161850D01*
X1002756Y7136063D02*
X1005000D01*
X1002756D02*
Y7161850D01*
X1250000Y7416850D02*
Y7446850D01*
X1235000Y7431850D02*
X1265000D01*
X575000Y5922677D02*
X625000D01*
X575000Y6151024D02*
X625000D01*
G54D64*
X3763977Y1810079D02*
X3756102D01*
X3763977D01*
X2840748Y1531102D02*
X2832874D01*
X2840748D01*
X641339Y664528D02*
X633465D01*
X641339D01*
X1738189Y538189D02*
X2261811D01*
Y1061811D01*
X1738189D02*
X2261811D01*
X1738189Y538189D02*
Y1061811D01*
X3763977Y4408504D02*
X3756102D01*
X3763977D01*
X2840748Y4129528D02*
X2832874D01*
X2840748D01*
X641339Y3262953D02*
X633465D01*
X641339D01*
X1738189Y3136614D02*
X2261811D01*
Y3660236D01*
X1738189D02*
X2261811D01*
X1738189Y3136614D02*
Y3660236D01*
X3763977Y7006929D02*
X3756102D01*
X3763977D01*
X2840748Y6727953D02*
X2832874D01*
X2840748D01*
X641339Y5861378D02*
X633465D01*
X641339D01*
X1738189Y5735039D02*
X2261811D01*
Y6258661D01*
X1738189D02*
X2261811D01*
X1738189Y5735039D02*
Y6258661D01*
G54D65*
X1653543Y2058268D02*
X1650906Y2068110D01*
X1643701Y2075315D01*
X1633858Y2077953D01*
X1624016Y2075315D01*
X1616811Y2068110D01*
X1614173Y2058268D01*
X1616811Y2048425D01*
X1624016Y2041220D01*
X1633858Y2038583D01*
X1643701Y2041220D01*
X1650906Y2048425D01*
X1653543Y2058268D01*
X1456693D02*
X1454056Y2068110D01*
X1446851Y2075315D01*
X1437008Y2077953D01*
X1427166Y2075315D01*
X1419960Y2068110D01*
X1417323Y2058268D01*
X1419960Y2048425D01*
X1427166Y2041220D01*
X1437008Y2038583D01*
X1446851Y2041220D01*
X1454056Y2048425D01*
X1456693Y2058268D01*
X2125984D02*
X2123347Y2068110D01*
X2116142Y2075315D01*
X2106299Y2077953D01*
X2096457Y2075315D01*
X2089252Y2068110D01*
X2086614Y2058268D01*
X2089252Y2048425D01*
X2096457Y2041220D01*
X2106299Y2038583D01*
X2116142Y2041220D01*
X2123347Y2048425D01*
X2125984Y2058268D01*
X2519685D02*
X2517048Y2068110D01*
X2509843Y2075315D01*
X2500000Y2077953D01*
X2490158Y2075315D01*
X2482952Y2068110D01*
X2480315Y2058268D01*
X2482952Y2048425D01*
X2490158Y2041220D01*
X2500000Y2038583D01*
X2509843Y2041220D01*
X2517048Y2048425D01*
X2519685Y2058268D01*
X2322835D02*
X2320197Y2068110D01*
X2312992Y2075315D01*
X2303150Y2077953D01*
X2293307Y2075315D01*
X2286102Y2068110D01*
X2283465Y2058268D01*
X2286102Y2048425D01*
X2293307Y2041220D01*
X2303150Y2038583D01*
X2312992Y2041220D01*
X2320197Y2048425D01*
X2322835Y2058268D01*
X489685D02*
X487048Y2068110D01*
X479843Y2075315D01*
X470000Y2077953D01*
X460158Y2075315D01*
X452952Y2068110D01*
X450315Y2058268D01*
X452952Y2048425D01*
X460158Y2041220D01*
X470000Y2038583D01*
X479843Y2041220D01*
X487048Y2048425D01*
X489685Y2058268D01*
X686535D02*
X683898Y2068110D01*
X676693Y2075315D01*
X666851Y2077953D01*
X657008Y2075315D01*
X649803Y2068110D01*
X647165Y2058268D01*
X649803Y2048425D01*
X657008Y2041220D01*
X666851Y2038583D01*
X676693Y2041220D01*
X683898Y2048425D01*
X686535Y2058268D01*
X292835D02*
X290197Y2068110D01*
X282992Y2075315D01*
X273150Y2077953D01*
X263307Y2075315D01*
X256102Y2068110D01*
X253465Y2058268D01*
X256102Y2048425D01*
X263307Y2041220D01*
X273150Y2038583D01*
X282992Y2041220D01*
X290197Y2048425D01*
X292835Y2058268D01*
X5511811Y275591D02*
X5511165Y285660D01*
X5509236Y295563D01*
X5506057Y305139D01*
X5501679Y314230D01*
X5496175Y322686D01*
X5489634Y330369D01*
X5482165Y337152D01*
X5473889Y342925D01*
X5464944Y347592D01*
X5455475Y351076D01*
X5445638Y353322D01*
X5435595Y354290D01*
X5425510Y353967D01*
X5415550Y352357D01*
X5405877Y349486D01*
X5396651Y345402D01*
X5388022Y340171D01*
X5380134Y333880D01*
X5373115Y326632D01*
X5367080Y318546D01*
X5362128Y309755D01*
X5358342Y300402D01*
X5355783Y290642D01*
X5354493Y280635D01*
Y270546D01*
X5355783Y260539D01*
X5358342Y250779D01*
X5362128Y241427D01*
X5367080Y232635D01*
X5373115Y224549D01*
X5380134Y217301D01*
X5388022Y211010D01*
X5396651Y205780D01*
X5405877Y201695D01*
X5415550Y198825D01*
X5425510Y197214D01*
X5435595Y196891D01*
X5445638Y197860D01*
X5455475Y200105D01*
X5464944Y203589D01*
X5473889Y208256D01*
X5482165Y214029D01*
X5489634Y220812D01*
X5496174Y228495D01*
X5501679Y236951D01*
X5506056Y246042D01*
X5509236Y255618D01*
X5511165Y265521D01*
X5511811Y275590D01*
X4173229Y275591D02*
X4172582Y285660D01*
X4170653Y295563D01*
X4167474Y305139D01*
X4163096Y314230D01*
X4157592Y322686D01*
X4151051Y330369D01*
X4143582Y337152D01*
X4135307Y342925D01*
X4126361Y347592D01*
X4116892Y351076D01*
X4107055Y353322D01*
X4097012Y354290D01*
X4086927Y353967D01*
X4076967Y352357D01*
X4067294Y349486D01*
X4058068Y345402D01*
X4049440Y340171D01*
X4041551Y333880D01*
X4034532Y326632D01*
X4028497Y318546D01*
X4023546Y309755D01*
X4019760Y300402D01*
X4017200Y290642D01*
X4015910Y280635D01*
Y270546D01*
X4017200Y260539D01*
X4019760Y250779D01*
X4023546Y241427D01*
X4028497Y232635D01*
X4034532Y224549D01*
X4041551Y217301D01*
X4049440Y211010D01*
X4058068Y205780D01*
X4067294Y201695D01*
X4076967Y198825D01*
X4086927Y197214D01*
X4097012Y196891D01*
X4107055Y197860D01*
X4116892Y200105D01*
X4126361Y203589D01*
X4135306Y208256D01*
X4143582Y214029D01*
X4151051Y220812D01*
X4157592Y228495D01*
X4163096Y236951D01*
X4167474Y246042D01*
X4170653Y255618D01*
X4172582Y265521D01*
X4173229Y275590D01*
X5511811Y2086614D02*
X5511165Y2096683D01*
X5509236Y2106587D01*
X5506057Y2116163D01*
X5501679Y2125253D01*
X5496175Y2133709D01*
X5489634Y2141392D01*
X5482165Y2148176D01*
X5473889Y2153948D01*
X5464944Y2158615D01*
X5455475Y2162100D01*
X5445638Y2164345D01*
X5435595Y2165314D01*
X5425510Y2164991D01*
X5415550Y2163380D01*
X5405877Y2160509D01*
X5396651Y2156425D01*
X5388022Y2151195D01*
X5380134Y2144904D01*
X5373115Y2137656D01*
X5367080Y2129570D01*
X5362128Y2120778D01*
X5358342Y2111426D01*
X5355783Y2101666D01*
X5354493Y2091659D01*
Y2081569D01*
X5355783Y2071562D01*
X5358342Y2061802D01*
X5362128Y2052450D01*
X5367080Y2043659D01*
X5373115Y2035573D01*
X5380134Y2028325D01*
X5388022Y2022034D01*
X5396651Y2016803D01*
X5405877Y2012719D01*
X5415550Y2009848D01*
X5425510Y2008238D01*
X5435595Y2007915D01*
X5445638Y2008883D01*
X5455475Y2011129D01*
X5464944Y2014613D01*
X5473889Y2019280D01*
X5482165Y2025053D01*
X5489634Y2031836D01*
X5496174Y2039519D01*
X5501679Y2047975D01*
X5506056Y2057065D01*
X5509236Y2066641D01*
X5511165Y2076545D01*
X5511811Y2086614D01*
X4173229Y2086614D02*
X4172582Y2096683D01*
X4170653Y2106587D01*
X4167474Y2116163D01*
X4163096Y2125253D01*
X4157592Y2133709D01*
X4151051Y2141392D01*
X4143582Y2148176D01*
X4135307Y2153948D01*
X4126361Y2158615D01*
X4116892Y2162100D01*
X4107055Y2164345D01*
X4097012Y2165314D01*
X4086927Y2164991D01*
X4076967Y2163380D01*
X4067294Y2160509D01*
X4058068Y2156425D01*
X4049440Y2151195D01*
X4041551Y2144904D01*
X4034532Y2137656D01*
X4028497Y2129570D01*
X4023546Y2120778D01*
X4019760Y2111426D01*
X4017200Y2101666D01*
X4015910Y2091659D01*
Y2081569D01*
X4017200Y2071562D01*
X4019760Y2061802D01*
X4023546Y2052450D01*
X4028497Y2043659D01*
X4034532Y2035573D01*
X4041551Y2028325D01*
X4049440Y2022034D01*
X4058068Y2016803D01*
X4067294Y2012719D01*
X4076967Y2009848D01*
X4086927Y2008238D01*
X4097012Y2007915D01*
X4107055Y2008883D01*
X4116892Y2011129D01*
X4126361Y2014613D01*
X4135306Y2019280D01*
X4143582Y2025053D01*
X4151051Y2031836D01*
X4157592Y2039519D01*
X4163096Y2047975D01*
X4167474Y2057065D01*
X4170653Y2066641D01*
X4172582Y2076545D01*
X4173229Y2086614D01*
X2677166Y157480D02*
X2676519Y167549D01*
X2674590Y177453D01*
X2671411Y187029D01*
X2667033Y196119D01*
X2661529Y204576D01*
X2654988Y212258D01*
X2647519Y219042D01*
X2639244Y224814D01*
X2630298Y229481D01*
X2620829Y232966D01*
X2610992Y235211D01*
X2600949Y236180D01*
X2590864Y235857D01*
X2580904Y234246D01*
X2571231Y231375D01*
X2562005Y227291D01*
X2553377Y222061D01*
X2545488Y215770D01*
X2538469Y208522D01*
X2532434Y200436D01*
X2527483Y191644D01*
X2523697Y182292D01*
X2521137Y172532D01*
X2519847Y162525D01*
Y152435D01*
X2521137Y142428D01*
X2523697Y132669D01*
X2527483Y123316D01*
X2532434Y114525D01*
X2538469Y106439D01*
X2545488Y99191D01*
X2553377Y92900D01*
X2562005Y87669D01*
X2571231Y83585D01*
X2580904Y80714D01*
X2590864Y79104D01*
X2600949Y78781D01*
X2610992Y79749D01*
X2620829Y81995D01*
X2630298Y85479D01*
X2639244Y90146D01*
X2647519Y95919D01*
X2654988Y102702D01*
X2661529Y110385D01*
X2667033Y118841D01*
X2671411Y127931D01*
X2674590Y137507D01*
X2676519Y147411D01*
X2677166Y157480D01*
X3740158Y1496063D02*
X3739511Y1506132D01*
X3737582Y1516036D01*
X3734403Y1525612D01*
X3730025Y1534702D01*
X3724521Y1543158D01*
X3717980Y1550841D01*
X3710511Y1557625D01*
X3702236Y1563397D01*
X3693290Y1568064D01*
X3683821Y1571549D01*
X3673984Y1573794D01*
X3663941Y1574763D01*
X3653856Y1574439D01*
X3643896Y1572829D01*
X3634223Y1569958D01*
X3624997Y1565874D01*
X3616369Y1560643D01*
X3608480Y1554353D01*
X3601461Y1547105D01*
X3595426Y1539018D01*
X3590475Y1530227D01*
X3586689Y1520875D01*
X3584129Y1511115D01*
X3582839Y1501108D01*
Y1491018D01*
X3584129Y1481011D01*
X3586689Y1471251D01*
X3590475Y1461899D01*
X3595426Y1453108D01*
X3601461Y1445021D01*
X3608480Y1437773D01*
X3616369Y1431483D01*
X3624997Y1426252D01*
X3634223Y1422168D01*
X3643896Y1419297D01*
X3653856Y1417687D01*
X3663941Y1417363D01*
X3673984Y1418332D01*
X3683821Y1420577D01*
X3693290Y1424062D01*
X3702236Y1428729D01*
X3710511Y1434501D01*
X3717980Y1441285D01*
X3724521Y1448967D01*
X3730025Y1457424D01*
X3734403Y1466514D01*
X3737582Y1476090D01*
X3739511Y1485994D01*
X3740158Y1496063D01*
X1948819Y2204724D02*
X1948172Y2214794D01*
X1946244Y2224697D01*
X1943064Y2234273D01*
X1938687Y2243364D01*
X1933182Y2251820D01*
X1926642Y2259503D01*
X1919172Y2266286D01*
X1910897Y2272059D01*
X1901951Y2276725D01*
X1892483Y2280210D01*
X1882646Y2282455D01*
X1872603Y2283424D01*
X1862518Y2283101D01*
X1852557Y2281490D01*
X1842885Y2278620D01*
X1833658Y2274535D01*
X1825030Y2269305D01*
X1817142Y2263014D01*
X1810122Y2255766D01*
X1804088Y2247680D01*
X1799136Y2238889D01*
X1795350Y2229536D01*
X1792791Y2219776D01*
X1791500Y2209769D01*
Y2199680D01*
X1792791Y2189673D01*
X1795350Y2179913D01*
X1799136Y2170560D01*
X1804088Y2161769D01*
X1810122Y2153683D01*
X1817142Y2146435D01*
X1825030Y2140144D01*
X1833658Y2134913D01*
X1842885Y2130829D01*
X1852557Y2127958D01*
X1862518Y2126348D01*
X1872602Y2126025D01*
X1882646Y2126994D01*
X1892483Y2129239D01*
X1901951Y2132723D01*
X1910897Y2137390D01*
X1919172Y2143163D01*
X1926642Y2149946D01*
X1933182Y2157629D01*
X1938687Y2166085D01*
X1943064Y2175176D01*
X1946244Y2184751D01*
X1948172Y2194655D01*
X1948819Y2204724D01*
X236221Y1929134D02*
X235574Y1939203D01*
X233645Y1949107D01*
X230466Y1958682D01*
X226088Y1967773D01*
X220584Y1976229D01*
X214043Y1983912D01*
X206574Y1990696D01*
X198299Y1996468D01*
X189353Y2001135D01*
X179884Y2004620D01*
X170047Y2006865D01*
X160004Y2007834D01*
X149919Y2007510D01*
X139959Y2005900D01*
X130286Y2003029D01*
X121060Y1998945D01*
X112432Y1993714D01*
X104543Y1987424D01*
X97524Y1980176D01*
X91489Y1972089D01*
X86538Y1963298D01*
X82752Y1953946D01*
X80192Y1944186D01*
X78902Y1934179D01*
Y1924089D01*
X80192Y1914082D01*
X82752Y1904322D01*
X86538Y1894970D01*
X91489Y1886178D01*
X97524Y1878092D01*
X104543Y1870844D01*
X112432Y1864553D01*
X121060Y1859323D01*
X130286Y1855239D01*
X139959Y1852368D01*
X149919Y1850758D01*
X160004Y1850434D01*
X170047Y1851403D01*
X179884Y1853648D01*
X189353Y1857133D01*
X198299Y1861800D01*
X206574Y1867572D01*
X214043Y1874356D01*
X220584Y1882038D01*
X226088Y1890495D01*
X230466Y1899585D01*
X233645Y1909161D01*
X235574Y1919065D01*
X236221Y1929134D01*
Y472441D02*
X235574Y482510D01*
X233645Y492414D01*
X230466Y501990D01*
X226088Y511080D01*
X220584Y519536D01*
X214043Y527219D01*
X206574Y534003D01*
X198299Y539775D01*
X189353Y544442D01*
X179884Y547927D01*
X170047Y550172D01*
X160004Y551141D01*
X149919Y550817D01*
X139959Y549207D01*
X130286Y546336D01*
X121060Y542252D01*
X112432Y537021D01*
X104543Y530731D01*
X97524Y523482D01*
X91489Y515396D01*
X86538Y506605D01*
X82752Y497253D01*
X80192Y487493D01*
X78902Y477486D01*
Y467396D01*
X80192Y457389D01*
X82752Y447629D01*
X86538Y438277D01*
X91489Y429485D01*
X97524Y421399D01*
X104543Y414151D01*
X112432Y407860D01*
X121060Y402630D01*
X130286Y398546D01*
X139959Y395675D01*
X149919Y394065D01*
X160004Y393741D01*
X170047Y394710D01*
X179884Y396955D01*
X189353Y400440D01*
X198299Y405107D01*
X206574Y410879D01*
X214043Y417663D01*
X220584Y425345D01*
X226088Y433801D01*
X230466Y442892D01*
X233645Y452468D01*
X235574Y462372D01*
X236221Y472441D01*
X1740158Y469291D02*
X1732284D01*
X1740158D01*
X1741788D02*
X1733437Y474113D01*
Y464469D01*
X1741788Y469291D01*
X1789032Y583465D02*
X1780681Y588286D01*
Y578643D01*
X1789032Y583465D01*
X1783465Y579528D02*
X1775591D01*
X1783465D01*
X1785095D02*
X1776744Y584349D01*
Y574706D01*
X1785095Y579528D01*
X1788331D02*
X1783929Y587152D01*
X1775126D01*
X1770724Y579528D01*
X1775126Y571904D01*
X1783929D01*
X1788331Y579528D01*
X1790663D02*
X1786471Y588234D01*
X1777050Y590384D01*
X1769495Y584359D01*
Y574696D01*
X1777050Y568671D01*
X1786471Y570822D01*
X1790663Y579528D01*
X62835Y26535D02*
Y337559D01*
X417165Y26535D02*
X417166Y54094D01*
Y310000D02*
Y337559D01*
X62835D02*
X102205D01*
X377795D02*
X417166D01*
X3735000Y2010079D02*
Y2327008D01*
Y1654567D02*
Y1870079D01*
X3105079Y1654567D02*
X3735000D01*
X3105079D02*
Y1870079D01*
Y2010079D02*
Y2327008D01*
X3735000D01*
X940000Y715000D02*
X1060000D01*
X940000Y805000D02*
X1060000D01*
X630000Y335000D02*
X750000D01*
X630000Y425000D02*
X750000D01*
X630000Y235000D02*
X750000D01*
X630000Y325000D02*
X750000D01*
X870000Y611000D02*
Y690000D01*
Y430000D02*
Y509000D01*
X1130000Y613000D02*
Y630079D01*
Y489921D02*
Y507000D01*
X1070079Y430079D02*
X1129921Y489921D01*
X870079Y430079D02*
X1070079D01*
Y689921D02*
X1129921Y630079D01*
X870079Y689921D02*
X1070079D01*
X1303071Y636299D02*
Y1423701D01*
X1562914Y636299D02*
Y1423701D01*
X1303071Y636299D02*
X1562914D01*
X1303071Y1423701D02*
X1562914D01*
X1303071Y770158D02*
X1562914D01*
X1303071Y1289842D02*
X1562914D01*
X4063497Y1277059D02*
Y1322941D01*
Y1277059D02*
X4101732Y1300000D01*
X4063497Y1322941D02*
X4101732Y1300000D01*
X4230079Y1140000D02*
Y1260000D01*
X4131654Y1240000D02*
Y1349213D01*
Y1050787D02*
Y1160000D01*
Y1349213D02*
X4230079D01*
Y1340000D02*
Y1349213D01*
X4131654Y1050787D02*
X4230079D01*
Y1060000D01*
X4131654Y1250000D02*
X4230079D01*
X4131654Y1150000D02*
X4230079D01*
X2910000Y2240000D02*
X2930000D01*
X2910000Y2180000D02*
X2930000D01*
X2710000D02*
X2730000D01*
X2710000Y2240000D02*
X2730000D01*
X1314961Y2034646D02*
X1755906D01*
X1314961Y2333858D02*
X1755906D01*
X1314961Y2034646D02*
Y2333858D01*
X1755906Y2034646D02*
Y2333858D01*
X1315433Y2077953D02*
X1755433D01*
X1653543Y2274803D02*
Y2333858D01*
X1614173Y2274803D02*
X1653543D01*
X1614173D02*
Y2333858D01*
X1456693Y2274803D02*
Y2333858D01*
X1417323Y2274803D02*
X1456693D01*
X1417323D02*
Y2333858D01*
X1984252Y2077953D02*
X2622047D01*
Y2264961D02*
Y2333858D01*
X2519685Y2274803D02*
Y2333858D01*
X2480315Y2274803D02*
X2519685D01*
X2480315D02*
Y2333858D01*
X2322835Y2274803D02*
Y2333858D01*
X2283465Y2274803D02*
Y2333858D01*
X2086614Y2274803D02*
Y2333858D01*
Y2274803D02*
X2125984D01*
Y2333858D01*
X1984252Y2264961D02*
Y2333858D01*
X2283465Y2274803D02*
X2322835D01*
X1984252Y2333858D02*
X2622047Y2333858D01*
X1984252Y2264961D02*
X2622047Y2264961D01*
X1984252Y2034646D02*
Y2264961D01*
Y2034646D02*
X2622047D01*
Y2264961D01*
X788898Y2034646D02*
Y2264961D01*
X151102Y2034646D02*
X788898D01*
X151102D02*
Y2264961D01*
X788898Y2264961D01*
X151102Y2333858D02*
X788898Y2333858D01*
X450315Y2274803D02*
X489685D01*
X151102Y2264961D02*
Y2333858D01*
X292835Y2274803D02*
Y2333858D01*
X253465Y2274803D02*
X292835D01*
X253465D02*
Y2333858D01*
X450315Y2274803D02*
Y2333858D01*
X489685Y2274803D02*
Y2333858D01*
X647165Y2274803D02*
Y2333858D01*
Y2274803D02*
X686535D01*
Y2333858D01*
X788898Y2264961D02*
Y2333858D01*
X151102Y2077953D02*
X788898D01*
X162913Y1065355D02*
X399134D01*
X540866D02*
X777087D01*
Y1817323D01*
X162913D02*
X777087D01*
X162913Y1065355D02*
Y1817323D01*
X2601575Y1698425D02*
X2613189D01*
X2601575Y1501575D02*
X2613189D01*
X2786811Y1698425D02*
X2798425D01*
X2786811Y1501575D02*
X2798425D01*
X2601575Y1686811D02*
Y1698425D01*
Y1501575D02*
Y1513189D01*
X2798425Y1686811D02*
Y1698425D01*
Y1501575D02*
Y1513189D01*
X354941Y723760D02*
Y765197D01*
X85059Y723760D02*
X354941D01*
X85059D02*
Y765197D01*
X354941Y914803D02*
Y956240D01*
X85059D02*
X354941D01*
X85059Y914803D02*
Y956240D01*
X3660000Y1390000D02*
X3760000D01*
X3660000Y1090000D02*
Y1390000D01*
X3760000Y1090000D02*
Y1390000D01*
X3660000Y1090000D02*
X3760000D01*
X3610000Y1115000D02*
X3635000Y1140000D01*
X3610000Y1115000D02*
Y1165000D01*
X3635000Y1140000D01*
X1105000Y380000D02*
X1115000Y365000D01*
X1125000Y380000D01*
X1105000D02*
X1125000D01*
X1090551Y365000D02*
Y377480D01*
Y262520D02*
Y275000D01*
X909449Y262520D02*
Y275000D01*
Y365000D02*
Y377480D01*
Y262520D02*
X1090551D01*
X909449Y377480D02*
X1090551D01*
X599449Y217480D02*
X780551D01*
X599449Y102520D02*
X780551D01*
X599449Y205000D02*
Y217480D01*
Y102520D02*
Y115000D01*
X780551Y102520D02*
Y115000D01*
Y205000D02*
Y217480D01*
X795000Y220000D02*
X815000D01*
X805000Y205000D02*
X815000Y220000D01*
X795000D02*
X805000Y205000D01*
X1150000Y750000D02*
X1250000D01*
Y1250000D01*
X1150000Y750000D02*
Y1250000D01*
X1250000D01*
X1175000Y1312500D02*
X1200000Y1287500D01*
X1175000Y1312500D02*
X1225000D01*
X1200000Y1287500D02*
X1225000Y1312500D01*
X2185000Y1950000D02*
X2215000D01*
X2185000Y1890000D02*
X2215000D01*
X2470000Y1730000D02*
X2490000D01*
X2470000Y1670000D02*
X2490000D01*
X2470000Y1810000D02*
X2490000D01*
X2470000Y1750000D02*
X2490000D01*
X1785000Y1490000D02*
X1815000D01*
X1785000Y1550000D02*
X1815000D01*
X1390000Y1570000D02*
X1410000D01*
X1390000Y1630000D02*
X1410000D01*
X1385000Y1710000D02*
X1415000D01*
X1385000Y1650000D02*
X1415000D01*
X1385000Y1490000D02*
X1415000D01*
X1385000Y1550000D02*
X1415000D01*
X1785000Y1630000D02*
X1815000D01*
X1785000Y1570000D02*
X1815000D01*
X2985000Y1230000D02*
X3015000D01*
X2985000Y1170000D02*
X3015000D01*
X2990000Y1250000D02*
X3010000D01*
X2990000Y1310000D02*
X3010000D01*
X3190000Y1230000D02*
X3210000D01*
X3190000Y1170000D02*
X3210000D01*
X3190000Y1310000D02*
X3210000D01*
X3190000Y1250000D02*
X3210000D01*
X3185000Y1410000D02*
X3215000D01*
X3185000Y1470000D02*
X3215000D01*
X2585000Y830000D02*
X2615000D01*
X2585000Y770000D02*
X2615000D01*
X2585000Y910000D02*
X2615000D01*
X2585000Y850000D02*
X2615000D01*
X2585000Y990000D02*
X2615000D01*
X2585000Y930000D02*
X2615000D01*
X1385000Y450000D02*
X1415000D01*
X1385000Y510000D02*
X1415000D01*
X2990000Y1410000D02*
X3010000D01*
X2990000Y1470000D02*
X3010000D01*
X2990000Y1330000D02*
X3010000D01*
X2990000Y1390000D02*
X3010000D01*
X3168504Y1385000D02*
X3231496D01*
X3168504Y1335000D02*
X3231496D01*
X2183543Y1390000D02*
X2213543D01*
X2183543Y1330000D02*
X2213543D01*
X2185000Y1310000D02*
X2215000D01*
X2185000Y1250000D02*
X2215000D01*
X2185000Y1630000D02*
X2215000D01*
X2185000Y1570000D02*
X2215000D01*
X2183543Y1470000D02*
X2213543D01*
X2183543Y1410000D02*
X2213543D01*
X2185000Y1550000D02*
X2215000D01*
X2185000Y1490000D02*
X2215000D01*
X2185000Y1790000D02*
X2215000D01*
X2185000Y1730000D02*
X2215000D01*
X2185000Y1710000D02*
X2215000D01*
X2185000Y1650000D02*
X2215000D01*
X1585000Y1950000D02*
X1615000D01*
X1585000Y1890000D02*
X1615000D01*
X1385000Y430000D02*
X1415000D01*
X1385000Y370000D02*
X1415000D01*
X1385000Y350000D02*
X1415000D01*
X1385000Y290000D02*
X1415000D01*
X940000Y1745000D02*
Y1775000D01*
X1060000D01*
Y1745000D02*
Y1775000D01*
X940000Y1745000D02*
X1060000D01*
X1185000Y1790000D02*
X1215000D01*
X1185000Y1730000D02*
X1215000D01*
X1185000Y1810000D02*
X1215000D01*
X1185000Y1870000D02*
X1215000D01*
X985000Y990000D02*
X1015000D01*
X985000Y930000D02*
X1015000D01*
X2590000Y590000D02*
X2610000D01*
X2590000Y530000D02*
X2610000D01*
X2390000Y210000D02*
X2410000D01*
X2390000Y270000D02*
X2410000D01*
X2390000Y190000D02*
X2410000D01*
X2390000Y130000D02*
X2410000D01*
X2190000Y110000D02*
X2210000D01*
X2190000Y50000D02*
X2210000D01*
X1790000Y110000D02*
X1810000D01*
X1790000Y50000D02*
X1810000D01*
X1469000Y131457D02*
X1581000D01*
X1469000Y188543D02*
X1581000D01*
X1790000Y270000D02*
X1810000D01*
X1790000Y210000D02*
X1810000D01*
X2590000Y1010000D02*
X2610000D01*
X2590000Y1070000D02*
X2610000D01*
X1790000Y1330000D02*
X1810000D01*
X1790000Y1390000D02*
X1810000D01*
X1590000Y110000D02*
X1610000D01*
X1590000Y50000D02*
X1610000D01*
X1790000Y1250000D02*
X1810000D01*
X1790000Y1310000D02*
X1810000D01*
X985000Y1090000D02*
X1015000D01*
X985000Y1150000D02*
X1015000D01*
X540945Y619055D02*
X541732D01*
X658268D02*
X659055D01*
X540945Y500945D02*
Y515905D01*
Y604095D02*
Y619055D01*
Y500945D02*
X541732D01*
X658268D02*
X659055D01*
Y515905D01*
Y604095D02*
Y619055D01*
X985000Y910000D02*
X1015000D01*
X985000Y850000D02*
X1015000D01*
X933071Y120630D02*
X1066929D01*
X933071Y199370D02*
X1066929D01*
X981000Y1493000D02*
Y1547559D01*
X964567D02*
X1035433D01*
X964567Y1492441D02*
X1035433D01*
X945500Y1496500D02*
X950500Y1491500D01*
X940500D02*
X950500D01*
X940500D02*
X945500Y1496500D01*
X1035433Y1540000D02*
Y1547559D01*
Y1492441D02*
Y1501000D01*
X964567Y1492441D02*
Y1502000D01*
Y1540000D02*
Y1547559D01*
X940000Y1345000D02*
Y1375000D01*
X1060000D01*
Y1345000D02*
Y1375000D01*
X940000Y1345000D02*
X1060000D01*
X985000Y1230000D02*
X1015000D01*
X985000Y1170000D02*
X1015000D01*
X2785000Y50000D02*
X2815000D01*
X2785000Y110000D02*
X2815000D01*
X3585000Y1070000D02*
X3615000D01*
X3585000Y1010000D02*
X3615000D01*
X3590000Y430000D02*
X3610000D01*
X3590000Y370000D02*
X3610000D01*
X3590000Y210000D02*
X3610000D01*
X3590000Y270000D02*
X3610000D01*
X3590000Y750000D02*
X3610000D01*
X3590000Y690000D02*
X3610000D01*
X3585000Y990000D02*
X3615000D01*
X3585000Y930000D02*
X3615000D01*
X3190000Y910000D02*
X3210000D01*
X3190000Y850000D02*
X3210000D01*
X3590000Y110000D02*
X3610000D01*
X3590000Y50000D02*
X3610000D01*
X3590000Y130000D02*
X3610000D01*
X3590000Y190000D02*
X3610000D01*
X3590000Y910000D02*
X3610000D01*
X3590000Y850000D02*
X3610000D01*
X3590000Y830000D02*
X3610000D01*
X3590000Y770000D02*
X3610000D01*
X3585000Y590000D02*
X3615000D01*
X3585000Y530000D02*
X3615000D01*
X3590000Y670000D02*
X3610000D01*
X3590000Y610000D02*
X3610000D01*
X3572441Y350000D02*
X3627559D01*
X3572441Y290000D02*
X3627559D01*
X3572441Y510000D02*
X3627559D01*
X3572441Y450000D02*
X3627559D01*
X2790000Y130000D02*
X2810000D01*
X2790000Y190000D02*
X2810000D01*
X2790000Y350000D02*
X2810000D01*
X2790000Y290000D02*
X2810000D01*
X2790000Y210000D02*
X2810000D01*
X2790000Y270000D02*
X2810000D01*
X2790000Y590000D02*
X2810000D01*
X2790000Y530000D02*
X2810000D01*
X2790000Y450000D02*
X2810000D01*
X2790000Y510000D02*
X2810000D01*
X2768504Y665000D02*
X2831496D01*
X2768504Y615000D02*
X2831496D01*
X2768504Y375000D02*
X2831496D01*
X2768504Y425000D02*
X2831496D01*
X3370000Y150000D02*
Y170000D01*
X3310000Y150000D02*
Y170000D01*
X3010000Y150000D02*
Y170000D01*
X3070000Y150000D02*
Y170000D01*
X3185000Y770000D02*
X3215000D01*
X3185000Y830000D02*
X3215000D01*
X3190000Y750000D02*
X3210000D01*
X3190000Y690000D02*
X3210000D01*
X2990000Y770000D02*
X3010000D01*
X2990000Y830000D02*
X3010000D01*
X2990000Y690000D02*
X3010000D01*
X2990000Y750000D02*
X3010000D01*
X1390000Y530000D02*
X1410000D01*
X1390000Y590000D02*
X1410000D01*
X1590000Y210000D02*
X1610000D01*
X1590000Y270000D02*
X1610000D01*
X3390000Y1632493D02*
X3375005D01*
X3382503D01*
Y1595005D01*
X3375005Y1587507D01*
X3367507D01*
X3360010Y1595005D01*
X3404995Y1587507D02*
X3419990D01*
X3412493D01*
Y1632493D01*
X3404995Y1624995D01*
X417517Y1847507D02*
Y1892493D01*
X440010D01*
X447507Y1884995D01*
Y1870000D01*
X440010Y1862503D01*
X417517D01*
X432512D02*
X447507Y1847507D01*
X462502Y1892493D02*
Y1847507D01*
X492493D01*
X507488D02*
X522483D01*
X514986D01*
Y1892493D01*
X507488Y1884995D01*
X172512Y1022493D02*
Y977507D01*
X195005D01*
X202502Y985005D01*
Y1014995D01*
X195005Y1022493D01*
X172512D01*
X247488Y977507D02*
X217498D01*
X247488Y1007498D01*
Y1014995D01*
X239990Y1022493D01*
X224995D01*
X217498Y1014995D01*
X347507Y404995D02*
X340010Y412493D01*
X325015D01*
X317517Y404995D01*
Y375005D01*
X325015Y367507D01*
X340010D01*
X347507Y375005D01*
X362502Y367507D02*
Y412493D01*
X392493Y367507D01*
Y412493D01*
X407488Y367507D02*
X422483D01*
X414986D01*
Y412493D01*
X407488Y404995D01*
X652512Y82493D02*
Y37507D01*
X675005D01*
X682503Y45005D01*
Y74995D01*
X675005Y82493D01*
X652512D01*
X719990Y37507D02*
Y82493D01*
X697498Y60000D01*
X727488D01*
X4150010Y1424995D02*
X4142512Y1432493D01*
X4127517D01*
X4120020Y1424995D01*
Y1395005D01*
X4127517Y1387507D01*
X4142512D01*
X4150010Y1395005D01*
X4165005Y1387507D02*
Y1432493D01*
X4194995Y1387507D01*
Y1432493D01*
X4209990D02*
X4239981D01*
Y1424995D01*
X4209990Y1395005D01*
Y1387507D01*
X3550010Y1254995D02*
X3542512Y1262493D01*
X3527517D01*
X3520019Y1254995D01*
Y1225005D01*
X3527517Y1217507D01*
X3542512D01*
X3550010Y1225005D01*
X3565005Y1217507D02*
Y1262493D01*
X3594995Y1217507D01*
Y1262493D01*
X3639981D02*
X3624986Y1254995D01*
X3609990Y1240000D01*
Y1225005D01*
X3617488Y1217507D01*
X3632483D01*
X3639981Y1225005D01*
Y1232503D01*
X3632483Y1240000D01*
X3609990D01*
X2662512Y1782493D02*
Y1745005D01*
X2670010Y1737507D01*
X2685005D01*
X2692503Y1745005D01*
Y1782493D01*
X2729990Y1737507D02*
Y1782493D01*
X2707498Y1760000D01*
X2737488D01*
X542503Y394995D02*
X535005Y402493D01*
X520010D01*
X512512Y394995D01*
Y365005D01*
X520010Y357507D01*
X535005D01*
X542503Y365005D01*
X557498Y394995D02*
X564995Y402493D01*
X579990D01*
X587488Y394995D01*
Y387498D01*
X579990Y380000D01*
X572493D01*
X579990D01*
X587488Y372502D01*
Y365005D01*
X579990Y357507D01*
X564995D01*
X557498Y365005D01*
X1192503Y674995D02*
X1185005Y682493D01*
X1170010D01*
X1162512Y674995D01*
Y645005D01*
X1170010Y637507D01*
X1185005D01*
X1192503Y645005D01*
X1237488Y637507D02*
X1207498D01*
X1237488Y667498D01*
Y674995D01*
X1229990Y682493D01*
X1214995D01*
X1207498Y674995D01*
X1276678Y179994D02*
X1303336Y140006D01*
Y179994D02*
X1276678Y140006D01*
X1336658D02*
Y179994D01*
X1316665Y160000D01*
X1343323D01*
X1587517Y1422493D02*
Y1377507D01*
X1610010D01*
X1617507Y1385005D01*
Y1392503D01*
X1610010Y1400000D01*
X1587517D01*
X1610010D01*
X1617507Y1407498D01*
Y1414995D01*
X1610010Y1422493D01*
X1587517D01*
X1632503D02*
X1662493D01*
X1647498D01*
Y1377507D01*
X1677488D02*
X1692483D01*
X1684986D01*
Y1422493D01*
X1677488Y1414995D01*
X1962512Y262493D02*
X1992503Y217507D01*
Y262493D02*
X1962512Y217507D01*
X2007498Y254995D02*
X2014995Y262493D01*
X2029990D01*
X2037488Y254995D01*
Y247498D01*
X2029990Y240000D01*
X2022493D01*
X2029990D01*
X2037488Y232502D01*
Y225005D01*
X2029990Y217507D01*
X2014995D01*
X2007498Y225005D01*
X2782512Y2182493D02*
X2812503Y2137507D01*
Y2182493D02*
X2782512Y2137507D01*
X2857488D02*
X2827498D01*
X2857488Y2167498D01*
Y2174995D01*
X2849990Y2182493D01*
X2834995D01*
X2827498Y2174995D01*
X3170010Y292493D02*
X3200000Y247507D01*
Y292493D02*
X3170010Y247507D01*
X3214995D02*
X3229990D01*
X3222493D01*
Y292493D01*
X3214995Y284995D01*
X1622512Y1152493D02*
Y1115005D01*
X1630010Y1107507D01*
X1645005D01*
X1652503Y1115005D01*
Y1152493D01*
X1697488D02*
X1667498D01*
Y1130000D01*
X1682493Y1137498D01*
X1689990D01*
X1697488Y1130000D01*
Y1115005D01*
X1689990Y1107507D01*
X1674995D01*
X1667498Y1115005D01*
X3002512Y672493D02*
Y635005D01*
X3010010Y627507D01*
X3025005D01*
X3032503Y635005D01*
Y672493D01*
X3047498Y664995D02*
X3054995Y672493D01*
X3069990D01*
X3077488Y664995D01*
Y657498D01*
X3069990Y650000D01*
X3062493D01*
X3069990D01*
X3077488Y642503D01*
Y635005D01*
X3069990Y627507D01*
X3054995D01*
X3047498Y635005D01*
X432512Y582493D02*
Y545005D01*
X440010Y537507D01*
X455005D01*
X462502Y545005D01*
Y582493D01*
X507488Y537507D02*
X477498D01*
X507488Y567498D01*
Y574995D01*
X499990Y582493D01*
X484995D01*
X477498Y574995D01*
X808350Y1177507D02*
Y1222493D01*
X830843D01*
X838341Y1214995D01*
Y1200000D01*
X830843Y1192503D01*
X808350D01*
X823345D02*
X838341Y1177507D01*
X853336Y1214995D02*
X860833Y1222493D01*
X875828D01*
X883326Y1214995D01*
Y1207498D01*
X875828Y1200000D01*
X868331D01*
X875828D01*
X883326Y1192503D01*
Y1185005D01*
X875828Y1177507D01*
X860833D01*
X853336Y1185005D01*
X928312Y1177507D02*
X898321D01*
X928312Y1207498D01*
Y1214995D01*
X920814Y1222493D01*
X905819D01*
X898321Y1214995D01*
X823345Y1097507D02*
Y1142493D01*
X845838D01*
X853336Y1134995D01*
Y1120000D01*
X845838Y1112503D01*
X823345D01*
X838341D02*
X853336Y1097507D01*
X868331Y1134995D02*
X875828Y1142493D01*
X890823D01*
X898321Y1134995D01*
Y1127498D01*
X890823Y1120000D01*
X883326D01*
X890823D01*
X898321Y1112503D01*
Y1105005D01*
X890823Y1097507D01*
X875828D01*
X868331Y1105005D01*
X913316Y1097507D02*
X928312D01*
X920814D01*
Y1142493D01*
X913316Y1134995D01*
X1260020Y1737507D02*
Y1782493D01*
X1282512D01*
X1290010Y1774995D01*
Y1760000D01*
X1282512Y1752503D01*
X1260020D01*
X1275015D02*
X1290010Y1737507D01*
X1305005Y1774995D02*
X1312503Y1782493D01*
X1327498D01*
X1334995Y1774995D01*
Y1767498D01*
X1327498Y1760000D01*
X1320000D01*
X1327498D01*
X1334995Y1752503D01*
Y1745005D01*
X1327498Y1737507D01*
X1312503D01*
X1305005Y1745005D01*
X1349991Y1774995D02*
X1357488Y1782493D01*
X1372483D01*
X1379981Y1774995D01*
Y1745005D01*
X1372483Y1737507D01*
X1357488D01*
X1349991Y1745005D01*
Y1774995D01*
X1260020Y1817507D02*
Y1862493D01*
X1282512D01*
X1290010Y1854995D01*
Y1840000D01*
X1282512Y1832503D01*
X1260020D01*
X1275015D02*
X1290010Y1817507D01*
X1334995D02*
X1305005D01*
X1334995Y1847498D01*
Y1854995D01*
X1327498Y1862493D01*
X1312503D01*
X1305005Y1854995D01*
X1349991Y1825005D02*
X1357488Y1817507D01*
X1372483D01*
X1379981Y1825005D01*
Y1854995D01*
X1372483Y1862493D01*
X1357488D01*
X1349991Y1854995D01*
Y1847498D01*
X1357488Y1840000D01*
X1379981D01*
X1670020Y1897507D02*
Y1942493D01*
X1692512D01*
X1700010Y1934995D01*
Y1920000D01*
X1692512Y1912503D01*
X1670020D01*
X1685015D02*
X1700010Y1897507D01*
X1744995D02*
X1715005D01*
X1744995Y1927498D01*
Y1934995D01*
X1737498Y1942493D01*
X1722503D01*
X1715005Y1934995D01*
X1759991D02*
X1767488Y1942493D01*
X1782483D01*
X1789981Y1934995D01*
Y1927498D01*
X1782483Y1920000D01*
X1789981Y1912503D01*
Y1905005D01*
X1782483Y1897507D01*
X1767488D01*
X1759991Y1905005D01*
Y1912503D01*
X1767488Y1920000D01*
X1759991Y1927498D01*
Y1934995D01*
X1767488Y1920000D02*
X1782483D01*
X1467517Y457507D02*
Y502493D01*
X1490010D01*
X1497507Y494995D01*
Y480000D01*
X1490010Y472502D01*
X1467517D01*
X1482512D02*
X1497507Y457507D01*
X1542493D02*
X1512503D01*
X1542493Y487498D01*
Y494995D01*
X1534995Y502493D01*
X1520000D01*
X1512503Y494995D01*
X1557488Y502493D02*
X1587478D01*
Y494995D01*
X1557488Y465005D01*
Y457507D01*
X1466594Y1497507D02*
Y1542493D01*
X1489087D01*
X1496585Y1534995D01*
Y1520000D01*
X1489087Y1512503D01*
X1466594D01*
X1481590D02*
X1496585Y1497507D01*
X1541570D02*
X1511580D01*
X1541570Y1527498D01*
Y1534995D01*
X1534072Y1542493D01*
X1519077D01*
X1511580Y1534995D01*
X1586556Y1542493D02*
X1571561Y1534995D01*
X1556565Y1520000D01*
Y1505005D01*
X1564063Y1497507D01*
X1579058D01*
X1586556Y1505005D01*
Y1512503D01*
X1579058Y1520000D01*
X1556565D01*
X1860020Y1577507D02*
Y1622493D01*
X1882512D01*
X1890010Y1614995D01*
Y1600000D01*
X1882512Y1592503D01*
X1860020D01*
X1875015D02*
X1890010Y1577507D01*
X1934995D02*
X1905005D01*
X1934995Y1607498D01*
Y1614995D01*
X1927498Y1622493D01*
X1912503D01*
X1905005Y1614995D01*
X1979981Y1622493D02*
X1949991D01*
Y1600000D01*
X1964986Y1607498D01*
X1972483D01*
X1979981Y1600000D01*
Y1585005D01*
X1972483Y1577507D01*
X1957488D01*
X1949991Y1585005D01*
X1466594Y1657507D02*
Y1702493D01*
X1489087D01*
X1496585Y1694995D01*
Y1680000D01*
X1489087Y1672503D01*
X1466594D01*
X1481590D02*
X1496585Y1657507D01*
X1541570D02*
X1511580D01*
X1541570Y1687498D01*
Y1694995D01*
X1534072Y1702493D01*
X1519077D01*
X1511580Y1694995D01*
X1579058Y1657507D02*
Y1702493D01*
X1556565Y1680000D01*
X1586556D01*
X1467517Y377507D02*
Y422493D01*
X1490010D01*
X1497507Y414995D01*
Y400000D01*
X1490010Y392502D01*
X1467517D01*
X1482512D02*
X1497507Y377507D01*
X1542493D02*
X1512503D01*
X1542493Y407498D01*
Y414995D01*
X1534995Y422493D01*
X1520000D01*
X1512503Y414995D01*
X1557488D02*
X1564986Y422493D01*
X1579981D01*
X1587478Y414995D01*
Y407498D01*
X1579981Y400000D01*
X1572483D01*
X1579981D01*
X1587478Y392502D01*
Y385005D01*
X1579981Y377507D01*
X1564986D01*
X1557488Y385005D01*
X1467517Y297507D02*
Y342493D01*
X1490010D01*
X1497507Y334995D01*
Y320000D01*
X1490010Y312502D01*
X1467517D01*
X1482512D02*
X1497507Y297507D01*
X1542493D02*
X1512503D01*
X1542493Y327498D01*
Y334995D01*
X1534995Y342493D01*
X1520000D01*
X1512503Y334995D01*
X1587478Y297507D02*
X1557488D01*
X1587478Y327498D01*
Y334995D01*
X1579981Y342493D01*
X1564986D01*
X1557488Y334995D01*
X2033558Y1747507D02*
Y1792493D01*
X2056051D01*
X2063548Y1784995D01*
Y1770000D01*
X2056051Y1762503D01*
X2033558D01*
X2048553D02*
X2063548Y1747507D01*
X2108534D02*
X2078543D01*
X2108534Y1777498D01*
Y1784995D01*
X2101036Y1792493D01*
X2086041D01*
X2078543Y1784995D01*
X2123529Y1747507D02*
X2138524D01*
X2131026D01*
Y1792493D01*
X2123529Y1784995D01*
X2018563Y1417507D02*
Y1462493D01*
X2041055D01*
X2048553Y1454995D01*
Y1440000D01*
X2041055Y1432503D01*
X2018563D01*
X2033558D02*
X2048553Y1417507D01*
X2093539D02*
X2063548D01*
X2093539Y1447498D01*
Y1454995D01*
X2086041Y1462493D01*
X2071046D01*
X2063548Y1454995D01*
X2108534D02*
X2116031Y1462493D01*
X2131026D01*
X2138524Y1454995D01*
Y1425005D01*
X2131026Y1417507D01*
X2116031D01*
X2108534Y1425005D01*
Y1454995D01*
X2026060Y1657507D02*
Y1702493D01*
X2048553D01*
X2056051Y1694995D01*
Y1680000D01*
X2048553Y1672503D01*
X2026060D01*
X2041056D02*
X2056051Y1657507D01*
X2071046D02*
X2086041D01*
X2078544D01*
Y1702493D01*
X2071046Y1694995D01*
X2108534Y1665005D02*
X2116031Y1657507D01*
X2131026D01*
X2138524Y1665005D01*
Y1694995D01*
X2131026Y1702493D01*
X2116031D01*
X2108534Y1694995D01*
Y1687498D01*
X2116031Y1680000D01*
X2138524D01*
X2026060Y1337507D02*
Y1382493D01*
X2048553D01*
X2056051Y1374995D01*
Y1360000D01*
X2048553Y1352503D01*
X2026060D01*
X2041056D02*
X2056051Y1337507D01*
X2071046D02*
X2086041D01*
X2078544D01*
Y1382493D01*
X2071046Y1374995D01*
X2108534D02*
X2116031Y1382493D01*
X2131026D01*
X2138524Y1374995D01*
Y1367498D01*
X2131026Y1360000D01*
X2138524Y1352503D01*
Y1345005D01*
X2131026Y1337507D01*
X2116031D01*
X2108534Y1345005D01*
Y1352503D01*
X2116031Y1360000D01*
X2108534Y1367498D01*
Y1374995D01*
X2116031Y1360000D02*
X2131026D01*
X2026060Y1577507D02*
Y1622493D01*
X2048553D01*
X2056051Y1614995D01*
Y1600000D01*
X2048553Y1592503D01*
X2026060D01*
X2041056D02*
X2056051Y1577507D01*
X2071046D02*
X2086041D01*
X2078544D01*
Y1622493D01*
X2071046Y1614995D01*
X2108534Y1622493D02*
X2138524D01*
Y1614995D01*
X2108534Y1585005D01*
Y1577507D01*
X2026060Y1257507D02*
Y1302493D01*
X2048553D01*
X2056051Y1294995D01*
Y1280000D01*
X2048553Y1272503D01*
X2026060D01*
X2041056D02*
X2056051Y1257507D01*
X2071046D02*
X2086041D01*
X2078544D01*
Y1302493D01*
X2071046Y1294995D01*
X2138524Y1302493D02*
X2123529Y1294995D01*
X2108534Y1280000D01*
Y1265005D01*
X2116031Y1257507D01*
X2131026D01*
X2138524Y1265005D01*
Y1272503D01*
X2131026Y1280000D01*
X2108534D01*
X2026060Y1497507D02*
Y1542493D01*
X2048553D01*
X2056051Y1534995D01*
Y1520000D01*
X2048553Y1512503D01*
X2026060D01*
X2041056D02*
X2056051Y1497507D01*
X2071046D02*
X2086041D01*
X2078544D01*
Y1542493D01*
X2071046Y1534995D01*
X2138524Y1542493D02*
X2108534D01*
Y1520000D01*
X2123529Y1527498D01*
X2131026D01*
X2138524Y1520000D01*
Y1505005D01*
X2131026Y1497507D01*
X2116031D01*
X2108534Y1505005D01*
X2026060Y1897507D02*
Y1942493D01*
X2048553D01*
X2056051Y1934995D01*
Y1920000D01*
X2048553Y1912503D01*
X2026060D01*
X2041056D02*
X2056051Y1897507D01*
X2071046D02*
X2086041D01*
X2078544D01*
Y1942493D01*
X2071046Y1934995D01*
X2131026Y1897507D02*
Y1942493D01*
X2108534Y1920000D01*
X2138524D01*
X3270019Y1417507D02*
Y1462493D01*
X3292512D01*
X3300010Y1454995D01*
Y1440000D01*
X3292512Y1432503D01*
X3270019D01*
X3285015D02*
X3300010Y1417507D01*
X3315005D02*
X3330000D01*
X3322503D01*
Y1462493D01*
X3315005Y1454995D01*
X3352493D02*
X3359990Y1462493D01*
X3374986D01*
X3382483Y1454995D01*
Y1447498D01*
X3374986Y1440000D01*
X3367488D01*
X3374986D01*
X3382483Y1432503D01*
Y1425005D01*
X3374986Y1417507D01*
X3359990D01*
X3352493Y1425005D01*
X1860020Y1497507D02*
Y1542493D01*
X1882512D01*
X1890010Y1534995D01*
Y1520000D01*
X1882512Y1512503D01*
X1860020D01*
X1875015D02*
X1890010Y1497507D01*
X1905005D02*
X1920000D01*
X1912503D01*
Y1542493D01*
X1905005Y1534995D01*
X1972483Y1497507D02*
X1942493D01*
X1972483Y1527498D01*
Y1534995D01*
X1964986Y1542493D01*
X1949991D01*
X1942493Y1534995D01*
X2842512Y1177507D02*
Y1222493D01*
X2865005D01*
X2872503Y1214995D01*
Y1200000D01*
X2865005Y1192503D01*
X2842512D01*
X2857507D02*
X2872503Y1177507D01*
X2887498D02*
X2902493D01*
X2894995D01*
Y1222493D01*
X2887498Y1214995D01*
X2924986Y1177507D02*
X2939981D01*
X2932483D01*
Y1222493D01*
X2924986Y1214995D01*
X2427517Y777507D02*
Y822493D01*
X2450010D01*
X2457507Y814995D01*
Y800000D01*
X2450010Y792503D01*
X2427517D01*
X2442512D02*
X2457507Y777507D01*
X2472503D02*
X2487498D01*
X2480000D01*
Y822493D01*
X2472503Y814995D01*
X2509990D02*
X2517488Y822493D01*
X2532483D01*
X2539981Y814995D01*
Y785005D01*
X2532483Y777507D01*
X2517488D01*
X2509990Y785005D01*
Y814995D01*
X2465005Y937507D02*
Y982493D01*
X2487498D01*
X2494995Y974995D01*
Y960000D01*
X2487498Y952503D01*
X2465005D01*
X2480000D02*
X2494995Y937507D01*
X2509990Y945005D02*
X2517488Y937507D01*
X2532483D01*
X2539981Y945005D01*
Y974995D01*
X2532483Y982493D01*
X2517488D01*
X2509990Y974995D01*
Y967498D01*
X2517488Y960000D01*
X2539981D01*
X2465005Y857507D02*
Y902493D01*
X2487498D01*
X2494995Y894995D01*
Y880000D01*
X2487498Y872503D01*
X2465005D01*
X2480000D02*
X2494995Y857507D01*
X2509990Y894995D02*
X2517488Y902493D01*
X2532483D01*
X2539981Y894995D01*
Y887498D01*
X2532483Y880000D01*
X2539981Y872503D01*
Y865005D01*
X2532483Y857507D01*
X2517488D01*
X2509990Y865005D01*
Y872503D01*
X2517488Y880000D01*
X2509990Y887498D01*
Y894995D01*
X2517488Y880000D02*
X2532483D01*
X3463339Y537507D02*
Y582493D01*
X3485831D01*
X3493329Y574995D01*
Y560000D01*
X3485831Y552503D01*
X3463339D01*
X3478334D02*
X3493329Y537507D01*
X3508324Y582493D02*
X3538315D01*
Y574995D01*
X3508324Y545005D01*
Y537507D01*
X3463339Y937507D02*
Y982493D01*
X3485831D01*
X3493329Y974995D01*
Y960000D01*
X3485831Y952503D01*
X3463339D01*
X3478334D02*
X3493329Y937507D01*
X3538315Y982493D02*
X3523320Y974995D01*
X3508324Y960000D01*
Y945005D01*
X3515822Y937507D01*
X3530817D01*
X3538315Y945005D01*
Y952503D01*
X3530817Y960000D01*
X3508324D01*
X2863768Y57507D02*
Y102493D01*
X2886261D01*
X2893759Y94995D01*
Y80000D01*
X2886261Y72502D01*
X2863768D01*
X2878764D02*
X2893759Y57507D01*
X2938744Y102493D02*
X2908754D01*
Y80000D01*
X2923749Y87498D01*
X2931247D01*
X2938744Y80000D01*
Y65005D01*
X2931247Y57507D01*
X2916251D01*
X2908754Y65005D01*
X3463339Y1017507D02*
Y1062493D01*
X3485831D01*
X3493329Y1054995D01*
Y1040000D01*
X3485831Y1032503D01*
X3463339D01*
X3478334D02*
X3493329Y1017507D01*
X3530817D02*
Y1062493D01*
X3508324Y1040000D01*
X3538315D01*
X3262512Y777507D02*
Y822493D01*
X3285005D01*
X3292503Y814995D01*
Y800000D01*
X3285005Y792503D01*
X3262512D01*
X3277507D02*
X3292503Y777507D01*
X3307498Y814995D02*
X3314995Y822493D01*
X3329990D01*
X3337488Y814995D01*
Y807498D01*
X3329990Y800000D01*
X3322493D01*
X3329990D01*
X3337488Y792503D01*
Y785005D01*
X3329990Y777507D01*
X3314995D01*
X3307498Y785005D01*
X853336Y867507D02*
Y912493D01*
X875828D01*
X883326Y904995D01*
Y890000D01*
X875828Y882503D01*
X853336D01*
X868331D02*
X883326Y867507D01*
X928312D02*
X898321D01*
X928312Y897498D01*
Y904995D01*
X920814Y912493D01*
X905819D01*
X898321Y904995D01*
X868331Y937507D02*
Y982493D01*
X890823D01*
X898321Y974995D01*
Y960000D01*
X890823Y952503D01*
X868331D01*
X883326D02*
X898321Y937507D01*
X913316D02*
X928312D01*
X920814D01*
Y982493D01*
X913316Y974995D01*
X875005Y1345005D02*
Y1374995D01*
X867507Y1382493D01*
X852512D01*
X845015Y1374995D01*
Y1345005D01*
X852512Y1337507D01*
X867507D01*
X860010Y1352503D02*
X875005Y1337507D01*
X867507D02*
X875005Y1345005D01*
X919990Y1337507D02*
X890000D01*
X919990Y1367498D01*
Y1374995D01*
X912493Y1382493D01*
X897498D01*
X890000Y1374995D01*
X890000Y1745005D02*
Y1774995D01*
X882503Y1782493D01*
X867507D01*
X860010Y1774995D01*
Y1745005D01*
X867507Y1737507D01*
X882503D01*
X875005Y1752503D02*
X890000Y1737507D01*
X882503D02*
X890000Y1745005D01*
X904995Y1737507D02*
X919990D01*
X912493D01*
Y1782493D01*
X904995Y1774995D01*
X1110010Y137507D02*
Y182493D01*
X1132503D01*
X1140000Y174995D01*
Y160000D01*
X1132503Y152502D01*
X1110010D01*
X1154995Y137507D02*
X1169991D01*
X1162493D01*
Y182493D01*
X1154995Y174995D01*
X3270019Y1382493D02*
Y1337507D01*
X3300010D01*
X3344995Y1382493D02*
X3330000Y1374995D01*
X3315005Y1360000D01*
Y1345005D01*
X3322503Y1337507D01*
X3337498D01*
X3344995Y1345005D01*
Y1352503D01*
X3337498Y1360000D01*
X3315005D01*
X3463339Y502493D02*
Y457507D01*
X3493329D01*
X3538315Y502493D02*
X3508324D01*
Y480000D01*
X3523320Y487498D01*
X3530817D01*
X3538315Y480000D01*
Y465005D01*
X3530817Y457507D01*
X3515822D01*
X3508324Y465005D01*
X3463339Y342493D02*
Y297507D01*
X3493329D01*
X3530817D02*
Y342493D01*
X3508324Y320000D01*
X3538315D01*
X2662512Y422493D02*
Y377507D01*
X2692503D01*
X2707498Y414995D02*
X2714995Y422493D01*
X2729990D01*
X2737488Y414995D01*
Y407498D01*
X2729990Y400000D01*
X2722493D01*
X2729990D01*
X2737488Y392502D01*
Y385005D01*
X2729990Y377507D01*
X2714995D01*
X2707498Y385005D01*
X2662512Y662493D02*
Y617507D01*
X2692503D01*
X2737488D02*
X2707498D01*
X2737488Y647498D01*
Y654995D01*
X2729990Y662493D01*
X2714995D01*
X2707498Y654995D01*
X570010Y1032493D02*
Y987507D01*
X600000D01*
X614995D02*
X629990D01*
X622493D01*
Y1032493D01*
X614995Y1024995D01*
X853336Y1542493D02*
Y1497507D01*
X875828D01*
X883326Y1505005D01*
Y1534995D01*
X875828Y1542493D01*
X853336D01*
X898321Y1534995D02*
X905819Y1542493D01*
X920814D01*
X928312Y1534995D01*
Y1527498D01*
X920814Y1520000D01*
X913316D01*
X920814D01*
X928312Y1512503D01*
Y1505005D01*
X920814Y1497507D01*
X905819D01*
X898321Y1505005D01*
X1160010Y342493D02*
Y297507D01*
X1182503D01*
X1190000Y305005D01*
Y334995D01*
X1182503Y342493D01*
X1160010D01*
X1204995Y297507D02*
X1219991D01*
X1212493D01*
Y342493D01*
X1204995Y334995D01*
X440010Y2004995D02*
X432512Y2012493D01*
X417517D01*
X410019Y2004995D01*
Y1975005D01*
X417517Y1967507D01*
X432512D01*
X440010Y1975005D01*
X455005Y1967507D02*
Y2012493D01*
X484995Y1967507D01*
Y2012493D01*
X529981D02*
X499990D01*
Y1990000D01*
X514986Y1997498D01*
X522483D01*
X529981Y1990000D01*
Y1975005D01*
X522483Y1967507D01*
X507488D01*
X499990Y1975005D01*
X1515443Y2009995D02*
X1507945Y2017493D01*
X1492950D01*
X1485453Y2009995D01*
Y1980005D01*
X1492950Y1972507D01*
X1507945D01*
X1515443Y1980005D01*
X1530438Y1972507D02*
Y2017493D01*
X1560428Y1972507D01*
Y2017493D01*
X1597916Y1972507D02*
Y2017493D01*
X1575424Y1995000D01*
X1605414D01*
X1170010Y1374995D02*
X1162512Y1382493D01*
X1147517D01*
X1140020Y1374995D01*
Y1345005D01*
X1147517Y1337507D01*
X1162512D01*
X1170010Y1345005D01*
X1185005Y1337507D02*
Y1382493D01*
X1214995Y1337507D01*
Y1382493D01*
X1229991Y1374995D02*
X1237488Y1382493D01*
X1252483D01*
X1259981Y1374995D01*
Y1367498D01*
X1252483Y1360000D01*
X1244986D01*
X1252483D01*
X1259981Y1352503D01*
Y1345005D01*
X1252483Y1337507D01*
X1237488D01*
X1229991Y1345005D01*
X2276309Y2009995D02*
X2268811Y2017493D01*
X2253816D01*
X2246319Y2009995D01*
Y1980005D01*
X2253816Y1972507D01*
X2268811D01*
X2276309Y1980005D01*
X2291304Y1972507D02*
Y2017493D01*
X2321294Y1972507D01*
Y2017493D01*
X2366280Y1972507D02*
X2336290D01*
X2366280Y2002498D01*
Y2009995D01*
X2358782Y2017493D01*
X2343787D01*
X2336290Y2009995D01*
X2170010Y164995D02*
X2162512Y172493D01*
X2147517D01*
X2140019Y164995D01*
Y135005D01*
X2147517Y127507D01*
X2162512D01*
X2170010Y135005D01*
X2207498Y127507D02*
Y172493D01*
X2185005Y150000D01*
X2214995D01*
X2259981Y172493D02*
X2229990D01*
Y150000D01*
X2244986Y157498D01*
X2252483D01*
X2259981Y150000D01*
Y135005D01*
X2252483Y127507D01*
X2237488D01*
X2229990Y135005D01*
X1440010Y94995D02*
X1432512Y102493D01*
X1417517D01*
X1410020Y94995D01*
Y65005D01*
X1417517Y57507D01*
X1432512D01*
X1440010Y65005D01*
X1477498Y57507D02*
Y102493D01*
X1455005Y80000D01*
X1484995D01*
X1522483Y57507D02*
Y102493D01*
X1499991Y80000D01*
X1529981D01*
X1760010Y164995D02*
X1752512Y172493D01*
X1737517D01*
X1730020Y164995D01*
Y135005D01*
X1737517Y127507D01*
X1752512D01*
X1760010Y135005D01*
X1797498Y127507D02*
Y172493D01*
X1775005Y150000D01*
X1804995D01*
X1819991Y164995D02*
X1827488Y172493D01*
X1842483D01*
X1849981Y164995D01*
Y157498D01*
X1842483Y150000D01*
X1834986D01*
X1842483D01*
X1849981Y142502D01*
Y135005D01*
X1842483Y127507D01*
X1827488D01*
X1819991Y135005D01*
X1440010Y254995D02*
X1432512Y262493D01*
X1417517D01*
X1410020Y254995D01*
Y225005D01*
X1417517Y217507D01*
X1432512D01*
X1440010Y225005D01*
X1477498Y217507D02*
Y262493D01*
X1455005Y240000D01*
X1484995D01*
X1529981Y217507D02*
X1499991D01*
X1529981Y247498D01*
Y254995D01*
X1522483Y262493D01*
X1507488D01*
X1499991Y254995D01*
X1497507Y574995D02*
X1490010Y582493D01*
X1475015D01*
X1467517Y574995D01*
Y545005D01*
X1475015Y537507D01*
X1490010D01*
X1497507Y545005D01*
X1534995Y537507D02*
Y582493D01*
X1512503Y560000D01*
X1542493D01*
X1557488Y537507D02*
X1572483D01*
X1564986D01*
Y582493D01*
X1557488Y574995D01*
X2370010Y324995D02*
X2362512Y332493D01*
X2347517D01*
X2340019Y324995D01*
Y295005D01*
X2347517Y287507D01*
X2362512D01*
X2370010Y295005D01*
X2407498Y287507D02*
Y332493D01*
X2385005Y310000D01*
X2414995D01*
X2429990Y324995D02*
X2437488Y332493D01*
X2452483D01*
X2459981Y324995D01*
Y295005D01*
X2452483Y287507D01*
X2437488D01*
X2429990Y295005D01*
Y324995D01*
X2370010Y104995D02*
X2362512Y112493D01*
X2347517D01*
X2340019Y104995D01*
Y75005D01*
X2347517Y67507D01*
X2362512D01*
X2370010Y75005D01*
X2385005Y104995D02*
X2392503Y112493D01*
X2407498D01*
X2414995Y104995D01*
Y97498D01*
X2407498Y90000D01*
X2400000D01*
X2407498D01*
X2414995Y82502D01*
Y75005D01*
X2407498Y67507D01*
X2392503D01*
X2385005Y75005D01*
X2429990D02*
X2437488Y67507D01*
X2452483D01*
X2459981Y75005D01*
Y104995D01*
X2452483Y112493D01*
X2437488D01*
X2429990Y104995D01*
Y97498D01*
X2437488Y90000D01*
X2459981D01*
X1890010Y1374995D02*
X1882512Y1382493D01*
X1867517D01*
X1860020Y1374995D01*
Y1345005D01*
X1867517Y1337507D01*
X1882512D01*
X1890010Y1345005D01*
X1905005Y1374995D02*
X1912503Y1382493D01*
X1927498D01*
X1934995Y1374995D01*
Y1367498D01*
X1927498Y1360000D01*
X1920000D01*
X1927498D01*
X1934995Y1352503D01*
Y1345005D01*
X1927498Y1337507D01*
X1912503D01*
X1905005Y1345005D01*
X1949991Y1374995D02*
X1957488Y1382493D01*
X1972483D01*
X1979981Y1374995D01*
Y1367498D01*
X1972483Y1360000D01*
X1979981Y1352503D01*
Y1345005D01*
X1972483Y1337507D01*
X1957488D01*
X1949991Y1345005D01*
Y1352503D01*
X1957488Y1360000D01*
X1949991Y1367498D01*
Y1374995D01*
X1957488Y1360000D02*
X1972483D01*
X2450010Y1054995D02*
X2442512Y1062493D01*
X2427517D01*
X2420019Y1054995D01*
Y1025005D01*
X2427517Y1017507D01*
X2442512D01*
X2450010Y1025005D01*
X2465005Y1054995D02*
X2472503Y1062493D01*
X2487498D01*
X2494995Y1054995D01*
Y1047498D01*
X2487498Y1040000D01*
X2480000D01*
X2487498D01*
X2494995Y1032503D01*
Y1025005D01*
X2487498Y1017507D01*
X2472503D01*
X2465005Y1025005D01*
X2509990Y1062493D02*
X2539981D01*
Y1054995D01*
X2509990Y1025005D01*
Y1017507D01*
X1890010Y1294995D02*
X1882512Y1302493D01*
X1867517D01*
X1860020Y1294995D01*
Y1265005D01*
X1867517Y1257507D01*
X1882512D01*
X1890010Y1265005D01*
X1905005Y1294995D02*
X1912503Y1302493D01*
X1927498D01*
X1934995Y1294995D01*
Y1287498D01*
X1927498Y1280000D01*
X1920000D01*
X1927498D01*
X1934995Y1272503D01*
Y1265005D01*
X1927498Y1257507D01*
X1912503D01*
X1905005Y1265005D01*
X1979981Y1302493D02*
X1964986Y1294995D01*
X1949991Y1280000D01*
Y1265005D01*
X1957488Y1257507D01*
X1972483D01*
X1979981Y1265005D01*
Y1272503D01*
X1972483Y1280000D01*
X1949991D01*
X2450010Y574995D02*
X2442512Y582493D01*
X2427517D01*
X2420019Y574995D01*
Y545005D01*
X2427517Y537507D01*
X2442512D01*
X2450010Y545005D01*
X2465005Y574995D02*
X2472503Y582493D01*
X2487498D01*
X2494995Y574995D01*
Y567498D01*
X2487498Y560000D01*
X2480000D01*
X2487498D01*
X2494995Y552503D01*
Y545005D01*
X2487498Y537507D01*
X2472503D01*
X2465005Y545005D01*
X2539981Y582493D02*
X2509990D01*
Y560000D01*
X2524986Y567498D01*
X2532483D01*
X2539981Y560000D01*
Y545005D01*
X2532483Y537507D01*
X2517488D01*
X2509990Y545005D01*
X1770010Y324995D02*
X1762512Y332493D01*
X1747517D01*
X1740020Y324995D01*
Y295005D01*
X1747517Y287507D01*
X1762512D01*
X1770010Y295005D01*
X1785005Y324995D02*
X1792503Y332493D01*
X1807498D01*
X1814995Y324995D01*
Y317498D01*
X1807498Y310000D01*
X1800000D01*
X1807498D01*
X1814995Y302502D01*
Y295005D01*
X1807498Y287507D01*
X1792503D01*
X1785005Y295005D01*
X1852483Y287507D02*
Y332493D01*
X1829991Y310000D01*
X1859981D01*
X1496585Y1614995D02*
X1489087Y1622493D01*
X1474092D01*
X1466594Y1614995D01*
Y1585005D01*
X1474092Y1577507D01*
X1489087D01*
X1496585Y1585005D01*
X1511580Y1614995D02*
X1519077Y1622493D01*
X1534072D01*
X1541570Y1614995D01*
Y1607498D01*
X1534072Y1600000D01*
X1526575D01*
X1534072D01*
X1541570Y1592503D01*
Y1585005D01*
X1534072Y1577507D01*
X1519077D01*
X1511580Y1585005D01*
X1556565Y1614995D02*
X1564063Y1622493D01*
X1579058D01*
X1586556Y1614995D01*
Y1607498D01*
X1579058Y1600000D01*
X1571561D01*
X1579058D01*
X1586556Y1592503D01*
Y1585005D01*
X1579058Y1577507D01*
X1564063D01*
X1556565Y1585005D01*
X2690010Y2294995D02*
X2682512Y2302493D01*
X2667517D01*
X2660019Y2294995D01*
Y2265005D01*
X2667517Y2257507D01*
X2682512D01*
X2690010Y2265005D01*
X2705005Y2294995D02*
X2712503Y2302493D01*
X2727498D01*
X2734995Y2294995D01*
Y2287498D01*
X2727498Y2280000D01*
X2720000D01*
X2727498D01*
X2734995Y2272503D01*
Y2265005D01*
X2727498Y2257507D01*
X2712503D01*
X2705005Y2265005D01*
X2779981Y2257507D02*
X2749990D01*
X2779981Y2287498D01*
Y2294995D01*
X2772483Y2302493D01*
X2757488D01*
X2749990Y2294995D01*
X2887507D02*
X2880010Y2302493D01*
X2865015D01*
X2857517Y2294995D01*
Y2265005D01*
X2865015Y2257507D01*
X2880010D01*
X2887507Y2265005D01*
X2902503Y2294995D02*
X2910000Y2302493D01*
X2924995D01*
X2932493Y2294995D01*
Y2287498D01*
X2924995Y2280000D01*
X2917498D01*
X2924995D01*
X2932493Y2272503D01*
Y2265005D01*
X2924995Y2257507D01*
X2910000D01*
X2902503Y2265005D01*
X2947488Y2257507D02*
X2962483D01*
X2954986D01*
Y2302493D01*
X2947488Y2294995D01*
X3300010Y1214995D02*
X3292512Y1222493D01*
X3277517D01*
X3270019Y1214995D01*
Y1185005D01*
X3277517Y1177507D01*
X3292512D01*
X3300010Y1185005D01*
X3315005Y1214995D02*
X3322503Y1222493D01*
X3337498D01*
X3344995Y1214995D01*
Y1207498D01*
X3337498Y1200000D01*
X3330000D01*
X3337498D01*
X3344995Y1192503D01*
Y1185005D01*
X3337498Y1177507D01*
X3322503D01*
X3315005Y1185005D01*
X3359990Y1214995D02*
X3367488Y1222493D01*
X3382483D01*
X3389981Y1214995D01*
Y1185005D01*
X3382483Y1177507D01*
X3367488D01*
X3359990Y1185005D01*
Y1214995D01*
X3300010Y1294995D02*
X3292512Y1302493D01*
X3277517D01*
X3270019Y1294995D01*
Y1265005D01*
X3277517Y1257507D01*
X3292512D01*
X3300010Y1265005D01*
X3344995Y1257507D02*
X3315005D01*
X3344995Y1287498D01*
Y1294995D01*
X3337498Y1302493D01*
X3322503D01*
X3315005Y1294995D01*
X3359990Y1265005D02*
X3367488Y1257507D01*
X3382483D01*
X3389981Y1265005D01*
Y1294995D01*
X3382483Y1302493D01*
X3367488D01*
X3359990Y1294995D01*
Y1287498D01*
X3367488Y1280000D01*
X3389981D01*
X2330010Y1794995D02*
X2322512Y1802493D01*
X2307517D01*
X2300019Y1794995D01*
Y1765005D01*
X2307517Y1757507D01*
X2322512D01*
X2330010Y1765005D01*
X2374995Y1757507D02*
X2345005D01*
X2374995Y1787498D01*
Y1794995D01*
X2367498Y1802493D01*
X2352503D01*
X2345005Y1794995D01*
X2389990D02*
X2397488Y1802493D01*
X2412483D01*
X2419981Y1794995D01*
Y1787498D01*
X2412483Y1780000D01*
X2419981Y1772503D01*
Y1765005D01*
X2412483Y1757507D01*
X2397488D01*
X2389990Y1765005D01*
Y1772503D01*
X2397488Y1780000D01*
X2389990Y1787498D01*
Y1794995D01*
X2397488Y1780000D02*
X2412483D01*
X2330010Y1714995D02*
X2322512Y1722493D01*
X2307517D01*
X2300019Y1714995D01*
Y1685005D01*
X2307517Y1677507D01*
X2322512D01*
X2330010Y1685005D01*
X2374995Y1677507D02*
X2345005D01*
X2374995Y1707498D01*
Y1714995D01*
X2367498Y1722493D01*
X2352503D01*
X2345005Y1714995D01*
X2389990Y1722493D02*
X2419981D01*
Y1714995D01*
X2389990Y1685005D01*
Y1677507D01*
X2970010Y1524995D02*
X2962512Y1532493D01*
X2947517D01*
X2940019Y1524995D01*
Y1495005D01*
X2947517Y1487507D01*
X2962512D01*
X2970010Y1495005D01*
X3014995Y1487507D02*
X2985005D01*
X3014995Y1517498D01*
Y1524995D01*
X3007498Y1532493D01*
X2992503D01*
X2985005Y1524995D01*
X3059981Y1532493D02*
X3044986Y1524995D01*
X3029990Y1510000D01*
Y1495005D01*
X3037488Y1487507D01*
X3052483D01*
X3059981Y1495005D01*
Y1502503D01*
X3052483Y1510000D01*
X3029990D01*
X2850010Y1374995D02*
X2842512Y1382493D01*
X2827517D01*
X2820019Y1374995D01*
Y1345005D01*
X2827517Y1337507D01*
X2842512D01*
X2850010Y1345005D01*
X2894995Y1337507D02*
X2865005D01*
X2894995Y1367498D01*
Y1374995D01*
X2887498Y1382493D01*
X2872503D01*
X2865005Y1374995D01*
X2939981Y1382493D02*
X2909990D01*
Y1360000D01*
X2924986Y1367498D01*
X2932483D01*
X2939981Y1360000D01*
Y1345005D01*
X2932483Y1337507D01*
X2917488D01*
X2909990Y1345005D01*
X2850010Y1294995D02*
X2842512Y1302493D01*
X2827517D01*
X2820019Y1294995D01*
Y1265005D01*
X2827517Y1257507D01*
X2842512D01*
X2850010Y1265005D01*
X2894995Y1257507D02*
X2865005D01*
X2894995Y1287498D01*
Y1294995D01*
X2887498Y1302493D01*
X2872503D01*
X2865005Y1294995D01*
X2932483Y1257507D02*
Y1302493D01*
X2909990Y1280000D01*
X2939981D01*
X3310010Y94995D02*
X3302512Y102493D01*
X3287517D01*
X3280019Y94995D01*
Y65005D01*
X3287517Y57507D01*
X3302512D01*
X3310010Y65005D01*
X3354995Y57507D02*
X3325005D01*
X3354995Y87498D01*
Y94995D01*
X3347498Y102493D01*
X3332503D01*
X3325005Y94995D01*
X3369990D02*
X3377488Y102493D01*
X3392483D01*
X3399981Y94995D01*
Y87498D01*
X3392483Y80000D01*
X3384986D01*
X3392483D01*
X3399981Y72502D01*
Y65005D01*
X3392483Y57507D01*
X3377488D01*
X3369990Y65005D01*
X3010010Y94995D02*
X3002512Y102493D01*
X2987517D01*
X2980019Y94995D01*
Y65005D01*
X2987517Y57507D01*
X3002512D01*
X3010010Y65005D01*
X3054995Y57507D02*
X3025005D01*
X3054995Y87498D01*
Y94995D01*
X3047498Y102493D01*
X3032503D01*
X3025005Y94995D01*
X3099981Y57507D02*
X3069990D01*
X3099981Y87498D01*
Y94995D01*
X3092483Y102493D01*
X3077488D01*
X3069990Y94995D01*
X3463339Y654995D02*
X3455841Y662493D01*
X3440846D01*
X3433348Y654995D01*
Y625005D01*
X3440846Y617507D01*
X3455841D01*
X3463339Y625005D01*
X3508324Y617507D02*
X3478334D01*
X3508324Y647498D01*
Y654995D01*
X3500827Y662493D01*
X3485831D01*
X3478334Y654995D01*
X3523319Y617507D02*
X3538315D01*
X3530817D01*
Y662493D01*
X3523319Y654995D01*
X3448344Y814995D02*
X3440846Y822493D01*
X3425851D01*
X3418353Y814995D01*
Y785005D01*
X3425851Y777507D01*
X3440846D01*
X3448344Y785005D01*
X3493329Y777507D02*
X3463339D01*
X3493329Y807498D01*
Y814995D01*
X3485831Y822493D01*
X3470836D01*
X3463339Y814995D01*
X3508324D02*
X3515822Y822493D01*
X3530817D01*
X3538315Y814995D01*
Y785005D01*
X3530817Y777507D01*
X3515822D01*
X3508324Y785005D01*
Y814995D01*
X3455841Y894995D02*
X3448344Y902493D01*
X3433349D01*
X3425851Y894995D01*
Y865005D01*
X3433349Y857507D01*
X3448344D01*
X3455841Y865005D01*
X3470836Y857507D02*
X3485832D01*
X3478334D01*
Y902493D01*
X3470836Y894995D01*
X3508324Y865005D02*
X3515822Y857507D01*
X3530817D01*
X3538315Y865005D01*
Y894995D01*
X3530817Y902493D01*
X3515822D01*
X3508324Y894995D01*
Y887498D01*
X3515822Y880000D01*
X3538315D01*
X3455841Y734995D02*
X3448344Y742493D01*
X3433349D01*
X3425851Y734995D01*
Y705005D01*
X3433349Y697507D01*
X3448344D01*
X3455841Y705005D01*
X3470836Y697507D02*
X3485832D01*
X3478334D01*
Y742493D01*
X3470836Y734995D01*
X3508324D02*
X3515822Y742493D01*
X3530817D01*
X3538315Y734995D01*
Y727498D01*
X3530817Y720000D01*
X3538315Y712503D01*
Y705005D01*
X3530817Y697507D01*
X3515822D01*
X3508324Y705005D01*
Y712503D01*
X3515822Y720000D01*
X3508324Y727498D01*
Y734995D01*
X3515822Y720000D02*
X3530817D01*
X2893759Y174995D02*
X2886261Y182493D01*
X2871266D01*
X2863768Y174995D01*
Y145005D01*
X2871266Y137507D01*
X2886261D01*
X2893759Y145005D01*
X2908754Y137507D02*
X2923749D01*
X2916251D01*
Y182493D01*
X2908754Y174995D01*
X2946242Y182493D02*
X2976232D01*
Y174995D01*
X2946242Y145005D01*
Y137507D01*
X3455841Y94995D02*
X3448344Y102493D01*
X3433349D01*
X3425851Y94995D01*
Y65005D01*
X3433349Y57507D01*
X3448344D01*
X3455841Y65005D01*
X3470836Y57507D02*
X3485832D01*
X3478334D01*
Y102493D01*
X3470836Y94995D01*
X3538315Y102493D02*
X3523320Y94995D01*
X3508324Y80000D01*
Y65005D01*
X3515822Y57507D01*
X3530817D01*
X3538315Y65005D01*
Y72502D01*
X3530817Y80000D01*
X3508324D01*
X3455841Y254995D02*
X3448344Y262493D01*
X3433349D01*
X3425851Y254995D01*
Y225005D01*
X3433349Y217507D01*
X3448344D01*
X3455841Y225005D01*
X3470836Y217507D02*
X3485832D01*
X3478334D01*
Y262493D01*
X3470836Y254995D01*
X3538315Y262493D02*
X3508324D01*
Y240000D01*
X3523320Y247498D01*
X3530817D01*
X3538315Y240000D01*
Y225005D01*
X3530817Y217507D01*
X3515822D01*
X3508324Y225005D01*
X3455841Y414995D02*
X3448344Y422493D01*
X3433349D01*
X3425851Y414995D01*
Y385005D01*
X3433349Y377507D01*
X3448344D01*
X3455841Y385005D01*
X3470836Y377507D02*
X3485832D01*
X3478334D01*
Y422493D01*
X3470836Y414995D01*
X3530817Y377507D02*
Y422493D01*
X3508324Y400000D01*
X3538315D01*
X3455841Y174995D02*
X3448344Y182493D01*
X3433349D01*
X3425851Y174995D01*
Y145005D01*
X3433349Y137507D01*
X3448344D01*
X3455841Y145005D01*
X3470836Y137507D02*
X3485832D01*
X3478334D01*
Y182493D01*
X3470836Y174995D01*
X3508324D02*
X3515822Y182493D01*
X3530817D01*
X3538315Y174995D01*
Y167498D01*
X3530817Y160000D01*
X3523320D01*
X3530817D01*
X3538315Y152502D01*
Y145005D01*
X3530817Y137507D01*
X3515822D01*
X3508324Y145005D01*
X3292503Y734995D02*
X3285005Y742493D01*
X3270010D01*
X3262512Y734995D01*
Y705005D01*
X3270010Y697507D01*
X3285005D01*
X3292503Y705005D01*
X3307498Y697507D02*
X3322493D01*
X3314995D01*
Y742493D01*
X3307498Y734995D01*
X3374976Y697507D02*
X3344986D01*
X3374976Y727498D01*
Y734995D01*
X3367478Y742493D01*
X3352483D01*
X3344986Y734995D01*
X2872506D02*
X2865008Y742493D01*
X2850013D01*
X2842515Y734995D01*
Y705005D01*
X2850013Y697507D01*
X2865008D01*
X2872506Y705005D01*
X2887501Y697507D02*
X2902496D01*
X2894999D01*
Y742493D01*
X2887501Y734995D01*
X2924989Y697507D02*
X2939984D01*
X2932486D01*
Y742493D01*
X2924989Y734995D01*
X2893759Y254995D02*
X2886261Y262493D01*
X2871266D01*
X2863768Y254995D01*
Y225005D01*
X2871266Y217507D01*
X2886261D01*
X2893759Y225005D01*
X2908754Y217507D02*
X2923749D01*
X2916251D01*
Y262493D01*
X2908754Y254995D01*
X2946242D02*
X2953739Y262493D01*
X2968734D01*
X2976232Y254995D01*
Y225005D01*
X2968734Y217507D01*
X2953739D01*
X2946242Y225005D01*
Y254995D01*
X2692503Y334995D02*
X2685005Y342493D01*
X2670010D01*
X2662512Y334995D01*
Y305005D01*
X2670010Y297507D01*
X2685005D01*
X2692503Y305005D01*
X2707498D02*
X2714995Y297507D01*
X2729990D01*
X2737488Y305005D01*
Y334995D01*
X2729990Y342493D01*
X2714995D01*
X2707498Y334995D01*
Y327498D01*
X2714995Y320000D01*
X2737488D01*
X2692503Y494995D02*
X2685005Y502493D01*
X2670010D01*
X2662512Y494995D01*
Y465005D01*
X2670010Y457507D01*
X2685005D01*
X2692503Y465005D01*
X2707498Y494995D02*
X2714995Y502493D01*
X2729990D01*
X2737488Y494995D01*
Y487498D01*
X2729990Y480000D01*
X2737488Y472502D01*
Y465005D01*
X2729990Y457507D01*
X2714995D01*
X2707498Y465005D01*
Y472502D01*
X2714995Y480000D01*
X2707498Y487498D01*
Y494995D01*
X2714995Y480000D02*
X2729990D01*
X2692503Y574995D02*
X2685005Y582493D01*
X2670010D01*
X2662512Y574995D01*
Y545005D01*
X2670010Y537507D01*
X2685005D01*
X2692503Y545005D01*
X2707498Y582493D02*
X2737488D01*
Y574995D01*
X2707498Y545005D01*
Y537507D01*
X3292503Y894995D02*
X3285005Y902493D01*
X3270010D01*
X3262512Y894995D01*
Y865005D01*
X3270010Y857507D01*
X3285005D01*
X3292503Y865005D01*
X3337488Y902493D02*
X3322493Y894995D01*
X3307498Y880000D01*
Y865005D01*
X3314995Y857507D01*
X3329990D01*
X3337488Y865005D01*
Y872503D01*
X3329990Y880000D01*
X3307498D01*
X2894999Y814995D02*
X2887501Y822493D01*
X2872506D01*
X2865008Y814995D01*
Y785005D01*
X2872506Y777507D01*
X2887501D01*
X2894999Y785005D01*
X2939984Y822493D02*
X2909994D01*
Y800000D01*
X2924989Y807498D01*
X2932486D01*
X2939984Y800000D01*
Y785005D01*
X2932486Y777507D01*
X2917491D01*
X2909994Y785005D01*
X852503Y774995D02*
X845005Y782493D01*
X830010D01*
X822512Y774995D01*
Y745005D01*
X830010Y737507D01*
X845005D01*
X852503Y745005D01*
X889990Y737507D02*
Y782493D01*
X867498Y760000D01*
X897488D01*
X557498Y294995D02*
X550000Y302493D01*
X535005D01*
X527507Y294995D01*
Y265005D01*
X535005Y257507D01*
X550000D01*
X557498Y265005D01*
X572493Y257507D02*
X587488D01*
X579990D01*
Y302493D01*
X572493Y294995D01*
X807517Y1982493D02*
Y1937507D01*
X830010D01*
X837507Y1945005D01*
Y1952503D01*
X830010Y1960000D01*
X807517D01*
X830010D01*
X837507Y1967498D01*
Y1974995D01*
X830010Y1982493D01*
X807517D01*
X852503D02*
X882493D01*
Y1974995D01*
X852503Y1945005D01*
Y1937507D01*
X882493D01*
X897488D02*
X912483D01*
X904986D01*
Y1982493D01*
X897488Y1974995D01*
X1653543Y4656693D02*
X1650906Y4666535D01*
X1643701Y4673741D01*
X1633858Y4676378D01*
X1624016Y4673741D01*
X1616811Y4666535D01*
X1614173Y4656693D01*
X1616811Y4646850D01*
X1624016Y4639645D01*
X1633858Y4637008D01*
X1643701Y4639645D01*
X1650906Y4646850D01*
X1653543Y4656693D01*
X1456693D02*
X1454056Y4666535D01*
X1446851Y4673741D01*
X1437008Y4676378D01*
X1427166Y4673741D01*
X1419960Y4666535D01*
X1417323Y4656693D01*
X1419960Y4646850D01*
X1427166Y4639645D01*
X1437008Y4637008D01*
X1446851Y4639645D01*
X1454056Y4646850D01*
X1456693Y4656693D01*
X2125984D02*
X2123347Y4666535D01*
X2116142Y4673741D01*
X2106299Y4676378D01*
X2096457Y4673741D01*
X2089252Y4666535D01*
X2086614Y4656693D01*
X2089252Y4646850D01*
X2096457Y4639645D01*
X2106299Y4637008D01*
X2116142Y4639645D01*
X2123347Y4646850D01*
X2125984Y4656693D01*
X2519685D02*
X2517048Y4666535D01*
X2509843Y4673741D01*
X2500000Y4676378D01*
X2490158Y4673741D01*
X2482952Y4666535D01*
X2480315Y4656693D01*
X2482952Y4646850D01*
X2490158Y4639645D01*
X2500000Y4637008D01*
X2509843Y4639645D01*
X2517048Y4646850D01*
X2519685Y4656693D01*
X2322835D02*
X2320197Y4666535D01*
X2312992Y4673741D01*
X2303150Y4676378D01*
X2293307Y4673741D01*
X2286102Y4666535D01*
X2283465Y4656693D01*
X2286102Y4646850D01*
X2293307Y4639645D01*
X2303150Y4637008D01*
X2312992Y4639645D01*
X2320197Y4646850D01*
X2322835Y4656693D01*
X489685D02*
X487048Y4666535D01*
X479843Y4673741D01*
X470000Y4676378D01*
X460158Y4673741D01*
X452952Y4666535D01*
X450315Y4656693D01*
X452952Y4646850D01*
X460158Y4639645D01*
X470000Y4637008D01*
X479843Y4639645D01*
X487048Y4646850D01*
X489685Y4656693D01*
X686535D02*
X683898Y4666535D01*
X676693Y4673741D01*
X666851Y4676378D01*
X657008Y4673741D01*
X649803Y4666535D01*
X647165Y4656693D01*
X649803Y4646850D01*
X657008Y4639645D01*
X666851Y4637008D01*
X676693Y4639645D01*
X683898Y4646850D01*
X686535Y4656693D01*
X292835D02*
X290197Y4666535D01*
X282992Y4673741D01*
X273150Y4676378D01*
X263307Y4673741D01*
X256102Y4666535D01*
X253465Y4656693D01*
X256102Y4646850D01*
X263307Y4639645D01*
X273150Y4637008D01*
X282992Y4639645D01*
X290197Y4646850D01*
X292835Y4656693D01*
X5511811Y2874016D02*
X5511165Y2884085D01*
X5509236Y2893989D01*
X5506057Y2903564D01*
X5501679Y2912655D01*
X5496175Y2921111D01*
X5489634Y2928794D01*
X5482165Y2935577D01*
X5473889Y2941350D01*
X5464944Y2946017D01*
X5455475Y2949501D01*
X5445638Y2951747D01*
X5435595Y2952715D01*
X5425510Y2952392D01*
X5415550Y2950782D01*
X5405877Y2947911D01*
X5396651Y2943827D01*
X5388022Y2938596D01*
X5380134Y2932305D01*
X5373115Y2925057D01*
X5367080Y2916971D01*
X5362128Y2908180D01*
X5358342Y2898827D01*
X5355783Y2889068D01*
X5354493Y2879061D01*
Y2868971D01*
X5355783Y2858964D01*
X5358342Y2849204D01*
X5362128Y2839852D01*
X5367080Y2831060D01*
X5373115Y2822974D01*
X5380134Y2815726D01*
X5388022Y2809435D01*
X5396651Y2804205D01*
X5405877Y2800121D01*
X5415550Y2797250D01*
X5425510Y2795640D01*
X5435595Y2795316D01*
X5445638Y2796285D01*
X5455475Y2798530D01*
X5464944Y2802015D01*
X5473889Y2806682D01*
X5482165Y2812454D01*
X5489634Y2819238D01*
X5496174Y2826920D01*
X5501679Y2835376D01*
X5506056Y2844467D01*
X5509236Y2854043D01*
X5511165Y2863947D01*
X5511811Y2874015D01*
X4173229Y2874016D02*
X4172582Y2884085D01*
X4170653Y2893989D01*
X4167474Y2903564D01*
X4163096Y2912655D01*
X4157592Y2921111D01*
X4151051Y2928794D01*
X4143582Y2935577D01*
X4135307Y2941350D01*
X4126361Y2946017D01*
X4116892Y2949501D01*
X4107055Y2951747D01*
X4097012Y2952715D01*
X4086927Y2952392D01*
X4076967Y2950782D01*
X4067294Y2947911D01*
X4058068Y2943827D01*
X4049440Y2938596D01*
X4041551Y2932305D01*
X4034532Y2925057D01*
X4028497Y2916971D01*
X4023546Y2908180D01*
X4019760Y2898827D01*
X4017200Y2889068D01*
X4015910Y2879061D01*
Y2868971D01*
X4017200Y2858964D01*
X4019760Y2849204D01*
X4023546Y2839852D01*
X4028497Y2831060D01*
X4034532Y2822974D01*
X4041551Y2815726D01*
X4049440Y2809435D01*
X4058068Y2804205D01*
X4067294Y2800121D01*
X4076967Y2797250D01*
X4086927Y2795640D01*
X4097012Y2795316D01*
X4107055Y2796285D01*
X4116892Y2798530D01*
X4126361Y2802015D01*
X4135306Y2806682D01*
X4143582Y2812454D01*
X4151051Y2819238D01*
X4157592Y2826920D01*
X4163096Y2835376D01*
X4167474Y2844467D01*
X4170653Y2854043D01*
X4172582Y2863947D01*
X4173229Y2874015D01*
X5511811Y4685039D02*
X5511165Y4695109D01*
X5509236Y4705012D01*
X5506057Y4714588D01*
X5501679Y4723679D01*
X5496175Y4732135D01*
X5489634Y4739818D01*
X5482165Y4746601D01*
X5473889Y4752373D01*
X5464944Y4757040D01*
X5455475Y4760525D01*
X5445638Y4762770D01*
X5435595Y4763739D01*
X5425510Y4763416D01*
X5415550Y4761805D01*
X5405877Y4758935D01*
X5396651Y4754850D01*
X5388022Y4749620D01*
X5380134Y4743329D01*
X5373115Y4736081D01*
X5367080Y4727995D01*
X5362128Y4719203D01*
X5358342Y4709851D01*
X5355783Y4700091D01*
X5354493Y4690084D01*
Y4679994D01*
X5355783Y4669988D01*
X5358342Y4660228D01*
X5362128Y4650875D01*
X5367080Y4642084D01*
X5373115Y4633998D01*
X5380134Y4626750D01*
X5388022Y4620459D01*
X5396651Y4615228D01*
X5405877Y4611144D01*
X5415550Y4608273D01*
X5425510Y4606663D01*
X5435595Y4606340D01*
X5445638Y4607309D01*
X5455475Y4609554D01*
X5464944Y4613038D01*
X5473889Y4617705D01*
X5482165Y4623478D01*
X5489634Y4630261D01*
X5496174Y4637944D01*
X5501679Y4646400D01*
X5506056Y4655491D01*
X5509236Y4665066D01*
X5511165Y4674970D01*
X5511811Y4685039D01*
X4173229Y4685039D02*
X4172582Y4695109D01*
X4170653Y4705012D01*
X4167474Y4714588D01*
X4163096Y4723679D01*
X4157592Y4732135D01*
X4151051Y4739818D01*
X4143582Y4746601D01*
X4135307Y4752373D01*
X4126361Y4757040D01*
X4116892Y4760525D01*
X4107055Y4762770D01*
X4097012Y4763739D01*
X4086927Y4763416D01*
X4076967Y4761805D01*
X4067294Y4758935D01*
X4058068Y4754850D01*
X4049440Y4749620D01*
X4041551Y4743329D01*
X4034532Y4736081D01*
X4028497Y4727995D01*
X4023546Y4719203D01*
X4019760Y4709851D01*
X4017200Y4700091D01*
X4015910Y4690084D01*
Y4679994D01*
X4017200Y4669988D01*
X4019760Y4660228D01*
X4023546Y4650875D01*
X4028497Y4642084D01*
X4034532Y4633998D01*
X4041551Y4626750D01*
X4049440Y4620459D01*
X4058068Y4615228D01*
X4067294Y4611144D01*
X4076967Y4608273D01*
X4086927Y4606663D01*
X4097012Y4606340D01*
X4107055Y4607309D01*
X4116892Y4609554D01*
X4126361Y4613038D01*
X4135306Y4617705D01*
X4143582Y4623478D01*
X4151051Y4630261D01*
X4157592Y4637944D01*
X4163096Y4646400D01*
X4167474Y4655491D01*
X4170653Y4665066D01*
X4172582Y4674970D01*
X4173229Y4685039D01*
X2677166Y2755905D02*
X2676519Y2765975D01*
X2674590Y2775878D01*
X2671411Y2785454D01*
X2667033Y2794545D01*
X2661529Y2803001D01*
X2654988Y2810684D01*
X2647519Y2817467D01*
X2639244Y2823240D01*
X2630298Y2827907D01*
X2620829Y2831391D01*
X2610992Y2833636D01*
X2600949Y2834605D01*
X2590864Y2834282D01*
X2580904Y2832671D01*
X2571231Y2829801D01*
X2562005Y2825716D01*
X2553377Y2820486D01*
X2545488Y2814195D01*
X2538469Y2806947D01*
X2532434Y2798861D01*
X2527483Y2790070D01*
X2523697Y2780717D01*
X2521137Y2770957D01*
X2519847Y2760950D01*
Y2750861D01*
X2521137Y2740854D01*
X2523697Y2731094D01*
X2527483Y2721741D01*
X2532434Y2712950D01*
X2538469Y2704864D01*
X2545488Y2697616D01*
X2553377Y2691325D01*
X2562005Y2686095D01*
X2571231Y2682010D01*
X2580904Y2679140D01*
X2590864Y2677529D01*
X2600949Y2677206D01*
X2610992Y2678175D01*
X2620829Y2680420D01*
X2630298Y2683904D01*
X2639244Y2688571D01*
X2647519Y2694344D01*
X2654988Y2701127D01*
X2661529Y2708810D01*
X2667033Y2717266D01*
X2671411Y2726357D01*
X2674590Y2735932D01*
X2676519Y2745836D01*
X2677166Y2755905D01*
X3740158Y4094488D02*
X3739511Y4104557D01*
X3737582Y4114461D01*
X3734403Y4124037D01*
X3730025Y4133127D01*
X3724521Y4141583D01*
X3717980Y4149266D01*
X3710511Y4156050D01*
X3702236Y4161822D01*
X3693290Y4166489D01*
X3683821Y4169974D01*
X3673984Y4172219D01*
X3663941Y4173188D01*
X3653856Y4172865D01*
X3643896Y4171254D01*
X3634223Y4168383D01*
X3624997Y4164299D01*
X3616369Y4159069D01*
X3608480Y4152778D01*
X3601461Y4145530D01*
X3595426Y4137444D01*
X3590475Y4128652D01*
X3586689Y4119300D01*
X3584129Y4109540D01*
X3582839Y4099533D01*
Y4089443D01*
X3584129Y4079436D01*
X3586689Y4069677D01*
X3590475Y4060324D01*
X3595426Y4051533D01*
X3601461Y4043447D01*
X3608480Y4036199D01*
X3616369Y4029908D01*
X3624997Y4024677D01*
X3634223Y4020593D01*
X3643896Y4017722D01*
X3653856Y4016112D01*
X3663941Y4015789D01*
X3673984Y4016757D01*
X3683821Y4019003D01*
X3693290Y4022487D01*
X3702236Y4027154D01*
X3710511Y4032927D01*
X3717980Y4039710D01*
X3724521Y4047393D01*
X3730025Y4055849D01*
X3734403Y4064939D01*
X3737582Y4074515D01*
X3739511Y4084419D01*
X3740158Y4094488D01*
X1948819Y4803150D02*
X1948172Y4813219D01*
X1946244Y4823122D01*
X1943064Y4832698D01*
X1938687Y4841789D01*
X1933182Y4850245D01*
X1926642Y4857928D01*
X1919172Y4864711D01*
X1910897Y4870484D01*
X1901951Y4875151D01*
X1892483Y4878635D01*
X1882646Y4880881D01*
X1872603Y4881849D01*
X1862518Y4881526D01*
X1852557Y4879916D01*
X1842885Y4877045D01*
X1833658Y4872961D01*
X1825030Y4867730D01*
X1817142Y4861439D01*
X1810122Y4854191D01*
X1804088Y4846105D01*
X1799136Y4837314D01*
X1795350Y4827961D01*
X1792791Y4818202D01*
X1791500Y4808194D01*
Y4798105D01*
X1792791Y4788098D01*
X1795350Y4778338D01*
X1799136Y4768985D01*
X1804088Y4760194D01*
X1810122Y4752108D01*
X1817142Y4744860D01*
X1825030Y4738569D01*
X1833658Y4733339D01*
X1842885Y4729254D01*
X1852557Y4726384D01*
X1862518Y4724773D01*
X1872602Y4724450D01*
X1882646Y4725419D01*
X1892483Y4727664D01*
X1901951Y4731149D01*
X1910897Y4735815D01*
X1919172Y4741588D01*
X1926642Y4748371D01*
X1933182Y4756054D01*
X1938687Y4764510D01*
X1943064Y4773601D01*
X1946244Y4783176D01*
X1948172Y4793080D01*
X1948819Y4803149D01*
X236221Y4527559D02*
X235574Y4537628D01*
X233645Y4547532D01*
X230466Y4557108D01*
X226088Y4566198D01*
X220584Y4574654D01*
X214043Y4582337D01*
X206574Y4589121D01*
X198299Y4594893D01*
X189353Y4599560D01*
X179884Y4603045D01*
X170047Y4605290D01*
X160004Y4606259D01*
X149919Y4605935D01*
X139959Y4604325D01*
X130286Y4601454D01*
X121060Y4597370D01*
X112432Y4592140D01*
X104543Y4585849D01*
X97524Y4578601D01*
X91489Y4570515D01*
X86538Y4561723D01*
X82752Y4552371D01*
X80192Y4542611D01*
X78902Y4532604D01*
Y4522514D01*
X80192Y4512507D01*
X82752Y4502747D01*
X86538Y4493395D01*
X91489Y4484604D01*
X97524Y4476517D01*
X104543Y4469270D01*
X112432Y4462979D01*
X121060Y4457748D01*
X130286Y4453664D01*
X139959Y4450793D01*
X149919Y4449183D01*
X160004Y4448859D01*
X170047Y4449828D01*
X179884Y4452073D01*
X189353Y4455558D01*
X198299Y4460225D01*
X206574Y4465997D01*
X214043Y4472781D01*
X220584Y4480464D01*
X226088Y4488920D01*
X230466Y4498010D01*
X233645Y4507586D01*
X235574Y4517490D01*
X236221Y4527559D01*
Y3070866D02*
X235574Y3080935D01*
X233645Y3090839D01*
X230466Y3100415D01*
X226088Y3109505D01*
X220584Y3117961D01*
X214043Y3125644D01*
X206574Y3132428D01*
X198299Y3138200D01*
X189353Y3142867D01*
X179884Y3146352D01*
X170047Y3148597D01*
X160004Y3149566D01*
X149919Y3149242D01*
X139959Y3147632D01*
X130286Y3144761D01*
X121060Y3140677D01*
X112432Y3135447D01*
X104543Y3129156D01*
X97524Y3121908D01*
X91489Y3113822D01*
X86538Y3105030D01*
X82752Y3095678D01*
X80192Y3085918D01*
X78902Y3075911D01*
Y3065821D01*
X80192Y3055814D01*
X82752Y3046054D01*
X86538Y3036702D01*
X91489Y3027911D01*
X97524Y3019825D01*
X104543Y3012577D01*
X112432Y3006286D01*
X121060Y3001055D01*
X130286Y2996971D01*
X139959Y2994100D01*
X149919Y2992490D01*
X160004Y2992166D01*
X170047Y2993135D01*
X179884Y2995380D01*
X189353Y2998865D01*
X198299Y3003532D01*
X206574Y3009304D01*
X214043Y3016088D01*
X220584Y3023771D01*
X226088Y3032227D01*
X230466Y3041317D01*
X233645Y3050893D01*
X235574Y3060797D01*
X236221Y3070866D01*
X1740158Y3067716D02*
X1732284D01*
X1740158D01*
X1741788D02*
X1733437Y3072538D01*
Y3062895D01*
X1741788Y3067716D01*
X1789032Y3181890D02*
X1780681Y3186712D01*
Y3177068D01*
X1789032Y3181890D01*
X1783465Y3177953D02*
X1775591D01*
X1783465D01*
X1785095D02*
X1776744Y3182775D01*
Y3173131D01*
X1785095Y3177953D01*
X1788331D02*
X1783929Y3185577D01*
X1775126D01*
X1770724Y3177953D01*
X1775126Y3170329D01*
X1783929D01*
X1788331Y3177953D01*
X1790663D02*
X1786471Y3186659D01*
X1777050Y3188809D01*
X1769495Y3182784D01*
Y3173121D01*
X1777050Y3167097D01*
X1786471Y3169247D01*
X1790663Y3177953D01*
X62835Y2624961D02*
Y2935984D01*
X417165Y2624961D02*
X417166Y2652520D01*
Y2908425D02*
Y2935984D01*
X62835D02*
X102205D01*
X377795D02*
X417166D01*
X3735000Y4608504D02*
Y4925433D01*
Y4252992D02*
Y4468504D01*
X3105079Y4252992D02*
X3735000D01*
X3105079D02*
Y4468504D01*
Y4608504D02*
Y4925433D01*
X3735000D01*
X940000Y3313425D02*
X1060000D01*
X940000Y3403425D02*
X1060000D01*
X630000Y2933425D02*
X750000D01*
X630000Y3023425D02*
X750000D01*
X630000Y2833425D02*
X750000D01*
X630000Y2923425D02*
X750000D01*
X870000Y3209425D02*
Y3288425D01*
Y3028425D02*
Y3107425D01*
X1130000Y3211425D02*
Y3228504D01*
Y3088347D02*
Y3105425D01*
X1070079Y3028504D02*
X1129921Y3088347D01*
X870079Y3028504D02*
X1070079D01*
Y3288347D02*
X1129921Y3228504D01*
X870079Y3288347D02*
X1070079D01*
X1303071Y3234724D02*
Y4022126D01*
X1562914Y3234724D02*
Y4022126D01*
X1303071Y3234724D02*
X1562914D01*
X1303071Y4022126D02*
X1562914D01*
X1303071Y3368583D02*
X1562914D01*
X1303071Y3888268D02*
X1562914D01*
X4063497Y3875484D02*
Y3921366D01*
Y3875484D02*
X4101732Y3898425D01*
X4063497Y3921366D02*
X4101732Y3898425D01*
X4230079Y3738425D02*
Y3858425D01*
X4131654Y3838425D02*
Y3947638D01*
Y3649213D02*
Y3758425D01*
Y3947638D02*
X4230079D01*
Y3938425D02*
Y3947638D01*
X4131654Y3649213D02*
X4230079D01*
Y3658425D01*
X4131654Y3848425D02*
X4230079D01*
X4131654Y3748425D02*
X4230079D01*
X2910000Y4838425D02*
X2930000D01*
X2910000Y4778425D02*
X2930000D01*
X2710000D02*
X2730000D01*
X2710000Y4838425D02*
X2730000D01*
X1314961Y4633071D02*
X1755906D01*
X1314961Y4932283D02*
X1755906D01*
X1314961Y4633071D02*
Y4932283D01*
X1755906Y4633071D02*
Y4932283D01*
X1315433Y4676378D02*
X1755433D01*
X1653543Y4873228D02*
Y4932283D01*
X1614173Y4873228D02*
X1653543D01*
X1614173D02*
Y4932283D01*
X1456693Y4873228D02*
Y4932283D01*
X1417323Y4873228D02*
X1456693D01*
X1417323D02*
Y4932283D01*
X1984252Y4676378D02*
X2622047D01*
Y4863386D02*
Y4932283D01*
X2519685Y4873228D02*
Y4932283D01*
X2480315Y4873228D02*
X2519685D01*
X2480315D02*
Y4932283D01*
X2322835Y4873228D02*
Y4932283D01*
X2283465Y4873228D02*
Y4932283D01*
X2086614Y4873228D02*
Y4932283D01*
Y4873228D02*
X2125984D01*
Y4932283D01*
X1984252Y4863386D02*
Y4932283D01*
X2283465Y4873228D02*
X2322835D01*
X1984252Y4932283D02*
X2622047Y4932284D01*
X1984252Y4863386D02*
X2622047Y4863386D01*
X1984252Y4633071D02*
Y4863386D01*
Y4633071D02*
X2622047D01*
Y4863386D01*
X788898Y4633071D02*
Y4863386D01*
X151102Y4633071D02*
X788898D01*
X151102D02*
Y4863386D01*
X788898Y4863386D01*
X151102Y4932283D02*
X788898Y4932284D01*
X450315Y4873228D02*
X489685D01*
X151102Y4863386D02*
Y4932283D01*
X292835Y4873228D02*
Y4932283D01*
X253465Y4873228D02*
X292835D01*
X253465D02*
Y4932283D01*
X450315Y4873228D02*
Y4932283D01*
X489685Y4873228D02*
Y4932283D01*
X647165Y4873228D02*
Y4932283D01*
Y4873228D02*
X686535D01*
Y4932283D01*
X788898Y4863386D02*
Y4932283D01*
X151102Y4676378D02*
X788898D01*
X162913Y3663780D02*
X399134D01*
X540866D02*
X777087D01*
Y4415748D01*
X162913D02*
X777087D01*
X162913Y3663780D02*
Y4415748D01*
X2601575Y4296850D02*
X2613189D01*
X2601575Y4100000D02*
X2613189D01*
X2786811Y4296850D02*
X2798425D01*
X2786811Y4100000D02*
X2798425D01*
X2601575Y4285236D02*
Y4296850D01*
Y4100000D02*
Y4111614D01*
X2798425Y4285236D02*
Y4296850D01*
Y4100000D02*
Y4111614D01*
X354941Y3322185D02*
Y3363622D01*
X85059Y3322185D02*
X354941D01*
X85059D02*
Y3363622D01*
X354941Y3513228D02*
Y3554665D01*
X85059D02*
X354941D01*
X85059Y3513228D02*
Y3554665D01*
X3660000Y3988425D02*
X3760000D01*
X3660000Y3688425D02*
Y3988425D01*
X3760000Y3688425D02*
Y3988425D01*
X3660000Y3688425D02*
X3760000D01*
X3610000Y3713425D02*
X3635000Y3738425D01*
X3610000Y3713425D02*
Y3763425D01*
X3635000Y3738425D01*
X1105000Y2978425D02*
X1115000Y2963425D01*
X1125000Y2978425D01*
X1105000D02*
X1125000D01*
X1090551Y2963425D02*
Y2975905D01*
Y2860945D02*
Y2873425D01*
X909449Y2860945D02*
Y2873425D01*
Y2963425D02*
Y2975905D01*
Y2860945D02*
X1090551D01*
X909449Y2975905D02*
X1090551D01*
X599449Y2815905D02*
X780551D01*
X599449Y2700945D02*
X780551D01*
X599449Y2803425D02*
Y2815905D01*
Y2700945D02*
Y2713425D01*
X780551Y2700945D02*
Y2713425D01*
Y2803425D02*
Y2815905D01*
X795000Y2818425D02*
X815000D01*
X805000Y2803425D02*
X815000Y2818425D01*
X795000D02*
X805000Y2803425D01*
X1150000Y3348425D02*
X1250000D01*
Y3848425D01*
X1150000Y3348425D02*
Y3848425D01*
X1250000D01*
X1175000Y3910925D02*
X1200000Y3885925D01*
X1175000Y3910925D02*
X1225000D01*
X1200000Y3885925D02*
X1225000Y3910925D01*
X2185000Y4548425D02*
X2215000D01*
X2185000Y4488425D02*
X2215000D01*
X2470000Y4328425D02*
X2490000D01*
X2470000Y4268425D02*
X2490000D01*
X2470000Y4408425D02*
X2490000D01*
X2470000Y4348425D02*
X2490000D01*
X1785000Y4088425D02*
X1815000D01*
X1785000Y4148425D02*
X1815000D01*
X1390000Y4168425D02*
X1410000D01*
X1390000Y4228425D02*
X1410000D01*
X1385000Y4308425D02*
X1415000D01*
X1385000Y4248425D02*
X1415000D01*
X1385000Y4088425D02*
X1415000D01*
X1385000Y4148425D02*
X1415000D01*
X1785000Y4228425D02*
X1815000D01*
X1785000Y4168425D02*
X1815000D01*
X2985000Y3828425D02*
X3015000D01*
X2985000Y3768425D02*
X3015000D01*
X2990000Y3848425D02*
X3010000D01*
X2990000Y3908425D02*
X3010000D01*
X3190000Y3828425D02*
X3210000D01*
X3190000Y3768425D02*
X3210000D01*
X3190000Y3908425D02*
X3210000D01*
X3190000Y3848425D02*
X3210000D01*
X3185000Y4008425D02*
X3215000D01*
X3185000Y4068425D02*
X3215000D01*
X2585000Y3428425D02*
X2615000D01*
X2585000Y3368425D02*
X2615000D01*
X2585000Y3508425D02*
X2615000D01*
X2585000Y3448425D02*
X2615000D01*
X2585000Y3588425D02*
X2615000D01*
X2585000Y3528425D02*
X2615000D01*
X1385000Y3048425D02*
X1415000D01*
X1385000Y3108425D02*
X1415000D01*
X2990000Y4008425D02*
X3010000D01*
X2990000Y4068425D02*
X3010000D01*
X2990000Y3928425D02*
X3010000D01*
X2990000Y3988425D02*
X3010000D01*
X3168504Y3983425D02*
X3231496D01*
X3168504Y3933425D02*
X3231496D01*
X2183543Y3988425D02*
X2213543D01*
X2183543Y3928425D02*
X2213543D01*
X2185000Y3908425D02*
X2215000D01*
X2185000Y3848425D02*
X2215000D01*
X2185000Y4228425D02*
X2215000D01*
X2185000Y4168425D02*
X2215000D01*
X2183543Y4068425D02*
X2213543D01*
X2183543Y4008425D02*
X2213543D01*
X2185000Y4148425D02*
X2215000D01*
X2185000Y4088425D02*
X2215000D01*
X2185000Y4388425D02*
X2215000D01*
X2185000Y4328425D02*
X2215000D01*
X2185000Y4308425D02*
X2215000D01*
X2185000Y4248425D02*
X2215000D01*
X1585000Y4548425D02*
X1615000D01*
X1585000Y4488425D02*
X1615000D01*
X1385000Y3028425D02*
X1415000D01*
X1385000Y2968425D02*
X1415000D01*
X1385000Y2948425D02*
X1415000D01*
X1385000Y2888425D02*
X1415000D01*
X940000Y4343425D02*
Y4373425D01*
X1060000D01*
Y4343425D02*
Y4373425D01*
X940000Y4343425D02*
X1060000D01*
X1185000Y4388425D02*
X1215000D01*
X1185000Y4328425D02*
X1215000D01*
X1185000Y4408425D02*
X1215000D01*
X1185000Y4468425D02*
X1215000D01*
X985000Y3588425D02*
X1015000D01*
X985000Y3528425D02*
X1015000D01*
X2590000Y3188425D02*
X2610000D01*
X2590000Y3128425D02*
X2610000D01*
X2390000Y2808425D02*
X2410000D01*
X2390000Y2868425D02*
X2410000D01*
X2390000Y2788425D02*
X2410000D01*
X2390000Y2728425D02*
X2410000D01*
X2190000Y2708425D02*
X2210000D01*
X2190000Y2648425D02*
X2210000D01*
X1790000Y2708425D02*
X1810000D01*
X1790000Y2648425D02*
X1810000D01*
X1469000Y2729882D02*
X1581000D01*
X1469000Y2786968D02*
X1581000D01*
X1790000Y2868425D02*
X1810000D01*
X1790000Y2808425D02*
X1810000D01*
X2590000Y3608425D02*
X2610000D01*
X2590000Y3668425D02*
X2610000D01*
X1790000Y3928425D02*
X1810000D01*
X1790000Y3988425D02*
X1810000D01*
X1590000Y2708425D02*
X1610000D01*
X1590000Y2648425D02*
X1610000D01*
X1790000Y3848425D02*
X1810000D01*
X1790000Y3908425D02*
X1810000D01*
X985000Y3688425D02*
X1015000D01*
X985000Y3748425D02*
X1015000D01*
X540945Y3217480D02*
X541732D01*
X658268D02*
X659055D01*
X540945Y3099370D02*
Y3114331D01*
Y3202520D02*
Y3217480D01*
Y3099370D02*
X541732D01*
X658268D02*
X659055D01*
Y3114331D01*
Y3202520D02*
Y3217480D01*
X985000Y3508425D02*
X1015000D01*
X985000Y3448425D02*
X1015000D01*
X933071Y2719055D02*
X1066929D01*
X933071Y2797795D02*
X1066929D01*
X981000Y4091425D02*
Y4145984D01*
X964567D02*
X1035433D01*
X964567Y4090866D02*
X1035433D01*
X945500Y4094925D02*
X950500Y4089925D01*
X940500D02*
X950500D01*
X940500D02*
X945500Y4094925D01*
X1035433Y4138425D02*
Y4145984D01*
Y4090866D02*
Y4099425D01*
X964567Y4090866D02*
Y4100425D01*
Y4138425D02*
Y4145984D01*
X940000Y3943425D02*
Y3973425D01*
X1060000D01*
Y3943425D02*
Y3973425D01*
X940000Y3943425D02*
X1060000D01*
X985000Y3828425D02*
X1015000D01*
X985000Y3768425D02*
X1015000D01*
X2785000Y2648425D02*
X2815000D01*
X2785000Y2708425D02*
X2815000D01*
X3585000Y3668425D02*
X3615000D01*
X3585000Y3608425D02*
X3615000D01*
X3590000Y3028425D02*
X3610000D01*
X3590000Y2968425D02*
X3610000D01*
X3590000Y2808425D02*
X3610000D01*
X3590000Y2868425D02*
X3610000D01*
X3590000Y3348425D02*
X3610000D01*
X3590000Y3288425D02*
X3610000D01*
X3585000Y3588425D02*
X3615000D01*
X3585000Y3528425D02*
X3615000D01*
X3190000Y3508425D02*
X3210000D01*
X3190000Y3448425D02*
X3210000D01*
X3590000Y2708425D02*
X3610000D01*
X3590000Y2648425D02*
X3610000D01*
X3590000Y2728425D02*
X3610000D01*
X3590000Y2788425D02*
X3610000D01*
X3590000Y3508425D02*
X3610000D01*
X3590000Y3448425D02*
X3610000D01*
X3590000Y3428425D02*
X3610000D01*
X3590000Y3368425D02*
X3610000D01*
X3585000Y3188425D02*
X3615000D01*
X3585000Y3128425D02*
X3615000D01*
X3590000Y3268425D02*
X3610000D01*
X3590000Y3208425D02*
X3610000D01*
X3572441Y2948425D02*
X3627559D01*
X3572441Y2888425D02*
X3627559D01*
X3572441Y3108425D02*
X3627559D01*
X3572441Y3048425D02*
X3627559D01*
X2790000Y2728425D02*
X2810000D01*
X2790000Y2788425D02*
X2810000D01*
X2790000Y2948425D02*
X2810000D01*
X2790000Y2888425D02*
X2810000D01*
X2790000Y2808425D02*
X2810000D01*
X2790000Y2868425D02*
X2810000D01*
X2790000Y3188425D02*
X2810000D01*
X2790000Y3128425D02*
X2810000D01*
X2790000Y3048425D02*
X2810000D01*
X2790000Y3108425D02*
X2810000D01*
X2768504Y3263425D02*
X2831496D01*
X2768504Y3213425D02*
X2831496D01*
X2768504Y2973425D02*
X2831496D01*
X2768504Y3023425D02*
X2831496D01*
X3370000Y2748425D02*
Y2768425D01*
X3310000Y2748425D02*
Y2768425D01*
X3010000Y2748425D02*
Y2768425D01*
X3070000Y2748425D02*
Y2768425D01*
X3185000Y3368425D02*
X3215000D01*
X3185000Y3428425D02*
X3215000D01*
X3190000Y3348425D02*
X3210000D01*
X3190000Y3288425D02*
X3210000D01*
X2990000Y3368425D02*
X3010000D01*
X2990000Y3428425D02*
X3010000D01*
X2990000Y3288425D02*
X3010000D01*
X2990000Y3348425D02*
X3010000D01*
X1390000Y3128425D02*
X1410000D01*
X1390000Y3188425D02*
X1410000D01*
X1590000Y2808425D02*
X1610000D01*
X1590000Y2868425D02*
X1610000D01*
X3390000Y4230918D02*
X3375005D01*
X3382503D01*
Y4193430D01*
X3375005Y4185932D01*
X3367507D01*
X3360010Y4193430D01*
X3404995Y4185932D02*
X3419990D01*
X3412493D01*
Y4230918D01*
X3404995Y4223420D01*
X417517Y4445932D02*
Y4490918D01*
X440010D01*
X447507Y4483420D01*
Y4468425D01*
X440010Y4460928D01*
X417517D01*
X432512D02*
X447507Y4445932D01*
X462502Y4490918D02*
Y4445932D01*
X492493D01*
X507488D02*
X522483D01*
X514986D01*
Y4490918D01*
X507488Y4483420D01*
X172512Y3620918D02*
Y3575932D01*
X195005D01*
X202502Y3583430D01*
Y3613420D01*
X195005Y3620918D01*
X172512D01*
X247488Y3575932D02*
X217498D01*
X247488Y3605923D01*
Y3613420D01*
X239990Y3620918D01*
X224995D01*
X217498Y3613420D01*
X347507Y3003420D02*
X340010Y3010918D01*
X325015D01*
X317517Y3003420D01*
Y2973430D01*
X325015Y2965932D01*
X340010D01*
X347507Y2973430D01*
X362502Y2965932D02*
Y3010918D01*
X392493Y2965932D01*
Y3010918D01*
X407488Y2965932D02*
X422483D01*
X414986D01*
Y3010918D01*
X407488Y3003420D01*
X652512Y2680918D02*
Y2635932D01*
X675005D01*
X682503Y2643430D01*
Y2673420D01*
X675005Y2680918D01*
X652512D01*
X719990Y2635932D02*
Y2680918D01*
X697498Y2658425D01*
X727488D01*
X4150010Y4023420D02*
X4142512Y4030918D01*
X4127517D01*
X4120020Y4023420D01*
Y3993430D01*
X4127517Y3985932D01*
X4142512D01*
X4150010Y3993430D01*
X4165005Y3985932D02*
Y4030918D01*
X4194995Y3985932D01*
Y4030918D01*
X4209990D02*
X4239981D01*
Y4023420D01*
X4209990Y3993430D01*
Y3985932D01*
X3550010Y3853420D02*
X3542512Y3860918D01*
X3527517D01*
X3520019Y3853420D01*
Y3823430D01*
X3527517Y3815932D01*
X3542512D01*
X3550010Y3823430D01*
X3565005Y3815932D02*
Y3860918D01*
X3594995Y3815932D01*
Y3860918D01*
X3639981D02*
X3624986Y3853420D01*
X3609990Y3838425D01*
Y3823430D01*
X3617488Y3815932D01*
X3632483D01*
X3639981Y3823430D01*
Y3830928D01*
X3632483Y3838425D01*
X3609990D01*
X2662512Y4380918D02*
Y4343430D01*
X2670010Y4335932D01*
X2685005D01*
X2692503Y4343430D01*
Y4380918D01*
X2729990Y4335932D02*
Y4380918D01*
X2707498Y4358425D01*
X2737488D01*
X542503Y2993420D02*
X535005Y3000918D01*
X520010D01*
X512512Y2993420D01*
Y2963430D01*
X520010Y2955932D01*
X535005D01*
X542503Y2963430D01*
X557498Y2993420D02*
X564995Y3000918D01*
X579990D01*
X587488Y2993420D01*
Y2985923D01*
X579990Y2978425D01*
X572493D01*
X579990D01*
X587488Y2970928D01*
Y2963430D01*
X579990Y2955932D01*
X564995D01*
X557498Y2963430D01*
X1192503Y3273420D02*
X1185005Y3280918D01*
X1170010D01*
X1162512Y3273420D01*
Y3243430D01*
X1170010Y3235932D01*
X1185005D01*
X1192503Y3243430D01*
X1237488Y3235932D02*
X1207498D01*
X1237488Y3265923D01*
Y3273420D01*
X1229990Y3280918D01*
X1214995D01*
X1207498Y3273420D01*
X1276678Y2778419D02*
X1303336Y2738432D01*
Y2778419D02*
X1276678Y2738432D01*
X1336658D02*
Y2778419D01*
X1316665Y2758425D01*
X1343323D01*
X1587517Y4020918D02*
Y3975932D01*
X1610010D01*
X1617507Y3983430D01*
Y3990928D01*
X1610010Y3998425D01*
X1587517D01*
X1610010D01*
X1617507Y4005923D01*
Y4013420D01*
X1610010Y4020918D01*
X1587517D01*
X1632503D02*
X1662493D01*
X1647498D01*
Y3975932D01*
X1677488D02*
X1692483D01*
X1684986D01*
Y4020918D01*
X1677488Y4013420D01*
X1962512Y2860918D02*
X1992503Y2815932D01*
Y2860918D02*
X1962512Y2815932D01*
X2007498Y2853420D02*
X2014995Y2860918D01*
X2029990D01*
X2037488Y2853420D01*
Y2845923D01*
X2029990Y2838425D01*
X2022493D01*
X2029990D01*
X2037488Y2830928D01*
Y2823430D01*
X2029990Y2815932D01*
X2014995D01*
X2007498Y2823430D01*
X2782512Y4780918D02*
X2812503Y4735932D01*
Y4780918D02*
X2782512Y4735932D01*
X2857488D02*
X2827498D01*
X2857488Y4765923D01*
Y4773420D01*
X2849990Y4780918D01*
X2834995D01*
X2827498Y4773420D01*
X3170010Y2890918D02*
X3200000Y2845932D01*
Y2890918D02*
X3170010Y2845932D01*
X3214995D02*
X3229990D01*
X3222493D01*
Y2890918D01*
X3214995Y2883420D01*
X1622512Y3750918D02*
Y3713430D01*
X1630010Y3705932D01*
X1645005D01*
X1652503Y3713430D01*
Y3750918D01*
X1697488D02*
X1667498D01*
Y3728425D01*
X1682493Y3735923D01*
X1689990D01*
X1697488Y3728425D01*
Y3713430D01*
X1689990Y3705932D01*
X1674995D01*
X1667498Y3713430D01*
X3002512Y3270918D02*
Y3233430D01*
X3010010Y3225932D01*
X3025005D01*
X3032503Y3233430D01*
Y3270918D01*
X3047498Y3263420D02*
X3054995Y3270918D01*
X3069990D01*
X3077488Y3263420D01*
Y3255923D01*
X3069990Y3248425D01*
X3062493D01*
X3069990D01*
X3077488Y3240928D01*
Y3233430D01*
X3069990Y3225932D01*
X3054995D01*
X3047498Y3233430D01*
X432512Y3180918D02*
Y3143430D01*
X440010Y3135932D01*
X455005D01*
X462502Y3143430D01*
Y3180918D01*
X507488Y3135932D02*
X477498D01*
X507488Y3165923D01*
Y3173420D01*
X499990Y3180918D01*
X484995D01*
X477498Y3173420D01*
X808350Y3775932D02*
Y3820918D01*
X830843D01*
X838341Y3813420D01*
Y3798425D01*
X830843Y3790928D01*
X808350D01*
X823345D02*
X838341Y3775932D01*
X853336Y3813420D02*
X860833Y3820918D01*
X875828D01*
X883326Y3813420D01*
Y3805923D01*
X875828Y3798425D01*
X868331D01*
X875828D01*
X883326Y3790928D01*
Y3783430D01*
X875828Y3775932D01*
X860833D01*
X853336Y3783430D01*
X928312Y3775932D02*
X898321D01*
X928312Y3805923D01*
Y3813420D01*
X920814Y3820918D01*
X905819D01*
X898321Y3813420D01*
X823345Y3695932D02*
Y3740918D01*
X845838D01*
X853336Y3733420D01*
Y3718425D01*
X845838Y3710928D01*
X823345D01*
X838341D02*
X853336Y3695932D01*
X868331Y3733420D02*
X875828Y3740918D01*
X890823D01*
X898321Y3733420D01*
Y3725923D01*
X890823Y3718425D01*
X883326D01*
X890823D01*
X898321Y3710928D01*
Y3703430D01*
X890823Y3695932D01*
X875828D01*
X868331Y3703430D01*
X913316Y3695932D02*
X928312D01*
X920814D01*
Y3740918D01*
X913316Y3733420D01*
X1260020Y4335932D02*
Y4380918D01*
X1282512D01*
X1290010Y4373420D01*
Y4358425D01*
X1282512Y4350928D01*
X1260020D01*
X1275015D02*
X1290010Y4335932D01*
X1305005Y4373420D02*
X1312503Y4380918D01*
X1327498D01*
X1334995Y4373420D01*
Y4365923D01*
X1327498Y4358425D01*
X1320000D01*
X1327498D01*
X1334995Y4350928D01*
Y4343430D01*
X1327498Y4335932D01*
X1312503D01*
X1305005Y4343430D01*
X1349991Y4373420D02*
X1357488Y4380918D01*
X1372483D01*
X1379981Y4373420D01*
Y4343430D01*
X1372483Y4335932D01*
X1357488D01*
X1349991Y4343430D01*
Y4373420D01*
X1260020Y4415932D02*
Y4460918D01*
X1282512D01*
X1290010Y4453420D01*
Y4438425D01*
X1282512Y4430928D01*
X1260020D01*
X1275015D02*
X1290010Y4415932D01*
X1334995D02*
X1305005D01*
X1334995Y4445923D01*
Y4453420D01*
X1327498Y4460918D01*
X1312503D01*
X1305005Y4453420D01*
X1349991Y4423430D02*
X1357488Y4415932D01*
X1372483D01*
X1379981Y4423430D01*
Y4453420D01*
X1372483Y4460918D01*
X1357488D01*
X1349991Y4453420D01*
Y4445923D01*
X1357488Y4438425D01*
X1379981D01*
X1670020Y4495932D02*
Y4540918D01*
X1692512D01*
X1700010Y4533420D01*
Y4518425D01*
X1692512Y4510928D01*
X1670020D01*
X1685015D02*
X1700010Y4495932D01*
X1744995D02*
X1715005D01*
X1744995Y4525923D01*
Y4533420D01*
X1737498Y4540918D01*
X1722503D01*
X1715005Y4533420D01*
X1759991D02*
X1767488Y4540918D01*
X1782483D01*
X1789981Y4533420D01*
Y4525923D01*
X1782483Y4518425D01*
X1789981Y4510928D01*
Y4503430D01*
X1782483Y4495932D01*
X1767488D01*
X1759991Y4503430D01*
Y4510928D01*
X1767488Y4518425D01*
X1759991Y4525923D01*
Y4533420D01*
X1767488Y4518425D02*
X1782483D01*
X1467517Y3055932D02*
Y3100918D01*
X1490010D01*
X1497507Y3093420D01*
Y3078425D01*
X1490010Y3070928D01*
X1467517D01*
X1482512D02*
X1497507Y3055932D01*
X1542493D02*
X1512503D01*
X1542493Y3085923D01*
Y3093420D01*
X1534995Y3100918D01*
X1520000D01*
X1512503Y3093420D01*
X1557488Y3100918D02*
X1587478D01*
Y3093420D01*
X1557488Y3063430D01*
Y3055932D01*
X1466594Y4095932D02*
Y4140918D01*
X1489087D01*
X1496585Y4133420D01*
Y4118425D01*
X1489087Y4110928D01*
X1466594D01*
X1481590D02*
X1496585Y4095932D01*
X1541570D02*
X1511580D01*
X1541570Y4125923D01*
Y4133420D01*
X1534072Y4140918D01*
X1519077D01*
X1511580Y4133420D01*
X1586556Y4140918D02*
X1571561Y4133420D01*
X1556565Y4118425D01*
Y4103430D01*
X1564063Y4095932D01*
X1579058D01*
X1586556Y4103430D01*
Y4110928D01*
X1579058Y4118425D01*
X1556565D01*
X1860020Y4175932D02*
Y4220918D01*
X1882512D01*
X1890010Y4213420D01*
Y4198425D01*
X1882512Y4190928D01*
X1860020D01*
X1875015D02*
X1890010Y4175932D01*
X1934995D02*
X1905005D01*
X1934995Y4205923D01*
Y4213420D01*
X1927498Y4220918D01*
X1912503D01*
X1905005Y4213420D01*
X1979981Y4220918D02*
X1949991D01*
Y4198425D01*
X1964986Y4205923D01*
X1972483D01*
X1979981Y4198425D01*
Y4183430D01*
X1972483Y4175932D01*
X1957488D01*
X1949991Y4183430D01*
X1466594Y4255932D02*
Y4300918D01*
X1489087D01*
X1496585Y4293420D01*
Y4278425D01*
X1489087Y4270928D01*
X1466594D01*
X1481590D02*
X1496585Y4255932D01*
X1541570D02*
X1511580D01*
X1541570Y4285923D01*
Y4293420D01*
X1534072Y4300918D01*
X1519077D01*
X1511580Y4293420D01*
X1579058Y4255932D02*
Y4300918D01*
X1556565Y4278425D01*
X1586556D01*
X1467517Y2975932D02*
Y3020918D01*
X1490010D01*
X1497507Y3013420D01*
Y2998425D01*
X1490010Y2990928D01*
X1467517D01*
X1482512D02*
X1497507Y2975932D01*
X1542493D02*
X1512503D01*
X1542493Y3005923D01*
Y3013420D01*
X1534995Y3020918D01*
X1520000D01*
X1512503Y3013420D01*
X1557488D02*
X1564986Y3020918D01*
X1579981D01*
X1587478Y3013420D01*
Y3005923D01*
X1579981Y2998425D01*
X1572483D01*
X1579981D01*
X1587478Y2990928D01*
Y2983430D01*
X1579981Y2975932D01*
X1564986D01*
X1557488Y2983430D01*
X1467517Y2895932D02*
Y2940918D01*
X1490010D01*
X1497507Y2933420D01*
Y2918425D01*
X1490010Y2910928D01*
X1467517D01*
X1482512D02*
X1497507Y2895932D01*
X1542493D02*
X1512503D01*
X1542493Y2925923D01*
Y2933420D01*
X1534995Y2940918D01*
X1520000D01*
X1512503Y2933420D01*
X1587478Y2895932D02*
X1557488D01*
X1587478Y2925923D01*
Y2933420D01*
X1579981Y2940918D01*
X1564986D01*
X1557488Y2933420D01*
X2033558Y4345932D02*
Y4390918D01*
X2056051D01*
X2063548Y4383420D01*
Y4368425D01*
X2056051Y4360928D01*
X2033558D01*
X2048553D02*
X2063548Y4345932D01*
X2108534D02*
X2078543D01*
X2108534Y4375923D01*
Y4383420D01*
X2101036Y4390918D01*
X2086041D01*
X2078543Y4383420D01*
X2123529Y4345932D02*
X2138524D01*
X2131026D01*
Y4390918D01*
X2123529Y4383420D01*
X2018563Y4015932D02*
Y4060918D01*
X2041055D01*
X2048553Y4053420D01*
Y4038425D01*
X2041055Y4030928D01*
X2018563D01*
X2033558D02*
X2048553Y4015932D01*
X2093539D02*
X2063548D01*
X2093539Y4045923D01*
Y4053420D01*
X2086041Y4060918D01*
X2071046D01*
X2063548Y4053420D01*
X2108534D02*
X2116031Y4060918D01*
X2131026D01*
X2138524Y4053420D01*
Y4023430D01*
X2131026Y4015932D01*
X2116031D01*
X2108534Y4023430D01*
Y4053420D01*
X2026060Y4255932D02*
Y4300918D01*
X2048553D01*
X2056051Y4293420D01*
Y4278425D01*
X2048553Y4270928D01*
X2026060D01*
X2041056D02*
X2056051Y4255932D01*
X2071046D02*
X2086041D01*
X2078544D01*
Y4300918D01*
X2071046Y4293420D01*
X2108534Y4263430D02*
X2116031Y4255932D01*
X2131026D01*
X2138524Y4263430D01*
Y4293420D01*
X2131026Y4300918D01*
X2116031D01*
X2108534Y4293420D01*
Y4285923D01*
X2116031Y4278425D01*
X2138524D01*
X2026060Y3935932D02*
Y3980918D01*
X2048553D01*
X2056051Y3973420D01*
Y3958425D01*
X2048553Y3950928D01*
X2026060D01*
X2041056D02*
X2056051Y3935932D01*
X2071046D02*
X2086041D01*
X2078544D01*
Y3980918D01*
X2071046Y3973420D01*
X2108534D02*
X2116031Y3980918D01*
X2131026D01*
X2138524Y3973420D01*
Y3965923D01*
X2131026Y3958425D01*
X2138524Y3950928D01*
Y3943430D01*
X2131026Y3935932D01*
X2116031D01*
X2108534Y3943430D01*
Y3950928D01*
X2116031Y3958425D01*
X2108534Y3965923D01*
Y3973420D01*
X2116031Y3958425D02*
X2131026D01*
X2026060Y4175932D02*
Y4220918D01*
X2048553D01*
X2056051Y4213420D01*
Y4198425D01*
X2048553Y4190928D01*
X2026060D01*
X2041056D02*
X2056051Y4175932D01*
X2071046D02*
X2086041D01*
X2078544D01*
Y4220918D01*
X2071046Y4213420D01*
X2108534Y4220918D02*
X2138524D01*
Y4213420D01*
X2108534Y4183430D01*
Y4175932D01*
X2026060Y3855932D02*
Y3900918D01*
X2048553D01*
X2056051Y3893420D01*
Y3878425D01*
X2048553Y3870928D01*
X2026060D01*
X2041056D02*
X2056051Y3855932D01*
X2071046D02*
X2086041D01*
X2078544D01*
Y3900918D01*
X2071046Y3893420D01*
X2138524Y3900918D02*
X2123529Y3893420D01*
X2108534Y3878425D01*
Y3863430D01*
X2116031Y3855932D01*
X2131026D01*
X2138524Y3863430D01*
Y3870928D01*
X2131026Y3878425D01*
X2108534D01*
X2026060Y4095932D02*
Y4140918D01*
X2048553D01*
X2056051Y4133420D01*
Y4118425D01*
X2048553Y4110928D01*
X2026060D01*
X2041056D02*
X2056051Y4095932D01*
X2071046D02*
X2086041D01*
X2078544D01*
Y4140918D01*
X2071046Y4133420D01*
X2138524Y4140918D02*
X2108534D01*
Y4118425D01*
X2123529Y4125923D01*
X2131026D01*
X2138524Y4118425D01*
Y4103430D01*
X2131026Y4095932D01*
X2116031D01*
X2108534Y4103430D01*
X2026060Y4495932D02*
Y4540918D01*
X2048553D01*
X2056051Y4533420D01*
Y4518425D01*
X2048553Y4510928D01*
X2026060D01*
X2041056D02*
X2056051Y4495932D01*
X2071046D02*
X2086041D01*
X2078544D01*
Y4540918D01*
X2071046Y4533420D01*
X2131026Y4495932D02*
Y4540918D01*
X2108534Y4518425D01*
X2138524D01*
X3270019Y4015932D02*
Y4060918D01*
X3292512D01*
X3300010Y4053420D01*
Y4038425D01*
X3292512Y4030928D01*
X3270019D01*
X3285015D02*
X3300010Y4015932D01*
X3315005D02*
X3330000D01*
X3322503D01*
Y4060918D01*
X3315005Y4053420D01*
X3352493D02*
X3359990Y4060918D01*
X3374986D01*
X3382483Y4053420D01*
Y4045923D01*
X3374986Y4038425D01*
X3367488D01*
X3374986D01*
X3382483Y4030928D01*
Y4023430D01*
X3374986Y4015932D01*
X3359990D01*
X3352493Y4023430D01*
X1860020Y4095932D02*
Y4140918D01*
X1882512D01*
X1890010Y4133420D01*
Y4118425D01*
X1882512Y4110928D01*
X1860020D01*
X1875015D02*
X1890010Y4095932D01*
X1905005D02*
X1920000D01*
X1912503D01*
Y4140918D01*
X1905005Y4133420D01*
X1972483Y4095932D02*
X1942493D01*
X1972483Y4125923D01*
Y4133420D01*
X1964986Y4140918D01*
X1949991D01*
X1942493Y4133420D01*
X2842512Y3775932D02*
Y3820918D01*
X2865005D01*
X2872503Y3813420D01*
Y3798425D01*
X2865005Y3790928D01*
X2842512D01*
X2857507D02*
X2872503Y3775932D01*
X2887498D02*
X2902493D01*
X2894995D01*
Y3820918D01*
X2887498Y3813420D01*
X2924986Y3775932D02*
X2939981D01*
X2932483D01*
Y3820918D01*
X2924986Y3813420D01*
X2427517Y3375932D02*
Y3420918D01*
X2450010D01*
X2457507Y3413420D01*
Y3398425D01*
X2450010Y3390928D01*
X2427517D01*
X2442512D02*
X2457507Y3375932D01*
X2472503D02*
X2487498D01*
X2480000D01*
Y3420918D01*
X2472503Y3413420D01*
X2509990D02*
X2517488Y3420918D01*
X2532483D01*
X2539981Y3413420D01*
Y3383430D01*
X2532483Y3375932D01*
X2517488D01*
X2509990Y3383430D01*
Y3413420D01*
X2465005Y3535932D02*
Y3580918D01*
X2487498D01*
X2494995Y3573420D01*
Y3558425D01*
X2487498Y3550928D01*
X2465005D01*
X2480000D02*
X2494995Y3535932D01*
X2509990Y3543430D02*
X2517488Y3535932D01*
X2532483D01*
X2539981Y3543430D01*
Y3573420D01*
X2532483Y3580918D01*
X2517488D01*
X2509990Y3573420D01*
Y3565923D01*
X2517488Y3558425D01*
X2539981D01*
X2465005Y3455932D02*
Y3500918D01*
X2487498D01*
X2494995Y3493420D01*
Y3478425D01*
X2487498Y3470928D01*
X2465005D01*
X2480000D02*
X2494995Y3455932D01*
X2509990Y3493420D02*
X2517488Y3500918D01*
X2532483D01*
X2539981Y3493420D01*
Y3485923D01*
X2532483Y3478425D01*
X2539981Y3470928D01*
Y3463430D01*
X2532483Y3455932D01*
X2517488D01*
X2509990Y3463430D01*
Y3470928D01*
X2517488Y3478425D01*
X2509990Y3485923D01*
Y3493420D01*
X2517488Y3478425D02*
X2532483D01*
X3463339Y3135932D02*
Y3180918D01*
X3485831D01*
X3493329Y3173420D01*
Y3158425D01*
X3485831Y3150928D01*
X3463339D01*
X3478334D02*
X3493329Y3135932D01*
X3508324Y3180918D02*
X3538315D01*
Y3173420D01*
X3508324Y3143430D01*
Y3135932D01*
X3463339Y3535932D02*
Y3580918D01*
X3485831D01*
X3493329Y3573420D01*
Y3558425D01*
X3485831Y3550928D01*
X3463339D01*
X3478334D02*
X3493329Y3535932D01*
X3538315Y3580918D02*
X3523320Y3573420D01*
X3508324Y3558425D01*
Y3543430D01*
X3515822Y3535932D01*
X3530817D01*
X3538315Y3543430D01*
Y3550928D01*
X3530817Y3558425D01*
X3508324D01*
X2863768Y2655932D02*
Y2700918D01*
X2886261D01*
X2893759Y2693420D01*
Y2678425D01*
X2886261Y2670928D01*
X2863768D01*
X2878764D02*
X2893759Y2655932D01*
X2938744Y2700918D02*
X2908754D01*
Y2678425D01*
X2923749Y2685923D01*
X2931247D01*
X2938744Y2678425D01*
Y2663430D01*
X2931247Y2655932D01*
X2916251D01*
X2908754Y2663430D01*
X3463339Y3615932D02*
Y3660918D01*
X3485831D01*
X3493329Y3653420D01*
Y3638425D01*
X3485831Y3630928D01*
X3463339D01*
X3478334D02*
X3493329Y3615932D01*
X3530817D02*
Y3660918D01*
X3508324Y3638425D01*
X3538315D01*
X3262512Y3375932D02*
Y3420918D01*
X3285005D01*
X3292503Y3413420D01*
Y3398425D01*
X3285005Y3390928D01*
X3262512D01*
X3277507D02*
X3292503Y3375932D01*
X3307498Y3413420D02*
X3314995Y3420918D01*
X3329990D01*
X3337488Y3413420D01*
Y3405923D01*
X3329990Y3398425D01*
X3322493D01*
X3329990D01*
X3337488Y3390928D01*
Y3383430D01*
X3329990Y3375932D01*
X3314995D01*
X3307498Y3383430D01*
X853336Y3465932D02*
Y3510918D01*
X875828D01*
X883326Y3503420D01*
Y3488425D01*
X875828Y3480928D01*
X853336D01*
X868331D02*
X883326Y3465932D01*
X928312D02*
X898321D01*
X928312Y3495923D01*
Y3503420D01*
X920814Y3510918D01*
X905819D01*
X898321Y3503420D01*
X868331Y3535932D02*
Y3580918D01*
X890823D01*
X898321Y3573420D01*
Y3558425D01*
X890823Y3550928D01*
X868331D01*
X883326D02*
X898321Y3535932D01*
X913316D02*
X928312D01*
X920814D01*
Y3580918D01*
X913316Y3573420D01*
X875005Y3943430D02*
Y3973420D01*
X867507Y3980918D01*
X852512D01*
X845015Y3973420D01*
Y3943430D01*
X852512Y3935932D01*
X867507D01*
X860010Y3950928D02*
X875005Y3935932D01*
X867507D02*
X875005Y3943430D01*
X919990Y3935932D02*
X890000D01*
X919990Y3965923D01*
Y3973420D01*
X912493Y3980918D01*
X897498D01*
X890000Y3973420D01*
X890000Y4343430D02*
Y4373420D01*
X882503Y4380918D01*
X867507D01*
X860010Y4373420D01*
Y4343430D01*
X867507Y4335932D01*
X882503D01*
X875005Y4350928D02*
X890000Y4335932D01*
X882503D02*
X890000Y4343430D01*
X904995Y4335932D02*
X919990D01*
X912493D01*
Y4380918D01*
X904995Y4373420D01*
X1110010Y2735932D02*
Y2780918D01*
X1132503D01*
X1140000Y2773420D01*
Y2758425D01*
X1132503Y2750928D01*
X1110010D01*
X1154995Y2735932D02*
X1169991D01*
X1162493D01*
Y2780918D01*
X1154995Y2773420D01*
X3270019Y3980918D02*
Y3935932D01*
X3300010D01*
X3344995Y3980918D02*
X3330000Y3973420D01*
X3315005Y3958425D01*
Y3943430D01*
X3322503Y3935932D01*
X3337498D01*
X3344995Y3943430D01*
Y3950928D01*
X3337498Y3958425D01*
X3315005D01*
X3463339Y3100918D02*
Y3055932D01*
X3493329D01*
X3538315Y3100918D02*
X3508324D01*
Y3078425D01*
X3523320Y3085923D01*
X3530817D01*
X3538315Y3078425D01*
Y3063430D01*
X3530817Y3055932D01*
X3515822D01*
X3508324Y3063430D01*
X3463339Y2940918D02*
Y2895932D01*
X3493329D01*
X3530817D02*
Y2940918D01*
X3508324Y2918425D01*
X3538315D01*
X2662512Y3020918D02*
Y2975932D01*
X2692503D01*
X2707498Y3013420D02*
X2714995Y3020918D01*
X2729990D01*
X2737488Y3013420D01*
Y3005923D01*
X2729990Y2998425D01*
X2722493D01*
X2729990D01*
X2737488Y2990928D01*
Y2983430D01*
X2729990Y2975932D01*
X2714995D01*
X2707498Y2983430D01*
X2662512Y3260918D02*
Y3215932D01*
X2692503D01*
X2737488D02*
X2707498D01*
X2737488Y3245923D01*
Y3253420D01*
X2729990Y3260918D01*
X2714995D01*
X2707498Y3253420D01*
X570010Y3630918D02*
Y3585932D01*
X600000D01*
X614995D02*
X629990D01*
X622493D01*
Y3630918D01*
X614995Y3623420D01*
X853336Y4140918D02*
Y4095932D01*
X875828D01*
X883326Y4103430D01*
Y4133420D01*
X875828Y4140918D01*
X853336D01*
X898321Y4133420D02*
X905819Y4140918D01*
X920814D01*
X928312Y4133420D01*
Y4125923D01*
X920814Y4118425D01*
X913316D01*
X920814D01*
X928312Y4110928D01*
Y4103430D01*
X920814Y4095932D01*
X905819D01*
X898321Y4103430D01*
X1160010Y2940918D02*
Y2895932D01*
X1182503D01*
X1190000Y2903430D01*
Y2933420D01*
X1182503Y2940918D01*
X1160010D01*
X1204995Y2895932D02*
X1219991D01*
X1212493D01*
Y2940918D01*
X1204995Y2933420D01*
X440010Y4603420D02*
X432512Y4610918D01*
X417517D01*
X410019Y4603420D01*
Y4573430D01*
X417517Y4565932D01*
X432512D01*
X440010Y4573430D01*
X455005Y4565932D02*
Y4610918D01*
X484995Y4565932D01*
Y4610918D01*
X529981D02*
X499990D01*
Y4588425D01*
X514986Y4595923D01*
X522483D01*
X529981Y4588425D01*
Y4573430D01*
X522483Y4565932D01*
X507488D01*
X499990Y4573430D01*
X1515443Y4608420D02*
X1507945Y4615918D01*
X1492950D01*
X1485453Y4608420D01*
Y4578430D01*
X1492950Y4570932D01*
X1507945D01*
X1515443Y4578430D01*
X1530438Y4570932D02*
Y4615918D01*
X1560428Y4570932D01*
Y4615918D01*
X1597916Y4570932D02*
Y4615918D01*
X1575424Y4593425D01*
X1605414D01*
X1170010Y3973420D02*
X1162512Y3980918D01*
X1147517D01*
X1140020Y3973420D01*
Y3943430D01*
X1147517Y3935932D01*
X1162512D01*
X1170010Y3943430D01*
X1185005Y3935932D02*
Y3980918D01*
X1214995Y3935932D01*
Y3980918D01*
X1229991Y3973420D02*
X1237488Y3980918D01*
X1252483D01*
X1259981Y3973420D01*
Y3965923D01*
X1252483Y3958425D01*
X1244986D01*
X1252483D01*
X1259981Y3950928D01*
Y3943430D01*
X1252483Y3935932D01*
X1237488D01*
X1229991Y3943430D01*
X2276309Y4608420D02*
X2268811Y4615918D01*
X2253816D01*
X2246319Y4608420D01*
Y4578430D01*
X2253816Y4570932D01*
X2268811D01*
X2276309Y4578430D01*
X2291304Y4570932D02*
Y4615918D01*
X2321294Y4570932D01*
Y4615918D01*
X2366280Y4570932D02*
X2336290D01*
X2366280Y4600923D01*
Y4608420D01*
X2358782Y4615918D01*
X2343787D01*
X2336290Y4608420D01*
X2170010Y2763420D02*
X2162512Y2770918D01*
X2147517D01*
X2140019Y2763420D01*
Y2733430D01*
X2147517Y2725932D01*
X2162512D01*
X2170010Y2733430D01*
X2207498Y2725932D02*
Y2770918D01*
X2185005Y2748425D01*
X2214995D01*
X2259981Y2770918D02*
X2229990D01*
Y2748425D01*
X2244986Y2755923D01*
X2252483D01*
X2259981Y2748425D01*
Y2733430D01*
X2252483Y2725932D01*
X2237488D01*
X2229990Y2733430D01*
X1440010Y2693420D02*
X1432512Y2700918D01*
X1417517D01*
X1410020Y2693420D01*
Y2663430D01*
X1417517Y2655932D01*
X1432512D01*
X1440010Y2663430D01*
X1477498Y2655932D02*
Y2700918D01*
X1455005Y2678425D01*
X1484995D01*
X1522483Y2655932D02*
Y2700918D01*
X1499991Y2678425D01*
X1529981D01*
X1760010Y2763420D02*
X1752512Y2770918D01*
X1737517D01*
X1730020Y2763420D01*
Y2733430D01*
X1737517Y2725932D01*
X1752512D01*
X1760010Y2733430D01*
X1797498Y2725932D02*
Y2770918D01*
X1775005Y2748425D01*
X1804995D01*
X1819991Y2763420D02*
X1827488Y2770918D01*
X1842483D01*
X1849981Y2763420D01*
Y2755923D01*
X1842483Y2748425D01*
X1834986D01*
X1842483D01*
X1849981Y2740928D01*
Y2733430D01*
X1842483Y2725932D01*
X1827488D01*
X1819991Y2733430D01*
X1440010Y2853420D02*
X1432512Y2860918D01*
X1417517D01*
X1410020Y2853420D01*
Y2823430D01*
X1417517Y2815932D01*
X1432512D01*
X1440010Y2823430D01*
X1477498Y2815932D02*
Y2860918D01*
X1455005Y2838425D01*
X1484995D01*
X1529981Y2815932D02*
X1499991D01*
X1529981Y2845923D01*
Y2853420D01*
X1522483Y2860918D01*
X1507488D01*
X1499991Y2853420D01*
X1497507Y3173420D02*
X1490010Y3180918D01*
X1475015D01*
X1467517Y3173420D01*
Y3143430D01*
X1475015Y3135932D01*
X1490010D01*
X1497507Y3143430D01*
X1534995Y3135932D02*
Y3180918D01*
X1512503Y3158425D01*
X1542493D01*
X1557488Y3135932D02*
X1572483D01*
X1564986D01*
Y3180918D01*
X1557488Y3173420D01*
X2370010Y2923420D02*
X2362512Y2930918D01*
X2347517D01*
X2340019Y2923420D01*
Y2893430D01*
X2347517Y2885932D01*
X2362512D01*
X2370010Y2893430D01*
X2407498Y2885932D02*
Y2930918D01*
X2385005Y2908425D01*
X2414995D01*
X2429990Y2923420D02*
X2437488Y2930918D01*
X2452483D01*
X2459981Y2923420D01*
Y2893430D01*
X2452483Y2885932D01*
X2437488D01*
X2429990Y2893430D01*
Y2923420D01*
X2370010Y2703420D02*
X2362512Y2710918D01*
X2347517D01*
X2340019Y2703420D01*
Y2673430D01*
X2347517Y2665932D01*
X2362512D01*
X2370010Y2673430D01*
X2385005Y2703420D02*
X2392503Y2710918D01*
X2407498D01*
X2414995Y2703420D01*
Y2695923D01*
X2407498Y2688425D01*
X2400000D01*
X2407498D01*
X2414995Y2680928D01*
Y2673430D01*
X2407498Y2665932D01*
X2392503D01*
X2385005Y2673430D01*
X2429990D02*
X2437488Y2665932D01*
X2452483D01*
X2459981Y2673430D01*
Y2703420D01*
X2452483Y2710918D01*
X2437488D01*
X2429990Y2703420D01*
Y2695923D01*
X2437488Y2688425D01*
X2459981D01*
X1890010Y3973420D02*
X1882512Y3980918D01*
X1867517D01*
X1860020Y3973420D01*
Y3943430D01*
X1867517Y3935932D01*
X1882512D01*
X1890010Y3943430D01*
X1905005Y3973420D02*
X1912503Y3980918D01*
X1927498D01*
X1934995Y3973420D01*
Y3965923D01*
X1927498Y3958425D01*
X1920000D01*
X1927498D01*
X1934995Y3950928D01*
Y3943430D01*
X1927498Y3935932D01*
X1912503D01*
X1905005Y3943430D01*
X1949991Y3973420D02*
X1957488Y3980918D01*
X1972483D01*
X1979981Y3973420D01*
Y3965923D01*
X1972483Y3958425D01*
X1979981Y3950928D01*
Y3943430D01*
X1972483Y3935932D01*
X1957488D01*
X1949991Y3943430D01*
Y3950928D01*
X1957488Y3958425D01*
X1949991Y3965923D01*
Y3973420D01*
X1957488Y3958425D02*
X1972483D01*
X2450010Y3653420D02*
X2442512Y3660918D01*
X2427517D01*
X2420019Y3653420D01*
Y3623430D01*
X2427517Y3615932D01*
X2442512D01*
X2450010Y3623430D01*
X2465005Y3653420D02*
X2472503Y3660918D01*
X2487498D01*
X2494995Y3653420D01*
Y3645923D01*
X2487498Y3638425D01*
X2480000D01*
X2487498D01*
X2494995Y3630928D01*
Y3623430D01*
X2487498Y3615932D01*
X2472503D01*
X2465005Y3623430D01*
X2509990Y3660918D02*
X2539981D01*
Y3653420D01*
X2509990Y3623430D01*
Y3615932D01*
X1890010Y3893420D02*
X1882512Y3900918D01*
X1867517D01*
X1860020Y3893420D01*
Y3863430D01*
X1867517Y3855932D01*
X1882512D01*
X1890010Y3863430D01*
X1905005Y3893420D02*
X1912503Y3900918D01*
X1927498D01*
X1934995Y3893420D01*
Y3885923D01*
X1927498Y3878425D01*
X1920000D01*
X1927498D01*
X1934995Y3870928D01*
Y3863430D01*
X1927498Y3855932D01*
X1912503D01*
X1905005Y3863430D01*
X1979981Y3900918D02*
X1964986Y3893420D01*
X1949991Y3878425D01*
Y3863430D01*
X1957488Y3855932D01*
X1972483D01*
X1979981Y3863430D01*
Y3870928D01*
X1972483Y3878425D01*
X1949991D01*
X2450010Y3173420D02*
X2442512Y3180918D01*
X2427517D01*
X2420019Y3173420D01*
Y3143430D01*
X2427517Y3135932D01*
X2442512D01*
X2450010Y3143430D01*
X2465005Y3173420D02*
X2472503Y3180918D01*
X2487498D01*
X2494995Y3173420D01*
Y3165923D01*
X2487498Y3158425D01*
X2480000D01*
X2487498D01*
X2494995Y3150928D01*
Y3143430D01*
X2487498Y3135932D01*
X2472503D01*
X2465005Y3143430D01*
X2539981Y3180918D02*
X2509990D01*
Y3158425D01*
X2524986Y3165923D01*
X2532483D01*
X2539981Y3158425D01*
Y3143430D01*
X2532483Y3135932D01*
X2517488D01*
X2509990Y3143430D01*
X1770010Y2923420D02*
X1762512Y2930918D01*
X1747517D01*
X1740020Y2923420D01*
Y2893430D01*
X1747517Y2885932D01*
X1762512D01*
X1770010Y2893430D01*
X1785005Y2923420D02*
X1792503Y2930918D01*
X1807498D01*
X1814995Y2923420D01*
Y2915923D01*
X1807498Y2908425D01*
X1800000D01*
X1807498D01*
X1814995Y2900928D01*
Y2893430D01*
X1807498Y2885932D01*
X1792503D01*
X1785005Y2893430D01*
X1852483Y2885932D02*
Y2930918D01*
X1829991Y2908425D01*
X1859981D01*
X1496585Y4213420D02*
X1489087Y4220918D01*
X1474092D01*
X1466594Y4213420D01*
Y4183430D01*
X1474092Y4175932D01*
X1489087D01*
X1496585Y4183430D01*
X1511580Y4213420D02*
X1519077Y4220918D01*
X1534072D01*
X1541570Y4213420D01*
Y4205923D01*
X1534072Y4198425D01*
X1526575D01*
X1534072D01*
X1541570Y4190928D01*
Y4183430D01*
X1534072Y4175932D01*
X1519077D01*
X1511580Y4183430D01*
X1556565Y4213420D02*
X1564063Y4220918D01*
X1579058D01*
X1586556Y4213420D01*
Y4205923D01*
X1579058Y4198425D01*
X1571561D01*
X1579058D01*
X1586556Y4190928D01*
Y4183430D01*
X1579058Y4175932D01*
X1564063D01*
X1556565Y4183430D01*
X2690010Y4893420D02*
X2682512Y4900918D01*
X2667517D01*
X2660019Y4893420D01*
Y4863430D01*
X2667517Y4855932D01*
X2682512D01*
X2690010Y4863430D01*
X2705005Y4893420D02*
X2712503Y4900918D01*
X2727498D01*
X2734995Y4893420D01*
Y4885923D01*
X2727498Y4878425D01*
X2720000D01*
X2727498D01*
X2734995Y4870928D01*
Y4863430D01*
X2727498Y4855932D01*
X2712503D01*
X2705005Y4863430D01*
X2779981Y4855932D02*
X2749990D01*
X2779981Y4885923D01*
Y4893420D01*
X2772483Y4900918D01*
X2757488D01*
X2749990Y4893420D01*
X2887507D02*
X2880010Y4900918D01*
X2865015D01*
X2857517Y4893420D01*
Y4863430D01*
X2865015Y4855932D01*
X2880010D01*
X2887507Y4863430D01*
X2902503Y4893420D02*
X2910000Y4900918D01*
X2924995D01*
X2932493Y4893420D01*
Y4885923D01*
X2924995Y4878425D01*
X2917498D01*
X2924995D01*
X2932493Y4870928D01*
Y4863430D01*
X2924995Y4855932D01*
X2910000D01*
X2902503Y4863430D01*
X2947488Y4855932D02*
X2962483D01*
X2954986D01*
Y4900918D01*
X2947488Y4893420D01*
X3300010Y3813420D02*
X3292512Y3820918D01*
X3277517D01*
X3270019Y3813420D01*
Y3783430D01*
X3277517Y3775932D01*
X3292512D01*
X3300010Y3783430D01*
X3315005Y3813420D02*
X3322503Y3820918D01*
X3337498D01*
X3344995Y3813420D01*
Y3805923D01*
X3337498Y3798425D01*
X3330000D01*
X3337498D01*
X3344995Y3790928D01*
Y3783430D01*
X3337498Y3775932D01*
X3322503D01*
X3315005Y3783430D01*
X3359990Y3813420D02*
X3367488Y3820918D01*
X3382483D01*
X3389981Y3813420D01*
Y3783430D01*
X3382483Y3775932D01*
X3367488D01*
X3359990Y3783430D01*
Y3813420D01*
X3300010Y3893420D02*
X3292512Y3900918D01*
X3277517D01*
X3270019Y3893420D01*
Y3863430D01*
X3277517Y3855932D01*
X3292512D01*
X3300010Y3863430D01*
X3344995Y3855932D02*
X3315005D01*
X3344995Y3885923D01*
Y3893420D01*
X3337498Y3900918D01*
X3322503D01*
X3315005Y3893420D01*
X3359990Y3863430D02*
X3367488Y3855932D01*
X3382483D01*
X3389981Y3863430D01*
Y3893420D01*
X3382483Y3900918D01*
X3367488D01*
X3359990Y3893420D01*
Y3885923D01*
X3367488Y3878425D01*
X3389981D01*
X2330010Y4393420D02*
X2322512Y4400918D01*
X2307517D01*
X2300019Y4393420D01*
Y4363430D01*
X2307517Y4355932D01*
X2322512D01*
X2330010Y4363430D01*
X2374995Y4355932D02*
X2345005D01*
X2374995Y4385923D01*
Y4393420D01*
X2367498Y4400918D01*
X2352503D01*
X2345005Y4393420D01*
X2389990D02*
X2397488Y4400918D01*
X2412483D01*
X2419981Y4393420D01*
Y4385923D01*
X2412483Y4378425D01*
X2419981Y4370928D01*
Y4363430D01*
X2412483Y4355932D01*
X2397488D01*
X2389990Y4363430D01*
Y4370928D01*
X2397488Y4378425D01*
X2389990Y4385923D01*
Y4393420D01*
X2397488Y4378425D02*
X2412483D01*
X2330010Y4313420D02*
X2322512Y4320918D01*
X2307517D01*
X2300019Y4313420D01*
Y4283430D01*
X2307517Y4275932D01*
X2322512D01*
X2330010Y4283430D01*
X2374995Y4275932D02*
X2345005D01*
X2374995Y4305923D01*
Y4313420D01*
X2367498Y4320918D01*
X2352503D01*
X2345005Y4313420D01*
X2389990Y4320918D02*
X2419981D01*
Y4313420D01*
X2389990Y4283430D01*
Y4275932D01*
X2970010Y4123420D02*
X2962512Y4130918D01*
X2947517D01*
X2940019Y4123420D01*
Y4093430D01*
X2947517Y4085932D01*
X2962512D01*
X2970010Y4093430D01*
X3014995Y4085932D02*
X2985005D01*
X3014995Y4115923D01*
Y4123420D01*
X3007498Y4130918D01*
X2992503D01*
X2985005Y4123420D01*
X3059981Y4130918D02*
X3044986Y4123420D01*
X3029990Y4108425D01*
Y4093430D01*
X3037488Y4085932D01*
X3052483D01*
X3059981Y4093430D01*
Y4100928D01*
X3052483Y4108425D01*
X3029990D01*
X2850010Y3973420D02*
X2842512Y3980918D01*
X2827517D01*
X2820019Y3973420D01*
Y3943430D01*
X2827517Y3935932D01*
X2842512D01*
X2850010Y3943430D01*
X2894995Y3935932D02*
X2865005D01*
X2894995Y3965923D01*
Y3973420D01*
X2887498Y3980918D01*
X2872503D01*
X2865005Y3973420D01*
X2939981Y3980918D02*
X2909990D01*
Y3958425D01*
X2924986Y3965923D01*
X2932483D01*
X2939981Y3958425D01*
Y3943430D01*
X2932483Y3935932D01*
X2917488D01*
X2909990Y3943430D01*
X2850010Y3893420D02*
X2842512Y3900918D01*
X2827517D01*
X2820019Y3893420D01*
Y3863430D01*
X2827517Y3855932D01*
X2842512D01*
X2850010Y3863430D01*
X2894995Y3855932D02*
X2865005D01*
X2894995Y3885923D01*
Y3893420D01*
X2887498Y3900918D01*
X2872503D01*
X2865005Y3893420D01*
X2932483Y3855932D02*
Y3900918D01*
X2909990Y3878425D01*
X2939981D01*
X3310010Y2693420D02*
X3302512Y2700918D01*
X3287517D01*
X3280019Y2693420D01*
Y2663430D01*
X3287517Y2655932D01*
X3302512D01*
X3310010Y2663430D01*
X3354995Y2655932D02*
X3325005D01*
X3354995Y2685923D01*
Y2693420D01*
X3347498Y2700918D01*
X3332503D01*
X3325005Y2693420D01*
X3369990D02*
X3377488Y2700918D01*
X3392483D01*
X3399981Y2693420D01*
Y2685923D01*
X3392483Y2678425D01*
X3384986D01*
X3392483D01*
X3399981Y2670928D01*
Y2663430D01*
X3392483Y2655932D01*
X3377488D01*
X3369990Y2663430D01*
X3010010Y2693420D02*
X3002512Y2700918D01*
X2987517D01*
X2980019Y2693420D01*
Y2663430D01*
X2987517Y2655932D01*
X3002512D01*
X3010010Y2663430D01*
X3054995Y2655932D02*
X3025005D01*
X3054995Y2685923D01*
Y2693420D01*
X3047498Y2700918D01*
X3032503D01*
X3025005Y2693420D01*
X3099981Y2655932D02*
X3069990D01*
X3099981Y2685923D01*
Y2693420D01*
X3092483Y2700918D01*
X3077488D01*
X3069990Y2693420D01*
X3463339Y3253420D02*
X3455841Y3260918D01*
X3440846D01*
X3433348Y3253420D01*
Y3223430D01*
X3440846Y3215932D01*
X3455841D01*
X3463339Y3223430D01*
X3508324Y3215932D02*
X3478334D01*
X3508324Y3245923D01*
Y3253420D01*
X3500827Y3260918D01*
X3485831D01*
X3478334Y3253420D01*
X3523319Y3215932D02*
X3538315D01*
X3530817D01*
Y3260918D01*
X3523319Y3253420D01*
X3448344Y3413420D02*
X3440846Y3420918D01*
X3425851D01*
X3418353Y3413420D01*
Y3383430D01*
X3425851Y3375932D01*
X3440846D01*
X3448344Y3383430D01*
X3493329Y3375932D02*
X3463339D01*
X3493329Y3405923D01*
Y3413420D01*
X3485831Y3420918D01*
X3470836D01*
X3463339Y3413420D01*
X3508324D02*
X3515822Y3420918D01*
X3530817D01*
X3538315Y3413420D01*
Y3383430D01*
X3530817Y3375932D01*
X3515822D01*
X3508324Y3383430D01*
Y3413420D01*
X3455841Y3493420D02*
X3448344Y3500918D01*
X3433349D01*
X3425851Y3493420D01*
Y3463430D01*
X3433349Y3455932D01*
X3448344D01*
X3455841Y3463430D01*
X3470836Y3455932D02*
X3485832D01*
X3478334D01*
Y3500918D01*
X3470836Y3493420D01*
X3508324Y3463430D02*
X3515822Y3455932D01*
X3530817D01*
X3538315Y3463430D01*
Y3493420D01*
X3530817Y3500918D01*
X3515822D01*
X3508324Y3493420D01*
Y3485923D01*
X3515822Y3478425D01*
X3538315D01*
X3455841Y3333420D02*
X3448344Y3340918D01*
X3433349D01*
X3425851Y3333420D01*
Y3303430D01*
X3433349Y3295932D01*
X3448344D01*
X3455841Y3303430D01*
X3470836Y3295932D02*
X3485832D01*
X3478334D01*
Y3340918D01*
X3470836Y3333420D01*
X3508324D02*
X3515822Y3340918D01*
X3530817D01*
X3538315Y3333420D01*
Y3325923D01*
X3530817Y3318425D01*
X3538315Y3310928D01*
Y3303430D01*
X3530817Y3295932D01*
X3515822D01*
X3508324Y3303430D01*
Y3310928D01*
X3515822Y3318425D01*
X3508324Y3325923D01*
Y3333420D01*
X3515822Y3318425D02*
X3530817D01*
X2893759Y2773420D02*
X2886261Y2780918D01*
X2871266D01*
X2863768Y2773420D01*
Y2743430D01*
X2871266Y2735932D01*
X2886261D01*
X2893759Y2743430D01*
X2908754Y2735932D02*
X2923749D01*
X2916251D01*
Y2780918D01*
X2908754Y2773420D01*
X2946242Y2780918D02*
X2976232D01*
Y2773420D01*
X2946242Y2743430D01*
Y2735932D01*
X3455841Y2693420D02*
X3448344Y2700918D01*
X3433349D01*
X3425851Y2693420D01*
Y2663430D01*
X3433349Y2655932D01*
X3448344D01*
X3455841Y2663430D01*
X3470836Y2655932D02*
X3485832D01*
X3478334D01*
Y2700918D01*
X3470836Y2693420D01*
X3538315Y2700918D02*
X3523320Y2693420D01*
X3508324Y2678425D01*
Y2663430D01*
X3515822Y2655932D01*
X3530817D01*
X3538315Y2663430D01*
Y2670928D01*
X3530817Y2678425D01*
X3508324D01*
X3455841Y2853420D02*
X3448344Y2860918D01*
X3433349D01*
X3425851Y2853420D01*
Y2823430D01*
X3433349Y2815932D01*
X3448344D01*
X3455841Y2823430D01*
X3470836Y2815932D02*
X3485832D01*
X3478334D01*
Y2860918D01*
X3470836Y2853420D01*
X3538315Y2860918D02*
X3508324D01*
Y2838425D01*
X3523320Y2845923D01*
X3530817D01*
X3538315Y2838425D01*
Y2823430D01*
X3530817Y2815932D01*
X3515822D01*
X3508324Y2823430D01*
X3455841Y3013420D02*
X3448344Y3020918D01*
X3433349D01*
X3425851Y3013420D01*
Y2983430D01*
X3433349Y2975932D01*
X3448344D01*
X3455841Y2983430D01*
X3470836Y2975932D02*
X3485832D01*
X3478334D01*
Y3020918D01*
X3470836Y3013420D01*
X3530817Y2975932D02*
Y3020918D01*
X3508324Y2998425D01*
X3538315D01*
X3455841Y2773420D02*
X3448344Y2780918D01*
X3433349D01*
X3425851Y2773420D01*
Y2743430D01*
X3433349Y2735932D01*
X3448344D01*
X3455841Y2743430D01*
X3470836Y2735932D02*
X3485832D01*
X3478334D01*
Y2780918D01*
X3470836Y2773420D01*
X3508324D02*
X3515822Y2780918D01*
X3530817D01*
X3538315Y2773420D01*
Y2765923D01*
X3530817Y2758425D01*
X3523320D01*
X3530817D01*
X3538315Y2750928D01*
Y2743430D01*
X3530817Y2735932D01*
X3515822D01*
X3508324Y2743430D01*
X3292503Y3333420D02*
X3285005Y3340918D01*
X3270010D01*
X3262512Y3333420D01*
Y3303430D01*
X3270010Y3295932D01*
X3285005D01*
X3292503Y3303430D01*
X3307498Y3295932D02*
X3322493D01*
X3314995D01*
Y3340918D01*
X3307498Y3333420D01*
X3374976Y3295932D02*
X3344986D01*
X3374976Y3325923D01*
Y3333420D01*
X3367478Y3340918D01*
X3352483D01*
X3344986Y3333420D01*
X2872506D02*
X2865008Y3340918D01*
X2850013D01*
X2842515Y3333420D01*
Y3303430D01*
X2850013Y3295932D01*
X2865008D01*
X2872506Y3303430D01*
X2887501Y3295932D02*
X2902496D01*
X2894999D01*
Y3340918D01*
X2887501Y3333420D01*
X2924989Y3295932D02*
X2939984D01*
X2932486D01*
Y3340918D01*
X2924989Y3333420D01*
X2893759Y2853420D02*
X2886261Y2860918D01*
X2871266D01*
X2863768Y2853420D01*
Y2823430D01*
X2871266Y2815932D01*
X2886261D01*
X2893759Y2823430D01*
X2908754Y2815932D02*
X2923749D01*
X2916251D01*
Y2860918D01*
X2908754Y2853420D01*
X2946242D02*
X2953739Y2860918D01*
X2968734D01*
X2976232Y2853420D01*
Y2823430D01*
X2968734Y2815932D01*
X2953739D01*
X2946242Y2823430D01*
Y2853420D01*
X2692503Y2933420D02*
X2685005Y2940918D01*
X2670010D01*
X2662512Y2933420D01*
Y2903430D01*
X2670010Y2895932D01*
X2685005D01*
X2692503Y2903430D01*
X2707498D02*
X2714995Y2895932D01*
X2729990D01*
X2737488Y2903430D01*
Y2933420D01*
X2729990Y2940918D01*
X2714995D01*
X2707498Y2933420D01*
Y2925923D01*
X2714995Y2918425D01*
X2737488D01*
X2692503Y3093420D02*
X2685005Y3100918D01*
X2670010D01*
X2662512Y3093420D01*
Y3063430D01*
X2670010Y3055932D01*
X2685005D01*
X2692503Y3063430D01*
X2707498Y3093420D02*
X2714995Y3100918D01*
X2729990D01*
X2737488Y3093420D01*
Y3085923D01*
X2729990Y3078425D01*
X2737488Y3070928D01*
Y3063430D01*
X2729990Y3055932D01*
X2714995D01*
X2707498Y3063430D01*
Y3070928D01*
X2714995Y3078425D01*
X2707498Y3085923D01*
Y3093420D01*
X2714995Y3078425D02*
X2729990D01*
X2692503Y3173420D02*
X2685005Y3180918D01*
X2670010D01*
X2662512Y3173420D01*
Y3143430D01*
X2670010Y3135932D01*
X2685005D01*
X2692503Y3143430D01*
X2707498Y3180918D02*
X2737488D01*
Y3173420D01*
X2707498Y3143430D01*
Y3135932D01*
X3292503Y3493420D02*
X3285005Y3500918D01*
X3270010D01*
X3262512Y3493420D01*
Y3463430D01*
X3270010Y3455932D01*
X3285005D01*
X3292503Y3463430D01*
X3337488Y3500918D02*
X3322493Y3493420D01*
X3307498Y3478425D01*
Y3463430D01*
X3314995Y3455932D01*
X3329990D01*
X3337488Y3463430D01*
Y3470928D01*
X3329990Y3478425D01*
X3307498D01*
X2894999Y3413420D02*
X2887501Y3420918D01*
X2872506D01*
X2865008Y3413420D01*
Y3383430D01*
X2872506Y3375932D01*
X2887501D01*
X2894999Y3383430D01*
X2939984Y3420918D02*
X2909994D01*
Y3398425D01*
X2924989Y3405923D01*
X2932486D01*
X2939984Y3398425D01*
Y3383430D01*
X2932486Y3375932D01*
X2917491D01*
X2909994Y3383430D01*
X852503Y3373420D02*
X845005Y3380918D01*
X830010D01*
X822512Y3373420D01*
Y3343430D01*
X830010Y3335932D01*
X845005D01*
X852503Y3343430D01*
X889990Y3335932D02*
Y3380918D01*
X867498Y3358425D01*
X897488D01*
X557498Y2893420D02*
X550000Y2900918D01*
X535005D01*
X527507Y2893420D01*
Y2863430D01*
X535005Y2855932D01*
X550000D01*
X557498Y2863430D01*
X572493Y2855932D02*
X587488D01*
X579990D01*
Y2900918D01*
X572493Y2893420D01*
X807517Y4580918D02*
Y4535932D01*
X830010D01*
X837507Y4543430D01*
Y4550928D01*
X830010Y4558425D01*
X807517D01*
X830010D01*
X837507Y4565923D01*
Y4573420D01*
X830010Y4580918D01*
X807517D01*
X852503D02*
X882493D01*
Y4573420D01*
X852503Y4543430D01*
Y4535932D01*
X882493D01*
X897488D02*
X912483D01*
X904986D01*
Y4580918D01*
X897488Y4573420D01*
X1653543Y7255118D02*
X1650906Y7264961D01*
X1643701Y7272166D01*
X1633858Y7274803D01*
X1624016Y7272166D01*
X1616811Y7264961D01*
X1614173Y7255118D01*
X1616811Y7245276D01*
X1624016Y7238070D01*
X1633858Y7235433D01*
X1643701Y7238070D01*
X1650906Y7245276D01*
X1653543Y7255118D01*
X1456693D02*
X1454056Y7264961D01*
X1446851Y7272166D01*
X1437008Y7274803D01*
X1427166Y7272166D01*
X1419960Y7264961D01*
X1417323Y7255118D01*
X1419960Y7245276D01*
X1427166Y7238070D01*
X1437008Y7235433D01*
X1446851Y7238070D01*
X1454056Y7245276D01*
X1456693Y7255118D01*
X2125984D02*
X2123347Y7264961D01*
X2116142Y7272166D01*
X2106299Y7274803D01*
X2096457Y7272166D01*
X2089252Y7264961D01*
X2086614Y7255118D01*
X2089252Y7245276D01*
X2096457Y7238070D01*
X2106299Y7235433D01*
X2116142Y7238070D01*
X2123347Y7245276D01*
X2125984Y7255118D01*
X2519685D02*
X2517048Y7264961D01*
X2509843Y7272166D01*
X2500000Y7274803D01*
X2490158Y7272166D01*
X2482952Y7264961D01*
X2480315Y7255118D01*
X2482952Y7245276D01*
X2490158Y7238070D01*
X2500000Y7235433D01*
X2509843Y7238070D01*
X2517048Y7245276D01*
X2519685Y7255118D01*
X2322835D02*
X2320197Y7264961D01*
X2312992Y7272166D01*
X2303150Y7274803D01*
X2293307Y7272166D01*
X2286102Y7264961D01*
X2283465Y7255118D01*
X2286102Y7245276D01*
X2293307Y7238070D01*
X2303150Y7235433D01*
X2312992Y7238070D01*
X2320197Y7245276D01*
X2322835Y7255118D01*
X489685D02*
X487048Y7264961D01*
X479843Y7272166D01*
X470000Y7274803D01*
X460158Y7272166D01*
X452952Y7264961D01*
X450315Y7255118D01*
X452952Y7245276D01*
X460158Y7238070D01*
X470000Y7235433D01*
X479843Y7238070D01*
X487048Y7245276D01*
X489685Y7255118D01*
X686535D02*
X683898Y7264961D01*
X676693Y7272166D01*
X666851Y7274803D01*
X657008Y7272166D01*
X649803Y7264961D01*
X647165Y7255118D01*
X649803Y7245276D01*
X657008Y7238070D01*
X666851Y7235433D01*
X676693Y7238070D01*
X683898Y7245276D01*
X686535Y7255118D01*
X292835D02*
X290197Y7264961D01*
X282992Y7272166D01*
X273150Y7274803D01*
X263307Y7272166D01*
X256102Y7264961D01*
X253465Y7255118D01*
X256102Y7245276D01*
X263307Y7238070D01*
X273150Y7235433D01*
X282992Y7238070D01*
X290197Y7245276D01*
X292835Y7255118D01*
X5511811Y5472441D02*
X5511165Y5482510D01*
X5509236Y5492414D01*
X5506057Y5501990D01*
X5501679Y5511080D01*
X5496175Y5519536D01*
X5489634Y5527219D01*
X5482165Y5534003D01*
X5473889Y5539775D01*
X5464944Y5544442D01*
X5455475Y5547927D01*
X5445638Y5550172D01*
X5435595Y5551141D01*
X5425510Y5550817D01*
X5415550Y5549207D01*
X5405877Y5546336D01*
X5396651Y5542252D01*
X5388022Y5537021D01*
X5380134Y5530731D01*
X5373115Y5523483D01*
X5367080Y5515396D01*
X5362128Y5506605D01*
X5358342Y5497253D01*
X5355783Y5487493D01*
X5354493Y5477486D01*
Y5467396D01*
X5355783Y5457389D01*
X5358342Y5447629D01*
X5362128Y5438277D01*
X5367080Y5429485D01*
X5373115Y5421399D01*
X5380134Y5414151D01*
X5388022Y5407860D01*
X5396651Y5402630D01*
X5405877Y5398546D01*
X5415550Y5395675D01*
X5425510Y5394065D01*
X5435595Y5393741D01*
X5445638Y5394710D01*
X5455475Y5396955D01*
X5464944Y5400440D01*
X5473889Y5405107D01*
X5482165Y5410879D01*
X5489634Y5417663D01*
X5496174Y5425346D01*
X5501679Y5433802D01*
X5506056Y5442892D01*
X5509236Y5452468D01*
X5511165Y5462372D01*
X5511811Y5472441D01*
X4173229Y5472441D02*
X4172582Y5482510D01*
X4170653Y5492414D01*
X4167474Y5501990D01*
X4163096Y5511080D01*
X4157592Y5519536D01*
X4151051Y5527219D01*
X4143582Y5534003D01*
X4135307Y5539775D01*
X4126361Y5544442D01*
X4116892Y5547927D01*
X4107055Y5550172D01*
X4097012Y5551141D01*
X4086927Y5550817D01*
X4076967Y5549207D01*
X4067294Y5546336D01*
X4058068Y5542252D01*
X4049440Y5537021D01*
X4041551Y5530731D01*
X4034532Y5523483D01*
X4028497Y5515396D01*
X4023546Y5506605D01*
X4019760Y5497253D01*
X4017200Y5487493D01*
X4015910Y5477486D01*
Y5467396D01*
X4017200Y5457389D01*
X4019760Y5447629D01*
X4023546Y5438277D01*
X4028497Y5429485D01*
X4034532Y5421399D01*
X4041551Y5414151D01*
X4049440Y5407860D01*
X4058068Y5402630D01*
X4067294Y5398546D01*
X4076967Y5395675D01*
X4086927Y5394065D01*
X4097012Y5393741D01*
X4107055Y5394710D01*
X4116892Y5396955D01*
X4126361Y5400440D01*
X4135306Y5405107D01*
X4143582Y5410879D01*
X4151051Y5417663D01*
X4157592Y5425346D01*
X4163096Y5433802D01*
X4167474Y5442892D01*
X4170653Y5452468D01*
X4172582Y5462372D01*
X4173229Y5472441D01*
X5511811Y7283465D02*
X5511165Y7293534D01*
X5509236Y7303437D01*
X5506057Y7313013D01*
X5501679Y7322104D01*
X5496175Y7330560D01*
X5489634Y7338243D01*
X5482165Y7345026D01*
X5473889Y7350799D01*
X5464944Y7355466D01*
X5455475Y7358950D01*
X5445638Y7361195D01*
X5435595Y7362164D01*
X5425510Y7361841D01*
X5415550Y7360231D01*
X5405877Y7357360D01*
X5396651Y7353276D01*
X5388022Y7348045D01*
X5380134Y7341754D01*
X5373115Y7334506D01*
X5367080Y7326420D01*
X5362128Y7317629D01*
X5358342Y7308276D01*
X5355783Y7298516D01*
X5354493Y7288510D01*
Y7278420D01*
X5355783Y7268413D01*
X5358342Y7258653D01*
X5362128Y7249301D01*
X5367080Y7240509D01*
X5373115Y7232423D01*
X5380134Y7225175D01*
X5388022Y7218884D01*
X5396651Y7213654D01*
X5405877Y7209569D01*
X5415550Y7206699D01*
X5425510Y7205088D01*
X5435595Y7204765D01*
X5445638Y7205734D01*
X5455475Y7207979D01*
X5464944Y7211463D01*
X5473889Y7216130D01*
X5482165Y7221903D01*
X5489634Y7228686D01*
X5496174Y7236369D01*
X5501679Y7244825D01*
X5506056Y7253916D01*
X5509236Y7263492D01*
X5511165Y7273395D01*
X5511811Y7283464D01*
X4173229Y7283465D02*
X4172582Y7293534D01*
X4170653Y7303437D01*
X4167474Y7313013D01*
X4163096Y7322104D01*
X4157592Y7330560D01*
X4151051Y7338243D01*
X4143582Y7345026D01*
X4135307Y7350799D01*
X4126361Y7355466D01*
X4116892Y7358950D01*
X4107055Y7361195D01*
X4097012Y7362164D01*
X4086927Y7361841D01*
X4076967Y7360231D01*
X4067294Y7357360D01*
X4058068Y7353276D01*
X4049440Y7348045D01*
X4041551Y7341754D01*
X4034532Y7334506D01*
X4028497Y7326420D01*
X4023546Y7317629D01*
X4019760Y7308276D01*
X4017200Y7298516D01*
X4015910Y7288510D01*
Y7278420D01*
X4017200Y7268413D01*
X4019760Y7258653D01*
X4023546Y7249301D01*
X4028497Y7240509D01*
X4034532Y7232423D01*
X4041551Y7225175D01*
X4049440Y7218884D01*
X4058068Y7213654D01*
X4067294Y7209569D01*
X4076967Y7206699D01*
X4086927Y7205088D01*
X4097012Y7204765D01*
X4107055Y7205734D01*
X4116892Y7207979D01*
X4126361Y7211463D01*
X4135306Y7216130D01*
X4143582Y7221903D01*
X4151051Y7228686D01*
X4157592Y7236369D01*
X4163096Y7244825D01*
X4167474Y7253916D01*
X4170653Y7263492D01*
X4172582Y7273395D01*
X4173229Y7283464D01*
X2677166Y5354331D02*
X2676519Y5364400D01*
X2674590Y5374303D01*
X2671411Y5383879D01*
X2667033Y5392970D01*
X2661529Y5401426D01*
X2654988Y5409109D01*
X2647519Y5415892D01*
X2639244Y5421665D01*
X2630298Y5426332D01*
X2620829Y5429816D01*
X2610992Y5432062D01*
X2600949Y5433030D01*
X2590864Y5432707D01*
X2580904Y5431097D01*
X2571231Y5428226D01*
X2562005Y5424142D01*
X2553377Y5418911D01*
X2545488Y5412620D01*
X2538469Y5405372D01*
X2532434Y5397286D01*
X2527483Y5388495D01*
X2523697Y5379142D01*
X2521137Y5369383D01*
X2519847Y5359376D01*
Y5349286D01*
X2521137Y5339279D01*
X2523697Y5329519D01*
X2527483Y5320167D01*
X2532434Y5311375D01*
X2538469Y5303289D01*
X2545488Y5296041D01*
X2553377Y5289750D01*
X2562005Y5284520D01*
X2571231Y5280435D01*
X2580904Y5277565D01*
X2590864Y5275954D01*
X2600949Y5275631D01*
X2610992Y5276600D01*
X2620829Y5278845D01*
X2630298Y5282330D01*
X2639244Y5286997D01*
X2647519Y5292769D01*
X2654988Y5299552D01*
X2661529Y5307235D01*
X2667033Y5315691D01*
X2671411Y5324782D01*
X2674590Y5334358D01*
X2676519Y5344261D01*
X2677166Y5354330D01*
X3740158Y6692913D02*
X3739511Y6702983D01*
X3737582Y6712886D01*
X3734403Y6722462D01*
X3730025Y6731553D01*
X3724521Y6740009D01*
X3717980Y6747692D01*
X3710511Y6754475D01*
X3702236Y6760248D01*
X3693290Y6764914D01*
X3683821Y6768399D01*
X3673984Y6770644D01*
X3663941Y6771613D01*
X3653856Y6771290D01*
X3643896Y6769679D01*
X3634223Y6766809D01*
X3624997Y6762724D01*
X3616369Y6757494D01*
X3608480Y6751203D01*
X3601461Y6743955D01*
X3595426Y6735869D01*
X3590475Y6727078D01*
X3586689Y6717725D01*
X3584129Y6707965D01*
X3582839Y6697958D01*
Y6687868D01*
X3584129Y6677861D01*
X3586689Y6668102D01*
X3590475Y6658749D01*
X3595426Y6649958D01*
X3601461Y6641872D01*
X3608480Y6634624D01*
X3616369Y6628333D01*
X3624997Y6623102D01*
X3634223Y6619018D01*
X3643896Y6616147D01*
X3653856Y6614537D01*
X3663941Y6614214D01*
X3673984Y6615182D01*
X3683821Y6617428D01*
X3693290Y6620912D01*
X3702236Y6625579D01*
X3710511Y6631352D01*
X3717980Y6638135D01*
X3724521Y6645818D01*
X3730025Y6654274D01*
X3734403Y6663365D01*
X3737582Y6672940D01*
X3739511Y6682844D01*
X3740158Y6692913D01*
X1948819Y7401575D02*
X1948172Y7411644D01*
X1946244Y7421548D01*
X1943064Y7431123D01*
X1938687Y7440214D01*
X1933182Y7448670D01*
X1926642Y7456353D01*
X1919172Y7463136D01*
X1910897Y7468909D01*
X1901951Y7473576D01*
X1892483Y7477060D01*
X1882646Y7479306D01*
X1872603Y7480275D01*
X1862518Y7479951D01*
X1852557Y7478341D01*
X1842885Y7475470D01*
X1833658Y7471386D01*
X1825030Y7466155D01*
X1817142Y7459864D01*
X1810122Y7452616D01*
X1804088Y7444530D01*
X1799136Y7435739D01*
X1795350Y7426386D01*
X1792791Y7416627D01*
X1791500Y7406620D01*
Y7396530D01*
X1792791Y7386523D01*
X1795350Y7376763D01*
X1799136Y7367411D01*
X1804088Y7358619D01*
X1810122Y7350533D01*
X1817142Y7343285D01*
X1825030Y7336994D01*
X1833658Y7331764D01*
X1842885Y7327680D01*
X1852557Y7324809D01*
X1862518Y7323199D01*
X1872602Y7322875D01*
X1882646Y7323844D01*
X1892483Y7326089D01*
X1901951Y7329574D01*
X1910897Y7334241D01*
X1919172Y7340013D01*
X1926642Y7346797D01*
X1933182Y7354479D01*
X1938687Y7362935D01*
X1943064Y7372026D01*
X1946244Y7381602D01*
X1948172Y7391506D01*
X1948819Y7401574D01*
X236221Y7125984D02*
X235574Y7136053D01*
X233645Y7145957D01*
X230466Y7155533D01*
X226088Y7164623D01*
X220584Y7173080D01*
X214043Y7180762D01*
X206574Y7187546D01*
X198299Y7193318D01*
X189353Y7197985D01*
X179884Y7201470D01*
X170047Y7203715D01*
X160004Y7204684D01*
X149919Y7204361D01*
X139959Y7202750D01*
X130286Y7199880D01*
X121060Y7195795D01*
X112432Y7190565D01*
X104543Y7184274D01*
X97524Y7177026D01*
X91489Y7168940D01*
X86538Y7160148D01*
X82752Y7150796D01*
X80192Y7141036D01*
X78902Y7131029D01*
Y7120939D01*
X80192Y7110932D01*
X82752Y7101173D01*
X86538Y7091820D01*
X91489Y7083029D01*
X97524Y7074943D01*
X104543Y7067695D01*
X112432Y7061404D01*
X121060Y7056173D01*
X130286Y7052089D01*
X139959Y7049218D01*
X149919Y7047608D01*
X160004Y7047285D01*
X170047Y7048253D01*
X179884Y7050499D01*
X189353Y7053983D01*
X198299Y7058650D01*
X206574Y7064423D01*
X214043Y7071206D01*
X220584Y7078889D01*
X226088Y7087345D01*
X230466Y7096435D01*
X233645Y7106011D01*
X235574Y7115915D01*
X236221Y7125984D01*
Y5669291D02*
X235574Y5679360D01*
X233645Y5689264D01*
X230466Y5698840D01*
X226088Y5707931D01*
X220584Y5716387D01*
X214043Y5724069D01*
X206574Y5730853D01*
X198299Y5736625D01*
X189353Y5741292D01*
X179884Y5744777D01*
X170047Y5747022D01*
X160004Y5747991D01*
X149919Y5747668D01*
X139959Y5746057D01*
X130286Y5743186D01*
X121060Y5739102D01*
X112432Y5733872D01*
X104543Y5727581D01*
X97524Y5720333D01*
X91489Y5712247D01*
X86538Y5703455D01*
X82752Y5694103D01*
X80192Y5684343D01*
X78902Y5674336D01*
Y5664246D01*
X80192Y5654239D01*
X82752Y5644480D01*
X86538Y5635127D01*
X91489Y5626336D01*
X97524Y5618250D01*
X104543Y5611002D01*
X112432Y5604711D01*
X121060Y5599480D01*
X130286Y5595396D01*
X139959Y5592525D01*
X149919Y5590915D01*
X160004Y5590592D01*
X170047Y5591560D01*
X179884Y5593806D01*
X189353Y5597290D01*
X198299Y5601957D01*
X206574Y5607730D01*
X214043Y5614513D01*
X220584Y5622196D01*
X226088Y5630652D01*
X230466Y5639743D01*
X233645Y5649318D01*
X235574Y5659222D01*
X236221Y5669291D01*
X1740158Y5666142D02*
X1732284D01*
X1740158D01*
X1741788D02*
X1733437Y5670963D01*
Y5661320D01*
X1741788Y5666142D01*
X1789032Y5780315D02*
X1780681Y5785137D01*
Y5775493D01*
X1789032Y5780315D01*
X1783465Y5776378D02*
X1775591D01*
X1783465D01*
X1785095D02*
X1776744Y5781200D01*
Y5771556D01*
X1785095Y5776378D01*
X1788331D02*
X1783929Y5784002D01*
X1775126D01*
X1770724Y5776378D01*
X1775126Y5768754D01*
X1783929D01*
X1788331Y5776378D01*
X1790663D02*
X1786471Y5785084D01*
X1777050Y5787234D01*
X1769495Y5781209D01*
Y5771547D01*
X1777050Y5765522D01*
X1786471Y5767672D01*
X1790663Y5776378D01*
X62835Y5223386D02*
Y5534409D01*
X417165Y5223386D02*
X417166Y5250945D01*
Y5506850D02*
Y5534409D01*
X62835D02*
X102205D01*
X377795D02*
X417166D01*
X3735000Y7206929D02*
Y7523858D01*
Y6851417D02*
Y7066929D01*
X3105079Y6851417D02*
X3735000D01*
X3105079D02*
Y7066929D01*
Y7206929D02*
Y7523858D01*
X3735000D01*
X940000Y5911850D02*
X1060000D01*
X940000Y6001850D02*
X1060000D01*
X630000Y5531850D02*
X750000D01*
X630000Y5621850D02*
X750000D01*
X630000Y5431850D02*
X750000D01*
X630000Y5521850D02*
X750000D01*
X870000Y5807850D02*
Y5886850D01*
Y5626850D02*
Y5705850D01*
X1130000Y5809850D02*
Y5826929D01*
Y5686772D02*
Y5703850D01*
X1070079Y5626929D02*
X1129921Y5686772D01*
X870079Y5626929D02*
X1070079D01*
Y5886772D02*
X1129921Y5826929D01*
X870079Y5886772D02*
X1070079D01*
X1303071Y5833150D02*
Y6620551D01*
X1562914Y5833150D02*
Y6620551D01*
X1303071Y5833150D02*
X1562914D01*
X1303071Y6620551D02*
X1562914D01*
X1303071Y5967008D02*
X1562914D01*
X1303071Y6486693D02*
X1562914D01*
X4063497Y6473909D02*
Y6519792D01*
Y6473909D02*
X4101732Y6496850D01*
X4063497Y6519792D02*
X4101732Y6496850D01*
X4230079Y6336850D02*
Y6456850D01*
X4131654Y6436850D02*
Y6546063D01*
Y6247638D02*
Y6356850D01*
Y6546063D02*
X4230079D01*
Y6536850D02*
Y6546063D01*
X4131654Y6247638D02*
X4230079D01*
Y6256850D01*
X4131654Y6446850D02*
X4230079D01*
X4131654Y6346850D02*
X4230079D01*
X2910000Y7436850D02*
X2930000D01*
X2910000Y7376850D02*
X2930000D01*
X2710000D02*
X2730000D01*
X2710000Y7436850D02*
X2730000D01*
X1314961Y7231496D02*
X1755906D01*
X1314961Y7530709D02*
X1755906D01*
X1314961Y7231496D02*
Y7530709D01*
X1755906Y7231496D02*
Y7530709D01*
X1315433Y7274803D02*
X1755433D01*
X1653543Y7471654D02*
Y7530709D01*
X1614173Y7471654D02*
X1653543D01*
X1614173D02*
Y7530709D01*
X1456693Y7471654D02*
Y7530709D01*
X1417323Y7471654D02*
X1456693D01*
X1417323D02*
Y7530709D01*
X1984252Y7274803D02*
X2622047D01*
Y7461811D02*
Y7530709D01*
X2519685Y7471654D02*
Y7530709D01*
X2480315Y7471654D02*
X2519685D01*
X2480315D02*
Y7530709D01*
X2322835Y7471654D02*
Y7530709D01*
X2283465Y7471654D02*
Y7530709D01*
X2086614Y7471654D02*
Y7530709D01*
Y7471654D02*
X2125984D01*
Y7530709D01*
X1984252Y7461811D02*
Y7530709D01*
X2283465Y7471654D02*
X2322835D01*
X1984252Y7530709D02*
X2622047Y7530709D01*
X1984252Y7461811D02*
X2622047Y7461811D01*
X1984252Y7231496D02*
Y7461811D01*
Y7231496D02*
X2622047D01*
Y7461811D01*
X788898Y7231496D02*
Y7461811D01*
X151102Y7231496D02*
X788898D01*
X151102D02*
Y7461811D01*
X788898Y7461811D01*
X151102Y7530709D02*
X788898Y7530709D01*
X450315Y7471654D02*
X489685D01*
X151102Y7461811D02*
Y7530709D01*
X292835Y7471654D02*
Y7530709D01*
X253465Y7471654D02*
X292835D01*
X253465D02*
Y7530709D01*
X450315Y7471654D02*
Y7530709D01*
X489685Y7471654D02*
Y7530709D01*
X647165Y7471654D02*
Y7530709D01*
Y7471654D02*
X686535D01*
Y7530709D01*
X788898Y7461811D02*
Y7530709D01*
X151102Y7274803D02*
X788898D01*
X162913Y6262206D02*
X399134D01*
X540866D02*
X777087D01*
Y7014174D01*
X162913D02*
X777087D01*
X162913Y6262206D02*
Y7014174D01*
X2601575Y6895276D02*
X2613189D01*
X2601575Y6698425D02*
X2613189D01*
X2786811Y6895276D02*
X2798425D01*
X2786811Y6698425D02*
X2798425D01*
X2601575Y6883661D02*
Y6895276D01*
Y6698425D02*
Y6710039D01*
X2798425Y6883661D02*
Y6895276D01*
Y6698425D02*
Y6710039D01*
X354941Y5920610D02*
Y5962047D01*
X85059Y5920610D02*
X354941D01*
X85059D02*
Y5962047D01*
X354941Y6111654D02*
Y6153091D01*
X85059D02*
X354941D01*
X85059Y6111654D02*
Y6153091D01*
X3660000Y6586850D02*
X3760000D01*
X3660000Y6286850D02*
Y6586850D01*
X3760000Y6286850D02*
Y6586850D01*
X3660000Y6286850D02*
X3760000D01*
X3610000Y6311850D02*
X3635000Y6336850D01*
X3610000Y6311850D02*
Y6361850D01*
X3635000Y6336850D01*
X1105000Y5576850D02*
X1115000Y5561850D01*
X1125000Y5576850D01*
X1105000D02*
X1125000D01*
X1090551Y5561850D02*
Y5574331D01*
Y5459370D02*
Y5471850D01*
X909449Y5459370D02*
Y5471850D01*
Y5561850D02*
Y5574331D01*
Y5459370D02*
X1090551D01*
X909449Y5574331D02*
X1090551D01*
X599449Y5414331D02*
X780551D01*
X599449Y5299370D02*
X780551D01*
X599449Y5401850D02*
Y5414331D01*
Y5299370D02*
Y5311850D01*
X780551Y5299370D02*
Y5311850D01*
Y5401850D02*
Y5414331D01*
X795000Y5416850D02*
X815000D01*
X805000Y5401850D02*
X815000Y5416850D01*
X795000D02*
X805000Y5401850D01*
X1150000Y5946850D02*
X1250000D01*
Y6446850D01*
X1150000Y5946850D02*
Y6446850D01*
X1250000D01*
X1175000Y6509350D02*
X1200000Y6484350D01*
X1175000Y6509350D02*
X1225000D01*
X1200000Y6484350D02*
X1225000Y6509350D01*
X2185000Y7146850D02*
X2215000D01*
X2185000Y7086850D02*
X2215000D01*
X2470000Y6926850D02*
X2490000D01*
X2470000Y6866850D02*
X2490000D01*
X2470000Y7006850D02*
X2490000D01*
X2470000Y6946850D02*
X2490000D01*
X1785000Y6686850D02*
X1815000D01*
X1785000Y6746850D02*
X1815000D01*
X1390000Y6766850D02*
X1410000D01*
X1390000Y6826850D02*
X1410000D01*
X1385000Y6906850D02*
X1415000D01*
X1385000Y6846850D02*
X1415000D01*
X1385000Y6686850D02*
X1415000D01*
X1385000Y6746850D02*
X1415000D01*
X1785000Y6826850D02*
X1815000D01*
X1785000Y6766850D02*
X1815000D01*
X2985000Y6426850D02*
X3015000D01*
X2985000Y6366850D02*
X3015000D01*
X2990000Y6446850D02*
X3010000D01*
X2990000Y6506850D02*
X3010000D01*
X3190000Y6426850D02*
X3210000D01*
X3190000Y6366850D02*
X3210000D01*
X3190000Y6506850D02*
X3210000D01*
X3190000Y6446850D02*
X3210000D01*
X3185000Y6606850D02*
X3215000D01*
X3185000Y6666850D02*
X3215000D01*
X2585000Y6026850D02*
X2615000D01*
X2585000Y5966850D02*
X2615000D01*
X2585000Y6106850D02*
X2615000D01*
X2585000Y6046850D02*
X2615000D01*
X2585000Y6186850D02*
X2615000D01*
X2585000Y6126850D02*
X2615000D01*
X1385000Y5646850D02*
X1415000D01*
X1385000Y5706850D02*
X1415000D01*
X2990000Y6606850D02*
X3010000D01*
X2990000Y6666850D02*
X3010000D01*
X2990000Y6526850D02*
X3010000D01*
X2990000Y6586850D02*
X3010000D01*
X3168504Y6581850D02*
X3231496D01*
X3168504Y6531850D02*
X3231496D01*
X2183543Y6586850D02*
X2213543D01*
X2183543Y6526850D02*
X2213543D01*
X2185000Y6506850D02*
X2215000D01*
X2185000Y6446850D02*
X2215000D01*
X2185000Y6826850D02*
X2215000D01*
X2185000Y6766850D02*
X2215000D01*
X2183543Y6666850D02*
X2213543D01*
X2183543Y6606850D02*
X2213543D01*
X2185000Y6746850D02*
X2215000D01*
X2185000Y6686850D02*
X2215000D01*
X2185000Y6986850D02*
X2215000D01*
X2185000Y6926850D02*
X2215000D01*
X2185000Y6906850D02*
X2215000D01*
X2185000Y6846850D02*
X2215000D01*
X1585000Y7146850D02*
X1615000D01*
X1585000Y7086850D02*
X1615000D01*
X1385000Y5626850D02*
X1415000D01*
X1385000Y5566850D02*
X1415000D01*
X1385000Y5546850D02*
X1415000D01*
X1385000Y5486850D02*
X1415000D01*
X940000Y6941850D02*
Y6971850D01*
X1060000D01*
Y6941850D02*
Y6971850D01*
X940000Y6941850D02*
X1060000D01*
X1185000Y6986850D02*
X1215000D01*
X1185000Y6926850D02*
X1215000D01*
X1185000Y7006850D02*
X1215000D01*
X1185000Y7066850D02*
X1215000D01*
X985000Y6186850D02*
X1015000D01*
X985000Y6126850D02*
X1015000D01*
X2590000Y5786850D02*
X2610000D01*
X2590000Y5726850D02*
X2610000D01*
X2390000Y5406850D02*
X2410000D01*
X2390000Y5466850D02*
X2410000D01*
X2390000Y5386850D02*
X2410000D01*
X2390000Y5326850D02*
X2410000D01*
X2190000Y5306850D02*
X2210000D01*
X2190000Y5246850D02*
X2210000D01*
X1790000Y5306850D02*
X1810000D01*
X1790000Y5246850D02*
X1810000D01*
X1469000Y5328307D02*
X1581000D01*
X1469000Y5385394D02*
X1581000D01*
X1790000Y5466850D02*
X1810000D01*
X1790000Y5406850D02*
X1810000D01*
X2590000Y6206850D02*
X2610000D01*
X2590000Y6266850D02*
X2610000D01*
X1790000Y6526850D02*
X1810000D01*
X1790000Y6586850D02*
X1810000D01*
X1590000Y5306850D02*
X1610000D01*
X1590000Y5246850D02*
X1610000D01*
X1790000Y6446850D02*
X1810000D01*
X1790000Y6506850D02*
X1810000D01*
X985000Y6286850D02*
X1015000D01*
X985000Y6346850D02*
X1015000D01*
X540945Y5815905D02*
X541732D01*
X658268D02*
X659055D01*
X540945Y5697795D02*
Y5712756D01*
Y5800945D02*
Y5815905D01*
Y5697795D02*
X541732D01*
X658268D02*
X659055D01*
Y5712756D01*
Y5800945D02*
Y5815905D01*
X985000Y6106850D02*
X1015000D01*
X985000Y6046850D02*
X1015000D01*
X933071Y5317480D02*
X1066929D01*
X933071Y5396221D02*
X1066929D01*
X981000Y6689850D02*
Y6744409D01*
X964567D02*
X1035433D01*
X964567Y6689291D02*
X1035433D01*
X945500Y6693350D02*
X950500Y6688350D01*
X940500D02*
X950500D01*
X940500D02*
X945500Y6693350D01*
X1035433Y6736850D02*
Y6744409D01*
Y6689291D02*
Y6697850D01*
X964567Y6689291D02*
Y6698850D01*
Y6736850D02*
Y6744409D01*
X940000Y6541850D02*
Y6571850D01*
X1060000D01*
Y6541850D02*
Y6571850D01*
X940000Y6541850D02*
X1060000D01*
X985000Y6426850D02*
X1015000D01*
X985000Y6366850D02*
X1015000D01*
X2785000Y5246850D02*
X2815000D01*
X2785000Y5306850D02*
X2815000D01*
X3585000Y6266850D02*
X3615000D01*
X3585000Y6206850D02*
X3615000D01*
X3590000Y5626850D02*
X3610000D01*
X3590000Y5566850D02*
X3610000D01*
X3590000Y5406850D02*
X3610000D01*
X3590000Y5466850D02*
X3610000D01*
X3590000Y5946850D02*
X3610000D01*
X3590000Y5886850D02*
X3610000D01*
X3585000Y6186850D02*
X3615000D01*
X3585000Y6126850D02*
X3615000D01*
X3190000Y6106850D02*
X3210000D01*
X3190000Y6046850D02*
X3210000D01*
X3590000Y5306850D02*
X3610000D01*
X3590000Y5246850D02*
X3610000D01*
X3590000Y5326850D02*
X3610000D01*
X3590000Y5386850D02*
X3610000D01*
X3590000Y6106850D02*
X3610000D01*
X3590000Y6046850D02*
X3610000D01*
X3590000Y6026850D02*
X3610000D01*
X3590000Y5966850D02*
X3610000D01*
X3585000Y5786850D02*
X3615000D01*
X3585000Y5726850D02*
X3615000D01*
X3590000Y5866850D02*
X3610000D01*
X3590000Y5806850D02*
X3610000D01*
X3572441Y5546850D02*
X3627559D01*
X3572441Y5486850D02*
X3627559D01*
X3572441Y5706850D02*
X3627559D01*
X3572441Y5646850D02*
X3627559D01*
X2790000Y5326850D02*
X2810000D01*
X2790000Y5386850D02*
X2810000D01*
X2790000Y5546850D02*
X2810000D01*
X2790000Y5486850D02*
X2810000D01*
X2790000Y5406850D02*
X2810000D01*
X2790000Y5466850D02*
X2810000D01*
X2790000Y5786850D02*
X2810000D01*
X2790000Y5726850D02*
X2810000D01*
X2790000Y5646850D02*
X2810000D01*
X2790000Y5706850D02*
X2810000D01*
X2768504Y5861850D02*
X2831496D01*
X2768504Y5811850D02*
X2831496D01*
X2768504Y5571850D02*
X2831496D01*
X2768504Y5621850D02*
X2831496D01*
X3370000Y5346850D02*
Y5366850D01*
X3310000Y5346850D02*
Y5366850D01*
X3010000Y5346850D02*
Y5366850D01*
X3070000Y5346850D02*
Y5366850D01*
X3185000Y5966850D02*
X3215000D01*
X3185000Y6026850D02*
X3215000D01*
X3190000Y5946850D02*
X3210000D01*
X3190000Y5886850D02*
X3210000D01*
X2990000Y5966850D02*
X3010000D01*
X2990000Y6026850D02*
X3010000D01*
X2990000Y5886850D02*
X3010000D01*
X2990000Y5946850D02*
X3010000D01*
X1390000Y5726850D02*
X1410000D01*
X1390000Y5786850D02*
X1410000D01*
X1590000Y5406850D02*
X1610000D01*
X1590000Y5466850D02*
X1610000D01*
X3390000Y6829343D02*
X3375005D01*
X3382503D01*
Y6791855D01*
X3375005Y6784358D01*
X3367507D01*
X3360010Y6791855D01*
X3404995Y6784358D02*
X3419990D01*
X3412493D01*
Y6829343D01*
X3404995Y6821846D01*
X417517Y7044358D02*
Y7089343D01*
X440010D01*
X447507Y7081846D01*
Y7066850D01*
X440010Y7059353D01*
X417517D01*
X432512D02*
X447507Y7044358D01*
X462502Y7089343D02*
Y7044358D01*
X492493D01*
X507488D02*
X522483D01*
X514986D01*
Y7089343D01*
X507488Y7081846D01*
X172512Y6219343D02*
Y6174358D01*
X195005D01*
X202502Y6181855D01*
Y6211846D01*
X195005Y6219343D01*
X172512D01*
X247488Y6174358D02*
X217498D01*
X247488Y6204348D01*
Y6211846D01*
X239990Y6219343D01*
X224995D01*
X217498Y6211846D01*
X347507Y5601846D02*
X340010Y5609343D01*
X325015D01*
X317517Y5601846D01*
Y5571855D01*
X325015Y5564358D01*
X340010D01*
X347507Y5571855D01*
X362502Y5564358D02*
Y5609343D01*
X392493Y5564358D01*
Y5609343D01*
X407488Y5564358D02*
X422483D01*
X414986D01*
Y5609343D01*
X407488Y5601846D01*
X652512Y5279343D02*
Y5234358D01*
X675005D01*
X682503Y5241855D01*
Y5271846D01*
X675005Y5279343D01*
X652512D01*
X719990Y5234358D02*
Y5279343D01*
X697498Y5256850D01*
X727488D01*
X4150010Y6621846D02*
X4142512Y6629343D01*
X4127517D01*
X4120020Y6621846D01*
Y6591855D01*
X4127517Y6584358D01*
X4142512D01*
X4150010Y6591855D01*
X4165005Y6584358D02*
Y6629343D01*
X4194995Y6584358D01*
Y6629343D01*
X4209990D02*
X4239981D01*
Y6621846D01*
X4209990Y6591855D01*
Y6584358D01*
X3550010Y6451846D02*
X3542512Y6459343D01*
X3527517D01*
X3520019Y6451846D01*
Y6421855D01*
X3527517Y6414358D01*
X3542512D01*
X3550010Y6421855D01*
X3565005Y6414358D02*
Y6459343D01*
X3594995Y6414358D01*
Y6459343D01*
X3639981D02*
X3624986Y6451846D01*
X3609990Y6436850D01*
Y6421855D01*
X3617488Y6414358D01*
X3632483D01*
X3639981Y6421855D01*
Y6429353D01*
X3632483Y6436850D01*
X3609990D01*
X2662512Y6979343D02*
Y6941855D01*
X2670010Y6934358D01*
X2685005D01*
X2692503Y6941855D01*
Y6979343D01*
X2729990Y6934358D02*
Y6979343D01*
X2707498Y6956850D01*
X2737488D01*
X542503Y5591846D02*
X535005Y5599343D01*
X520010D01*
X512512Y5591846D01*
Y5561855D01*
X520010Y5554358D01*
X535005D01*
X542503Y5561855D01*
X557498Y5591846D02*
X564995Y5599343D01*
X579990D01*
X587488Y5591846D01*
Y5584348D01*
X579990Y5576850D01*
X572493D01*
X579990D01*
X587488Y5569353D01*
Y5561855D01*
X579990Y5554358D01*
X564995D01*
X557498Y5561855D01*
X1192503Y5871846D02*
X1185005Y5879343D01*
X1170010D01*
X1162512Y5871846D01*
Y5841855D01*
X1170010Y5834358D01*
X1185005D01*
X1192503Y5841855D01*
X1237488Y5834358D02*
X1207498D01*
X1237488Y5864348D01*
Y5871846D01*
X1229990Y5879343D01*
X1214995D01*
X1207498Y5871846D01*
X1276678Y5376844D02*
X1303336Y5336857D01*
Y5376844D02*
X1276678Y5336857D01*
X1336658D02*
Y5376844D01*
X1316665Y5356850D01*
X1343323D01*
X1587517Y6619343D02*
Y6574358D01*
X1610010D01*
X1617507Y6581855D01*
Y6589353D01*
X1610010Y6596850D01*
X1587517D01*
X1610010D01*
X1617507Y6604348D01*
Y6611846D01*
X1610010Y6619343D01*
X1587517D01*
X1632503D02*
X1662493D01*
X1647498D01*
Y6574358D01*
X1677488D02*
X1692483D01*
X1684986D01*
Y6619343D01*
X1677488Y6611846D01*
X1962512Y5459343D02*
X1992503Y5414358D01*
Y5459343D02*
X1962512Y5414358D01*
X2007498Y5451846D02*
X2014995Y5459343D01*
X2029990D01*
X2037488Y5451846D01*
Y5444348D01*
X2029990Y5436850D01*
X2022493D01*
X2029990D01*
X2037488Y5429353D01*
Y5421855D01*
X2029990Y5414358D01*
X2014995D01*
X2007498Y5421855D01*
X2782512Y7379343D02*
X2812503Y7334358D01*
Y7379343D02*
X2782512Y7334358D01*
X2857488D02*
X2827498D01*
X2857488Y7364348D01*
Y7371846D01*
X2849990Y7379343D01*
X2834995D01*
X2827498Y7371846D01*
X3170010Y5489343D02*
X3200000Y5444358D01*
Y5489343D02*
X3170010Y5444358D01*
X3214995D02*
X3229990D01*
X3222493D01*
Y5489343D01*
X3214995Y5481846D01*
X1622512Y6349343D02*
Y6311855D01*
X1630010Y6304358D01*
X1645005D01*
X1652503Y6311855D01*
Y6349343D01*
X1697488D02*
X1667498D01*
Y6326850D01*
X1682493Y6334348D01*
X1689990D01*
X1697488Y6326850D01*
Y6311855D01*
X1689990Y6304358D01*
X1674995D01*
X1667498Y6311855D01*
X3002512Y5869343D02*
Y5831855D01*
X3010010Y5824358D01*
X3025005D01*
X3032503Y5831855D01*
Y5869343D01*
X3047498Y5861846D02*
X3054995Y5869343D01*
X3069990D01*
X3077488Y5861846D01*
Y5854348D01*
X3069990Y5846850D01*
X3062493D01*
X3069990D01*
X3077488Y5839353D01*
Y5831855D01*
X3069990Y5824358D01*
X3054995D01*
X3047498Y5831855D01*
X432512Y5779343D02*
Y5741855D01*
X440010Y5734358D01*
X455005D01*
X462502Y5741855D01*
Y5779343D01*
X507488Y5734358D02*
X477498D01*
X507488Y5764348D01*
Y5771846D01*
X499990Y5779343D01*
X484995D01*
X477498Y5771846D01*
X808350Y6374358D02*
Y6419343D01*
X830843D01*
X838341Y6411846D01*
Y6396850D01*
X830843Y6389353D01*
X808350D01*
X823345D02*
X838341Y6374358D01*
X853336Y6411846D02*
X860833Y6419343D01*
X875828D01*
X883326Y6411846D01*
Y6404348D01*
X875828Y6396850D01*
X868331D01*
X875828D01*
X883326Y6389353D01*
Y6381855D01*
X875828Y6374358D01*
X860833D01*
X853336Y6381855D01*
X928312Y6374358D02*
X898321D01*
X928312Y6404348D01*
Y6411846D01*
X920814Y6419343D01*
X905819D01*
X898321Y6411846D01*
X823345Y6294358D02*
Y6339343D01*
X845838D01*
X853336Y6331846D01*
Y6316850D01*
X845838Y6309353D01*
X823345D01*
X838341D02*
X853336Y6294358D01*
X868331Y6331846D02*
X875828Y6339343D01*
X890823D01*
X898321Y6331846D01*
Y6324348D01*
X890823Y6316850D01*
X883326D01*
X890823D01*
X898321Y6309353D01*
Y6301855D01*
X890823Y6294358D01*
X875828D01*
X868331Y6301855D01*
X913316Y6294358D02*
X928312D01*
X920814D01*
Y6339343D01*
X913316Y6331846D01*
X1260020Y6934358D02*
Y6979343D01*
X1282512D01*
X1290010Y6971846D01*
Y6956850D01*
X1282512Y6949353D01*
X1260020D01*
X1275015D02*
X1290010Y6934358D01*
X1305005Y6971846D02*
X1312503Y6979343D01*
X1327498D01*
X1334995Y6971846D01*
Y6964348D01*
X1327498Y6956850D01*
X1320000D01*
X1327498D01*
X1334995Y6949353D01*
Y6941855D01*
X1327498Y6934358D01*
X1312503D01*
X1305005Y6941855D01*
X1349991Y6971846D02*
X1357488Y6979343D01*
X1372483D01*
X1379981Y6971846D01*
Y6941855D01*
X1372483Y6934358D01*
X1357488D01*
X1349991Y6941855D01*
Y6971846D01*
X1260020Y7014358D02*
Y7059343D01*
X1282512D01*
X1290010Y7051846D01*
Y7036850D01*
X1282512Y7029353D01*
X1260020D01*
X1275015D02*
X1290010Y7014358D01*
X1334995D02*
X1305005D01*
X1334995Y7044348D01*
Y7051846D01*
X1327498Y7059343D01*
X1312503D01*
X1305005Y7051846D01*
X1349991Y7021855D02*
X1357488Y7014358D01*
X1372483D01*
X1379981Y7021855D01*
Y7051846D01*
X1372483Y7059343D01*
X1357488D01*
X1349991Y7051846D01*
Y7044348D01*
X1357488Y7036850D01*
X1379981D01*
X1670020Y7094358D02*
Y7139343D01*
X1692512D01*
X1700010Y7131846D01*
Y7116850D01*
X1692512Y7109353D01*
X1670020D01*
X1685015D02*
X1700010Y7094358D01*
X1744995D02*
X1715005D01*
X1744995Y7124348D01*
Y7131846D01*
X1737498Y7139343D01*
X1722503D01*
X1715005Y7131846D01*
X1759991D02*
X1767488Y7139343D01*
X1782483D01*
X1789981Y7131846D01*
Y7124348D01*
X1782483Y7116850D01*
X1789981Y7109353D01*
Y7101855D01*
X1782483Y7094358D01*
X1767488D01*
X1759991Y7101855D01*
Y7109353D01*
X1767488Y7116850D01*
X1759991Y7124348D01*
Y7131846D01*
X1767488Y7116850D02*
X1782483D01*
X1467517Y5654358D02*
Y5699343D01*
X1490010D01*
X1497507Y5691846D01*
Y5676850D01*
X1490010Y5669353D01*
X1467517D01*
X1482512D02*
X1497507Y5654358D01*
X1542493D02*
X1512503D01*
X1542493Y5684348D01*
Y5691846D01*
X1534995Y5699343D01*
X1520000D01*
X1512503Y5691846D01*
X1557488Y5699343D02*
X1587478D01*
Y5691846D01*
X1557488Y5661855D01*
Y5654358D01*
X1466594Y6694358D02*
Y6739343D01*
X1489087D01*
X1496585Y6731846D01*
Y6716850D01*
X1489087Y6709353D01*
X1466594D01*
X1481590D02*
X1496585Y6694358D01*
X1541570D02*
X1511580D01*
X1541570Y6724348D01*
Y6731846D01*
X1534072Y6739343D01*
X1519077D01*
X1511580Y6731846D01*
X1586556Y6739343D02*
X1571561Y6731846D01*
X1556565Y6716850D01*
Y6701855D01*
X1564063Y6694358D01*
X1579058D01*
X1586556Y6701855D01*
Y6709353D01*
X1579058Y6716850D01*
X1556565D01*
X1860020Y6774358D02*
Y6819343D01*
X1882512D01*
X1890010Y6811846D01*
Y6796850D01*
X1882512Y6789353D01*
X1860020D01*
X1875015D02*
X1890010Y6774358D01*
X1934995D02*
X1905005D01*
X1934995Y6804348D01*
Y6811846D01*
X1927498Y6819343D01*
X1912503D01*
X1905005Y6811846D01*
X1979981Y6819343D02*
X1949991D01*
Y6796850D01*
X1964986Y6804348D01*
X1972483D01*
X1979981Y6796850D01*
Y6781855D01*
X1972483Y6774358D01*
X1957488D01*
X1949991Y6781855D01*
X1466594Y6854358D02*
Y6899343D01*
X1489087D01*
X1496585Y6891846D01*
Y6876850D01*
X1489087Y6869353D01*
X1466594D01*
X1481590D02*
X1496585Y6854358D01*
X1541570D02*
X1511580D01*
X1541570Y6884348D01*
Y6891846D01*
X1534072Y6899343D01*
X1519077D01*
X1511580Y6891846D01*
X1579058Y6854358D02*
Y6899343D01*
X1556565Y6876850D01*
X1586556D01*
X1467517Y5574358D02*
Y5619343D01*
X1490010D01*
X1497507Y5611846D01*
Y5596850D01*
X1490010Y5589353D01*
X1467517D01*
X1482512D02*
X1497507Y5574358D01*
X1542493D02*
X1512503D01*
X1542493Y5604348D01*
Y5611846D01*
X1534995Y5619343D01*
X1520000D01*
X1512503Y5611846D01*
X1557488D02*
X1564986Y5619343D01*
X1579981D01*
X1587478Y5611846D01*
Y5604348D01*
X1579981Y5596850D01*
X1572483D01*
X1579981D01*
X1587478Y5589353D01*
Y5581855D01*
X1579981Y5574358D01*
X1564986D01*
X1557488Y5581855D01*
X1467517Y5494358D02*
Y5539343D01*
X1490010D01*
X1497507Y5531846D01*
Y5516850D01*
X1490010Y5509353D01*
X1467517D01*
X1482512D02*
X1497507Y5494358D01*
X1542493D02*
X1512503D01*
X1542493Y5524348D01*
Y5531846D01*
X1534995Y5539343D01*
X1520000D01*
X1512503Y5531846D01*
X1587478Y5494358D02*
X1557488D01*
X1587478Y5524348D01*
Y5531846D01*
X1579981Y5539343D01*
X1564986D01*
X1557488Y5531846D01*
X2033558Y6944358D02*
Y6989343D01*
X2056051D01*
X2063548Y6981846D01*
Y6966850D01*
X2056051Y6959353D01*
X2033558D01*
X2048553D02*
X2063548Y6944358D01*
X2108534D02*
X2078543D01*
X2108534Y6974348D01*
Y6981846D01*
X2101036Y6989343D01*
X2086041D01*
X2078543Y6981846D01*
X2123529Y6944358D02*
X2138524D01*
X2131026D01*
Y6989343D01*
X2123529Y6981846D01*
X2018563Y6614358D02*
Y6659343D01*
X2041055D01*
X2048553Y6651846D01*
Y6636850D01*
X2041055Y6629353D01*
X2018563D01*
X2033558D02*
X2048553Y6614358D01*
X2093539D02*
X2063548D01*
X2093539Y6644348D01*
Y6651846D01*
X2086041Y6659343D01*
X2071046D01*
X2063548Y6651846D01*
X2108534D02*
X2116031Y6659343D01*
X2131026D01*
X2138524Y6651846D01*
Y6621855D01*
X2131026Y6614358D01*
X2116031D01*
X2108534Y6621855D01*
Y6651846D01*
X2026060Y6854358D02*
Y6899343D01*
X2048553D01*
X2056051Y6891846D01*
Y6876850D01*
X2048553Y6869353D01*
X2026060D01*
X2041056D02*
X2056051Y6854358D01*
X2071046D02*
X2086041D01*
X2078544D01*
Y6899343D01*
X2071046Y6891846D01*
X2108534Y6861855D02*
X2116031Y6854358D01*
X2131026D01*
X2138524Y6861855D01*
Y6891846D01*
X2131026Y6899343D01*
X2116031D01*
X2108534Y6891846D01*
Y6884348D01*
X2116031Y6876850D01*
X2138524D01*
X2026060Y6534358D02*
Y6579343D01*
X2048553D01*
X2056051Y6571846D01*
Y6556850D01*
X2048553Y6549353D01*
X2026060D01*
X2041056D02*
X2056051Y6534358D01*
X2071046D02*
X2086041D01*
X2078544D01*
Y6579343D01*
X2071046Y6571846D01*
X2108534D02*
X2116031Y6579343D01*
X2131026D01*
X2138524Y6571846D01*
Y6564348D01*
X2131026Y6556850D01*
X2138524Y6549353D01*
Y6541855D01*
X2131026Y6534358D01*
X2116031D01*
X2108534Y6541855D01*
Y6549353D01*
X2116031Y6556850D01*
X2108534Y6564348D01*
Y6571846D01*
X2116031Y6556850D02*
X2131026D01*
X2026060Y6774358D02*
Y6819343D01*
X2048553D01*
X2056051Y6811846D01*
Y6796850D01*
X2048553Y6789353D01*
X2026060D01*
X2041056D02*
X2056051Y6774358D01*
X2071046D02*
X2086041D01*
X2078544D01*
Y6819343D01*
X2071046Y6811846D01*
X2108534Y6819343D02*
X2138524D01*
Y6811846D01*
X2108534Y6781855D01*
Y6774358D01*
X2026060Y6454358D02*
Y6499343D01*
X2048553D01*
X2056051Y6491846D01*
Y6476850D01*
X2048553Y6469353D01*
X2026060D01*
X2041056D02*
X2056051Y6454358D01*
X2071046D02*
X2086041D01*
X2078544D01*
Y6499343D01*
X2071046Y6491846D01*
X2138524Y6499343D02*
X2123529Y6491846D01*
X2108534Y6476850D01*
Y6461855D01*
X2116031Y6454358D01*
X2131026D01*
X2138524Y6461855D01*
Y6469353D01*
X2131026Y6476850D01*
X2108534D01*
X2026060Y6694358D02*
Y6739343D01*
X2048553D01*
X2056051Y6731846D01*
Y6716850D01*
X2048553Y6709353D01*
X2026060D01*
X2041056D02*
X2056051Y6694358D01*
X2071046D02*
X2086041D01*
X2078544D01*
Y6739343D01*
X2071046Y6731846D01*
X2138524Y6739343D02*
X2108534D01*
Y6716850D01*
X2123529Y6724348D01*
X2131026D01*
X2138524Y6716850D01*
Y6701855D01*
X2131026Y6694358D01*
X2116031D01*
X2108534Y6701855D01*
X2026060Y7094358D02*
Y7139343D01*
X2048553D01*
X2056051Y7131846D01*
Y7116850D01*
X2048553Y7109353D01*
X2026060D01*
X2041056D02*
X2056051Y7094358D01*
X2071046D02*
X2086041D01*
X2078544D01*
Y7139343D01*
X2071046Y7131846D01*
X2131026Y7094358D02*
Y7139343D01*
X2108534Y7116850D01*
X2138524D01*
X3270019Y6614358D02*
Y6659343D01*
X3292512D01*
X3300010Y6651846D01*
Y6636850D01*
X3292512Y6629353D01*
X3270019D01*
X3285015D02*
X3300010Y6614358D01*
X3315005D02*
X3330000D01*
X3322503D01*
Y6659343D01*
X3315005Y6651846D01*
X3352493D02*
X3359990Y6659343D01*
X3374986D01*
X3382483Y6651846D01*
Y6644348D01*
X3374986Y6636850D01*
X3367488D01*
X3374986D01*
X3382483Y6629353D01*
Y6621855D01*
X3374986Y6614358D01*
X3359990D01*
X3352493Y6621855D01*
X1860020Y6694358D02*
Y6739343D01*
X1882512D01*
X1890010Y6731846D01*
Y6716850D01*
X1882512Y6709353D01*
X1860020D01*
X1875015D02*
X1890010Y6694358D01*
X1905005D02*
X1920000D01*
X1912503D01*
Y6739343D01*
X1905005Y6731846D01*
X1972483Y6694358D02*
X1942493D01*
X1972483Y6724348D01*
Y6731846D01*
X1964986Y6739343D01*
X1949991D01*
X1942493Y6731846D01*
X2842512Y6374358D02*
Y6419343D01*
X2865005D01*
X2872503Y6411846D01*
Y6396850D01*
X2865005Y6389353D01*
X2842512D01*
X2857507D02*
X2872503Y6374358D01*
X2887498D02*
X2902493D01*
X2894995D01*
Y6419343D01*
X2887498Y6411846D01*
X2924986Y6374358D02*
X2939981D01*
X2932483D01*
Y6419343D01*
X2924986Y6411846D01*
X2427517Y5974358D02*
Y6019343D01*
X2450010D01*
X2457507Y6011846D01*
Y5996850D01*
X2450010Y5989353D01*
X2427517D01*
X2442512D02*
X2457507Y5974358D01*
X2472503D02*
X2487498D01*
X2480000D01*
Y6019343D01*
X2472503Y6011846D01*
X2509990D02*
X2517488Y6019343D01*
X2532483D01*
X2539981Y6011846D01*
Y5981855D01*
X2532483Y5974358D01*
X2517488D01*
X2509990Y5981855D01*
Y6011846D01*
X2465005Y6134358D02*
Y6179343D01*
X2487498D01*
X2494995Y6171846D01*
Y6156850D01*
X2487498Y6149353D01*
X2465005D01*
X2480000D02*
X2494995Y6134358D01*
X2509990Y6141855D02*
X2517488Y6134358D01*
X2532483D01*
X2539981Y6141855D01*
Y6171846D01*
X2532483Y6179343D01*
X2517488D01*
X2509990Y6171846D01*
Y6164348D01*
X2517488Y6156850D01*
X2539981D01*
X2465005Y6054358D02*
Y6099343D01*
X2487498D01*
X2494995Y6091846D01*
Y6076850D01*
X2487498Y6069353D01*
X2465005D01*
X2480000D02*
X2494995Y6054358D01*
X2509990Y6091846D02*
X2517488Y6099343D01*
X2532483D01*
X2539981Y6091846D01*
Y6084348D01*
X2532483Y6076850D01*
X2539981Y6069353D01*
Y6061855D01*
X2532483Y6054358D01*
X2517488D01*
X2509990Y6061855D01*
Y6069353D01*
X2517488Y6076850D01*
X2509990Y6084348D01*
Y6091846D01*
X2517488Y6076850D02*
X2532483D01*
X3463339Y5734358D02*
Y5779343D01*
X3485831D01*
X3493329Y5771846D01*
Y5756850D01*
X3485831Y5749353D01*
X3463339D01*
X3478334D02*
X3493329Y5734358D01*
X3508324Y5779343D02*
X3538315D01*
Y5771846D01*
X3508324Y5741855D01*
Y5734358D01*
X3463339Y6134358D02*
Y6179343D01*
X3485831D01*
X3493329Y6171846D01*
Y6156850D01*
X3485831Y6149353D01*
X3463339D01*
X3478334D02*
X3493329Y6134358D01*
X3538315Y6179343D02*
X3523320Y6171846D01*
X3508324Y6156850D01*
Y6141855D01*
X3515822Y6134358D01*
X3530817D01*
X3538315Y6141855D01*
Y6149353D01*
X3530817Y6156850D01*
X3508324D01*
X2863768Y5254358D02*
Y5299343D01*
X2886261D01*
X2893759Y5291846D01*
Y5276850D01*
X2886261Y5269353D01*
X2863768D01*
X2878764D02*
X2893759Y5254358D01*
X2938744Y5299343D02*
X2908754D01*
Y5276850D01*
X2923749Y5284348D01*
X2931247D01*
X2938744Y5276850D01*
Y5261855D01*
X2931247Y5254358D01*
X2916251D01*
X2908754Y5261855D01*
X3463339Y6214358D02*
Y6259343D01*
X3485831D01*
X3493329Y6251846D01*
Y6236850D01*
X3485831Y6229353D01*
X3463339D01*
X3478334D02*
X3493329Y6214358D01*
X3530817D02*
Y6259343D01*
X3508324Y6236850D01*
X3538315D01*
X3262512Y5974358D02*
Y6019343D01*
X3285005D01*
X3292503Y6011846D01*
Y5996850D01*
X3285005Y5989353D01*
X3262512D01*
X3277507D02*
X3292503Y5974358D01*
X3307498Y6011846D02*
X3314995Y6019343D01*
X3329990D01*
X3337488Y6011846D01*
Y6004348D01*
X3329990Y5996850D01*
X3322493D01*
X3329990D01*
X3337488Y5989353D01*
Y5981855D01*
X3329990Y5974358D01*
X3314995D01*
X3307498Y5981855D01*
X853336Y6064358D02*
Y6109343D01*
X875828D01*
X883326Y6101846D01*
Y6086850D01*
X875828Y6079353D01*
X853336D01*
X868331D02*
X883326Y6064358D01*
X928312D02*
X898321D01*
X928312Y6094348D01*
Y6101846D01*
X920814Y6109343D01*
X905819D01*
X898321Y6101846D01*
X868331Y6134358D02*
Y6179343D01*
X890823D01*
X898321Y6171846D01*
Y6156850D01*
X890823Y6149353D01*
X868331D01*
X883326D02*
X898321Y6134358D01*
X913316D02*
X928312D01*
X920814D01*
Y6179343D01*
X913316Y6171846D01*
X875005Y6541855D02*
Y6571846D01*
X867507Y6579343D01*
X852512D01*
X845015Y6571846D01*
Y6541855D01*
X852512Y6534358D01*
X867507D01*
X860010Y6549353D02*
X875005Y6534358D01*
X867507D02*
X875005Y6541855D01*
X919990Y6534358D02*
X890000D01*
X919990Y6564348D01*
Y6571846D01*
X912493Y6579343D01*
X897498D01*
X890000Y6571846D01*
X890000Y6941855D02*
Y6971846D01*
X882503Y6979343D01*
X867507D01*
X860010Y6971846D01*
Y6941855D01*
X867507Y6934358D01*
X882503D01*
X875005Y6949353D02*
X890000Y6934358D01*
X882503D02*
X890000Y6941855D01*
X904995Y6934358D02*
X919990D01*
X912493D01*
Y6979343D01*
X904995Y6971846D01*
X1110010Y5334358D02*
Y5379343D01*
X1132503D01*
X1140000Y5371846D01*
Y5356850D01*
X1132503Y5349353D01*
X1110010D01*
X1154995Y5334358D02*
X1169991D01*
X1162493D01*
Y5379343D01*
X1154995Y5371846D01*
X3270019Y6579343D02*
Y6534358D01*
X3300010D01*
X3344995Y6579343D02*
X3330000Y6571846D01*
X3315005Y6556850D01*
Y6541855D01*
X3322503Y6534358D01*
X3337498D01*
X3344995Y6541855D01*
Y6549353D01*
X3337498Y6556850D01*
X3315005D01*
X3463339Y5699343D02*
Y5654358D01*
X3493329D01*
X3538315Y5699343D02*
X3508324D01*
Y5676850D01*
X3523320Y5684348D01*
X3530817D01*
X3538315Y5676850D01*
Y5661855D01*
X3530817Y5654358D01*
X3515822D01*
X3508324Y5661855D01*
X3463339Y5539343D02*
Y5494358D01*
X3493329D01*
X3530817D02*
Y5539343D01*
X3508324Y5516850D01*
X3538315D01*
X2662512Y5619343D02*
Y5574358D01*
X2692503D01*
X2707498Y5611846D02*
X2714995Y5619343D01*
X2729990D01*
X2737488Y5611846D01*
Y5604348D01*
X2729990Y5596850D01*
X2722493D01*
X2729990D01*
X2737488Y5589353D01*
Y5581855D01*
X2729990Y5574358D01*
X2714995D01*
X2707498Y5581855D01*
X2662512Y5859343D02*
Y5814358D01*
X2692503D01*
X2737488D02*
X2707498D01*
X2737488Y5844348D01*
Y5851846D01*
X2729990Y5859343D01*
X2714995D01*
X2707498Y5851846D01*
X570010Y6229343D02*
Y6184358D01*
X600000D01*
X614995D02*
X629990D01*
X622493D01*
Y6229343D01*
X614995Y6221846D01*
X853336Y6739343D02*
Y6694358D01*
X875828D01*
X883326Y6701855D01*
Y6731846D01*
X875828Y6739343D01*
X853336D01*
X898321Y6731846D02*
X905819Y6739343D01*
X920814D01*
X928312Y6731846D01*
Y6724348D01*
X920814Y6716850D01*
X913316D01*
X920814D01*
X928312Y6709353D01*
Y6701855D01*
X920814Y6694358D01*
X905819D01*
X898321Y6701855D01*
X1160010Y5539343D02*
Y5494358D01*
X1182503D01*
X1190000Y5501855D01*
Y5531846D01*
X1182503Y5539343D01*
X1160010D01*
X1204995Y5494358D02*
X1219991D01*
X1212493D01*
Y5539343D01*
X1204995Y5531846D01*
X440010Y7201846D02*
X432512Y7209343D01*
X417517D01*
X410019Y7201846D01*
Y7171855D01*
X417517Y7164358D01*
X432512D01*
X440010Y7171855D01*
X455005Y7164358D02*
Y7209343D01*
X484995Y7164358D01*
Y7209343D01*
X529981D02*
X499990D01*
Y7186850D01*
X514986Y7194348D01*
X522483D01*
X529981Y7186850D01*
Y7171855D01*
X522483Y7164358D01*
X507488D01*
X499990Y7171855D01*
X1515443Y7206846D02*
X1507945Y7214343D01*
X1492950D01*
X1485453Y7206846D01*
Y7176855D01*
X1492950Y7169358D01*
X1507945D01*
X1515443Y7176855D01*
X1530438Y7169358D02*
Y7214343D01*
X1560428Y7169358D01*
Y7214343D01*
X1597916Y7169358D02*
Y7214343D01*
X1575424Y7191850D01*
X1605414D01*
X1170010Y6571846D02*
X1162512Y6579343D01*
X1147517D01*
X1140020Y6571846D01*
Y6541855D01*
X1147517Y6534358D01*
X1162512D01*
X1170010Y6541855D01*
X1185005Y6534358D02*
Y6579343D01*
X1214995Y6534358D01*
Y6579343D01*
X1229991Y6571846D02*
X1237488Y6579343D01*
X1252483D01*
X1259981Y6571846D01*
Y6564348D01*
X1252483Y6556850D01*
X1244986D01*
X1252483D01*
X1259981Y6549353D01*
Y6541855D01*
X1252483Y6534358D01*
X1237488D01*
X1229991Y6541855D01*
X2276309Y7206846D02*
X2268811Y7214343D01*
X2253816D01*
X2246319Y7206846D01*
Y7176855D01*
X2253816Y7169358D01*
X2268811D01*
X2276309Y7176855D01*
X2291304Y7169358D02*
Y7214343D01*
X2321294Y7169358D01*
Y7214343D01*
X2366280Y7169358D02*
X2336290D01*
X2366280Y7199348D01*
Y7206846D01*
X2358782Y7214343D01*
X2343787D01*
X2336290Y7206846D01*
X2170010Y5361846D02*
X2162512Y5369343D01*
X2147517D01*
X2140019Y5361846D01*
Y5331855D01*
X2147517Y5324358D01*
X2162512D01*
X2170010Y5331855D01*
X2207498Y5324358D02*
Y5369343D01*
X2185005Y5346850D01*
X2214995D01*
X2259981Y5369343D02*
X2229990D01*
Y5346850D01*
X2244986Y5354348D01*
X2252483D01*
X2259981Y5346850D01*
Y5331855D01*
X2252483Y5324358D01*
X2237488D01*
X2229990Y5331855D01*
X1440010Y5291846D02*
X1432512Y5299343D01*
X1417517D01*
X1410020Y5291846D01*
Y5261855D01*
X1417517Y5254358D01*
X1432512D01*
X1440010Y5261855D01*
X1477498Y5254358D02*
Y5299343D01*
X1455005Y5276850D01*
X1484995D01*
X1522483Y5254358D02*
Y5299343D01*
X1499991Y5276850D01*
X1529981D01*
X1760010Y5361846D02*
X1752512Y5369343D01*
X1737517D01*
X1730020Y5361846D01*
Y5331855D01*
X1737517Y5324358D01*
X1752512D01*
X1760010Y5331855D01*
X1797498Y5324358D02*
Y5369343D01*
X1775005Y5346850D01*
X1804995D01*
X1819991Y5361846D02*
X1827488Y5369343D01*
X1842483D01*
X1849981Y5361846D01*
Y5354348D01*
X1842483Y5346850D01*
X1834986D01*
X1842483D01*
X1849981Y5339353D01*
Y5331855D01*
X1842483Y5324358D01*
X1827488D01*
X1819991Y5331855D01*
X1440010Y5451846D02*
X1432512Y5459343D01*
X1417517D01*
X1410020Y5451846D01*
Y5421855D01*
X1417517Y5414358D01*
X1432512D01*
X1440010Y5421855D01*
X1477498Y5414358D02*
Y5459343D01*
X1455005Y5436850D01*
X1484995D01*
X1529981Y5414358D02*
X1499991D01*
X1529981Y5444348D01*
Y5451846D01*
X1522483Y5459343D01*
X1507488D01*
X1499991Y5451846D01*
X1497507Y5771846D02*
X1490010Y5779343D01*
X1475015D01*
X1467517Y5771846D01*
Y5741855D01*
X1475015Y5734358D01*
X1490010D01*
X1497507Y5741855D01*
X1534995Y5734358D02*
Y5779343D01*
X1512503Y5756850D01*
X1542493D01*
X1557488Y5734358D02*
X1572483D01*
X1564986D01*
Y5779343D01*
X1557488Y5771846D01*
X2370010Y5521846D02*
X2362512Y5529343D01*
X2347517D01*
X2340019Y5521846D01*
Y5491855D01*
X2347517Y5484358D01*
X2362512D01*
X2370010Y5491855D01*
X2407498Y5484358D02*
Y5529343D01*
X2385005Y5506850D01*
X2414995D01*
X2429990Y5521846D02*
X2437488Y5529343D01*
X2452483D01*
X2459981Y5521846D01*
Y5491855D01*
X2452483Y5484358D01*
X2437488D01*
X2429990Y5491855D01*
Y5521846D01*
X2370010Y5301846D02*
X2362512Y5309343D01*
X2347517D01*
X2340019Y5301846D01*
Y5271855D01*
X2347517Y5264358D01*
X2362512D01*
X2370010Y5271855D01*
X2385005Y5301846D02*
X2392503Y5309343D01*
X2407498D01*
X2414995Y5301846D01*
Y5294348D01*
X2407498Y5286850D01*
X2400000D01*
X2407498D01*
X2414995Y5279353D01*
Y5271855D01*
X2407498Y5264358D01*
X2392503D01*
X2385005Y5271855D01*
X2429990D02*
X2437488Y5264358D01*
X2452483D01*
X2459981Y5271855D01*
Y5301846D01*
X2452483Y5309343D01*
X2437488D01*
X2429990Y5301846D01*
Y5294348D01*
X2437488Y5286850D01*
X2459981D01*
X1890010Y6571846D02*
X1882512Y6579343D01*
X1867517D01*
X1860020Y6571846D01*
Y6541855D01*
X1867517Y6534358D01*
X1882512D01*
X1890010Y6541855D01*
X1905005Y6571846D02*
X1912503Y6579343D01*
X1927498D01*
X1934995Y6571846D01*
Y6564348D01*
X1927498Y6556850D01*
X1920000D01*
X1927498D01*
X1934995Y6549353D01*
Y6541855D01*
X1927498Y6534358D01*
X1912503D01*
X1905005Y6541855D01*
X1949991Y6571846D02*
X1957488Y6579343D01*
X1972483D01*
X1979981Y6571846D01*
Y6564348D01*
X1972483Y6556850D01*
X1979981Y6549353D01*
Y6541855D01*
X1972483Y6534358D01*
X1957488D01*
X1949991Y6541855D01*
Y6549353D01*
X1957488Y6556850D01*
X1949991Y6564348D01*
Y6571846D01*
X1957488Y6556850D02*
X1972483D01*
X2450010Y6251846D02*
X2442512Y6259343D01*
X2427517D01*
X2420019Y6251846D01*
Y6221855D01*
X2427517Y6214358D01*
X2442512D01*
X2450010Y6221855D01*
X2465005Y6251846D02*
X2472503Y6259343D01*
X2487498D01*
X2494995Y6251846D01*
Y6244348D01*
X2487498Y6236850D01*
X2480000D01*
X2487498D01*
X2494995Y6229353D01*
Y6221855D01*
X2487498Y6214358D01*
X2472503D01*
X2465005Y6221855D01*
X2509990Y6259343D02*
X2539981D01*
Y6251846D01*
X2509990Y6221855D01*
Y6214358D01*
X1890010Y6491846D02*
X1882512Y6499343D01*
X1867517D01*
X1860020Y6491846D01*
Y6461855D01*
X1867517Y6454358D01*
X1882512D01*
X1890010Y6461855D01*
X1905005Y6491846D02*
X1912503Y6499343D01*
X1927498D01*
X1934995Y6491846D01*
Y6484348D01*
X1927498Y6476850D01*
X1920000D01*
X1927498D01*
X1934995Y6469353D01*
Y6461855D01*
X1927498Y6454358D01*
X1912503D01*
X1905005Y6461855D01*
X1979981Y6499343D02*
X1964986Y6491846D01*
X1949991Y6476850D01*
Y6461855D01*
X1957488Y6454358D01*
X1972483D01*
X1979981Y6461855D01*
Y6469353D01*
X1972483Y6476850D01*
X1949991D01*
X2450010Y5771846D02*
X2442512Y5779343D01*
X2427517D01*
X2420019Y5771846D01*
Y5741855D01*
X2427517Y5734358D01*
X2442512D01*
X2450010Y5741855D01*
X2465005Y5771846D02*
X2472503Y5779343D01*
X2487498D01*
X2494995Y5771846D01*
Y5764348D01*
X2487498Y5756850D01*
X2480000D01*
X2487498D01*
X2494995Y5749353D01*
Y5741855D01*
X2487498Y5734358D01*
X2472503D01*
X2465005Y5741855D01*
X2539981Y5779343D02*
X2509990D01*
Y5756850D01*
X2524986Y5764348D01*
X2532483D01*
X2539981Y5756850D01*
Y5741855D01*
X2532483Y5734358D01*
X2517488D01*
X2509990Y5741855D01*
X1770010Y5521846D02*
X1762512Y5529343D01*
X1747517D01*
X1740020Y5521846D01*
Y5491855D01*
X1747517Y5484358D01*
X1762512D01*
X1770010Y5491855D01*
X1785005Y5521846D02*
X1792503Y5529343D01*
X1807498D01*
X1814995Y5521846D01*
Y5514348D01*
X1807498Y5506850D01*
X1800000D01*
X1807498D01*
X1814995Y5499353D01*
Y5491855D01*
X1807498Y5484358D01*
X1792503D01*
X1785005Y5491855D01*
X1852483Y5484358D02*
Y5529343D01*
X1829991Y5506850D01*
X1859981D01*
X1496585Y6811846D02*
X1489087Y6819343D01*
X1474092D01*
X1466594Y6811846D01*
Y6781855D01*
X1474092Y6774358D01*
X1489087D01*
X1496585Y6781855D01*
X1511580Y6811846D02*
X1519077Y6819343D01*
X1534072D01*
X1541570Y6811846D01*
Y6804348D01*
X1534072Y6796850D01*
X1526575D01*
X1534072D01*
X1541570Y6789353D01*
Y6781855D01*
X1534072Y6774358D01*
X1519077D01*
X1511580Y6781855D01*
X1556565Y6811846D02*
X1564063Y6819343D01*
X1579058D01*
X1586556Y6811846D01*
Y6804348D01*
X1579058Y6796850D01*
X1571561D01*
X1579058D01*
X1586556Y6789353D01*
Y6781855D01*
X1579058Y6774358D01*
X1564063D01*
X1556565Y6781855D01*
X2690010Y7491846D02*
X2682512Y7499343D01*
X2667517D01*
X2660019Y7491846D01*
Y7461855D01*
X2667517Y7454358D01*
X2682512D01*
X2690010Y7461855D01*
X2705005Y7491846D02*
X2712503Y7499343D01*
X2727498D01*
X2734995Y7491846D01*
Y7484348D01*
X2727498Y7476850D01*
X2720000D01*
X2727498D01*
X2734995Y7469353D01*
Y7461855D01*
X2727498Y7454358D01*
X2712503D01*
X2705005Y7461855D01*
X2779981Y7454358D02*
X2749990D01*
X2779981Y7484348D01*
Y7491846D01*
X2772483Y7499343D01*
X2757488D01*
X2749990Y7491846D01*
X2887507D02*
X2880010Y7499343D01*
X2865015D01*
X2857517Y7491846D01*
Y7461855D01*
X2865015Y7454358D01*
X2880010D01*
X2887507Y7461855D01*
X2902503Y7491846D02*
X2910000Y7499343D01*
X2924995D01*
X2932493Y7491846D01*
Y7484348D01*
X2924995Y7476850D01*
X2917498D01*
X2924995D01*
X2932493Y7469353D01*
Y7461855D01*
X2924995Y7454358D01*
X2910000D01*
X2902503Y7461855D01*
X2947488Y7454358D02*
X2962483D01*
X2954986D01*
Y7499343D01*
X2947488Y7491846D01*
X3300010Y6411846D02*
X3292512Y6419343D01*
X3277517D01*
X3270019Y6411846D01*
Y6381855D01*
X3277517Y6374358D01*
X3292512D01*
X3300010Y6381855D01*
X3315005Y6411846D02*
X3322503Y6419343D01*
X3337498D01*
X3344995Y6411846D01*
Y6404348D01*
X3337498Y6396850D01*
X3330000D01*
X3337498D01*
X3344995Y6389353D01*
Y6381855D01*
X3337498Y6374358D01*
X3322503D01*
X3315005Y6381855D01*
X3359990Y6411846D02*
X3367488Y6419343D01*
X3382483D01*
X3389981Y6411846D01*
Y6381855D01*
X3382483Y6374358D01*
X3367488D01*
X3359990Y6381855D01*
Y6411846D01*
X3300010Y6491846D02*
X3292512Y6499343D01*
X3277517D01*
X3270019Y6491846D01*
Y6461855D01*
X3277517Y6454358D01*
X3292512D01*
X3300010Y6461855D01*
X3344995Y6454358D02*
X3315005D01*
X3344995Y6484348D01*
Y6491846D01*
X3337498Y6499343D01*
X3322503D01*
X3315005Y6491846D01*
X3359990Y6461855D02*
X3367488Y6454358D01*
X3382483D01*
X3389981Y6461855D01*
Y6491846D01*
X3382483Y6499343D01*
X3367488D01*
X3359990Y6491846D01*
Y6484348D01*
X3367488Y6476850D01*
X3389981D01*
X2330010Y6991846D02*
X2322512Y6999343D01*
X2307517D01*
X2300019Y6991846D01*
Y6961855D01*
X2307517Y6954358D01*
X2322512D01*
X2330010Y6961855D01*
X2374995Y6954358D02*
X2345005D01*
X2374995Y6984348D01*
Y6991846D01*
X2367498Y6999343D01*
X2352503D01*
X2345005Y6991846D01*
X2389990D02*
X2397488Y6999343D01*
X2412483D01*
X2419981Y6991846D01*
Y6984348D01*
X2412483Y6976850D01*
X2419981Y6969353D01*
Y6961855D01*
X2412483Y6954358D01*
X2397488D01*
X2389990Y6961855D01*
Y6969353D01*
X2397488Y6976850D01*
X2389990Y6984348D01*
Y6991846D01*
X2397488Y6976850D02*
X2412483D01*
X2330010Y6911846D02*
X2322512Y6919343D01*
X2307517D01*
X2300019Y6911846D01*
Y6881855D01*
X2307517Y6874358D01*
X2322512D01*
X2330010Y6881855D01*
X2374995Y6874358D02*
X2345005D01*
X2374995Y6904348D01*
Y6911846D01*
X2367498Y6919343D01*
X2352503D01*
X2345005Y6911846D01*
X2389990Y6919343D02*
X2419981D01*
Y6911846D01*
X2389990Y6881855D01*
Y6874358D01*
X2970010Y6721846D02*
X2962512Y6729343D01*
X2947517D01*
X2940019Y6721846D01*
Y6691855D01*
X2947517Y6684358D01*
X2962512D01*
X2970010Y6691855D01*
X3014995Y6684358D02*
X2985005D01*
X3014995Y6714348D01*
Y6721846D01*
X3007498Y6729343D01*
X2992503D01*
X2985005Y6721846D01*
X3059981Y6729343D02*
X3044986Y6721846D01*
X3029990Y6706850D01*
Y6691855D01*
X3037488Y6684358D01*
X3052483D01*
X3059981Y6691855D01*
Y6699353D01*
X3052483Y6706850D01*
X3029990D01*
X2850010Y6571846D02*
X2842512Y6579343D01*
X2827517D01*
X2820019Y6571846D01*
Y6541855D01*
X2827517Y6534358D01*
X2842512D01*
X2850010Y6541855D01*
X2894995Y6534358D02*
X2865005D01*
X2894995Y6564348D01*
Y6571846D01*
X2887498Y6579343D01*
X2872503D01*
X2865005Y6571846D01*
X2939981Y6579343D02*
X2909990D01*
Y6556850D01*
X2924986Y6564348D01*
X2932483D01*
X2939981Y6556850D01*
Y6541855D01*
X2932483Y6534358D01*
X2917488D01*
X2909990Y6541855D01*
X2850010Y6491846D02*
X2842512Y6499343D01*
X2827517D01*
X2820019Y6491846D01*
Y6461855D01*
X2827517Y6454358D01*
X2842512D01*
X2850010Y6461855D01*
X2894995Y6454358D02*
X2865005D01*
X2894995Y6484348D01*
Y6491846D01*
X2887498Y6499343D01*
X2872503D01*
X2865005Y6491846D01*
X2932483Y6454358D02*
Y6499343D01*
X2909990Y6476850D01*
X2939981D01*
X3310010Y5291846D02*
X3302512Y5299343D01*
X3287517D01*
X3280019Y5291846D01*
Y5261855D01*
X3287517Y5254358D01*
X3302512D01*
X3310010Y5261855D01*
X3354995Y5254358D02*
X3325005D01*
X3354995Y5284348D01*
Y5291846D01*
X3347498Y5299343D01*
X3332503D01*
X3325005Y5291846D01*
X3369990D02*
X3377488Y5299343D01*
X3392483D01*
X3399981Y5291846D01*
Y5284348D01*
X3392483Y5276850D01*
X3384986D01*
X3392483D01*
X3399981Y5269353D01*
Y5261855D01*
X3392483Y5254358D01*
X3377488D01*
X3369990Y5261855D01*
X3010010Y5291846D02*
X3002512Y5299343D01*
X2987517D01*
X2980019Y5291846D01*
Y5261855D01*
X2987517Y5254358D01*
X3002512D01*
X3010010Y5261855D01*
X3054995Y5254358D02*
X3025005D01*
X3054995Y5284348D01*
Y5291846D01*
X3047498Y5299343D01*
X3032503D01*
X3025005Y5291846D01*
X3099981Y5254358D02*
X3069990D01*
X3099981Y5284348D01*
Y5291846D01*
X3092483Y5299343D01*
X3077488D01*
X3069990Y5291846D01*
X3463339Y5851846D02*
X3455841Y5859343D01*
X3440846D01*
X3433348Y5851846D01*
Y5821855D01*
X3440846Y5814358D01*
X3455841D01*
X3463339Y5821855D01*
X3508324Y5814358D02*
X3478334D01*
X3508324Y5844348D01*
Y5851846D01*
X3500827Y5859343D01*
X3485831D01*
X3478334Y5851846D01*
X3523319Y5814358D02*
X3538315D01*
X3530817D01*
Y5859343D01*
X3523319Y5851846D01*
X3448344Y6011846D02*
X3440846Y6019343D01*
X3425851D01*
X3418353Y6011846D01*
Y5981855D01*
X3425851Y5974358D01*
X3440846D01*
X3448344Y5981855D01*
X3493329Y5974358D02*
X3463339D01*
X3493329Y6004348D01*
Y6011846D01*
X3485831Y6019343D01*
X3470836D01*
X3463339Y6011846D01*
X3508324D02*
X3515822Y6019343D01*
X3530817D01*
X3538315Y6011846D01*
Y5981855D01*
X3530817Y5974358D01*
X3515822D01*
X3508324Y5981855D01*
Y6011846D01*
X3455841Y6091846D02*
X3448344Y6099343D01*
X3433349D01*
X3425851Y6091846D01*
Y6061855D01*
X3433349Y6054358D01*
X3448344D01*
X3455841Y6061855D01*
X3470836Y6054358D02*
X3485832D01*
X3478334D01*
Y6099343D01*
X3470836Y6091846D01*
X3508324Y6061855D02*
X3515822Y6054358D01*
X3530817D01*
X3538315Y6061855D01*
Y6091846D01*
X3530817Y6099343D01*
X3515822D01*
X3508324Y6091846D01*
Y6084348D01*
X3515822Y6076850D01*
X3538315D01*
X3455841Y5931846D02*
X3448344Y5939343D01*
X3433349D01*
X3425851Y5931846D01*
Y5901855D01*
X3433349Y5894358D01*
X3448344D01*
X3455841Y5901855D01*
X3470836Y5894358D02*
X3485832D01*
X3478334D01*
Y5939343D01*
X3470836Y5931846D01*
X3508324D02*
X3515822Y5939343D01*
X3530817D01*
X3538315Y5931846D01*
Y5924348D01*
X3530817Y5916850D01*
X3538315Y5909353D01*
Y5901855D01*
X3530817Y5894358D01*
X3515822D01*
X3508324Y5901855D01*
Y5909353D01*
X3515822Y5916850D01*
X3508324Y5924348D01*
Y5931846D01*
X3515822Y5916850D02*
X3530817D01*
X2893759Y5371846D02*
X2886261Y5379343D01*
X2871266D01*
X2863768Y5371846D01*
Y5341855D01*
X2871266Y5334358D01*
X2886261D01*
X2893759Y5341855D01*
X2908754Y5334358D02*
X2923749D01*
X2916251D01*
Y5379343D01*
X2908754Y5371846D01*
X2946242Y5379343D02*
X2976232D01*
Y5371846D01*
X2946242Y5341855D01*
Y5334358D01*
X3455841Y5291846D02*
X3448344Y5299343D01*
X3433349D01*
X3425851Y5291846D01*
Y5261855D01*
X3433349Y5254358D01*
X3448344D01*
X3455841Y5261855D01*
X3470836Y5254358D02*
X3485832D01*
X3478334D01*
Y5299343D01*
X3470836Y5291846D01*
X3538315Y5299343D02*
X3523320Y5291846D01*
X3508324Y5276850D01*
Y5261855D01*
X3515822Y5254358D01*
X3530817D01*
X3538315Y5261855D01*
Y5269353D01*
X3530817Y5276850D01*
X3508324D01*
X3455841Y5451846D02*
X3448344Y5459343D01*
X3433349D01*
X3425851Y5451846D01*
Y5421855D01*
X3433349Y5414358D01*
X3448344D01*
X3455841Y5421855D01*
X3470836Y5414358D02*
X3485832D01*
X3478334D01*
Y5459343D01*
X3470836Y5451846D01*
X3538315Y5459343D02*
X3508324D01*
Y5436850D01*
X3523320Y5444348D01*
X3530817D01*
X3538315Y5436850D01*
Y5421855D01*
X3530817Y5414358D01*
X3515822D01*
X3508324Y5421855D01*
X3455841Y5611846D02*
X3448344Y5619343D01*
X3433349D01*
X3425851Y5611846D01*
Y5581855D01*
X3433349Y5574358D01*
X3448344D01*
X3455841Y5581855D01*
X3470836Y5574358D02*
X3485832D01*
X3478334D01*
Y5619343D01*
X3470836Y5611846D01*
X3530817Y5574358D02*
Y5619343D01*
X3508324Y5596850D01*
X3538315D01*
X3455841Y5371846D02*
X3448344Y5379343D01*
X3433349D01*
X3425851Y5371846D01*
Y5341855D01*
X3433349Y5334358D01*
X3448344D01*
X3455841Y5341855D01*
X3470836Y5334358D02*
X3485832D01*
X3478334D01*
Y5379343D01*
X3470836Y5371846D01*
X3508324D02*
X3515822Y5379343D01*
X3530817D01*
X3538315Y5371846D01*
Y5364348D01*
X3530817Y5356850D01*
X3523320D01*
X3530817D01*
X3538315Y5349353D01*
Y5341855D01*
X3530817Y5334358D01*
X3515822D01*
X3508324Y5341855D01*
X3292503Y5931846D02*
X3285005Y5939343D01*
X3270010D01*
X3262512Y5931846D01*
Y5901855D01*
X3270010Y5894358D01*
X3285005D01*
X3292503Y5901855D01*
X3307498Y5894358D02*
X3322493D01*
X3314995D01*
Y5939343D01*
X3307498Y5931846D01*
X3374976Y5894358D02*
X3344986D01*
X3374976Y5924348D01*
Y5931846D01*
X3367478Y5939343D01*
X3352483D01*
X3344986Y5931846D01*
X2872506D02*
X2865008Y5939343D01*
X2850013D01*
X2842515Y5931846D01*
Y5901855D01*
X2850013Y5894358D01*
X2865008D01*
X2872506Y5901855D01*
X2887501Y5894358D02*
X2902496D01*
X2894999D01*
Y5939343D01*
X2887501Y5931846D01*
X2924989Y5894358D02*
X2939984D01*
X2932486D01*
Y5939343D01*
X2924989Y5931846D01*
X2893759Y5451846D02*
X2886261Y5459343D01*
X2871266D01*
X2863768Y5451846D01*
Y5421855D01*
X2871266Y5414358D01*
X2886261D01*
X2893759Y5421855D01*
X2908754Y5414358D02*
X2923749D01*
X2916251D01*
Y5459343D01*
X2908754Y5451846D01*
X2946242D02*
X2953739Y5459343D01*
X2968734D01*
X2976232Y5451846D01*
Y5421855D01*
X2968734Y5414358D01*
X2953739D01*
X2946242Y5421855D01*
Y5451846D01*
X2692503Y5531846D02*
X2685005Y5539343D01*
X2670010D01*
X2662512Y5531846D01*
Y5501855D01*
X2670010Y5494358D01*
X2685005D01*
X2692503Y5501855D01*
X2707498D02*
X2714995Y5494358D01*
X2729990D01*
X2737488Y5501855D01*
Y5531846D01*
X2729990Y5539343D01*
X2714995D01*
X2707498Y5531846D01*
Y5524348D01*
X2714995Y5516850D01*
X2737488D01*
X2692503Y5691846D02*
X2685005Y5699343D01*
X2670010D01*
X2662512Y5691846D01*
Y5661855D01*
X2670010Y5654358D01*
X2685005D01*
X2692503Y5661855D01*
X2707498Y5691846D02*
X2714995Y5699343D01*
X2729990D01*
X2737488Y5691846D01*
Y5684348D01*
X2729990Y5676850D01*
X2737488Y5669353D01*
Y5661855D01*
X2729990Y5654358D01*
X2714995D01*
X2707498Y5661855D01*
Y5669353D01*
X2714995Y5676850D01*
X2707498Y5684348D01*
Y5691846D01*
X2714995Y5676850D02*
X2729990D01*
X2692503Y5771846D02*
X2685005Y5779343D01*
X2670010D01*
X2662512Y5771846D01*
Y5741855D01*
X2670010Y5734358D01*
X2685005D01*
X2692503Y5741855D01*
X2707498Y5779343D02*
X2737488D01*
Y5771846D01*
X2707498Y5741855D01*
Y5734358D01*
X3292503Y6091846D02*
X3285005Y6099343D01*
X3270010D01*
X3262512Y6091846D01*
Y6061855D01*
X3270010Y6054358D01*
X3285005D01*
X3292503Y6061855D01*
X3337488Y6099343D02*
X3322493Y6091846D01*
X3307498Y6076850D01*
Y6061855D01*
X3314995Y6054358D01*
X3329990D01*
X3337488Y6061855D01*
Y6069353D01*
X3329990Y6076850D01*
X3307498D01*
X2894999Y6011846D02*
X2887501Y6019343D01*
X2872506D01*
X2865008Y6011846D01*
Y5981855D01*
X2872506Y5974358D01*
X2887501D01*
X2894999Y5981855D01*
X2939984Y6019343D02*
X2909994D01*
Y5996850D01*
X2924989Y6004348D01*
X2932486D01*
X2939984Y5996850D01*
Y5981855D01*
X2932486Y5974358D01*
X2917491D01*
X2909994Y5981855D01*
X852503Y5971846D02*
X845005Y5979343D01*
X830010D01*
X822512Y5971846D01*
Y5941855D01*
X830010Y5934358D01*
X845005D01*
X852503Y5941855D01*
X889990Y5934358D02*
Y5979343D01*
X867498Y5956850D01*
X897488D01*
X557498Y5491846D02*
X550000Y5499343D01*
X535005D01*
X527507Y5491846D01*
Y5461855D01*
X535005Y5454358D01*
X550000D01*
X557498Y5461855D01*
X572493Y5454358D02*
X587488D01*
X579990D01*
Y5499343D01*
X572493Y5491846D01*
X807517Y7179343D02*
Y7134358D01*
X830010D01*
X837507Y7141855D01*
Y7149353D01*
X830010Y7156850D01*
X807517D01*
X830010D01*
X837507Y7164348D01*
Y7171846D01*
X830010Y7179343D01*
X807517D01*
X852503D02*
X882493D01*
Y7171846D01*
X852503Y7141855D01*
Y7134358D01*
X882493D01*
X897488D02*
X912483D01*
X904986D01*
Y7179343D01*
X897488Y7171846D01*
G54D66*
X2784567Y1990945D02*
X2855433D01*
X2784567Y2109055D02*
X2855433D01*
X2721575Y2038189D02*
Y2061811D01*
X2918425Y2038189D02*
Y2061811D01*
X2098425Y118189D02*
Y141811D01*
X1901575Y118189D02*
Y141811D01*
X1964567Y189055D02*
X2035433D01*
X1964567Y70945D02*
X2035433D01*
X3137008Y225000D02*
X3262992D01*
X3137008Y95000D02*
X3262992D01*
X2784567Y4589370D02*
X2855433D01*
X2784567Y4707480D02*
X2855433D01*
X2721575Y4636614D02*
Y4660236D01*
X2918425Y4636614D02*
Y4660236D01*
X2098425Y2716614D02*
Y2740236D01*
X1901575Y2716614D02*
Y2740236D01*
X1964567Y2787480D02*
X2035433D01*
X1964567Y2669370D02*
X2035433D01*
X3137008Y2823425D02*
X3262992D01*
X3137008Y2693425D02*
X3262992D01*
X2784567Y7187795D02*
X2855433D01*
X2784567Y7305905D02*
X2855433D01*
X2721575Y7235039D02*
Y7258661D01*
X2918425Y7235039D02*
Y7258661D01*
X2098425Y5315039D02*
Y5338661D01*
X1901575Y5315039D02*
Y5338661D01*
X1964567Y5385905D02*
X2035433D01*
X1964567Y5267795D02*
X2035433D01*
X3137008Y5421850D02*
X3262992D01*
X3137008Y5291850D02*
X3262992D01*
G54D67*
X1060000Y270000D02*
D03*
Y370000D02*
D03*
X749999Y210000D02*
D03*
Y110000D02*
D03*
X1060000Y2868425D02*
D03*
Y2968425D02*
D03*
X749999Y2808425D02*
D03*
Y2708425D02*
D03*
X1060000Y5466850D02*
D03*
Y5566850D02*
D03*
X749999Y5406850D02*
D03*
Y5306850D02*
D03*
M02*
