M48
;Layer_Color=9474304
;FILE_FORMAT=2:5
INCH,LZ
;TYPE=NON_PLATED
T10F00S00C0.11811
T11F00S00C0.12835
T12F00S00C0.15748
%
T10
X0259842Y0015748
X0015748Y0047244
Y0192913
X0187008Y0220472
X0259842Y027559
X0366142Y0149606
Y0409449
X0015748Y0307087
Y0452756
Y0566929
X0187008Y0480315
X0259842Y0535433
X0366142Y0669291
X0187008Y0740158
X0015748Y0712598
T11
X0319504Y0206008
X0364504
X0319504Y046585
X0364504
Y0725693
X0319504
T12
X0551181Y-0012795
X0019685
M30
