M48
;Layer_Color=9474304
;FILE_FORMAT=2:5
INCH,LZ
;TYPE=PLATED
T1F00S00C0.01600
T2F00S00C0.03543
T3F00S00C0.03819
T4F00S00C0.03937
T6F00S00C0.04331
T7F00S00C0.05118
T8F00S00C0.06496
%
T01
X048Y0004868
Y0012559
X0472Y0016559
Y0008559
X0368Y0008
Y003
Y004
X0347
X0343Y0048
X0338953Y0050953
Y0054953
X035Y0064
X0352Y0072
X0353Y0088
X0328
X0329Y0075
X0326Y0067
Y0033
X0352Y0024
X0341Y0012
X0343Y012
X0339Y0128
X0329Y0136
Y011
X0384897
X0401
Y013
X0384897
X0313Y0128
X0277Y0136
X0272
X0269Y0133
X0255Y0137
X0253Y012
X0243
X0228Y0123
X0213Y0128
X0198Y0136
X0168Y013
X018Y0098
X0185Y0094
X0192Y0074
X0195Y007
X0201
X01982Y0066
X0204Y0074
X0207Y0078
X021Y0082
X0213Y0086
Y0098
X0225Y0101
X0242Y0096
X0245Y0088
X0248Y008
X027
X0268Y0075
X0273Y0088
X0267Y0096
Y0104
X0277Y011
Y012
X0294Y0085
X0307Y0075
X03Y0053
X0304Y0047
Y0037
X0311953Y0032953
X0298Y0021
X0274Y0028
X0268
X0272Y0014
X0247Y00241
X0245Y0043
X0248Y0055
X0253Y0051
X0274Y0052
X0223Y0063
X0206Y0057
X0209921Y0039079
X0188Y0024
X0171
X0173459Y0004868
X0213Y0005
X0232Y0016
X0182Y0058
X016Y0068
X0159Y0074
X0147Y007
X0153Y0064
X0147Y0056
X0153Y0048
X015Y0044
X0156Y004
X016Y0036
X0133Y004
Y0052
X0123Y0045
X0132Y0016
X0084Y0032
X006Y0045
X0056
X0067Y0066
X0082Y0071
Y0075
X0093Y0088
X011Y0084
X0131Y0091
X0154Y0089
X016Y0111
X0144Y013
X0104Y0126
X011Y0156
X0113Y0168
X0104Y0167
X0128Y0176
X0131Y0184
X0152Y0192
X0148Y0159531
X016Y0147
Y0295843
X0132Y0275842
X0084Y0291843
X0171Y0283842
X0188
X0173459Y0264711
X0213Y0264843
X0232Y0275842
X0247Y0283943
X0268Y0287842
X0274
X0272Y0273843
X0298Y0280842
X0311953Y0292795
X0282Y0229
X0256Y0178
X024Y017
X025Y0158
X0254Y0156
X02472Y0153
X0252Y014
X0238
X0233Y0147
X0204Y0152
X0201Y0144
X0196Y0141
Y0148
X0186Y0141
X0207Y016
X021Y0168
X0213Y0176
X0219Y0182
X0222Y0185
X0212Y0188
X0193Y0176
X0168
X0274Y0141
X0307Y0147
X0313
X0341Y0271843
X0352Y0283842
X0368Y0289843
Y0267843
X0326Y0292843
X0472Y0276401
Y0268402
X04705Y0228559
X04775Y0224559
X048Y0264711
Y0272401
X0368Y0299843
X0347
X0343Y0307842
X0338953Y0310795
Y0314795
X035Y0323843
X0352Y0331842
X0353Y0347843
X0328
X0329Y0334842
X0326Y0326842
X0329Y0369843
X0343Y0379842
X0339Y0387842
X0329Y0395843
X0384897Y0389843
X0401
Y0369843
X0384897
X0313Y0387842
Y0406843
X0307
X0274Y0400843
X0272Y0395843
X0277
X0269Y0392843
X0255Y0396843
X0252Y0399843
X0238
X0233Y0406843
X02472Y0412843
X025Y0417842
X0254Y0415842
X0256Y0437843
X024Y0429843
X021Y0427843
X0207Y0419842
X0204Y0411842
X0201Y0403842
X0196Y0400843
Y0407842
X0198Y0395843
X0186Y0400843
X0168Y0389843
X018Y0357842
X0185Y0353842
X0192Y0333842
X0195Y0329842
X0201
X01982Y0325842
X0204Y0333842
X0207Y0337842
X021Y0341843
X0213Y0345843
Y0357842
X0225Y0360842
X0242Y0355842
X0245Y0347843
X0248Y0339843
X027
X0268Y0334842
X0273Y0347843
X0267Y0355842
Y0363843
X0277Y0369843
Y0379842
X0253
X0243
X0228Y0382842
X0213Y0387842
Y0435843
X0219Y0441843
X0222Y0444842
X0212Y0447843
X0193Y0435843
X0168
X0182Y0317843
X0206Y0316843
X0209921Y0298921
X0223Y0322843
X0248Y0314843
X0253Y0310842
X0245Y0302842
X0274Y0311842
X03Y0312842
X0304Y0306842
Y0296843
X0307Y0334842
X0294Y0344843
X0154Y0348843
X0159Y0333842
X016Y0327842
X0153Y0323843
X0147Y0329842
Y0315843
X0153Y0307842
X015Y0303842
X0156Y0299843
X0133
Y0311842
X0123Y0304842
X011Y0343843
X0093Y0347843
X0082Y0334842
Y0330842
X0067Y0325842
X006Y0304842
X0056
X0131Y0350842
X016Y0370843
X0144Y0389843
X016Y0406843
X0148Y0419374
X0152Y0451842
X0131Y0443843
X0128Y0435843
X0113Y0427843
X0104Y0426842
X011Y0415842
X0104Y0385842
X0132Y0535685
X0133Y0559685
Y0571685
X0123Y0564685
X015Y0563685
X0153Y0567685
X0156Y0559685
X016Y0555685
Y0587685
X0159Y0593685
X0147Y0589685
X0153Y0583685
X0147Y0575685
X0154Y0608685
X011Y0603685
X0093Y0607685
X0082Y0594685
Y0590685
X0067Y0585685
X006Y0564685
X0056
X0084Y0551685
X0171Y0543685
X0188
X0173459Y0524553
X0213Y0524685
X0232Y0535685
X0247Y0543785
X0245Y0562685
X0248Y0574685
X0253Y0570685
X0274Y0571685
Y0547685
X0268
X0272Y0533685
X0298Y0540685
X0304Y0556685
Y0566685
X03Y0572685
X0307Y0594685
X0294Y0604685
X0273Y0607685
X027Y0599685
X0268Y0594685
X0248Y0599685
X0245Y0607685
X0213Y0605685
X021Y0601685
X0207Y0597685
X0204Y0593685
X0201Y0589685
X0195
X0192Y0593685
X01982Y0585685
X0206Y0576685
X0209921Y0558764
X0223Y0582685
X0182Y0577685
X0311953Y0552638
X0282Y0488842
X0341Y0531685
X0352Y0543685
X0347Y0559685
X0343Y0567685
X0338953Y0570638
Y0574638
X035Y0583685
X0352Y0591685
X0353Y0607685
X0328
X0329Y0594685
X0326Y0586685
Y0552685
X0368Y0549685
Y0559685
Y0527685
X0472Y0528244
Y0536244
X04705Y0488402
X04775Y0484402
X048Y0524553
Y0532244
X0401Y0629685
X0384897
X0384897Y0649685
X0401
X0339Y0647685
X0343Y0639685
X0329Y0629685
Y0655685
X04705Y0748244
X04775Y0744244
X0282Y0748685
X0256Y0697685
X024Y0689685
X025Y0677685
X0254Y0675685
X02472Y0672685
X0252Y0659685
X0255Y0656685
X0272Y0655685
X0277
X0274Y0660685
X0269Y0652685
X0277Y0639685
Y0629685
X0267Y0623685
Y0615685
X0242
X0225Y0620685
X0213Y0617685
Y0647685
X0228Y0642685
X0243Y0639685
X0253
X0238Y0659685
X0233Y0666685
X0204Y0671685
X0201Y0663685
X0196Y0660685
Y0667685
X0198Y0655685
X0186Y0660685
X0168Y0649685
X018Y0617685
X0185Y0613685
X0207Y0679685
X021Y0687685
X0213Y0695685
X0219Y0701685
X0222Y0704685
X0212Y0707685
X0193Y0695685
X0168
X0307Y0666685
X0313
Y0647685
X016Y0630685
X0144Y0649685
X016Y0666685
X0148Y0679216
X0152Y0711685
X0131Y0703685
X0128Y0695685
X0113Y0687685
X0104Y0686685
X011Y0675685
X0104Y0645685
X0131Y0610685
T02
X0149598Y0083315
X0137Y0103
X0149598Y0122685
Y0343158
X0137Y0362842
X0149598Y0382528
Y0603
X0137Y0622685
X0149598Y064237
T03
X0324504Y0171008
X0334504
X0344504
X0354504
X0349504Y0181008
X0339504
X0329504
X0359504
X0354504Y043085
X0344504
X0334504
X0324504
X0329504Y044085
X0339504
X0349504
X0359504
X0354504Y0690693
X0344504
X0334504
X0324504
X0329504Y0700693
X0339504
X0349504
X0359504
T04
X0371Y0114
Y0124
Y0134
X012Y012
Y011
Y01
Y009
Y008
X0371Y0373843
Y0383842
Y0393843
X012Y0379842
Y0369843
Y0359842
Y0349843
Y0339843
Y0599685
X0371Y0633685
Y0643685
Y0653685
X012Y0639685
Y0629685
Y0619685
Y0609685
T06
X0315902Y0221992
X0325902
X0358106
X0368106
X0315902Y0481835
X0325902
X0358106
X0368106
Y0741677
X0358106
X0325902
X0315902
T07
X0023378Y0119921
X0047Y0112047
X0070622Y0119921
Y0167953
X0023378
X0027315Y022
X0047
X0066685
X0143701
X0163386
X021063
X0230315
X025
X0070622Y0379764
X0047Y037189
X0023378Y0379764
Y0427795
X0070622
X0066685Y0479843
X0047
X0027315
X0143701
X0163386
X021063
X0230315
X025
Y0739685
X0230315
X021063
X0163386
X0143701
X0066685
X0047
X0027315
X0023378Y0687638
X0070622
Y0639606
X0047Y0631732
X0023378Y0639606
T08
X0311Y0194
X0373008
X0311Y0453842
X0373008
Y0713685
X0311
M30
