G04*
G04 #@! TF.GenerationSoftware,Altium Limited,Altium Designer,22.11.1 (43)*
G04*
G04 Layer_Color=16711935*
%FSLAX44Y44*%
%MOMM*%
G71*
G04*
G04 #@! TF.SameCoordinates,B420DA26-4F65-45AB-BA35-ACA1F2937355*
G04*
G04*
G04 #@! TF.FilePolarity,Negative*
G04*
G01*
G75*
%ADD68R,2.0032X2.0032*%
%ADD69C,2.0032*%
%ADD70C,1.8032*%
%ADD71C,2.6782*%
%ADD72C,1.8532*%
%ADD73C,1.6812*%
%ADD74R,1.6812X1.6812*%
%ADD75C,3.4632*%
%ADD76C,2.6032*%
%ADD77R,2.6032X2.6032*%
%ADD78C,2.4032*%
%ADD79C,2.4032*%
%ADD80C,3.2032*%
%ADD81R,2.6032X2.6032*%
D68*
X457200Y406400D02*
D03*
D69*
Y304800D02*
D03*
Y330200D02*
D03*
Y355600D02*
D03*
Y381000D02*
D03*
X43180Y43180D02*
D03*
X500380Y246380D02*
D03*
Y144780D02*
D03*
X43180Y246380D02*
D03*
D70*
X583180Y311620D02*
D03*
Y211620D02*
D03*
X551180Y261620D02*
D03*
D71*
X1055840Y574050D02*
D03*
Y416550D02*
D03*
D72*
X1135840Y558550D02*
D03*
Y533150D02*
D03*
Y457450D02*
D03*
Y432050D02*
D03*
D73*
X1005840Y539750D02*
D03*
X1031240Y527050D02*
D03*
X1005840Y514350D02*
D03*
X1031240Y501650D02*
D03*
X1005840Y488950D02*
D03*
X1031240Y476250D02*
D03*
X1005840Y463550D02*
D03*
D74*
X1031240Y450850D02*
D03*
D75*
X1094740Y552450D02*
D03*
Y438150D02*
D03*
D76*
X756120Y558800D02*
D03*
X706120D02*
D03*
X594760D02*
D03*
X35635Y511340D02*
D03*
Y461340D02*
D03*
Y335680D02*
D03*
D77*
X806120Y558800D02*
D03*
X644760D02*
D03*
D78*
X244040Y450540D02*
D03*
D79*
Y570540D02*
D03*
D80*
X122040Y450540D02*
D03*
Y570540D02*
D03*
X264040Y510540D02*
D03*
D81*
X35635Y561340D02*
D03*
Y385680D02*
D03*
M02*
